<?xml version="1.0" encoding="UTF-8"?>
<svg width="48px" height="48px" viewBox="0 0 48 48" version="1.1" xmlns="http://www.w3.org/2000/svg" xmlns:xlink="http://www.w3.org/1999/xlink">
    <title>形状结合</title>
    <g id="页面-1" stroke="none" stroke-width="1" fill="none" fill-rule="evenodd">
        <g id="筛选top" transform="translate(-24.000000, -21.000000)" fill="#1B7CEF">
            <g id="资源-1" transform="translate(24.000000, 21.000000)">
                <path d="M44,0 C46.209139,-4.05812251e-16 48,1.790861 48,4 L48,44 C48,46.209139 46.209139,48 44,48 L4,48 C1.790861,48 2.705415e-16,46.209139 0,44 L0,4 C-2.705415e-16,1.790861 1.790861,4.05812251e-16 4,0 L44,0 Z M15.438853,17 L14.7850221,19.5255973 L9,19.5255973 L11.0554233,22 L13.748,22 L12.3333333,31.1666667 L26.6086018,31.1666667 L26.8048545,31.1572473 C28.6965426,31.0136919 30.4163185,29.3611987 30.6843641,27.3847568 C30.8513066,26.3739456 30.5510299,25.3404841 29.87339,24.5936285 C29.4298267,24.1230404 28.8553516,23.808264 28.2305501,23.6934552 C28.0200864,23.6528841 27.8064749,23.6324443 27.5924065,23.6323931 C27.4752202,23.6238572 27.3577452,23.6210119 27.2403665,23.6238572 L27.2403665,23.6238572 L27.0644187,23.6323931 L22.9810594,23.6599695 L23.3115266,21.1682425 L32.071,21.168 L30.6666667,31.1568257 L32.9155937,31.1666667 L34.1878875,22.1129743 L36.4082022,24.6421036 L38.3156891,24.6421036 L41.2665713,22.1129743 L39.9942775,31.1568257 L42.2432046,31.1568257 L44,18.6666667 L41.7949452,18.6666667 L37.7548879,21.9811053 L34.620887,18.6666667 L24.2744397,18.6666667 L24.0782301,18.6759897 C22.1873599,18.8177045 20.4797012,20.4425885 20.2024759,22.4190304 C19.9156911,24.4636254 21.3002348,26.1615453 23.2963327,26.1615453 C23.4632713,26.1733653 23.6307927,26.1733653 23.7977313,26.1615453 L23.7977313,26.1615453 L27.9228737,26.1615453 L27.6930661,27.3847568 L27.4689561,28.6316052 L15.347,28.631 L16.37,22 L19.8333333,22 L15.438853,17 Z M5.34518678,21.1666667 L4,31.1666667 L6.2808908,31.1666667 L7.33333333,23.3374645 L5.34518678,21.1666667 Z M8.16666667,19.5 L5.84027778,19.5 L5.66666667,20.724605 L7.69152047,22.8333333 L8.16666667,19.5 Z" id="形状结合"></path>
            </g>
        </g>
    </g>
</svg>