<?xml version="1.0" standalone="no"?>
<!DOCTYPE svg PUBLIC "-//W3C//DTD SVG 1.1//EN" "http://www.w3.org/Graphics/SVG/1.1/DTD/svg11.dtd" >
<svg xmlns="http://www.w3.org/2000/svg">
<metadata>Generated by IcoMoon</metadata>
<defs>
<font id="icomoon" horiz-adv-x="1024">
<font-face units-per-em="1024" ascent="960" descent="-64" />
<missing-glyph horiz-adv-x="1024" />
<glyph unicode="&#x20;" horiz-adv-x="512" d="" />
<glyph unicode="&#xe900;" glyph-name="radio" d="M972.8 448c0-254.493-206.307-460.8-460.8-460.8s-460.8 206.307-460.8 460.8c0 254.493 206.307 460.8 460.8 460.8s460.8-206.307 460.8-460.8z" />
<glyph unicode="&#xe901;" d="M1024 448c0-282.77-229.23-512-512-512s-512 229.23-512 512c0 282.77 229.23 512 512 512s512-229.23 512-512z" />
<glyph unicode="&#xe902;" d="M274.943 448l-47.388-47.419 189.63-189.618 379.259 379.248-47.38 47.419-331.88-332.128z" />
<glyph unicode="&#xe903;" d="M227.556 732.444h568.889v-568.889h-568.889v568.889z" />
<glyph unicode="&#xe904;" glyph-name="want" d="M944 916h-864c-19.882 0-36-16.118-36-36v-864c0-19.882 16.118-36 36-36h864c19.882 0 36 16.118 36 36v864c0 19.882-16.118 36-36 36zM908 52h-792v792h792v-792zM645.74 411.82h82.26v72h-288v-72zM296 448c0-19.882 16.118-36 36-36s36 16.118 36 36c0 19.882-16.118 36-36 36s-36-16.118-36-36zM645.74 591.82h82.26v72h-288v-72zM296 628c0-19.882 16.118-36 36-36s36 16.118 36 36c0 19.882-16.118 36-36 36s-36-16.118-36-36zM645.74 231.64h82.26v72h-288v-72zM296 267.82c0-19.882 16.118-36 36-36s36 16.118 36 36c0 19.882-16.118 36-36 36s-36-16.118-36-36z" />
<glyph unicode="&#xe905;" glyph-name="add" d="M944 916h-864c-19.882 0-36-16.118-36-36v-864c0-19.882 16.118-36 36-36h864c19.882 0 36 16.118 36 36v864c0 19.882-16.118 36-36 36zM908 52h-792v792h792v-792zM476 196h72v216h216v72h-216v216h-72v-216h-216v-72h216z" />
<glyph unicode="&#xe906;" d="M944 880h-108v-72h72v-108h-792v108h72v72h-108c-19.912 0-36-16.088-36-36v-828c0-19.912 16.088-36 36-36h864c19.912 0 36 16.088 36 36v828c0 19.912-16.088 36-36 36zM116 52v576h792v-576h-792zM404 880h216v-72h-216v72zM260 916h72v-144h-72v144zM692 916h72v-144h-72v144zM368 432.095h178.471v-0.975l-159.391-271.12h73.762l159.158 283.039v40.961h-252v-51.905z" />
<glyph unicode="&#xe907;" d="M-64 1024h1152v-1152h-1152v1152z" />
<glyph unicode="&#xe908;" d="M440 448v288h72v-288h288v-72h-360v72zM512 952c278.325 0 504-225.675 504-504s-225.675-504-504-504c-278.325 0-504 225.675-504 504s225.675 504 504 504zM512 880c-58.372 0-114.945-11.36-168.144-33.966-51.399-21.707-97.625-52.861-137.327-92.563s-70.857-85.928-92.563-137.327c-22.607-53.199-33.966-109.771-33.966-168.144s11.472-114.945 33.966-168.144c21.707-51.399 52.861-97.625 92.563-137.327s85.928-70.857 137.327-92.563c53.199-22.607 109.771-33.966 168.144-33.966s114.945 11.472 168.144 33.966c51.399 21.707 97.625 52.861 137.327 92.563s70.857 85.928 92.563 137.327c22.607 53.199 33.966 109.771 33.966 168.144s-11.472 114.945-33.966 168.144c-21.707 51.399-52.861 97.625-92.563 137.327s-85.928 70.857-137.327 92.563c-53.199 22.607-109.771 33.966-168.144 33.966z" />
<glyph unicode="&#xe909;" d="M-64 1024h1152v-1152h-1152v1152z" />
<glyph unicode="&#xe90a;" glyph-name="search" d="M998.645 7.16l-213.294 213.294c64.796 76.198 100.009 171.731 100.009 272.751 0 112.709-43.872 218.634-123.532 298.295-79.66 79.66-185.587 123.532-298.295 123.532s-218.634-43.872-298.295-123.532c-79.66-79.66-123.532-185.587-123.532-298.295s43.872-218.634 123.532-298.295c79.66-79.66 185.587-123.532 298.295-123.532 101.020 0 196.699 35.356 272.751 100.009l213.294-213.294c6.781-6.781 15.586-10.103 24.532-10.103s17.751 3.319 24.532 10.103c13.565 13.565 13.565 35.501 0 49.067h0.002zM214.306 243.832c-137.53 137.53-137.53 361.216 0 498.601 66.528 66.528 155.136 103.328 249.372 103.328s182.701-36.655 249.372-103.328c137.53-137.53 137.53-361.216 0-498.601-137.674-137.386-361.358-137.386-498.745 0z" />
<glyph unicode="&#xe90b;" glyph-name="direct-bottom" d="M1003.154 629.101l-456.397-473.343c-19.212-19.944-50.251-19.944-69.513 0l-456.397 473.343c-27.795 28.791-27.795 75.635 0 104.477 27.795 28.791 72.906 28.791 100.701 0l390.478-404.919 390.378 404.919c27.845 28.791 72.956 28.791 100.751 0 27.795-28.842 27.795-75.686 0-104.477z" />
<glyph unicode="&#xe90c;" glyph-name="direct-right" d="M339.523-19.269l450.803 445.531c18.994 18.755 18.994 49.054 0 67.857l-450.803 445.531c-27.42 27.133-72.033 27.133-99.502 0-27.42-27.133-27.42-71.17 0-98.303l385.637-381.181-385.637-381.083c-27.42-27.182-27.42-71.219 0-98.352 27.469-27.133 72.082-27.133 99.502 0z" />
<glyph unicode="&#xe90d;" glyph-name="file-info" horiz-adv-x="1161" d="M1038.301 73.283c0-38.547-30.624-69.657-68.297-69.657h-853.349l119.459 562.954c0 38.423 30.381 69.657 68.176 69.657h785.295c37.673 0 68.176-31.234 68.176-69.657l-119.459-493.298zM253.128 688.542h768.038v68.417c0 38.423-30.624 69.657-68.297 69.657h-409.539v63.088c0 38.423-30.624 69.657-68.297 69.657h-341.242c-37.673 0-68.297-31.234-68.297-69.657v-816.296l119.338 545.602c0 38.299 30.624 69.533 68.297 69.533z" />
<glyph unicode="&#xe90e;" glyph-name="history" d="M976.4 644.2l-64.8-34.2c21.6-52.2 32.4-106.2 32.4-162 0-239.4-192.6-433.8-432-433.8s-433.8 192.6-433.8 432c0 239.4 192.6 433.8 432 433.8 102.6 0 203.4-36 280.8-102.6h-86.4v-72h203.4v201.6h-72v-73.8c-212.4 180-531 151.2-709.2-61.2s-151.2-531 61.2-711c212.4-180 531-151.2 709.2 63 122.4 144 153 345.6 79.2 520.2zM512 448v288h-72v-324l199.8-153 43.2 57.6z" />
<glyph unicode="&#xe90f;" glyph-name="organization" d="M960 192c-17.673 0-32 14.327-32 32v224c0 17.673-14.327 32-32 32h-320c-17.673 0-32 14.327-32 32v108.16c0 17.673 14.327 32 32 32h58.24c17.673 0 32 14.327 32 32v243.84c0 17.673-14.327 32-32 32h-244.48c-17.673 0-32-14.327-32-32v-243.84c0-17.673 14.327-32 32-32h58.24c17.673 0 32-14.327 32-32v-108.16c0-17.673-14.327-32-32-32h-320c-17.673 0-32-14.327-32-32v-223.36c0.172-8.597-3.123-16.902-9.143-23.042s-14.258-9.599-22.857-9.598h-32c-17.673 0-32-14.327-32-32v-192c0-17.673 14.327-32 32-32h192c17.673 0 32 14.327 32 32v192c0 17.673-14.327 32-32 32h-32c-17.673 0-32 14.327-32 32v160c0 17.673 14.327 32 32 32h256c17.673 0 32-14.327 32-32v-159.36c0.172-8.597-3.123-16.902-9.143-23.042s-14.258-9.599-22.857-9.598h-32.64c-17.673 0-32-14.327-32-32v-192c0-17.673 14.327-32 32-32h192c17.673 0 32 14.327 32 32v192c0 17.673-14.327 32-32 32h-31.36c-17.673 0-32 14.327-32 32v160c0 17.673 14.327 32 32 32h256c17.673 0 32-14.327 32-32v-159.36c0-17.673-14.327-32-32-32h-32c-17.673 0-32-14.327-32-32v-192c0-17.673 14.327-32 32-32h192c17.673 0 32 14.327 32 32v192c0 17.673-14.327 32-32 32l-32-0.64z" />
<glyph unicode="&#xe910;" glyph-name="ticket-handle" d="M376.765 237.348c0 194.418 160.298 352.066 357.984 352.066 31.827 0.022 63.513-4.169 94.204-12.46v308.931c-0.075 40.902-33.771 74.041-75.36 74.115h-678.281c-41.567-0.108-75.229-33.235-75.311-74.115v-778.235c0.075-40.904 33.769-74.046 75.36-74.127h367.548c-43.112 59.497-66.222 130.766-66.094 203.825h-0.050zM188.358 811.771h452.138c13.464 0 25.905-7.064 32.637-18.532s6.732-25.596 0-37.063c-6.732-11.467-19.173-18.532-32.637-18.532h-452.138c-20.814 0-37.686 16.594-37.686 37.063s16.873 37.063 37.686 37.063v0zM188.358 589.439h150.746c20.814 0 37.686-16.594 37.686-37.063s-16.873-37.063-37.686-37.063h-150.746c-20.814 0-37.686 16.594-37.686 37.063s16.873 37.063 37.686 37.063zM263.718 292.968h-75.36c-13.625-0.243-26.322 6.766-33.207 18.332s-6.885 25.886 0 37.451c6.885 11.566 19.582 18.575 33.207 18.332h75.36c13.625 0.243 26.322-6.766 33.207-18.332s6.885-25.886 0-37.451c-6.885-11.566-19.582-18.575-33.207-18.332v0zM755.833 472.381c-148.14 0-268.214-120.064-268.214-268.19s120.074-268.19 268.214-268.19c148.14 0 268.167 120.064 268.167 268.19s-120.027 268.19-268.167 268.19zM909.145 251.846l-153.336-153.322c-0.603-0.773-1.252-1.509-1.944-2.203-10.141-10.075-26.514-10.075-36.655 0l-96.615 96.607c-10.088 10.135-10.088 26.517 0 36.652 10.136 10.087 26.519 10.087 36.655 0l78.188-78.181 137.053 137.099c10.136 10.087 26.519 10.087 36.655 0 10.088-10.135 10.088-26.517 0-36.652v0z" />
<glyph unicode="&#xe911;" glyph-name="basic-info" horiz-adv-x="853" d="M723.563 732.444h129.771l-227.556 227.556v-131.134c0-50.139 49.349-96.422 97.785-96.422zM721.413 671.735c-80.259 0-164.209 80.074-164.209 160.147v128.118h-468.641c-48.894 0-88.562-39.566-88.562-87.61v-848.78c0-48.986 39.668-87.61 88.562-87.61h676.209c48.894 0 88.562 39.566 88.562 87.61v648.125h-131.921zM144 675.556h224c16.889 0 30.222-12.549 30.222-28.444s-13.333-28.444-30.222-28.444h-224c-16.889 0-30.222 12.549-30.222 28.444s13.333 28.444 30.222 28.444v0zM651.556 49.778h-507.556c-16.889 0-30.222 12.549-30.222 28.444s13.333 28.444 30.222 28.444h508.444c16.889 0 30.222-12.549 30.222-28.444s-14.222-28.444-31.111-28.444zM651.556 277.333h-507.556c-16.889 0-30.222 12.549-30.222 28.444s13.333 28.444 30.222 28.444h508.444c16.889 0 30.222-12.549 30.222-28.444-0.889-15.895-14.222-28.444-31.111-28.444zM651.556 448h-507.556c-16.889 0-30.222 12.549-30.222 28.444s13.333 28.444 30.222 28.444h508.444c16.889 0 30.222-12.549 30.222-28.444-0.889-15.895-14.222-28.444-31.111-28.444z" />
<glyph unicode="&#xe912;" glyph-name="clean-out" horiz-adv-x="973" d="M950.044 573.156h-375.467v375.467h-187.733v-375.467h-375.467v-187.733h62.578v-438.044h813.511v438.044h62.578v187.733zM824.889 9.956h-125.156v187.733h-62.578v-187.733h-125.156v187.733h-62.578v-187.733h-125.156v187.733h-62.578v-187.733h-125.156v375.467h688.356v-375.467zM893.724 441.742l-819.769 6.258v-6.258h-6.258v75.093h375.467v375.467h68.836v-375.467h381.724v-75.093z" />
<glyph unicode="&#xe913;" glyph-name="check" d="M823.168 712.832l-439.168-439.168-183.168 183.168c-16.683 16.683-43.691 16.683-60.331 0s-16.683-43.691 0-60.331l213.333-213.333c16.683-16.683 43.691-16.683 60.331 0l469.333 469.333c16.683 16.683 16.683 43.691 0 60.331s-43.691 16.683-60.331 0z" />
<glyph unicode="&#xe914;" glyph-name="indeterminate_check_box" d="M726 384.667v84h-428v-84h428zM810 810.667q34 0 60-26t26-60v-596q0-34-26-60t-60-26h-596q-34 0-60 26t-26 60v596q0 34 26 60t60 26h596z" />
<glyph unicode="&#xe915;" glyph-name="folder-open" d="M832 0l192 512h-832l-192-512zM128 576l-128-576v832h288l128-128h416v-128z" />
<glyph unicode="&#xe916;" glyph-name="folder" d="M448 832l128-128h448v-704h-1024v832z" />
<glyph unicode="&#xe977;" glyph-name="check-1" d="M416 96c-8.784 0.129-16.691 3.778-22.395 9.595l-384.005 384.005c-5.815 5.815-9.411 13.847-9.411 22.72 0 17.745 14.386 32.131 32.131 32.131 8.873 0 16.905-3.596 22.72-9.411l360.32-360.32 553.6 615.040c5.768 5.662 13.681 9.157 22.409 9.157 17.673 0 32-14.327 32-32 0-7.612-2.658-14.604-7.097-20.097l-575.953-639.939c-5.676-6.446-13.847-10.579-22.988-10.879z" />
<glyph unicode="&#xe978;" glyph-name="check-circle" d="M512-64c-282.24 0-512 229.76-512 512s229.76 512 512 512 512-229.76 512-512-229.76-512-512-512zM512 896c-247.040 0-448-200.96-448-448s200.96-448 448-448c247.040 0 448 200.96 448 448s-200.96 448-448 448zM438.4 201.6l384 384c12.8 12.8 12.8 32.64 0 45.44s-32.64 12.8-45.44 0l-360.96-361.6-169.6 168.96c-12.8 12.8-32.64 12.8-45.44 0s-12.8-32.64 0-45.44l192-192c6.4-5.76 14.72-8.96 23.040-8.96s16.64 3.2 22.4 9.6z" />
<glyph unicode="&#xe97c;" glyph-name="close" d="M992-64c-8.32 0-16.64 3.2-22.4 9.6l-457.6 456.96-457.6-457.6c-12.8-12.8-32.64-12.8-45.44 0s-12.8 32.64 0 45.44l457.6 457.6-456.96 457.6c-12.8 12.8-12.8 32.64 0 45.44s32.64 12.8 45.44 0l456.96-457.6 457.6 457.6c12.8 12.8 32.64 12.8 45.44 0s12.8-32.64 0-45.44l-457.6-457.6 457.6-457.6c12.8-12.8 12.8-32.64 0-45.44-6.4-5.76-14.72-8.96-23.040-8.96z" />
<glyph unicode="&#xe97d;" glyph-name="close-circle" d="M512-64c-282.24 0-512 229.76-512 512s229.76 512 512 512 512-229.76 512-512-229.76-512-512-512zM512 896c-247.040 0-448-200.96-448-448s200.96-448 448-448c247.040 0 448 200.96 448 448s-200.96 448-448 448zM736 192c-8.32 0-16.64 3.2-22.4 9.6l-201.6 200.96-201.6-201.6c-12.8-12.8-32.64-12.8-45.44 0s-12.8 32.64 0 45.44l201.6 201.6-200.96 201.6c-12.8 12.8-12.8 32.64 0 45.44s32.64 12.8 45.44 0l200.96-201.6 201.6 201.6c12.8 12.8 32.64 12.8 45.44 0s12.8-32.64 0-45.44l-201.6-201.6 201.6-201.6c12.8-12.8 12.8-32.64 0-45.44-6.4-5.76-14.72-8.96-23.040-8.96z" />
<glyph unicode="&#xe98a;" glyph-name="download" d="M992 352c-17.673 0-32-14.327-32-32v-256c0-17.673-14.327-32-32-32h-832c-17.673 0-32 14.327-32 32v256c0 17.673-14.327 32-32 32s-32-14.327-32-32v-256c0-53.019 42.981-96 96-96h832c53.019 0 96 42.981 96 96v256c0 17.673-14.327 32-32 32zM492.16 167.040v0c4.964-3.946 11.324-6.331 18.24-6.331s13.276 2.385 18.3 6.378l-0.060-0.046 160 128c8.662 5.818 14.286 15.577 14.286 26.65 0 17.673-14.327 32-32 32-8.512 0-16.248-3.324-21.981-8.744l-104.945-86.386v637.44c0 17.673-14.327 32-32 32s-32-14.327-32-32v-640l-108.16 88.96c-4.98 3.352-11.114 5.35-17.714 5.35-17.673 0-32-14.327-32-32 0-9.161 3.85-17.423 10.019-23.256z" />
<glyph unicode="&#xe9a8;" glyph-name="minus" d="M922.88 416h-821.76c-20.48 0-37.12 14.080-37.12 32s16.64 32 37.12 32h821.12c21.12 0 37.76-14.080 37.76-32s-16.64-32-37.12-32z" />
<glyph unicode="&#xe9a9;" glyph-name="minus-circle" d="M512-64c-282.24 0-512 229.76-512 512s229.76 512 512 512 512-229.76 512-512-229.76-512-512-512zM512 896c-247.040 0-448-200.96-448-448s200.96-448 448-448c247.040 0 448 200.96 448 448s-200.96 448-448 448zM768 448c0 17.92-14.080 32-32 32h-448c-17.92 0-32-14.080-32-32s14.080-32 32-32h448c17.92 0 32 14.080 32 32z" />
</font>
</defs>
</svg>
