<?xml version="1.0" encoding="UTF-8"?>
<svg width="16px" height="16px" viewBox="0 0 16 16" version="1.1" xmlns="http://www.w3.org/2000/svg" xmlns:xlink="http://www.w3.org/1999/xlink">
    <!-- Generator: Sketch 55.2 (78181) - https://sketchapp.com -->
    <title>形状</title>
    <desc>Created with Sketch.</desc>
    <g id="页面1" stroke="none" stroke-width="1" fill="none" fill-rule="evenodd">
        <g id="数据较少的状态" transform="translate(-525.000000, -135.000000)" fill="#FFFFFF" fill-rule="nonzero">
            <g id="加载" transform="translate(525.000000, 135.000000)">
                <path d="M12.0759363,3.46369587 C12.0759363,3.93271637 12.4561525,4.31293261 12.925173,4.31293261 C13.3941935,4.31293261 13.7744098,3.93271637 13.7744098,3.46369587 C13.7744098,2.99467538 13.3941935,2.61445914 12.925173,2.61445914 C12.4561525,2.61445914 12.0759363,2.99467538 12.0759363,3.46369587 L12.0759363,3.46369587 Z M13.6534117,8.05312417 C13.6533659,8.42765246 13.8531481,8.77375043 14.1774915,8.96102777 C14.5018349,9.14830511 14.9014557,9.14830511 15.225799,8.96102777 C15.5501424,8.77375043 15.7499246,8.42765246 15.7498789,8.05312417 C15.7499246,7.67859589 15.5501424,7.33249792 15.225799,7.14522058 C14.9014557,6.95794323 14.5018349,6.95794323 14.1774915,7.14522058 C13.8531481,7.33249792 13.6533659,7.67859589 13.6534117,8.05312417 L13.6534117,8.05312417 Z M11.7309417,12.6655521 C11.7309417,13.3470608 12.2834137,13.8995328 12.9649224,13.8995328 C13.6464312,13.8995328 14.1989031,13.3470608 14.1989031,12.6655521 C14.1989031,12.2246932 13.9637078,11.8173228 13.5819128,11.5968934 C13.2001178,11.376464 12.729727,11.376464 12.347932,11.5968934 C11.9661371,11.8173228 11.7309417,12.2246932 11.7309417,12.6655521 L11.7309417,12.6655521 Z M6.92726677,14.5100233 C6.92721337,15.0207621 7.19965859,15.492727 7.64196245,15.7481118 C8.08426631,16.0034966 8.62922255,16.0034966 9.07152641,15.7481118 C9.51383027,15.492727 9.78627549,15.0207621 9.78622209,14.5100233 C9.78627549,13.9992845 9.51383027,13.5273196 9.07152641,13.2719348 C8.62922255,13.01655 8.08426631,13.01655 7.64196245,13.2719348 C7.19965859,13.5273196 6.92721337,13.9992845 6.92726677,14.5100233 L6.92726677,14.5100233 Z M2.21684036,12.5930532 C2.21684036,13.1619005 2.52031674,13.687537 3.01295292,13.9719607 C3.50558909,14.2563843 4.11254188,14.2563843 4.60517805,13.9719607 C5.09781423,13.687537 5.40129061,13.1619005 5.40129061,12.5930532 C5.40129061,11.7136916 4.68842714,11.0008281 3.80906548,11.0008281 C2.92970383,11.0008281 2.21684036,11.7136916 2.21684036,12.5930532 Z M6.69952031,1.68547367 C6.69952031,2.61619701 7.45402065,3.37069734 8.38474398,3.37069734 C9.31546732,3.37069734 10.0699677,2.61619701 10.0699677,1.68547367 C10.0699677,1.08340123 9.74876585,0.527063354 9.22735583,0.226027131 C8.70594581,-0.0750090911 8.06354216,-0.0750090911 7.54213214,0.226027131 C7.02072211,0.527063354 6.69952031,1.08340123 6.69952031,1.68547367 Z M2.12384181,3.50344527 C2.12384181,4.1055177 2.44504362,4.66185558 2.96645364,4.9628918 C3.48786366,5.26392802 4.13026731,5.26392802 4.65167733,4.9628918 C5.17308735,4.66185558 5.49428916,4.1055177 5.49428916,3.50344527 C5.49428916,2.57272193 4.73978882,1.81822159 3.80906548,1.81822159 C2.87834215,1.81822159 2.12384181,2.57272193 2.12384181,3.50344527 L2.12384181,3.50344527 Z M0.416618484,8.000125 C0.416618484,8.57379526 0.722667914,9.10388845 1.21948093,9.39072359 C1.71629396,9.67755872 2.32839284,9.67755872 2.82520586,9.39072359 C3.32201888,9.10388845 3.62806831,8.57379526 3.62806831,8.000125 C3.62806831,7.11330762 2.90916078,6.39440009 2.0223434,6.39440009 C1.13552602,6.39440009 0.416618484,7.11330762 0.416618484,8.000125 L0.416618484,8.000125 Z" id="形状"></path>
            </g>
        </g>
    </g>
</svg>