<svg viewBox="0 0 64 64" version="1.1" xmlns="http://www.w3.org/2000/svg"><path fill="#fa6502" d="M41.41,44.23a.67.67,0,0,0,0,1l.1.1a8.91,8.91,0,0,1,3,5.7,3.28,3.28,0,0,0,4,2.2,3.17,3.17,0,0,0,2.3-3.8,3.23,3.23,0,0,0-2.8-2.3,9.37,9.37,0,0,1-5.5-3,.9.9,0,0,0-1.1.1Z"/><path fill="#0282ee" d="M54.51,39.33a3.2,3.2,0,0,0-1,1.9,9.74,9.74,0,0,1-3,5.3.67.67,0,0,0,0,1,.78.78,0,0,0,1.1,0l.1-.1a9.24,9.24,0,0,1,5.9-2.9,3.17,3.17,0,0,0,2.3-3.8,3.28,3.28,0,0,0-4-2.2,2,2,0,0,0-1.4.8Z"/><path fill="#2ebc00" d="M45.41,30.53a2.86,2.86,0,0,0,0,4.3,3.38,3.38,0,0,0,1.9.9,9.82,9.82,0,0,1,5.5,2.9.78.78,0,0,0,1.1,0,.67.67,0,0,0,0-1l-.1-.1a8.91,8.91,0,0,1-3-5.7,3.28,3.28,0,0,0-4-2.2,4.83,4.83,0,0,0-1.4.9Z"/><path fill="#fecc01" d="M43.71,35.33h0a9.74,9.74,0,0,1-6.1,3.1,3.07,3.07,0,0,0-2.3,3.7,2.43,2.43,0,0,0,.9,1.4,3.26,3.26,0,0,0,4.5,0,3.2,3.2,0,0,0,1-1.9,9.31,9.31,0,0,1,3.1-5.3.77.77,0,0,0,.1-1,1.27,1.27,0,0,0-1.2,0Z"/><path fill="#0282ee" d="M24.21,8.73a24.36,24.36,0,0,0-14.8,6.6,19.75,19.75,0,0,0-3.7,4.9,16.93,16.93,0,0,0,1.4,17.2,44.41,44.41,0,0,0,4.2,4.7l-.6,5.3-.1.2v.5a1.85,1.85,0,0,0,1.9,1.6,3.09,3.09,0,0,0,.8-.2h0l.1-.1,1.6-.8,5-2.4a29.59,29.59,0,0,0,7.2.9,30.08,30.08,0,0,0,8.9-1.4,3,3,0,0,1-2.2-3.2,21.76,21.76,0,0,1-9.2.8l-.5-.1a17.51,17.51,0,0,1-3.3-.6,2.06,2.06,0,0,0-1.7.2l-.1-.1L15,44.93l-.2.2c-.1.1-.1.1-.2.1s-.2-.1-.2-.3l.1-.6.2-.6.3-1.1.3-1.2a1.76,1.76,0,0,0-.6-1.9,17.73,17.73,0,0,1-4.1-4.1,12.92,12.92,0,0,1-1-13.5,18,18,0,0,1,2.9-3.9,20,20,0,0,1,12.3-5.5,21.73,21.73,0,0,1,5.1,0A19.21,19.21,0,0,1,42,18a13.68,13.68,0,0,1,2.9,3.9,12.22,12.22,0,0,1,1.4,5.9v.6a3.64,3.64,0,0,1,4,.4l.1.2a16.75,16.75,0,0,0-1.7-8.8,24.74,24.74,0,0,0-3.6-4.9,24.68,24.68,0,0,0-14.8-6.7A24.91,24.91,0,0,0,24.21,8.73Z"/></svg>