<?xml version="1.0" standalone="no"?>
  <!DOCTYPE svg PUBLIC "-//W3C//DTD SVG 1.1//EN" "http://www.w3.org/Graphics/SVG/1.1/DTD/svg11.dtd" >
  <svg>
  <metadata>
  Created by font-carrier
  </metadata>
  <defs>
  <font id="iconfont" horiz-adv-x="1024" vert-adv-y="1024" >
    <font-face
      
      font-family="iconfont"
      
      font-weight="400"
      
      font-stretch="normal"
      
      units-per-em="1024"
      
      ascent="812"
      
      descent="-212"
      
    />
      <missing-glyph />

      
      <glyph glyph-name="x" unicode="&#x78;" horiz-adv-x="100"
        d="M20 20 L50 20 L50 -20 Z" />
      

      
      <glyph glyph-name="uniE123" unicode="&#xE123;" d="M512 684C563.9 684 614.2 673.9 661.5 653.8 707.2 634.5 748.3 606.8 783.6 571.5S846.6 495.1 865.9 449.4C885.9 402.1 896.1 351.8 896.1 299.9S886 197.7 865.9 150.4C846.6 104.7 818.9 63.6 783.6 28.3S707.2-34.7 661.5-54C614.2-74 563.9-84.2 512-84.2S409.8-74.1 362.5-54C316.8-34.7 275.7-7 240.4 28.3S177.4 104.7 158.1 150.4C138.1 197.7 127.9 248 127.9 299.9S138 402.1 158.1 449.4C177.4 495.1 205.1 536.2 240.4 571.5S316.8 634.5 362.5 653.8C409.8 673.9 460.1 684 512 684M512 748C264.6 748 64 547.4 64 300S264.6-148 512-148 960 52.6 960 300 759.4 748 512 748L512 748ZM528 316L528 556 448 556 448 316 448 236 528 236 768 236 768 316Z"  horiz-adv-x="1024" vert-adv-y="1024"  />

      
      <glyph glyph-name="uniE104" unicode="&#xE104;" d="M512 748C264 748 64 548 64 300S264-148 512-148 960 52 960 300 760 748 512 748ZM512-84C299.2-84 128 87.2 128 300S299.2 684 512 684 896 512.8 896 300 724.8-84 512-84ZM494.4 408.8C465.6 402.4 438.4 388 417.6 367.2 393.6 344.8 419.2 322.4 433.6 340 443.2 352.8 457.6 362.4 473.6 368.8 484.8 370.4 491.2 367.2 492.8 359.2 494.4 344.8 492.8 332 488 317.6 483.2 298.4 473.6 266.4 462.4 223.2 440 146.4 428.8 98.4 432 82.4 435.2 64.8 444.8 50.4 460.8 40.8 478.4 32.8 499.2 31.2 518.4 36 548.8 42.4 576 58.4 598.4 80.8 624 106.4 595.2 124 580.8 109.6 571.2 96.8 556.8 87.2 540.8 84 526.4 80.8 518.4 87.2 515.2 100 513.6 114.4 516.8 128.8 521.6 141.6 561.6 277.6 579.2 354.4 574.4 373.6 571.2 388 561.6 400.8 548.8 407.2 532.8 413.6 512 413.6 494.4 408.8ZM560 508M512 508A48 48 0 1 1 608 508 48 48 0 1 1 512 508Z"  horiz-adv-x="1024" vert-adv-y="1024"  />

      
      <glyph glyph-name="uniE102" unicode="&#xE102;" d="M736 140L688 92 512 268 336 92 288 140 512 364ZM736 332L688 284 512 460 336 284 288 332 512 556Z"  horiz-adv-x="1024" vert-adv-y="1024"  />

      
      <glyph glyph-name="uniE103" unicode="&#xE103;" d="M288 460L336 508 512 332 688 508 736 460 512 236ZM288 268L336 316 512 140 688 316 736 268 512 44Z"  horiz-adv-x="1024" vert-adv-y="1024"  />

      
      <glyph glyph-name="uniE115" unicode="&#xE115;" d="M202.24 390.88C204.032 447.1147 250.0267 492 306.5173 492 306.9867 492 307.456 492 307.9253 492L876.16 492C876.3307 492 876.544 492 876.7573 492 883.84 492 889.5573 497.7173 889.5573 504.8 889.5573 506.1653 889.344 507.488 888.9173 508.7253 867.712 573.7493 807.5093 620 736.512 620 736.3413 620 736.128 620 735.9573 620H448V652C448 705.0347 405.0347 748 352 748H96C42.9653 748 0 705.0347 0 652V12C0 11.0187-0.0427 9.9093-0.0427 8.7573-0.0427-68.2987 54.4-132.64 126.9333-147.8293 127.8293-145.9093 127.744-143.4347 127.744-140.96S127.8293-136.0107 128-133.5787ZM960 428H307.84C284.8853 428 266.24 409.3547 266.24 386.4L192-135.2C191.5733-137.12 191.36-139.3387 191.36-141.6S191.616-146.08 192.0427-148.2133L896-148C931.328-148 960-119.328 960-84L1024 364C1024 399.328 995.328 428 960 428Z"  horiz-adv-x="1024" vert-adv-y="1024"  />

      
      <glyph glyph-name="uniE114" unicode="&#xE114;" d="M864 620H448V652C448 705.0347 405.0347 748 352 748H96C42.9653 748 0 705.0347 0 652V12C0-76.3627 71.6373-148 160-148H864C952.3627-148 1024-76.3627 1024 12V460C1024 548.3627 952.3627 620 864 620Z"  horiz-adv-x="1024" vert-adv-y="1024"  />

      
      <glyph glyph-name="uniE121" unicode="&#xE121;" d="M512 748L650.4 452.96 959.84 405.76 735.84 176.16 788.8-148.16 512 4.96 235.04-148.16 288 176.16 64 405.76 373.44 452.96 512 748Z"  horiz-adv-x="1024" vert-adv-y="1024"  />

      
      <glyph glyph-name="uniE106" unicode="&#xE106;" d="M512 597.44L587.52 436.32A64 64 0 0 1 635.52 400.32L811.52 373.6 682.56 241.28A64 64 0 0 1 665.12 186.24L694.88 3.84 543.36 87.68A65.44 65.44 0 0 1 481.28 87.68L329.76 3.84 359.52 186.24A64 64 0 0 1 342.08 241.28L212.8 373.6 388.8 400.32A64 64 0 0 1 436.8 436.32L512 597.44M512 748L378.56 463.52 80 417.92 296 196.64 244.96-116 512 31.52 779.04-116 728 196.64 944 417.92 645.44 463.52 512 748Z"  horiz-adv-x="1024" vert-adv-y="1024"  />

      
      <glyph glyph-name="uniE107" unicode="&#xE107;" d="M864 684H288C270.4 684 256 669.6 256 652V556H160C142.4 556 128 541.6 128 524V-52C128-69.6 142.4-84 160-84H736C753.6-84 768-69.6 768-52V44H864C881.6 44 896 58.4 896 76V652C896 669.6 881.6 684 864 684ZM704 108V44-20H192V492H256 320 704V108ZM832 108H768V524C768 541.6 753.6 556 736 556H320V620H832V108ZM275.2 392.8H611.2V328.8H275.2ZM272 268H608V204H272ZM272 140H608V76H272Z"  horiz-adv-x="1024" vert-adv-y="1024"  />

      
      <glyph glyph-name="uniE10E" unicode="&#xE10E;" d="M512 684A384 384 0 1 1 896 300 384 384 0 0 1 512 684ZM512-20A320 320 0 1 0 832 300 320 320 0 0 0 512-20ZM560 476H464V521.76L346.24 441.76 464 366.24V412H560C571.52 412 672 408.8 672 300 672 206.24 570.08 198.24 560 197.76H374.88V133.76H561.44C621.76 136.32 736 174.56 736 300 736 439.2 620.8 476 560 476Z"  horiz-adv-x="1024" vert-adv-y="1024"  />

      
      <glyph glyph-name="uniE10D" unicode="&#xE10D;" d="M757.92 440.8A32 32 0 0 1 708.8 399.84 256 256 0 1 0 480 489.76V260A32 32 0 0 1 544 260V489.76A252 252 0 0 0 616.16 469.92 32 32 0 0 1 642.24 528.32 314.56 314.56 0 0 1 544 554.4V612H640A32 32 0 0 1 640 676H384A32 32 0 0 1 384 612H480V554.4A320 320 0 1 1 757.92 440.8Z"  horiz-adv-x="1024" vert-adv-y="1024"  />

      
      <glyph glyph-name="uniE10F" unicode="&#xE10F;" d="M864 280A361.6 361.6 0 0 1 801.44 483.84 120 120 0 1 1 612.96 625.92 362.08 362.08 0 0 1 407.52 632 119.68 119.68 0 1 1 209.28 498.72 363.2 363.2 0 0 1 232.32 33.6L153.44-45.44 198.56-90.56 279.68-9.6A363.36 363.36 0 0 1 706.4-20L777.44-90.88 822.56-45.76 755.84 21.12A362.4 362.4 0 0 1 864 280ZM720 628A55.84 55.84 0 0 0 760.64 533.76 369.28 369.28 0 0 1 672 600.64 55.84 55.84 0 0 0 720 628ZM304 628A56.32 56.32 0 0 0 345.6 609.6 370.08 370.08 0 0 1 253.76 547.84 54.24 54.24 0 0 0 248 572 56 56 0 0 0 304 628ZM200 280A300 300 0 1 0 500-20 300.32 300.32 0 0 0 200 280ZM544 492L480 492 480 220 672 220 672 284 544 284 544 492Z"  horiz-adv-x="1024" vert-adv-y="1024"  />

      
      <glyph glyph-name="uniE110" unicode="&#xE110;" d="M773.12 620H672V652A32 32 0 0 1 608 652V620H416V652A32 32 0 0 1 352 652V620H250.88A91.04 91.04 0 0 1 160 529.12V70.88A91.04 91.04 0 0 1 250.88-20H773.12A91.04 91.04 0 0 1 864 70.88V529.12A91.04 91.04 0 0 1 773.12 620ZM800 70.88A27.04 27.04 0 0 0 773.12 44H250.88A27.04 27.04 0 0 0 224 70.88V529.12A27.04 27.04 0 0 0 250.88 556H773.12A27.04 27.04 0 0 0 800 529.12ZM682.24 419.52L496.96 248.32 390.56 354.56A32 32 0 0 1 345.44 309.44L455.52 199.36A57.6 57.6 0 0 1 496.8 182.08 58.72 58.72 0 0 1 536.32 198.08L725.76 372.48A32 32 0 1 1 682.24 419.52Z"  horiz-adv-x="1024" vert-adv-y="1024"  />

      
      <glyph glyph-name="uniE111" unicode="&#xE111;" d="M387.68 44H263.52A23.68 23.68 0 0 0 240 67.84V595.84A23.68 23.68 0 0 0 263.52 620H696.48A23.68 23.68 0 0 0 720 596.16V447.68A32 32 0 0 1 784 447.68V596.16A87.84 87.84 0 0 1 696.48 684H263.52A87.84 87.84 0 0 1 176 596.16V68.16A87.84 87.84 0 0 1 263.52-20H387.68A32 32 0 1 1 387.68 44ZM640 524A32 32 0 0 1 608 556H320A32 32 0 0 1 320 492H608A32 32 0 0 1 640 524ZM576 388A32 32 0 0 1 544 420H320A32 32 0 0 1 320 356H544A32 32 0 0 1 576 388ZM320 284A32 32 0 0 1 320 220H480A32 32 0 0 1 480 284ZM844.64 297.28L764.64 377.28A40.96 40.96 0 0 1 707.52 378.24L462.72 148.32A38.88 38.88 0 0 1 450.4 120V-1.6H572.32A38.24 38.24 0 0 1 598.88 8.96L843.52 238.24A41.28 41.28 0 0 1 856.64 268 41.76 41.76 0 0 1 844.64 297.28ZM564.32 57.28H509.6V111.2L669.6 260.8 723.68 206.72ZM766.56 247.2L712.48 301.44 736 322.72 789.44 268Z"  horiz-adv-x="1024" vert-adv-y="1024"  />

      
      <glyph glyph-name="uniE112" unicode="&#xE112;" d="M96 332H384A128 128 0 0 1 640 332H928A32 32 0 0 1 960 364L832 716A32 32 0 0 1 800 748H224A32 32 0 0 1 192 716L64 364A32 32 0 0 1 96 332ZM928 268H692.8A192 192 0 0 0 331.2 268H96A32 32 0 0 1 64 236V12A32 32 0 0 1 96-20H928A32 32 0 0 1 960 12V236A32 32 0 0 1 928 268Z"  horiz-adv-x="1024" vert-adv-y="1024"  />

      
      <glyph glyph-name="uniE116" unicode="&#xE116;" d="M513.17 812L115.983 685.836C101.118 681.127 91.023 667.332 91.003 651.738L93.051 155.618 93.521 149.949A347.047 347.047 0 0 1 191.766-16.271C254.203-77.858 407.428-158.369 472.814-192.727 483.09-198.135 490.758-202.144 495.146-204.573L502.603-208.621A17.469 17.469 0 0 1 518.927-208.831L529.794-203.293C568.16-184.54 762.34-87.485 834.544-16.311A345.888 345.888 0 0 1 932.828 149.909L935.128 651.528A35.791 35.791 0 0 1 910.146 685.836L513.17 812ZM868.34 159.166A295.624 295.624 0 0 0 788.55 28.533C731.31-27.937 576.166-108.577 519.776-137.007A17.404 17.404 0 0 0 503.712-137.007C446.212-106.838 293.628-26.667 237.968 28.273A294.416 294.416 0 0 0 158.137 158.906L156.127 619.859A15.914 15.914 0 0 0 167.164 635.034L502.383 741.585A35.401 35.401 0 0 0 523.696 741.585L858.915 635.034A15.902 15.902 0 0 0 870.041 619.859L868.121 159.156H868.341ZM519.226 572.586A146.423 146.423 0 0 0 622.789 529.972 142.95 142.95 0 0 0 665.414 427.699 142.968 142.968 0 0 0 622.189 325.686 146.032 146.032 0 0 0 554.973 288.559L554.553 228.081H615.162A36.278 36.278 0 0 0 640.962 217.605 36.235 36.235 0 0 0 651.739 191.934 35.86 35.86 0 0 0 640.912 166.364 36.747 36.747 0 0 0 614.962 155.787H554.354L554.094 54.854A35.877 35.877 0 0 0 543.268 29.283 36.678 36.678 0 0 0 517.318 18.717 36.278 36.278 0 0 0 491.516 29.193 36.252 36.252 0 0 0 480.74 54.863L481.64 288.769A145.674 145.674 0 0 0 414.684 326.106 143.084 143.084 0 0 0 415.154 530.692 146.828 146.828 0 0 0 519.066 572.806L519.226 572.586ZM607.365 429.428A83.415 83.415 0 0 1 582.264 489.567C548.416 522.785 494.225 522.904 460.238 489.817A83.176 83.176 0 0 1 434.667 429.938 84.143 84.143 0 0 1 459.767 369.72 85.864 85.864 0 0 1 520.636 344.829C567.609 345.289 605.846 382.735 607.285 429.689L607.365 429.429ZM607.365 429.428"  horiz-adv-x="1024" vert-adv-y="1024"  />

      
      <glyph glyph-name="uniE117" unicode="&#xE117;" d="M512 812C228.5714 812 0 583.4286 0 300 0 16.5714 228.5714-212 512-212 795.4286-212 1024 16.5714 1024 300 1024 583.4286 795.4286 812 512 812ZM512 738.8571C755.2 738.8571 950.8571 543.2 950.8571 300 950.8571 217.7143 928.9143 140.9143 888.6857 75.0857 694.8571 261.6 384 278.0571 168.2286 104.3429 157.2571 95.2 146.2857 84.2286 135.3143 75.0857 95.0857 140.9143 73.1429 217.7143 73.1429 300 73.1429 543.2 268.8 738.8571 512 738.8571ZM846.6286 14.7429C766.1714-78.5143 645.4857-138.8571 512-138.8571 378.5143-138.8571 257.8286-78.5143 177.3714 14.7429 188.3429 25.7143 201.1429 36.6857 213.9429 47.6571 404.1143 201.2571 676.5714 182.9714 846.6286 14.7429ZM512 665.7143C618.0571 665.7143 704 579.7714 704 473.7143 704 367.6571 618.0571 281.7143 512 281.7143 405.9429 281.7143 320 367.6571 320 473.7143 320 579.7714 405.9429 665.7143 512 665.7143ZM512 592.5714C446.1714 592.5714 393.1429 539.5429 393.1429 473.7143 393.1429 407.8857 446.1714 354.8571 512 354.8571 577.8286 354.8571 630.8571 407.8857 630.8571 473.7143 630.8571 539.5429 577.8286 592.5714 512 592.5714Z"  horiz-adv-x="1024" vert-adv-y="1024"  />

      
      <glyph glyph-name="uniE11C" unicode="&#xE11C;" d="M455.9264 789.0024C484.2108 818.506 531.0147 819.911 561.0629 791.5447L565.44 787.0662 1001.6383 351.211C1012.7753 339.594 1022.0561 324.1046 1023.9122 308.6152 1025.6707 275.5983 1000.7745 246.0569 969.7407 241.3924L964.515 240.849 877.2754 240.849 877.2754-136.4892C877.2754-177.1489 846.8328-208.9877 808.5489-211.7982L803.0289-212 220.1938-212C181.2143-212 150.6912-182.0093 147.9969-142.2355L147.8034-136.4892 147.8034 242.7852 60.5638 242.7852C45.7145 242.7852 30.8652 248.5937 19.7282 260.2108-4.7295 283.9004-6.1682 321.3108 13.8646 346.6147L17.872 351.211 454.0703 787.0662 455.9264 789.0024ZM548.5714 153.7143L475.4286 153.7143C439.9927 153.7143 405.5625 122.3528 402.5057 85.8224L402.2857 80.5714 402.2857-138.8571 621.7147-141.6971 621.7147 80.5714C621.7147 117.5348 588.8948 150.5764 553.6236 153.5038L548.5714 153.7143Z"  horiz-adv-x="1024" vert-adv-y="1024"  />

      
      <glyph glyph-name="uniE11D" unicode="&#xE11D;" d="M736-148A256 256 0 1 0 992 108 256 256 0 0 0 736-148ZM848 108H736V220A16 16 0 0 1 704 220V92A16 16 0 0 1 720 76H848A16 16 0 0 1 848 108ZM534.176 372.544A350.464 350.464 0 0 0 579.84 349.76 287.232 287.232 0 0 1 521.888-84L33.248-84.256S32-62.624 32-52C32 133.056 143.616 310.432 297.824 372.544A229.312 229.312 0 0 0 209.216 556 215.904 215.904 0 0 0 416 780 215.904 215.904 0 0 0 622.784 556 229.312 229.312 0 0 0 534.176 372.544Z"  horiz-adv-x="1024" vert-adv-y="1024"  />

      
      <glyph glyph-name="uniE11E" unicode="&#xE11E;" d="M128 268L512 108 896 268V12A128 128 0 0 0 768-116H256A128 128 0 0 0 128 12V268ZM512 140L192 273.344V588A128 128 0 0 0 320 716H704A128 128 0 0 0 832 588V273.344ZM336 588H688A16 16 0 0 0 704 572V572A16 16 0 0 0 688 556H336A16 16 0 0 0 320 572V572A16 16 0 0 0 336 588ZM336 492H528A16 16 0 0 0 544 476V476A16 16 0 0 0 528 460H336A16 16 0 0 0 320 476V476A16 16 0 0 0 336 492Z"  horiz-adv-x="1024" vert-adv-y="1024"  />

      
      <glyph glyph-name="uniE11F" unicode="&#xE11F;" d="M512 738.8571C753.3714 738.8571 950.8571 541.3714 950.8571 300S753.3714-138.8571 512-138.8571 73.1429 58.6286 73.1429 300 270.6286 738.8571 512 738.8571M512 812C226.7429 812 0 585.2571 0 300S226.7429-212 512-212 1024 14.7429 1024 300 797.2571 812 512 812ZM512 592.5714C490.0571 592.5714 475.4286 577.9429 475.4286 556V44C475.4286 22.0571 490.0571 7.4286 512 7.4286S548.5714 22.0571 548.5714 44V556C548.5714 577.9429 533.9429 592.5714 512 592.5714ZM768 336.5714H256C234.0571 336.5714 219.4286 321.9429 219.4286 300S234.0571 263.4286 256 263.4286H768C789.9429 263.4286 804.5714 278.0571 804.5714 300S789.9429 336.5714 768 336.5714Z"  horiz-adv-x="1024" vert-adv-y="1024"  />

      
      <glyph glyph-name="uniE122" unicode="&#xE122;" d="M512-212C229.248-212 0 17.248 0 300S229.248 812 512 812 1024 582.752 1024 300 794.752-212 512-212ZM512 726.6667C276.352 726.6667 85.3333 535.648 85.3333 300S276.352-126.6667 512-126.6667 938.6667 64.352 938.6667 300 747.648 726.6667 512 726.6667ZM501.632 101.3013A42.624 42.624 0 0 0 441.3013 101.3013 41.1307 41.1307 0 0 0 433.92 112.4373L275.4133 275.68A42.6667 42.6667 0 1 0 336.4693 335.2853L473.6853 194.016 735.7013 456.032A42.6667 42.6667 0 0 0 796.032 395.7013L501.632 101.3013Z"  horiz-adv-x="1024" vert-adv-y="1024"  />

      

  </font>
</defs>
</svg>
