<?xml version="1.0" encoding="UTF-8"?>
<svg width="232px" height="154px" viewBox="0 0 232 154" version="1.1" xmlns="http://www.w3.org/2000/svg" xmlns:xlink="http://www.w3.org/1999/xlink">
    <title>img/申请权限</title>
    <g id="空页面" stroke="none" stroke-width="1" fill="none" fill-rule="evenodd">
        <g id="无项目权限" transform="translate(-325.000000, -376.000000)" fill-rule="nonzero">
            <g id="img/申请权限" transform="translate(325.000000, 376.000000)">
                <g id="Background">
                    <path d="M6.14218721,123.747427 C7.50200859,116.44803 26.6745605,122.33122 58.0847953,119.809881 C89.4950302,117.288542 100.844788,119.809881 127.173286,119.809881 C177.405334,119.809881 212.157895,127.566602 212.157895,134.327851 C212.157895,136.254501 208.856366,138.077202 202.974364,139.698753 C219.855332,140.68361 232,143.425825 232,146.654605 C232,150.711355 212.8281,154 189.178363,154 C165.528625,154 146.356725,150.711355 146.356725,146.654605 C146.356725,146.466387 146.397995,146.279822 146.479067,146.095162 C138.496371,146.404477 130.062783,146.570175 121.342105,146.570175 C114.293267,146.570175 107.431994,146.461919 100.844788,146.257068 C100.88571,146.38869 100.906433,146.521232 100.906433,146.654605 C100.906433,150.711355 81.7345326,154 58.0847953,154 C34.435058,154 15.2631579,150.711355 15.2631579,146.654605 C15.2631579,143.664258 25.680379,141.091268 40.6294755,139.945174 C56.6939469,139.945174 3.74819684,136.59815 6.14218721,123.747427 Z" id="Background-base" fill="#E3EDFA"></path>
                    <path d="M175.35326,0.841141484 C202.622037,4.7411429 221.474358,-6.57177217 221.474358,17.4579281 C221.474358,41.4876283 199.33854,40.783965 199.33854,44.9621035 C199.33854,63.9681662 227.878871,52.7753827 224.066978,78.1756487 C220.255084,103.575915 207.020923,106.740563 171.545926,98.6938568 C136.07093,90.6471509 121.175174,122.08137 81.1046787,112.485661 C41.0341837,102.889952 27.9222472,62.8380854 44.2156487,48.8773507 C53.2773825,41.1129522 0.325623718,31.2395995 0.0677308742,20.8965973 C-0.190161969,10.5535951 0.0677308742,0.841141484 33.9691485,7.0561333 C67.8705661,13.2711251 146.112672,-3.34087001 175.35326,0.841141484 Z" id="Background-base" fill="#F4F7FA" transform="translate(112.224912, 57.241843) scale(1, -1) translate(-112.224912, -57.241843) "></path>
                </g>
                <g id="Display" transform="translate(17.000000, 9.000000)">
                    <path d="M1.70526316,33.4479638 L1.70526316,57.9426848 L26.4315789,57.9426848 L26.4315789,33.4479638 L1.70526316,33.4479638 Z M28.1368421,31.7586727 L28.1368421,59.6319759 L0,59.6319759 L0,31.7586727 L28.1368421,31.7586727 Z" id="Shelves" fill="#FFCDCB"></path>
                    <path d="M1.70526316,59.6319759 L1.70526316,84.1266968 L26.4315789,84.1266968 L26.4315789,59.6319759 L1.70526316,59.6319759 Z M28.1368421,57.9426848 L28.1368421,85.8159879 L0,85.8159879 L0,57.9426848 L28.1368421,57.9426848 Z" id="Shelves" fill="#FFCDCB"></path>
                    <path d="M1.70526316,85.8159879 L1.70526316,110.310709 L26.4315789,110.310709 L26.4315789,85.8159879 L1.70526316,85.8159879 Z M28.1368421,84.1266968 L28.1368421,112 L0,112 L0,84.1266968 L28.1368421,84.1266968 Z" id="Shelves" fill="#FFCDCB"></path>
                    <path d="M28.1368421,84.1266968 L52.8631579,84.1266968 L52.8631579,59.6319759 L28.1368421,59.6319759 L28.1368421,84.1266968 Z M54.5684211,57.9426848 L54.5684211,85.8159879 L26.4315789,85.8159879 L26.4315789,57.9426848 L54.5684211,57.9426848 Z" id="Shelves" fill="#FFCDCB"></path>
                    <path d="M28.1368421,110.310709 L52.8631579,110.310709 L52.8631579,85.8159879 L28.1368421,85.8159879 L28.1368421,110.310709 Z M54.5684211,84.1266968 L54.5684211,112 L26.4315789,112 L26.4315789,84.1266968 L54.5684211,84.1266968 Z" id="Shelves" fill="#FFCDCB"></path>
                    <path d="M54.5684211,110.310709 L79.2947368,110.310709 L79.2947368,85.8159879 L54.5684211,85.8159879 L54.5684211,110.310709 Z M81,84.1266968 L81,112 L52.8631579,112 L52.8631579,84.1266968 L81,84.1266968 Z" id="Shelves" fill="#FFCDCB"></path>
                    <g id="Book" transform="translate(2.216842, 40.374057)">
                        <polygon fill="#374ABE" transform="translate(3.671621, 9.651808) rotate(-15.000000) translate(-3.671621, -9.651808) " points="2.2448981 0.858636569 5.05681694 0.865225043 5.09834428 18.4449797 2.28642545 18.4383912"></polygon>
                        <polygon fill="#FF8D88" transform="translate(6.650232, 9.894598) rotate(-15.000000) translate(-6.650232, -9.894598) " points="5.22586829 2.10027613 8.03778713 2.1068646 8.07459546 17.6889199 5.26267662 17.6823314"></polygon>
                        <rect fill="#374ABE" x="1.19368421" y="25.9875027" width="2.82642468" height="17.5962077"></rect>
                        <polygon fill="#000140" points="4.02010889 27.9870718 6.03898367 27.9870718 6.03898367 43.5837104 4.02010889 43.5837104"></polygon>
                        <polygon fill="#FFFFFF" transform="translate(13.878300, 35.840377) rotate(-30.000000) translate(-13.878300, -35.840377) " points="12.8392994 28.019531 14.8534468 28.027719 14.9173008 43.6612238 12.9031533 43.6530357"></polygon>
                        <rect fill="#FF8D88" x="6.03898367" y="23.9879336" width="2.01887477" height="19.5957768"></rect>
                        <rect fill="#374ABE" x="8.05785844" y="23.9879336" width="2.01887477" height="19.5957768"></rect>
                        <polygon fill="#FFFFFF" points="25.92 52.1715148 28.7414354 52.1715148 28.7414354 69.7677225 25.92 69.7677225"></polygon>
                        <polygon fill="#00023D" points="28.7414354 54.1710838 30.7567464 54.1710838 30.7567464 69.7677225 28.7414354 69.7677225"></polygon>
                        <polygon fill="#FF8D88" points="30.7567464 50.1719457 32.7720574 50.1719457 32.7720574 69.7677225 30.7567464 69.7677225"></polygon>
                        <polygon fill="#374ABE" points="32.7720574 50.1719457 34.7873684 50.1719457 34.7873684 69.7677225 32.7720574 69.7677225"></polygon>
                        <polygon fill="#DFE2EC" points="51.4989474 52.1715148 54.3203828 52.1715148 54.3203828 69.7677225 51.4989474 69.7677225"></polygon>
                        <polygon fill="#FFFFFF" points="54.3203828 54.1710838 56.3356938 54.1710838 56.3356938 69.7677225 54.3203828 69.7677225"></polygon>
                        <polygon fill="#EBECF4" points="56.3356938 50.1719457 58.3510048 50.1719457 58.3510048 69.7677225 56.3356938 69.7677225"></polygon>
                        <polygon fill="#DFE2EC" points="58.3510048 50.1719457 60.3663158 50.1719457 60.3663158 69.7677225 58.3510048 69.7677225"></polygon>
                        <polygon fill="#00023D" points="34.7873684 52.1715148 37.6088038 52.1715148 37.6088038 69.7677225 34.7873684 69.7677225"></polygon>
                        <polygon fill="#FFFFFF" points="37.6088038 54.1710838 39.6241148 54.1710838 39.6241148 69.7677225 37.6088038 69.7677225"></polygon>
                        <polygon fill="#EBECF4" points="39.6241148 50.1719457 41.6394258 50.1719457 41.6394258 69.7677225 39.6241148 69.7677225"></polygon>
                        <polygon fill="#374ABE" points="41.6394258 50.1719457 43.6547368 50.1719457 43.6547368 69.7677225 41.6394258 69.7677225"></polygon>
                        <polygon fill="#374ABE" points="60.3663158 52.1715148 63.1927405 52.1715148 63.1927405 69.7677225 60.3663158 69.7677225"></polygon>
                        <polygon fill="#FFFFFF" points="63.1927405 54.1710838 65.2116152 54.1710838 65.2116152 69.7677225 63.1927405 69.7677225"></polygon>
                        <polygon fill="#EBECF4" points="65.2116152 50.1719457 67.23049 50.1719457 67.23049 69.7677225 65.2116152 69.7677225"></polygon>
                        <polygon fill="#374ABE" transform="translate(71.188863, 60.756713) rotate(-30.000000) translate(-71.188863, -60.756713) " points="70.1416756 50.9315716 72.155823 50.9397596 72.2360498 70.5818553 70.2219024 70.5736673"></polygon>
                        <polygon fill="#374ABE" transform="translate(11.766316, 62.380913) rotate(-270.000000) translate(-11.766316, -62.380913) " points="10.3688113 53.4996243 13.1638202 53.4996243 13.1638202 71.2622021 10.3688113 71.2622021"></polygon>
                        <polygon fill="#FF8D88" transform="translate(11.766316, 64.776635) rotate(-270.000000) translate(-11.766316, -64.776635) " points="10.7680983 56.9045836 12.7645333 56.9045836 12.7645333 72.6486867 10.7680983 72.6486867"></polygon>
                        <polygon fill="#00023D" transform="translate(11.766316, 66.773070) rotate(-270.000000) translate(-11.766316, -66.773070) " points="10.7680983 56.8825438 12.7645333 56.8825438 12.7645333 76.6635964 10.7680983 76.6635964"></polygon>
                        <rect fill="#374ABE" transform="translate(11.766316, 68.769505) rotate(-270.000000) translate(-11.766316, -68.769505) " x="10.7680983" y="58.8789787" width="1.99643494" height="19.7810526"></rect>
                    </g>
                    <g transform="translate(13.983158, 45.610860)">
                        <ellipse id="Oval-5" stroke="#FF8D88" stroke-width="4" cx="4.17789474" cy="4.0875306" rx="4.17789474" ry="4.0875306"></ellipse>
                        <polygon id="Rectangle-15" fill="#374ABE" points="0.407599487 8.57384467 7.74439024 8.57384467 7.74439024 12.1628959 0.407599487 12.1628959"></polygon>
                    </g>
                    <g id="Cactus" transform="translate(39.391579, 41.049774)">
                        <path d="M4.85390977,0 C5.74188399,-1.63118217e-16 6.46172932,0.719845332 6.46172932,1.60781955 L6.46109023,4.579 L7.46609023,4.579 L7.46661654,2.99960229 C7.46661654,2.22262485 8.09648121,1.59276018 8.87345865,1.59276018 C9.65043609,1.59276018 10.2803008,2.22262485 10.2803008,2.99960229 L10.2803008,5.76057871 L10.2763706,5.86739289 C10.2789751,5.90220464 10.2803008,5.93737285 10.2803008,5.97285068 C10.2803008,6.74255069 9.65633561,7.36651584 8.88663559,7.36651584 L6.46109023,7.366 L6.46172932,9.93969176 C6.46172932,10.827666 5.74188399,11.5475113 4.85390977,11.5475113 C3.96593556,11.5475113 3.24609023,10.827666 3.24609023,9.93969176 L3.24609023,1.60781955 C3.24609023,0.719845332 3.96593556,1.63118217e-16 4.85390977,0 Z" id="Cactus-base" fill="#000140"></path>
                        <path d="M3.74347614,9.15837104 L7.17020807,9.15837104 C8.83259098,9.15837104 10.1802186,10.5059987 10.1802186,12.1683816 C10.1802186,12.4292638 10.1463026,12.689039 10.0793233,12.9411765 L9.86421065,13.7509483 C9.39857885,15.5037763 7.81191078,16.7239819 5.99829031,16.7239819 L4.9153939,16.7239819 C3.10177343,16.7239819 1.51510536,15.5037763 1.04947356,13.7509483 L0.834360902,12.9411765 C0.407558068,11.3345165 1.36402127,9.68606917 2.97068125,9.25926634 C3.2228187,9.19228703 3.48259394,9.15837104 3.74347614,9.15837104 Z" id="Cactus-base" fill="#FF8D88"></path>
                    </g>
                    <g id="Frame-picture" transform="translate(29.501053, 70.612368)">
                        <rect id="Picture-base" fill="#374ABE" x="0" y="0" width="10.9136842" height="13.3453997"></rect>
                        <polygon id="Picture-base" fill="#FFFFFF" points="1.21263158 1.19511042 9.70105263 1.19511042 9.70105263 11.9511042 1.21263158 11.9511042"></polygon>
                    </g>
                    <g id="Frame-picture" transform="translate(38.027368, 68.416290)">
                        <rect id="Picture-base" fill="#374ABE" x="0" y="0" width="12.2778947" height="15.2036199"></rect>
                        <polygon id="Picture-base" fill="#FFFFFF" points="1.40893874 1.40033341 10.868956 1.40033341 10.868956 13.6032389 1.40893874 13.6032389"></polygon>
                    </g>
                    <g id="Clock-" transform="translate(2.387368, 0.000000)">
                        <path d="M11.6810526,23.1432881 C5.2297854,23.1432881 0,17.9624866 0,11.571644 C0,5.18080151 5.2297854,0 11.6810526,0 C18.1323199,0 23.3621053,5.18080151 23.3621053,11.571644 C23.3621053,17.9624866 18.1323199,23.1432881 11.6810526,23.1432881 Z M11.6810526,21.453997 C17.190529,21.453997 21.6568421,17.0295169 21.6568421,11.571644 C21.6568421,6.11377122 17.190529,1.6892911 11.6810526,1.6892911 C6.17157624,1.6892911 1.70526316,6.11377122 1.70526316,11.571644 C1.70526316,17.0295169 6.17157624,21.453997 11.6810526,21.453997 Z" id="Clock-base" fill="#FF8D88"></path>
                        <polyline id="Clock-base" stroke="#7990DC" stroke-width="3" points="11.7663158 5.0678733 11.7663158 11.6401254 16.3433305 11.6401254"></polyline>
                    </g>
                </g>
                <g id="Imac" transform="translate(75.000000, 23.000000)">
                    <polygon id="Imac-base" fill="#7090C2" points="53.28 88.2 83.16 88.2 83.16 106.2 53.28 106.2"></polygon>
                    <path d="M53.28,106.2 L83.16,106.2 L89.0134642,110.102309 C89.8406158,110.653744 90.0641288,111.771309 89.5126944,112.59846 C89.178856,113.099218 88.6168396,113.4 88.0150039,113.4 L49.4114059,113.4 C48.4172934,113.4 47.6114059,112.594113 47.6114059,111.6 C47.6114059,111.053189 47.8599674,110.536026 48.2869548,110.194436 L53.28,106.2 L53.28,106.2 Z" id="Imac-base" fill="#C9DAF2"></path>
                    <path d="M3.6,5.76 L131.94,5.76 C133.928225,5.76 135.54,7.3717749 135.54,9.36 L135.54,90.18 C135.54,92.1682251 133.928225,93.78 131.94,93.78 L3.6,93.78 C1.6117749,93.78 2.41687144e-15,92.1682251 0,90.18 L0,9.36 C-2.4348735e-16,7.3717749 1.6117749,5.76 3.6,5.76 Z" id="Imac-base" fill="#C9DAF2"></path>
                    <path d="M67.7866512,84.06 C68.3861477,84.06 68.9443901,84.236416 69.4121766,84.5401058 C69.0996657,84.8440801 68.9066453,85.2685036 68.9066453,85.7379548 C68.9066453,86.6646637 69.6588031,87.4159097 70.5866366,87.4159097 C70.6423479,87.4159097 70.6974258,87.4132012 70.7517456,87.4079088 C70.5709702,88.883333 69.3124219,90.0260616 67.7866512,90.0260616 C66.1371693,90.0260616 64.8,88.6905132 64.8,87.0430308 C64.8,85.3955484 66.1371693,84.06 67.7866512,84.06 Z" id="Imac-base" fill="#2D3053"></path>
                    <path d="M3.6,0 L131.94,0 C133.928225,-1.62583187e-14 135.54,1.6117749 135.54,3.6 L135.54,78.84 L135.54,78.84 L0,78.84 L0,3.6 C-2.4348735e-16,1.6117749 1.6117749,-4.96383949e-15 3.6,0 Z" id="Imac-base" fill="#2D3053"></path>
                    <g id="UI-background" transform="translate(5.400000, 5.400000)" fill="#FFFFFF">
                        <polygon id="Background" points="0 0 124.74 0 124.74 66.24 0 66.24"></polygon>
                    </g>
                    <path d="M5.4,5.04 C42.9115389,9.694112 67.7743133,16.4215627 79.9883231,25.2223521 C92.202333,34.0231415 108.919559,49.3756908 130.14,71.28 L5.4,71.28 L5.4,5.04 Z" id="Background" fill="#E3EDFA"></path>
                    <g id="Seller" transform="translate(64.260000, 18.360000)">
                        <path d="M23.2211282,23.9402505 C24.811871,23.9402505 26.1014228,25.2298024 26.1014228,26.8205452 C26.1014228,26.9852443 26.0872963,27.1496398 26.0591986,27.3119245 L23.6073202,41.4732956 C23.4345194,42.4713455 22.5685684,43.2002505 21.5556697,43.2002505 C20.5876539,43.2002505 19.8028695,42.4156181 19.802682,41.4476024 L19.7999539,27.3620875 C19.799588,25.4726251 21.3310032,23.9406166 23.2204655,23.9402506 C23.2206864,23.9402506 23.2209073,23.9402505 23.2211282,23.9402505 Z" id="Seller-base" fill="#FF9179" transform="translate(22.950688, 33.570251) rotate(20.000000) translate(-22.950688, -33.570251) "></path>
                        <path d="M23.2211282,23.9402505 C24.811871,23.9402505 26.1014228,25.2298024 26.1014228,26.8205452 C26.1014228,26.9852443 26.0872963,27.1496398 26.0591986,27.3119245 L23.6073202,41.4732956 C23.4345194,42.4713455 22.5685684,43.2002505 21.5556697,43.2002505 C20.5876539,43.2002505 19.8028695,42.4156181 19.802682,41.4476024 L19.7999539,27.3620875 C19.799588,25.4726251 21.3310032,23.9406166 23.2204655,23.9402506 C23.2206864,23.9402506 23.2209073,23.9402505 23.2211282,23.9402505 Z" id="Seller-base" fill="#FF9179" transform="translate(22.950688, 33.570251) rotate(20.000000) translate(-22.950688, -33.570251) "></path>
                        <path d="M44.6397515,23.9402505 C46.2304943,23.9402505 47.5200462,25.2298024 47.5200462,26.8205452 C47.5200462,26.9852443 47.5059196,27.1496398 47.4778219,27.3119245 L45.0259436,41.4732956 C44.8531427,42.4713455 43.9871917,43.2002505 42.974293,43.2002505 C42.0062772,43.2002505 41.2214928,42.4156181 41.2213053,41.4476024 L41.2185772,27.3620875 C41.2182113,25.4726251 42.7496265,23.9406166 44.6390888,23.9402506 C44.6393097,23.9402506 44.6395306,23.9402505 44.6397515,23.9402505 Z" id="Seller-base" fill="#FF9179" transform="translate(44.369312, 33.570251) scale(-1, 1) rotate(20.000000) translate(-44.369312, -33.570251) "></path>
                        <path d="M24.2473171,24.0456161 L31.8181129,21.6 L36.2293411,21.6 L43.2526829,24.0456161 C43.8448564,29.8284421 43.8448564,33.4791563 43.2526829,34.9977586 C40.9403274,40.9276906 41.5468168,42.6718998 43.2526829,45.8115998 C40.8397852,48.5749822 37.1051727,46.4932227 33.7647353,46.6305652 C30.1774899,46.7780552 26.9751526,48.9356662 24.2473171,45.8115998 C25.4130369,42.3816421 26.4373659,40.8465478 24.2473171,34.9977586 C23.8797195,34.016045 23.7565297,32.073204 23.8777476,29.1692357 C23.9184796,28.1934366 24.0416694,26.4855634 24.2473171,24.0456161 Z" id="Seller-base" fill="#FFB0B6"></path>
                        <path d="M28.1458537,22.7862606 L28.1458537,23.1964997 C28.1458537,26.2317391 32.1760855,30.2375882 33.6281707,30.2375882 C35.080256,30.2375882 39.1104878,26.2317391 39.1104878,23.1964997 L39.1104878,22.6032516 L43.2526829,24.0456161 C43.8448564,29.8284421 43.8448564,33.4791563 43.2526829,34.9977586 C40.9403274,40.9276906 41.5468168,42.6718998 43.2526829,45.8115998 C40.6054163,48.8433943 37.2976114,45.9526498 33.6281707,45.8115998 C30.3613449,45.686026 26.7284229,48.6530979 24.2473171,45.8115998 C25.4130369,42.3816421 26.4373659,40.8465478 24.2473171,34.9977586 C23.8797195,34.016045 23.7565297,32.073204 23.8777476,29.1692357 C23.9184796,28.1934366 24.0416694,26.4855634 24.2473171,24.0456161 L28.1458537,22.7862606 Z" id="Seller-base" fill="#FFFFFF"></path>
                        <path d="M6.31827809,25.8068893 C9.80023771,26.383106 14.9548306,30.3111797 21.7820568,37.5911104 C22.586616,38.2047459 22.7677763,39.3213725 22.196827,40.1476508 C21.6258777,40.9739292 21.4187699,40.7227801 20.5345223,40.2244696 C16.836653,36.3397438 13.6205827,34.1653128 10.8863116,33.7011765 C6.78490488,33.0049721 1.64908794,29.8222342 2.02922593,26.620934 C2.03760235,26.5503927 4.34167285,25.4797882 6.31827809,25.8068893 Z" id="Seller-base" fill="#FFB0B6" transform="translate(12.269301, 33.214903) rotate(-161.000000) translate(-12.269301, -33.214903) "></path>
                        <path d="M19.8002897,43.1509419 C18.9591786,43.9033734 16.0275586,42.5886003 15.4231423,42.2651203 C12.5311327,40.7173337 9.19676687,36.030373 5.42004473,28.2042382 C5.26263,27.8780429 6.05375117,28.2042382 7.04218315,27.5816686 C8.03061513,26.959099 8.00459158,26.2805208 8.22993326,26.6552783 C10.1473317,29.8440331 11.9469883,31.9919589 13.9052309,33.0502454 C15.4018152,33.8590395 16.4798226,34.9158071 17.6701723,36.3037446 L21.4483516,26.968301 C21.865988,25.8225045 22.8771526,24.4278167 23.9783124,24.1488684 C24.0367512,24.1340645 25.8520021,23.4924196 29.4240653,22.2239335 C29.4240653,25.2591729 33.0845686,38.1052345 33.9453645,38.9330494 C34.3437314,38.2501751 35.8248547,32.6804698 38.3887346,22.2239335 L43.2526829,24.0456161 C43.8448564,29.8284421 43.8448564,33.4791563 43.2526829,34.9977586 C40.9403274,40.9276906 41.5468168,42.6718998 43.2526829,45.8115998 C40.6054163,48.8433943 37.2976114,45.9526498 33.6281707,45.8115998 C30.3613449,45.686026 26.7284229,48.6530979 24.2473171,45.8115998 C25.3802909,42.4779921 26.379706,40.9342869 24.4243362,35.480575 C22.6256698,38.683766 20.4468467,42.5725524 19.8002897,43.1509419 Z" id="Seller-base" fill="#5A5D88"></path>
                        <path d="M19.8002897,43.1509419 C19.4132117,43.4972097 20.7882919,41.4443788 22.0750342,37.7372327 C22.5910412,36.2505998 22.9321609,32.5839338 23.3866971,31.6409966 C23.5442103,31.3142348 23.0201498,34.255535 23.582159,34.9755714 C23.3866971,33.0754773 24.0195566,30.3337498 24.2703074,30.5748931 C24.0936096,31.8102422 24.4243362,35.9062672 26.1871251,38.8504868 C27.1242228,39.8823761 30.9351428,41.121128 33.3264262,41.121128 C34.4605911,41.121128 32.2688742,42.2325657 31.980487,43.7708432 C31.96415,43.8579861 23.2591864,48.0084362 24.7716969,44.3235436 C26.2842075,40.6386509 24.3942729,35.3078411 24.4243362,35.480575 C22.6256698,38.683766 20.4468467,42.5725524 19.8002897,43.1509419 Z" id="Seller-base" fill="#3C3F5D"></path>
                        <path d="M34.3748162,34.3289262 C34.4365134,34.3708254 34.4967385,34.4148812 34.5553811,34.4610133 L48.5489169,47.4542049 C49.328113,48.0671696 49.5715778,49.1043424 49.0186272,49.9297175 C48.4656767,50.7550925 47.3727728,51.0091475 46.5164005,50.5113818 L31.7813525,40.1629811 C29.4320506,39.0274451 26.9331888,37.3549294 30.2209731,35.142081 C30.2875235,35.0972892 32.91134,33.3350652 34.3748162,34.3289262 Z" id="Seller-base" fill="#FFB0B6" transform="translate(38.979570, 42.395525) scale(-1, 1) rotate(-30.000000) translate(-38.979570, -42.395525) "></path>
                        <path d="M50.4325906,40.4611137 C52.1880631,44.034065 49.0309523,44.3134179 46.413953,44.1180032 L32.2124708,45.3577253 C30.9355571,45.4691938 30.2389198,41.4478466 31.2965342,41.2141089 L44.2049638,38.3255262 C42.7853994,35.0868127 41.6198418,32.6741137 40.7082907,31.0874289 C40.4144974,30.5760397 41.1846395,28.1935634 43.018717,23.94 C44.3141265,24.1973804 44.6800952,24.8906411 45.3311906,26.67872 C48.7307064,35.8640974 50.4311731,40.4582287 50.4325906,40.4611137 Z" id="Seller-base" fill="#5A5D88"></path>
                        <path d="M44.2049638,38.3255262 C43.648974,37.0163202 43.2723923,36.1467162 43.0752188,35.7167142 C42.9880244,35.526558 41.9807006,39.0019038 41.9125164,38.8562467 C41.8400165,38.7013701 34.6177906,40.7738822 34.5822462,40.5505793 C37.5990616,40.0113057 41.4176437,38.8562467 41.9125164,37.425837 C42.364239,36.1201512 42.8046941,33.6929697 43.2338818,30.1442925 C43.0591406,31.9568791 43.0591406,33.987265 43.2338818,34.4820262 C43.4408081,35.0679159 43.4613295,31.7313173 43.8143298,32.7007489 L44.2049638,38.3255262 Z" id="Seller-base" fill="#3C3F5D"></path>
                        <path d="M30.78,15.66 L36.36,15.66 L36.36,24.1498859 C35.6619343,25.209962 34.7319343,25.74 33.57,25.74 C32.4080657,25.74 31.4780657,25.209962 30.78,24.1498859 L30.78,15.66 Z" id="Seller-base" fill="#FFB0B6"></path>
                        <path d="M30.78,13.86 L36.36,13.86 L35.2394802,18.9012899 C34.1558998,21.6971158 33.1154237,23.3220842 32.1180519,23.7761951 C31.1206801,24.230306 30.6746628,23.7548696 30.78,22.3498859 L30.78,13.86 Z" id="Seller-base" fill="#E9989E"></path>
                        <g id="Path-9-Copy" transform="translate(24.840000, 2.340000)">
                            <path d="M4.68707617,18.5198227 C6.84621557,18.5198227 13.9296487,14.0574484 13.9296487,10.0977099 C13.9296487,6.13797135 10.4562685,0.0222473735 6.48707617,0.0222473735 C2.51788379,0.0222473735 0.124888646,4.32461315 0.124888646,8.28435166 C0.124888646,9.03835503 0.928468851,9.65355095 1.01851168,10.6938731 C1.09919962,11.6261122 0.909396968,13.4728805 1.01851168,13.794811 C1.36074922,14.804544 3.89863968,18.5198227 4.68707617,18.5198227 Z" id="Seller-base" fill="#FFB0B6"></path>
                            <path d="M2.88003868,15.5265109 C2.8732193,15.5047934 2.80409016,15.0949701 3.39114566,15.0678649 C3.50900874,15.062423 3.61486128,15.2046137 3.69978153,15.2046137 C3.79174154,15.2046137 3.90858475,15.0714489 4.0360442,15.0678649 C4.46370341,15.0558395 5.21569484,15.4875687 5.98267947,15.4094497 C6.28845919,15.3783054 6.2397015,15.1750179 6.3289889,15.1750179 C6.3634765,15.1750179 6.44139098,15.4176652 6.3634765,15.3941571 C6.25979078,15.3628734 6.2783823,15.3590233 5.77925113,15.6168751 C5.31248347,15.8580078 4.04707452,15.6890459 3.69978153,15.6890459 C3.16459392,15.6890459 2.90251047,15.5980763 2.88003868,15.5265109 Z" id="Seller-base" fill="#FF5932"></path>
                            <path d="M3.31047158,16.2582442 C4.19019564,16.5488181 4.71467753,16.4127186 5.54030711,16.02 C5.33370144,16.3356785 4.38693978,16.8121867 3.97125933,16.7825925 C3.55557889,16.7529983 3.33294337,16.3298096 3.31047158,16.2582442 Z" id="Seller-base" fill="#FF6868"></path>
                            <path d="M5.77198961,11.1271011 C5.7001807,11.1598043 5.95907006,10.504611 6.33076742,10.3123153 C6.34754082,10.3006179 6.36584191,10.2917523 6.38557003,10.2860954 C6.39026529,10.2847491 6.39498832,10.2835997 6.39973526,10.2826437 C6.40696798,10.2801654 6.4142359,10.2778756 6.42153759,10.2757819 C6.84070711,10.1555869 7.63792105,10.7609752 7.54573433,10.7739486 C7.48863211,10.7819846 7.12213122,10.5727489 6.76056964,10.5567358 C6.77854573,10.5947681 6.79407678,10.6357681 6.80650942,10.6791258 C6.88168557,10.9412963 6.81510922,11.1903928 6.65780697,11.2354984 C6.50050473,11.2806041 6.31204374,11.1046384 6.23686759,10.842468 C6.22661955,10.8067288 6.21900573,10.7712326 6.21389686,10.736463 C6.00335847,10.890625 5.8434458,11.0945585 5.77198961,11.1271011 Z" id="Seller-base" fill="#0A1039"></path>
                            <path d="M1.71389686,10.736463 C1.50335847,10.890625 1.3434458,11.0945585 1.27198961,11.1271011 C1.2001807,11.1598043 1.45907006,10.504611 1.83076742,10.3123153 C1.84754082,10.3006179 1.86584191,10.2917523 1.88557003,10.2860954 C1.89026529,10.2847491 1.89498832,10.2835997 1.89973526,10.2826437 C1.90696798,10.2801654 1.9142359,10.2778756 1.92153759,10.2757819 C2.34070711,10.1555869 3.13792105,10.7609752 3.04573433,10.7739486 C2.98863211,10.7819846 2.62213122,10.5727489 2.26056964,10.5567358 C2.27854573,10.5947681 2.29407678,10.6357681 2.30650942,10.6791258 C2.38168557,10.9412963 2.31510922,11.1903928 2.15780697,11.2354984 C2.00050473,11.2806041 1.81204374,11.1046384 1.73686759,10.842468 C1.72661955,10.8067288 1.71900573,10.7712326 1.71389686,10.736463 L1.71389686,10.736463 Z" id="Seller-base" fill="#0A1039" transform="translate(2.156544, 10.751276) scale(-1, 1) translate(-2.156544, -10.751276) "></path>
                            <path d="M7.29987143,8.86662665 C7.85479245,9.05770128 8.08734176,9.97113985 7.58218202,9.69304651 C6.61553636,9.16090252 5.37897988,9.34430312 5.40027123,9.27877509 C5.45073924,9.12345051 6.7449504,8.67555202 7.29987143,8.86662665 Z" id="Seller-base" fill="#0A1039" transform="translate(6.630652, 9.282649) scale(-1, 1) translate(-6.630652, -9.282649) "></path>
                            <path d="M2.79987143,9.04662665 C3.35479245,9.23770128 3.58734176,10.1511399 3.08218202,9.87304651 C2.11553636,9.34090252 0.878979881,9.52430312 0.900271229,9.45877509 C0.950739244,9.30345051 2.2449504,8.85555202 2.79987143,9.04662665 Z" id="Seller-base" fill="#0A1039"></path>
                            <path d="M3.62575335,10.5406876 C3.87719206,11.0800099 3.93012485,11.5409427 3.77801255,11.9207957 C3.70965451,12.0914986 3.64654405,12.2012669 3.41785522,12.5708231 C3.33211315,12.7093804 3.28088362,12.7948444 3.2312816,12.8842439 C3.06650564,13.1812255 2.99195991,13.4069598 3.00916596,13.6042958 C3.01743324,13.6991132 3.2384427,13.8922174 3.67219435,14.1836085 C3.13769607,14.0471162 2.85149876,13.8682629 2.82984629,13.619931 C2.80877047,13.3782125 2.89318256,13.1226016 3.07388521,12.7969148 C3.12523496,12.7043653 3.17764394,12.6169337 3.26479192,12.4761044 C3.48685681,12.1172524 3.54810508,12.010723 3.61091271,11.8538805 C3.69836001,11.6355082 3.70330689,11.1977772 3.62575335,10.5406876 Z" id="Seller-base" fill="#FF6868"></path>
                            <path d="M4.08844812,14.217122 C4.21687678,14.258702 4.48928126,14.2166651 4.48928126,14.2001183 C4.48928126,14.1835715 3.98997963,14.0016152 3.9622531,14.0473517 C3.94459009,14.0764878 4.03492495,14.1997934 4.08844812,14.217122 Z" id="Seller-base" fill="#7D3532"></path>
                            <path d="M4.50104677,14.3102193 C4.52484593,14.2595247 4.69550594,14.2373654 4.7799765,14.0580683 C4.86444706,13.8787713 4.60440006,13.4624001 4.649953,13.5027346 C4.69550594,13.5430691 4.88512041,13.9658749 4.88018449,14.0598175 C4.86702792,14.3102193 4.47724761,14.3609138 4.50104677,14.3102193 Z" id="Seller-base" fill="#FF6868"></path>
                        </g>
                        <path d="M36.0322732,13.7854252 C36.0121326,13.7642218 36.2174207,13.6039102 36.3080667,13.4865397 C36.3714891,13.404419 36.3526959,13.2562138 36.2771352,13.2672157 C36.0802068,13.2958891 35.6217549,12.9732858 35.9158239,12.6095645 C36.0875998,12.3971021 36.2957395,12.1800329 36.4816052,12.0836032 C36.7570358,11.9407059 37.0282932,12.4929339 36.9795549,12.5026921 C36.9308166,12.5124503 36.7276508,12.1220372 36.556369,12.2109006 C36.3991487,12.2924687 36.215867,12.5225451 36.0597539,12.7176577 C35.8635538,12.9628717 36.2015292,13.1213209 36.3393798,13.1734133 C36.4587095,13.2185069 36.4923294,13.3271143 36.4373937,13.4489548 C36.3964063,13.53986 36.0665056,13.8214639 36.0322732,13.7854252 Z" id="Seller-base" fill="#FF6868"></path>
                        <path d="M37.6289973,1.21019315 C39.3611834,0.0880379951 41.9965928,-0.347799447 43.7215788,1.01995567 C44.3437041,1.51324381 44.3334719,2.57880371 45.099505,3.15271298 C47.1210253,4.66722878 45.9536509,6.24860013 44.8702588,7.76920256 L44.6749324,8.04497768 C44.0961011,8.87012371 43.6012714,9.67488845 43.7215788,10.4385605 C42.7461771,9.79591206 44.8273333,7.39547905 43.9917928,8.03609831 C43.1230356,8.70218525 42.408884,9.05478618 41.7861278,9.23361566 C41.428598,11.3910453 39.1183152,16.5110344 36.9552224,17.8388758 C36.8824408,17.8835537 36.8025517,18.1846557 36.9113409,18.4028357 C37.0201301,18.6210157 36.5860273,18.0298911 36.5108105,18.057156 C36.4368758,18.0839561 36.4046282,18.4028357 36.4046282,18.5227154 C36.4046282,18.642595 36.0783975,18.1578753 35.9741805,18.1578753 C35.9243676,18.1131756 35.7385314,18.3406143 35.6914297,18.299121 C35.6443036,18.2576062 35.6664752,17.9591409 35.6914297,17.9084805 C36.4046282,16.4606061 36.6773084,17.0006061 36.5466392,15.7598926 C36.5044747,15.7598926 36.0605227,15.8158733 35.8923226,16.1685613 C35.7088423,16.5532891 35.7297786,17.172478 35.7357062,17.2850814 L35.7359613,17.293866 L35.7337885,17.2720702 C35.7172074,17.1295765 35.6391918,16.5024422 35.7795586,16.1002001 C35.9513123,15.6080142 36.3903082,15.3752804 36.4932332,15.2582435 L36.4941162,15.1747827 L36.4941162,15.1747827 L36.4941162,14.902928 C36.4938955,14.8788552 36.4936011,14.8588076 36.4932332,14.8447656 C37.3695804,14.3093523 37.971318,11.7853954 36.9113409,11.2641122 C35.4205531,10.5309618 35.5136841,12.9802698 35.2631199,12.9802698 C35.0683804,12.9802698 35.0285104,13.2825639 34.8914785,12.2485187 L34.8829613,12.190866 L34.6018228,12.1895306 C33.0593487,12.1708024 31.4410503,11.942791 30.9585818,9.51715519 C29.4643265,10.2449099 25.947031,10.7241122 24.9455952,10.7241122 C22.5476111,10.5150062 21.4279489,7.68339538 21.7388273,6.03116361 C22.0497057,4.37893183 23.5875892,3.51513144 26.3601805,3.2059859 C29.1327719,2.89684036 29.9673439,-0.924245066 36.5373089,1.06240119 C36.8503224,1.15705117 37.1459157,1.25588633 37.4250193,1.35851469 L37.469948,1.32179338 L37.469948,1.32179338 Z M34.8559613,11.964866 L34.8738252,12.1121844 L34.8738252,12.1121844 L34.8829613,12.190866 L34.899094,12.191076 C35.3347012,12.191076 35.4544778,12.0380226 35.4971172,11.9960919 L35.5088009,11.986593 C35.5197281,11.9812243 35.4895454,11.9801966 35.4262214,11.9798531 L35.3073754,11.9793937 C35.2129021,11.9788201 35.0892717,11.9771022 34.9444528,11.9705832 L34.8559613,11.964866 Z M31.5468133,9.97423935 L31.5663518,10.0576678 C32.0070431,11.604338 33.8250414,11.9052737 34.8319902,11.9647366 L34.8559613,11.964866 C34.8356784,11.8027002 34.8144601,11.6211678 34.7909032,11.413421 C33.4606692,11.8172753 31.9065385,11.3283764 31.5468133,9.97423935 Z" id="Seller-base" fill="#0A1039"></path>
                        <path d="M25.9847506,23.5625415 C26.3053349,26.6168627 26.6510099,28.5517457 27.0217757,29.3671905 C27.3925415,30.1826354 28.195304,30.7735719 29.4300631,31.14 C28.4953883,31.8092334 28.1261023,32.5711344 28.3222051,33.4257031 C28.5183079,34.2802718 30.3372741,36.2484155 33.7791037,39.3301343" id="Seller-base" stroke="#FFFFFF" stroke-width="0.5" stroke-linecap="round" stroke-linejoin="round"></path>
                        <path d="M34.8364753,35.5177507 L33.6456924,40.0393446 C37.3880353,35.2988822 39.388845,32.6546646 39.6481214,32.1066918 C39.9073979,31.5587189 39.5945867,30.9365378 38.709688,30.2401483 C39.5715867,30.0776062 40.2620284,29.4617887 40.781013,28.3926958 C41.2999976,27.3236029 41.5481532,25.7275666 41.5254798,23.604587" id="Seller-base" stroke="#FFFFFF" stroke-width="0.5" stroke-linecap="round" stroke-linejoin="round"></path>
                        <path d="M17.6652504,36.3888817 C17.6652504,37.6993186 17.6652504,38.5416342 17.6652504,38.9158285 C17.6652504,39.4771199 15.4434938,34.7060556 15.4434938,34.1914075 C15.8099683,34.3104683 16.5505538,35.0429597 17.6652504,36.3888817 Z" id="Seller-base" fill="#3C3F5D"></path>
                    </g>
                    <rect id="Table" fill="#FFFFFF" x="5.4" y="62.64" width="124.74" height="9"></rect>
                    <g id="Form-payment-" transform="translate(19.440000, 5.400000)">
                        <rect id="Mask" stroke="#374ABE" stroke-width="0.5" fill="#FFFFFF" x="0.25" y="0.25" width="44.86" height="65.74"></rect>
                        <rect id="Form-payment-base" fill="#FF8D88" x="9" y="3.6" width="27.36" height="3.78" rx="1.89"></rect>
                        <rect id="Form-payment-base" fill="#374ABE" x="5.76" y="11.52" width="12.96" height="1.8" rx="0.9"></rect>
                        <rect id="Form-payment-base" fill="#E0E4F0" x="7.92" y="16.92" width="12.96" height="1.8" rx="0.9"></rect>
                        <rect id="Form-payment-base" stroke="#374ABE" stroke-width="0.5" x="5.65" y="15.01" width="34.06" height="5.62" rx="1.08"></rect>
                        <rect id="Form-payment-base" fill="#374ABE" x="5.76" y="23.22" width="12.96" height="1.8" rx="0.9"></rect>
                        <rect id="Form-payment-base" fill="#E0E4F0" x="7.92" y="28.62" width="12.96" height="1.8" rx="0.9"></rect>
                        <rect id="Form-payment-base" stroke="#374ABE" stroke-width="0.5" x="5.65" y="26.71" width="34.06" height="5.62" rx="1.08"></rect>
                        <rect id="Form-payment-base" fill="#374ABE" x="5.76" y="35.28" width="12.96" height="1.8" rx="0.9"></rect>
                        <rect id="Form-payment-base" fill="#E0E4F0" x="7.92" y="40.68" width="12.96" height="1.8" rx="0.9"></rect>
                        <rect id="Form-payment-base" stroke="#374ABE" stroke-width="0.5" x="5.65" y="38.77" width="34.06" height="5.62" rx="1.08"></rect>
                        <rect id="Form-payment-base" fill="#374ABE" x="5.4" y="48.96" width="34.56" height="6.12" rx="0.36"></rect>
                        <rect id="Form-payment-base" fill="#EBECF4" x="5.4" y="56.88" width="34.56" height="6.12" rx="0.36"></rect>
                    </g>
                    <g id="Cactus" transform="translate(115.200000, 49.860000)">
                        <path d="M5.12357143,0 C6.06087755,-1.72180341e-16 6.82071429,0.759836739 6.82071429,1.69714286 L6.82042857,4.879 L7.88142857,4.879 L7.88142857,3.18214286 C7.88142857,2.362 8.54628572,1.69714286 9.36642857,1.69714286 C10.1865714,1.69714286 10.8514286,2.362 10.8514286,3.18214286 L10.8514286,6.15214286 L10.8476786,6.25793049 C10.8501645,6.29305883 10.8514286,6.32852465 10.8514286,6.36428571 C10.8514286,7.18442857 10.1865714,7.84928571 9.36642857,7.84928571 L6.82042857,7.849 L6.82071429,10.6071429 C6.82071429,11.544449 6.06087755,12.3042857 5.12357143,12.3042857 C4.18626531,12.3042857 3.42642857,11.544449 3.42642857,10.6071429 L3.42642857,1.69714286 C3.42642857,0.759836739 4.18626531,1.72180341e-16 5.12357143,0 Z" id="Cactus-base" fill="#000140"></path>
                        <path d="M0.753987134,9.75857143 L10.7660129,9.75857143 C11.1636579,9.75857143 11.4860129,10.0809264 11.4860129,10.4785714 C11.4860129,10.5404145 11.4780452,10.6019998 11.4623065,10.6618066 L9.71982533,17.2832352 C9.63658707,17.5995406 9.35060614,17.82 9.02353166,17.82 L2.49646834,17.82 C2.16939386,17.82 1.88341293,17.5995406 1.80017467,17.2832352 L0.0576934672,10.6618066 C-0.0435045258,10.2772542 0.186199585,9.88347575 0.570751959,9.78227776 C0.630558775,9.76653913 0.692144107,9.75857143 0.753987134,9.75857143 Z" id="Cactus-base" fill="#FF8D88"></path>
                    </g>
                    <path d="M69.3160081,40.2406704 C69.7410932,40.554685 70.1152174,41.0042429 70.4383806,41.5893442 C70.7615439,42.1744455 70.9820837,42.8015528 71.1,43.4706662 L69.3160081,44.64 C68.9136928,44.3706135 68.6532081,44.1640914 68.5345539,44.0204338 C68.4006948,43.8583672 67.3135615,42.9245177 66.3062142,42.8158479 C65.9741756,42.7800285 64.2743484,42.9978768 64.1099022,42.8158479 C63.9520068,42.6410703 64.5186128,42.3966033 65.8097203,42.082447 C64.1994456,42.3426917 63.3561089,42.3426917 63.2797101,42.082447 C63.2033113,41.8222023 63.995782,41.6269827 65.6571222,41.4967883 C63.6457074,41.5156074 62.64,41.3923135 62.64,41.1269067 C62.64,40.8614998 63.6457074,40.7339627 65.6571222,40.7442953 C64.0721808,40.7229655 63.2797101,40.5550906 63.2797101,40.2406704 C63.2797101,39.7690402 65.611212,40.0454047 66.0732254,40.0454047 C66.3812343,40.0454047 67.0481147,40.1711513 68.0738667,40.4226446 C67.9549216,39.0342149 68.0032555,38.34 68.2188684,38.34 C68.4344813,38.34 68.8001946,38.9735568 69.3160081,40.2406704 Z" id="Hand" fill="#FFB0B6"></path>
                </g>
            </g>
        </g>
    </g>
</svg>