<?xml version="1.0" encoding="UTF-8"?>
<svg width="266px" height="174px" viewBox="0 0 266 174" version="1.1" xmlns="http://www.w3.org/2000/svg" xmlns:xlink="http://www.w3.org/1999/xlink">
    <title>image/自动执行</title>
    <g id="空页面" stroke="none" stroke-width="1" fill="none" fill-rule="evenodd">
        <g id="触发器无权限" transform="translate(-1082.000000, -448.000000)">
            <g id="编组" transform="translate(350.000000, 153.000000)">
                <g id="编组-2" transform="translate(0.000000, 207.000000)">
                    <g id="image/自动执行" transform="translate(732.000000, 88.000000)">
                        <g id="Background" fill-rule="nonzero">
                            <path d="M206.795914,0.853180778 C238.954264,5.47240323 249.824827,18.4550766 249.824827,40.9661534 C249.824827,63.4772302 268.73991,62.3649055 264.244505,92.4493764 C264.122445,93.2662369 267.535616,83.6684401 261.681578,101.799523 C255.82754,119.930605 243.005975,126.023328 202.305885,116.751462 C160.469855,107.220818 142.903136,144.451997 95.6475865,133.08669 C48.3920373,121.721382 32.928995,74.2833274 52.143972,57.7480156 C62.8305683,48.551741 0.0798757206,40.9661534 0.0798757206,24.6071752 C0.0798757206,8.24819697 29.6610992,5.66947953 69.6413917,13.0306127 C109.621684,20.3917459 172.312186,-4.1000588 206.795914,0.853180778 Z" id="Background-base" fill="#F4F7FA" transform="translate(132.601825, 67.726590) scale(1, -1) translate(-132.601825, -67.726590) "></path>
                            <path d="M253.379079,142.568862 C273.885225,150.341603 216.867568,159.445367 216.867568,160.493681 C216.867568,165.262391 255.467758,164.706293 255.467758,169.343207 C255.467758,172.434482 234.422871,173.98012 192.333097,173.98012 C157.014932,173.98012 107.63692,173.98012 44.1990596,173.98012 C12.6772881,173.98012 10.4475137,170.966971 27.5980898,166.114678 C44.748666,161.262385 83.4938442,173.536467 79.0497851,162.485676 C74.6057259,151.434885 126.317585,161.762774 126.317585,150.375421 C126.317585,138.988069 232.872933,134.796122 253.379079,142.568862 Z" id="Background-base" fill="#E3EDFA" transform="translate(137.391630, 156.290060) scale(1, -1) translate(-137.391630, -156.290060) "></path>
                            <path d="M69.0293159,153.312273 C62.2686457,148.731959 46.5243293,149.439403 40.8082092,149.439403 C35.0920891,149.439403 44.3066432,156.342169 49.3722304,159.243523 C54.4378176,162.144877 75.7899861,157.892587 69.0293159,153.312273 Z" id="Background-base" fill="#E3EDFA" transform="translate(54.669786, 154.796664) scale(-1, 1) translate(-54.669786, -154.796664) "></path>
                            <path d="M111.377238,164.200148 C104.616568,159.619834 92.019826,157.338902 86.0832885,159.88607 C80.1467509,162.433237 83.0857825,170.142169 88.1513696,173.043523 C93.2169568,175.944877 118.137908,168.780462 111.377238,164.200148 Z" id="Background-base" fill="#E3EDFA" transform="translate(97.659355, 166.270564) scale(-1, 1) translate(-97.659355, -166.270564) "></path>
                        </g>
                        <g id="Display" transform="translate(4.800000, 2.600000)" fill-rule="nonzero">
                            <path d="M2,39.6 L2,68.6 L31,68.6 L31,39.6 L2,39.6 Z M33,37.6 L33,70.6 L0,70.6 L0,37.6 L33,37.6 Z" id="Shelves" fill="#FFCDCB"></path>
                            <path d="M2,70.6 L2,99.6 L31,99.6 L31,70.6 L2,70.6 Z M33,68.6 L33,101.6 L0,101.6 L0,68.6 L33,68.6 Z" id="Shelves" fill="#FFCDCB"></path>
                            <path d="M2,101.6 L2,130.6 L31,130.6 L31,101.6 L2,101.6 Z M33,99.6 L33,132.6 L0,132.6 L0,99.6 L33,99.6 Z" id="Shelves" fill="#FFCDCB"></path>
                            <path d="M33,99.6 L62,99.6 L62,70.6 L33,70.6 L33,99.6 Z M64,68.6 L64,101.6 L31,101.6 L31,68.6 L64,68.6 Z" id="Shelves" fill="#FFCDCB"></path>
                            <path d="M33,130.6 L62,130.6 L62,101.6 L33,101.6 L33,130.6 Z M64,99.6 L64,132.6 L31,132.6 L31,99.6 L64,99.6 Z" id="Shelves" fill="#FFCDCB"></path>
                            <path d="M64,130.6 L93,130.6 L93,101.6 L64,101.6 L64,130.6 Z M95,99.6 L95,132.6 L62,132.6 L62,99.6 L95,99.6 Z" id="Shelves" fill="#FFCDCB"></path>
                            <g id="Book" transform="translate(2.600000, 47.800000)">
                                <rect fill="#374ABE" transform="translate(4.306222, 11.427051) rotate(-15.000000) translate(-4.306222, -11.427051) " x="2.65622239" y="1.02705142" width="3.3" height="20.8"></rect>
                                <polygon fill="#FF8D88" transform="translate(7.799655, 11.714497) rotate(-15.000000) translate(-7.799655, -11.714497) " points="6.14965467 2.49631546 9.44965467 2.49631546 9.44965467 20.9326791 6.14965467 20.9326791"></polygon>
                                <rect fill="#374ABE" x="1.4" y="30.7673469" width="3.31494253" height="20.8326531"></rect>
                                <polygon fill="#000140" points="4.71494253 33.1346939 7.08275862 33.1346939 7.08275862 51.6 4.71494253 51.6"></polygon>
                                <polygon fill="#FFFFFF" transform="translate(16.277019, 42.432447) rotate(-30.000000) translate(-16.277019, -42.432447) " points="15.0931105 33.1997937 17.4609266 33.1997937 17.4609266 51.6650999 15.0931105 51.6650999"></polygon>
                                <rect fill="#FF8D88" x="7.08275862" y="28.4" width="2.36781609" height="23.2"></rect>
                                <rect fill="#374ABE" x="9.45057471" y="28.4" width="2.36781609" height="23.2"></rect>
                                <polygon fill="#FFFFFF" points="30.4 61.7673469 33.7090909 61.7673469 33.7090909 82.6 30.4 82.6"></polygon>
                                <polygon fill="#00023D" points="33.7090909 64.1346939 36.0727273 64.1346939 36.0727273 82.6 33.7090909 82.6"></polygon>
                                <polygon fill="#FF8D88" points="36.0727273 59.4 38.4363636 59.4 38.4363636 82.6 36.0727273 82.6"></polygon>
                                <polygon fill="#374ABE" points="38.4363636 59.4 40.8 59.4 40.8 82.6 38.4363636 82.6"></polygon>
                                <polygon fill="#DFE2EC" points="60.4 61.7673469 63.7090909 61.7673469 63.7090909 82.6 60.4 82.6"></polygon>
                                <polygon fill="#FFFFFF" points="63.7090909 64.1346939 66.0727273 64.1346939 66.0727273 82.6 63.7090909 82.6"></polygon>
                                <polygon fill="#EBECF4" points="66.0727273 59.4 68.4363636 59.4 68.4363636 82.6 66.0727273 82.6"></polygon>
                                <polygon fill="#DFE2EC" points="68.4363636 59.4 70.8 59.4 70.8 82.6 68.4363636 82.6"></polygon>
                                <polygon fill="#00023D" points="40.8 61.7673469 44.1090909 61.7673469 44.1090909 82.6 40.8 82.6"></polygon>
                                <polygon fill="#FFFFFF" points="44.1090909 64.1346939 46.4727273 64.1346939 46.4727273 82.6 44.1090909 82.6"></polygon>
                                <polygon fill="#EBECF4" points="46.4727273 59.4 48.8363636 59.4 48.8363636 82.6 46.4727273 82.6"></polygon>
                                <polygon fill="#374ABE" points="48.8363636 59.4 51.2 59.4 51.2 82.6 48.8363636 82.6"></polygon>
                                <polygon fill="#374ABE" points="70.8 61.7673469 74.1149425 61.7673469 74.1149425 82.6 70.8 82.6"></polygon>
                                <polygon fill="#FFFFFF" points="74.1149425 64.1346939 76.4827586 64.1346939 76.4827586 82.6 74.1149425 82.6"></polygon>
                                <polygon fill="#EBECF4" points="76.4827586 59.4 78.8505747 59.4 78.8505747 82.6 76.4827586 82.6"></polygon>
                                <polygon fill="#374ABE" transform="translate(83.493111, 71.931609) rotate(-30.000000) translate(-83.493111, -71.931609) " points="82.3092025 60.331609 84.6770186 60.331609 84.6770186 83.531609 82.3092025 83.531609"></polygon>
                                <rect fill="#374ABE" transform="translate(13.800000, 73.854545) rotate(-270.000000) translate(-13.800000, -73.854545) " x="12.1454545" y="63.4382189" width="3.30909091" height="20.8326531"></rect>
                                <polygon fill="#FF8D88" transform="translate(13.800000, 76.690909) rotate(-270.000000) translate(-13.800000, -76.690909) " points="12.6181818 67.458256 14.9818182 67.458256 14.9818182 85.9235622 12.6181818 85.9235622"></polygon>
                                <polygon fill="#00023D" transform="translate(13.800000, 79.054545) rotate(-270.000000) translate(-13.800000, -79.054545) " points="12.6181818 67.4545455 14.9818182 67.4545455 14.9818182 90.6545455 12.6181818 90.6545455"></polygon>
                                <polygon fill="#374ABE" transform="translate(13.800000, 81.418182) rotate(-270.000000) translate(-13.800000, -81.418182) " points="12.6181818 69.8181818 14.9818182 69.8181818 14.9818182 93.0181818 12.6181818 93.0181818"></polygon>
                            </g>
                            <g transform="translate(16.400000, 54.000000)">
                                <ellipse id="Oval-5" stroke="#FF8D88" stroke-width="0.8" cx="4.9" cy="4.83934426" rx="4.9" ry="4.83934426"></ellipse>
                                <polygon id="Rectangle-15" fill="#374ABE" points="0.47804878 10.1508197 9.08292683 10.1508197 9.08292683 14.4 0.47804878 14.4"></polygon>
                            </g>
                            <g id="Cactus" transform="translate(38.200000, 48.600000)">
                                <path d="M5.69285714,0 C6.73430839,-1.9131149e-16 7.57857143,0.844263043 7.57857143,1.88571429 L7.57814286,5.421 L8.75714286,5.421 L8.75714286,3.53571429 C8.75714286,2.62444445 9.49587302,1.88571429 10.4071429,1.88571429 C11.3184127,1.88571429 12.0571429,2.62444445 12.0571429,3.53571429 L12.0571429,6.83571429 L12.052951,6.9528999 C12.0557298,6.99204783 12.0571429,7.03157318 12.0571429,7.07142857 C12.0571429,7.98269841 11.3184127,8.72142857 10.4071429,8.72142857 L7.57814286,8.721 L7.57857143,11.7857143 C7.57857143,12.8271655 6.73430839,13.6714286 5.69285714,13.6714286 C4.6514059,13.6714286 3.80714286,12.8271655 3.80714286,11.7857143 L3.80714286,1.88571429 C3.80714286,0.844263043 4.6514059,1.9131149e-16 5.69285714,0 Z" id="Cactus-base" fill="#000140"></path>
                                <path d="M0.837763482,10.8428571 L11.9622365,10.8428571 C12.4040643,10.8428571 12.7622365,11.2010293 12.7622365,11.6428571 C12.7622365,11.7115716 12.7533835,11.7799998 12.7358961,11.8464518 L10.7998059,19.2035946 C10.707319,19.5550451 10.3895624,19.8 10.0261463,19.8 L2.77385371,19.8 C2.41043762,19.8 2.09268104,19.5550451 2.00019408,19.2035946 L0.0641038525,11.8464518 C-0.048338362,11.4191714 0.206888428,10.9816397 0.634168843,10.8691975 C0.700620861,10.8517101 0.769049008,10.8428571 0.837763482,10.8428571 Z" id="Cactus-base" fill="#FF8D88"></path>
                            </g>
                            <g id="Frame-picture" transform="translate(34.600000, 83.600000)">
                                <rect id="Picture-base" fill="#374ABE" x="0" y="0" width="12.8" height="15.8"></rect>
                                <polygon id="Picture-base" fill="#FFFFFF" points="1.42222222 1.41492537 11.3777778 1.41492537 11.3777778 14.1492537 1.42222222 14.1492537"></polygon>
                            </g>
                            <g id="Frame-picture" transform="translate(44.600000, 81.000000)">
                                <rect id="Picture-base" fill="#374ABE" x="0" y="0" width="14.4" height="18"></rect>
                                <polygon id="Picture-base" fill="#FFFFFF" points="1.65245902 1.65789474 12.747541 1.65789474 12.747541 16.1052632 1.65245902 16.1052632"></polygon>
                            </g>
                            <g id="Clock-" transform="translate(2.800000, 0.000000)">
                                <path d="M13.7,27.4 C6.13369893,27.4 0,21.2663011 0,13.7 C0,6.13369893 6.13369893,0 13.7,0 C21.2663011,0 27.4,6.13369893 27.4,13.7 C27.4,21.2663011 21.2663011,27.4 13.7,27.4 Z M13.7,25.4 C20.1617316,25.4 25.4,20.1617316 25.4,13.7 C25.4,7.23826843 20.1617316,2 13.7,2 C7.23826843,2 2,7.23826843 2,13.7 C2,20.1617316 7.23826843,25.4 13.7,25.4 Z" id="Clock-base" fill="#FF8D88"></path>
                                <polyline id="Clock-base" stroke="#7990DC" stroke-width="0.6" points="13.8 6 13.8 13.7810771 19.1681037 13.7810771"></polyline>
                            </g>
                        </g>
                        <g id="Imac" transform="translate(60.000000, 13.000000)">
                            <polygon id="Imac-base" fill="#7090C2" fill-rule="nonzero" points="65.12 107.8 101.64 107.8 101.64 129.8 65.12 129.8"></polygon>
                            <path d="M65.12,129.8 L101.64,129.8 L108.794234,134.569489 C109.805197,135.243465 110.07838,136.609377 109.404404,137.62034 C108.99638,138.232378 108.309471,138.6 107.573894,138.6 L60.3917183,138.6 C59.1766919,138.6 58.1917183,137.615026 58.1917183,136.4 C58.1917183,135.731676 58.4955157,135.099587 59.0173892,134.682089 L65.12,129.8 L65.12,129.8 Z" id="Imac-base" fill="#C9DAF2" fill-rule="nonzero"></path>
                            <path d="M4.4,7.04 L161.26,7.04 C163.690053,7.04 165.66,9.0099471 165.66,11.44 L165.66,110.22 C165.66,112.650053 163.690053,114.62 161.26,114.62 L4.4,114.62 C1.9699471,114.62 -8.58418855e-15,112.650053 0,110.22 L0,11.44 C-2.9759565e-16,9.0099471 1.9699471,7.04 4.4,7.04 Z" id="Imac-base" fill="#C9DAF2" fill-rule="nonzero"></path>
                            <path d="M82.8503514,102.74 C83.5825148,102.74 84.2643327,102.955293 84.8358062,103.325953 C84.4550674,103.698495 84.2192332,104.217157 84.2192332,104.790834 C84.2192332,105.923478 85.1385371,106.841667 86.2725559,106.841667 C86.3402534,106.841667 86.4071857,106.838395 86.4732029,106.832001 C86.2534651,108.635133 84.7152169,110.031853 82.8503514,110.031853 C80.834318,110.031853 79.2,108.399516 79.2,106.385927 C79.2,104.372337 80.834318,102.74 82.8503514,102.74 Z" id="Imac-base" fill="#2D3053" fill-rule="nonzero"></path>
                            <path d="M4.4,0 L161.26,0 C163.690053,-4.46393476e-16 165.66,1.9699471 165.66,4.4 L165.66,96.36 L165.66,96.36 L0,96.36 L0,4.4 C-2.9759565e-16,1.9699471 1.9699471,6.66364241e-15 4.4,0 Z" id="Imac-base" fill="#2D3053" fill-rule="nonzero"></path>
                            <polygon id="Imac-base" fill="#FFFFFF" fill-rule="nonzero" points="6.6 6.6 159.06 6.6 159.06 87.56 6.6 87.56"></polygon>
                            <g id="Group" transform="translate(14.300000, 13.200000)">
                                <rect id="矩形" stroke="#374ABE" stroke-width="0.99" x="0.495" y="7.425" width="10.89" height="10.89" rx="1.98"></rect>
                                <rect id="矩形备份-4" fill="#FFC23F" x="51.48" y="20.79" width="11.88" height="11.88" rx="1.98"></rect>
                                <rect id="矩形备份-14" fill="#FFE4E5" x="73.48" y="14.19" width="52.8" height="31.9" rx="1.98"></rect>
                                <rect id="矩形备份-11" fill="#E3EDFA" x="101.97" y="0" width="7.92" height="7.92" rx="1.98"></rect>
                                <rect id="矩形备份-12" fill="#E3EDFA" x="113.85" y="0" width="7.92" height="7.92" rx="1.98"></rect>
                                <rect id="矩形备份-13" fill="#E3EDFA" x="125.73" y="0" width="7.92" height="7.92" rx="1.98"></rect>
                                <rect id="矩形备份-7" stroke="#374ABE" stroke-width="0.99" x="52.965" y="57.915" width="10.89" height="10.89" rx="1.98"></rect>
                                <rect id="矩形备份" stroke="#FB5934" stroke-width="0.99" x="0.495" y="41.085" width="34.65" height="10.89" rx="1.98"></rect>
                                <rect id="矩形备份" fill="#FF8D88" x="1.98" y="42.57" width="31.68" height="7.92" rx="0.99"></rect>
                                <rect id="矩形备份-8" fill="#FF8D88" x="95.04" y="59.4" width="31.68" height="7.92" rx="0.99"></rect>
                                <rect id="矩形" fill="#C9DAF2" x="4.95" y="18.81" width="1.98" height="21.78"></rect>
                                <rect id="矩形备份-2" fill="#C9DAF2" x="35.64" y="45.54" width="20.79" height="1.98"></rect>
                                <rect id="矩形备份-6" fill="#C9DAF2" x="63.36" y="25.74" width="41.58" height="1.98"></rect>
                                <rect id="矩形备份-10" fill="#C9DAF2" x="64.35" y="62.37" width="30.69" height="1.98"></rect>
                                <rect id="矩形备份-3" fill="#C9DAF2" x="56.43" y="32.67" width="1.98" height="14.85"></rect>
                                <rect id="矩形备份-9" fill="#C9DAF2" x="109.89" y="32.67" width="1.98" height="26.73"></rect>
                            </g>
                            <g id="告警" transform="translate(118.580000, 31.240000)" fill-rule="nonzero">
                                <rect id="矩形" fill="#000000" opacity="0" x="0" y="0" width="13.2" height="13.2"></rect>
                                <path d="M9.67378212,3.9 C9.83867614,3.9 10.0035702,3.83999999 10.1134995,3.65999999 L10.9929342,2.52 C11.2127929,2.28 11.1578282,1.86000001 10.9379696,1.67999999 C10.7181109,1.43999999 10.3333582,1.49999999 10.1684642,1.74 L9.28902943,2.88 C9.06917074,3.12000001 9.12413542,3.54 9.3439941,3.72 C9.39895877,3.83999999 9.50888811,3.9 9.67378212,3.9 L9.67378212,3.9 Z M10.7181109,6.48 C10.7730756,6.78 10.9929342,6.96 11.2677576,6.96 L11.3776869,6.96 L12.7518037,6.72 C13.0266271,6.65999999 13.2464858,6.36 13.1915211,5.99999999 C13.1365564,5.7 12.8617331,5.45999999 12.531945,5.52 L11.1578282,5.76 C10.8830049,5.82000001 10.7181109,6.12 10.7181109,6.48 L10.7181109,6.48 Z M6.59576054,2.7 C6.92554857,2.7 7.14540726,2.46 7.14540726,2.1 L7.14540726,0.599999991 C7.14540726,0.239999991 6.92554857,0 6.59576054,0 C6.26597251,0 6.04611383,0.240000005 6.04611383,0.599999991 L6.04611383,2.1 C6.04611383,2.46 6.26597251,2.7 6.59576054,2.7 L6.59576054,2.7 Z M12.6418744,12 L10.1684642,12 L10.1684642,7.5 C10.1684642,5.34 8.5744887,3.6 6.59576054,3.6 C4.61703238,3.6 3.02305692,5.34 3.02305692,7.5 L3.02305692,12 L0.549646716,12 C0.219858689,12 0,12.24 0,12.6 C0,12.96 0.219858689,13.2 0.549646716,13.2 L12.6418744,13.2 C12.9716624,13.2 13.1915211,12.96 13.1915211,12.6 C13.1915211,12.24 12.9716624,12 12.6418744,12 Z M8.189736,8.7 L7.2553366,10.5 C7.14540726,10.68 6.98051324,10.8 6.76065455,10.8 C6.65072522,10.8 6.59576054,10.8 6.4858312,10.74 C6.21100785,10.56 6.1010785,10.2 6.26597251,9.90000001 L6.70568988,9.00000001 L5.49646712,9.00000001 C5.27660843,9.00000001 5.11171442,8.88000001 5.00178508,8.7 C4.89185574,8.52 4.89185574,8.27999999 5.00178508,8.10000001 L5.93618449,6.3 C6.1010785,6.00000001 6.43086653,5.88 6.70568988,6.06 C6.98051323,6.24 7.09044258,6.6 6.92554857,6.9 L6.43086653,7.8 L7.69505396,7.8 C7.91491265,7.8 8.07980666,7.91999999 8.189736,8.10000001 C8.24470068,8.28000001 8.24470068,8.52000001 8.189736,8.7 Z M0.494682041,6.72 L1.86879882,6.96 L1.97872816,6.96 C2.25355151,6.96 2.4734102,6.78 2.52837488,6.48 C2.58333955,6.18000001 2.36348086,5.82000001 2.0886575,5.76 L0.71454073,5.52 C0.439717378,5.45999999 0.109929351,5.7 0.0549646755,5.99999999 C-3.12250226e-16,6.36 0.164894014,6.65999999 0.494682041,6.72 L0.494682041,6.72 Z M3.13298626,3.72 C3.2429156,3.83999999 3.40780961,3.96 3.57270362,3.96 C3.68263296,3.96 3.84752697,3.9 3.90249165,3.83999999 C4.12235034,3.59999999 4.177315,3.23999999 3.95745632,3 L3.07802158,1.8 C2.85816289,1.56 2.52837487,1.50000001 2.30851619,1.74 C2.0886575,1.98 2.03369284,2.34 2.25355151,2.57999999 L3.13298626,3.72 L3.13298626,3.72 Z" id="形状" fill="#FF3F3F"></path>
                            </g>
                        </g>
                    </g>
                </g>
            </g>
        </g>
    </g>
</svg>