<?xml version="1.0" encoding="UTF-8"?>
<svg width="271px" height="171px" viewBox="0 0 271 171" version="1.1" xmlns="http://www.w3.org/2000/svg" xmlns:xlink="http://www.w3.org/1999/xlink">
    <title>image/设计模式</title>
    <defs>
        <rect id="path-1" x="0" y="0" width="223" height="90" rx="17"></rect>
        <polygon id="path-3" points="-3.06954462e-15 0 27.432 0 27.432 27.432 -3.06954462e-15 27.432"></polygon>
        <mask id="mask-4" maskContentUnits="userSpaceOnUse" maskUnits="objectBoundingBox" x="-0.5" y="-0.5" width="28.432" height="28.432">
            <rect x="-0.5" y="-0.5" width="28.432" height="28.432" fill="white"></rect>
            <use xlink:href="#path-3" fill="black"></use>
        </mask>
    </defs>
    <g id="空页面" stroke="none" stroke-width="1" fill="none" fill-rule="evenodd">
        <g id="SLA模式无权限" transform="translate(-367.000000, -453.000000)">
            <g id="编组" transform="translate(350.000000, 153.000000)">
                <g id="编组-2" transform="translate(0.000000, 207.000000)">
                    <g id="image/设计模式" transform="translate(17.000000, 94.000000)">
                        <g id="Background" transform="translate(0.000000, 4.472000)" fill-rule="nonzero">
                            <path d="M199.322987,50.8773692 C153.162212,86.5751083 245.483763,85.0231068 245.483763,94.41333 C245.483763,110.173356 224.144074,118.053369 181.464696,118.053369 C71.6015054,115.261227 25.9283886,97.5498891 44.4453451,64.9193542 C72.2207799,15.9735519 -13.7274405,53.6680707 1.92037304,15.9554727 C17.5681866,-21.7571252 245.483763,15.1796301 199.322987,50.8773692 Z" fill="#F4F7FA" transform="translate(122.741882, 59.086481) scale(1, -1) translate(-122.741882, -59.086481) "></path>
                            <path d="M235.44,56.7465112 C250.351688,56.7465112 262.44,58.4593662 262.44,49.572 C262.44,40.6846338 250.351688,33.48 235.44,33.48 C220.528312,33.48 208.44,40.6846338 208.44,49.572 C208.44,58.4593662 220.528312,56.7465112 235.44,56.7465112 Z" fill="#F4F7FA"></path>
                            <path d="M123.446014,150.272507 C67.3787609,149.82452 22.896,143.293907 22.896,135.303401 C22.896,127.022651 70.6690081,120.309777 129.6,120.309777 C188.530992,120.309777 236.304,127.022651 236.304,135.303401 C236.304,142.2786 202.407386,148.141335 156.497817,149.816603 C177.530494,150.681151 193.045622,153.679401 193.045622,157.245291 C193.045622,161.486651 171.095861,164.924953 144.019459,164.924953 C116.943058,164.924953 94.9932973,161.486651 94.9932973,157.245291 C94.9932973,154.154852 106.646889,151.490774 123.446013,150.272507 L123.446014,150.272507 Z" fill="#E3EDFA"></path>
                        </g>
                        <g id="编组-6" opacity="0.3" transform="translate(29.000000, 1.000000)">
                            <mask id="mask-2" fill="white">
                                <use xlink:href="#path-1"></use>
                            </mask>
                            <g id="矩形"></g>
                            <rect id="矩形" fill="#FFE4E5" mask="url(#mask-2)" x="127" y="31" width="96" height="26"></rect>
                            <rect id="矩形" fill="#FFE4E5" mask="url(#mask-2)" x="-2" y="64" width="30" height="26"></rect>
                            <path d="M108,31 L127,31 L127,31 L127,57 L108,57 C100.820298,57 95,51.1797017 95,44 C95,36.8202983 100.820298,31 108,31 Z" id="矩形" fill="#FE8E88" mask="url(#mask-2)"></path>
                            <text id="2-9-16-23-30" mask="url(#mask-2)" font-family="Helvetica" font-size="12" font-weight="normal" line-spacing="32" fill="#979BA5">
                                <tspan x="9.16308594" y="-24">2</tspan>
                                <tspan x="9.16308594" y="8">9</tspan>
                                <tspan x="5.82617188" y="40">16</tspan>
                                <tspan x="5.82617188" y="72">23</tspan>
                                <tspan x="5.82617188" y="104">30</tspan>
                            </text>
                            <text id="3-10-17-24-31" mask="url(#mask-2)" font-family="Helvetica" font-size="12" font-weight="normal" line-spacing="32" fill="#979BA5">
                                <tspan x="41.9930859" y="-24">3</tspan>
                                <tspan x="38.6561719" y="8">10</tspan>
                                <tspan x="38.6561719" y="40">17</tspan>
                                <tspan x="38.6561719" y="72">24</tspan>
                                <tspan x="38.6561719" y="104">31</tspan>
                            </text>
                            <text id="4-11-18-25-1" mask="url(#mask-2)" font-family="Helvetica" font-size="12" font-weight="normal" line-spacing="32" fill="#979BA5">
                                <tspan x="74.8230859" y="-24">4</tspan>
                                <tspan x="71.4861719" y="8">11</tspan>
                                <tspan x="71.4861719" y="40">18</tspan>
                                <tspan x="71.4861719" y="72">25</tspan>
                                <tspan x="74.8230859" y="104">1</tspan>
                            </text>
                            <text id="5-12-19-26-2" mask="url(#mask-2)" font-family="Helvetica" font-size="12" font-weight="normal" line-spacing="32">
                                <tspan x="107.653086" y="-24" fill="#979BA5">5</tspan>
                                <tspan x="104.316172" y="8" fill="#979BA5">12</tspan>
                                <tspan x="104.316172" y="40" fill="#FFFFFF">19</tspan>
                                <tspan x="117.663828" y="40" fill="#979BA5"></tspan>
                                <tspan x="104.316172" y="72" fill="#979BA5">26</tspan>
                                <tspan x="107.653086" y="104" fill="#979BA5">2</tspan>
                            </text>
                            <text id="6-13-20-27-3" mask="url(#mask-2)" font-family="Helvetica" font-size="12" font-weight="normal" line-spacing="32" fill="#979BA5">
                                <tspan x="140.483086" y="-24">6</tspan>
                                <tspan x="137.146172" y="8">13</tspan>
                                <tspan x="137.146172" y="40">20</tspan>
                                <tspan x="137.146172" y="72">27</tspan>
                                <tspan x="140.483086" y="104">3</tspan>
                            </text>
                            <text id="7-14-21-28-4" mask="url(#mask-2)" font-family="Helvetica" font-size="12" font-weight="normal" line-spacing="32" fill="#979BA5">
                                <tspan x="173.313086" y="-24">7</tspan>
                                <tspan x="169.976172" y="8">14</tspan>
                                <tspan x="169.976172" y="40">21</tspan>
                                <tspan x="169.976172" y="72">28</tspan>
                                <tspan x="173.313086" y="104">4</tspan>
                            </text>
                            <text id="8-15-22-29-5" mask="url(#mask-2)" font-family="Helvetica" font-size="12" font-weight="normal" line-spacing="32" fill="#979BA5">
                                <tspan x="206.143086" y="-24">8</tspan>
                                <tspan x="202.806172" y="8">15</tspan>
                                <tspan x="202.806172" y="40">22</tspan>
                                <tspan x="202.806172" y="72">29</tspan>
                                <tspan x="206.143086" y="104">5</tspan>
                            </text>
                        </g>
                        <g id="Leaves" transform="translate(243.702125, 95.326625) scale(-1, 1) rotate(-357.000000) translate(-243.702125, -95.326625) translate(223.702125, 74.826625)" fill="#FF8D88" fill-rule="nonzero">
                            <path d="M38.9177047,33.6994687 C38.9973435,33.7882866 38.9899024,33.9248476 38.9010846,34.0044864 C38.8122668,34.0841252 38.6757057,34.0766841 38.5960669,33.9878663 C32.4541043,27.1379918 26.8836468,23.1049416 21.8949283,21.8825052 C13.7154445,19.8782032 5.95537854,13.375893 5.43613918,7.39573678 C5.4258201,7.27689042 5.51379885,7.17218115 5.6326452,7.16186207 C5.75149156,7.15154299 5.85620084,7.23952173 5.86651992,7.35836809 C6.36676325,13.1197442 13.9786944,19.4979294 21.9977438,21.4629185 C27.0864204,22.7098487 32.7229961,26.7907689 38.9177047,33.6994687 Z" id="Leaves-base"></path>
                            <path d="M10.0157708,14.8477623 C10.0289479,14.9663258 9.94351537,15.0731227 9.82495186,15.0862998 C9.70638836,15.0994769 9.59959149,15.0140443 9.58641438,14.8954808 C9.25633732,11.9255504 9.52016748,9.80058462 10.3966897,8.51557794 C10.4639121,8.41702799 10.5982971,8.39163199 10.6968471,8.45885438 C10.795397,8.52607677 10.820793,8.6604618 10.7535706,8.75901174 C9.94823344,9.9396591 9.69603854,11.9709111 10.0157708,14.8477623 Z" id="Leaves-base"></path>
                            <path d="M9.93169796,12.6812933 L9.65693643,13.0020886 L9.55769355,12.5915349 C8.53647288,8.36688982 9.21445711,6.16124453 11.6622313,6.16124453 C12.9322354,6.16124453 13.4468332,6.81193843 13.0872976,7.98159392 C12.7603092,9.04536568 11.7096155,10.6055021 9.93169796,12.6812933 Z M12.6743655,7.85466443 C12.9463582,6.96980705 12.6485557,6.59324453 11.6622313,6.59324453 C9.67046709,6.59324453 9.05556712,8.36421188 9.88088046,12.0736582 C11.4542049,10.20339 12.3863586,8.7916201 12.6743655,7.85466443 Z" id="Leaves-base"></path>
                            <path d="M6.32196108,5.55114168 C6.04341155,4.68752653 5.5636183,4.53202046 4.72540235,5.04799259 C3.04960895,6.07954379 3.54712478,7.83509516 6.38251185,10.4299665 C6.6381054,8.09252367 6.61549916,6.46122731 6.32196108,5.55114168 Z M4.49894549,4.68010498 C5.56874813,4.02157738 6.3658607,4.27993001 6.73310421,5.418532 C7.06827874,6.45770732 7.0757197,8.27765661 6.76403903,10.8962298 L6.7153051,11.305666 L6.40645084,11.0324956 C3.11479513,8.12114525 2.41806737,5.96101009 4.49894549,4.68010498 Z" id="Leaves-base"></path>
                            <path d="M10.2841798,15.0791014 C10.3858329,15.1415322 10.4176289,15.2745483 10.3551982,15.3762014 C10.2927675,15.4778545 10.1597513,15.5096505 10.0580982,15.4472198 C7.40792023,13.8196003 5.57578088,12.8843101 4.58310568,12.6462784 C4.46710062,12.6184618 4.39560976,12.5018713 4.42342639,12.3858662 C4.45124302,12.2698611 4.56783354,12.1983703 4.6838386,12.2261869 C5.73570612,12.4784121 7.5953447,13.4277405 10.2841798,15.0791014 Z" id="Leaves-base"></path>
                            <path d="M7.08433762,13.2409547 L7.30268852,13.5627466 L6.91411114,13.5780683 C6.27610686,13.603225 5.32490523,13.7419938 4.06466328,13.9946743 C3.05225906,14.197663 1.72643689,13.742932 0.917381487,12.9389996 C-0.0164519709,12.0110794 -0.0699259989,10.8425602 0.990482932,9.84099046 C2.54576443,8.37200727 4.589562,9.56431059 7.08433762,13.2409547 Z M1.28711564,10.1550494 C0.412871836,10.9807838 0.45352169,11.869068 1.22187986,12.6325608 C1.93282067,13.3389998 3.11503921,13.7444776 3.97973683,13.5711044 C5.03219936,13.360084 5.87553969,13.2268057 6.51206464,13.1714357 C4.25414184,9.93861375 2.52389386,8.98689664 1.28711564,10.1550494 Z" id="Leaves-base"></path>
                            <path d="M11.8292218,16.5652904 C11.9462503,16.5884265 12.0223651,16.7020524 11.999229,16.8190808 C11.9760929,16.9361093 11.8624671,17.0122241 11.7454386,16.989088 C9.78497143,16.6015108 8.48703368,16.6015108 7.87835326,16.9629175 C7.77577837,17.0238218 7.64325231,16.9900411 7.58234802,16.8874662 C7.52144372,16.7848913 7.55522442,16.6523652 7.65779931,16.591461 C8.38774387,16.1580531 9.76930874,16.1580531 11.8292218,16.5652904 Z" id="Leaves-base"></path>
                            <path d="M5.70857279,16.0314543 C4.80551482,16.1606245 4.49553029,16.8790499 4.79521006,17.7478526 C5.08419626,18.5856535 5.7718072,19.0473192 6.36729992,18.7257688 C7.35704846,18.1913306 8.61755369,17.5344743 10.149011,16.7550843 C8.58723001,16.071285 7.10800196,15.8312851 5.70857279,16.0314543 Z M10.7425399,16.938087 C9.03318545,17.8051716 7.64310774,18.5278225 6.57255653,19.1058921 C5.69481654,19.5798487 4.75174378,18.9466645 4.38682235,17.8887195 C4.00680083,16.7869977 4.44298836,15.7760821 5.64740365,15.6038069 C7.25633585,15.3736711 8.95458075,15.6909092 10.7386165,16.5508791 L11.1320261,16.7405167 L10.7425399,16.938087 Z" id="Leaves-base"></path>
                            <path d="M15.5155351,18.9567312 C15.634219,18.9687758 15.7206672,19.0747522 15.7086225,19.1934361 C15.6965779,19.31212 15.5906014,19.3985682 15.4719175,19.3865236 C13.2028721,19.1562491 11.7268489,19.4753241 11.0332787,20.309824 C10.9570287,20.4015676 10.820843,20.4141276 10.7290995,20.3378777 C10.6373559,20.2616277 10.6247959,20.125442 10.7010458,20.0336984 C11.509414,19.0610741 13.1177668,18.7133932 15.5155351,18.9567312 Z" id="Leaves-base"></path>
                            <path d="M7.45443249,20.7769319 C7.19886472,20.9564199 7.17824159,21.1062053 7.34192014,21.3108115 C7.52812211,21.5435732 7.93039864,21.7879286 8.4376959,21.9767203 C9.51528443,22.3777468 10.6247988,22.3885085 10.8598703,21.9969065 C11.2723756,21.30972 12.0930938,20.4366144 13.3250495,19.3699416 C10.3239846,19.6660468 8.36080236,20.1403786 7.45443249,20.7769319 Z M14.124238,19.258213 C12.6336042,20.5001646 11.6674699,21.4909059 11.2302612,22.2192453 C10.8441375,22.8624831 9.54536154,22.8498857 8.28702202,22.3815923 C7.71307925,22.1679985 7.24883075,21.8859992 7.00457964,21.5806733 C6.68586015,21.1822583 6.74583055,20.7466944 7.20614879,20.4234079 C8.26202584,19.6818541 10.5080228,19.1730029 13.9675632,18.87705 L14.6519985,18.8184986 L14.124238,19.258213 Z" id="Leaves-base"></path>
                            <path d="M17.3723625,19.6604019 C17.4456318,19.7545431 17.4287118,19.890256 17.3345707,19.9635253 C17.2404296,20.0367946 17.1047166,20.0198747 17.0314473,19.9257336 C15.1890791,17.5585403 14.4131779,15.9689661 14.7325074,15.0777783 C14.7727473,14.9654765 14.8964067,14.9070588 15.0087085,14.9472987 C15.1210103,14.9875385 15.179428,15.111198 15.1391882,15.2234998 C14.8922791,15.9125759 15.6270826,17.4179541 17.3723625,19.6604019 Z" id="Leaves-base"></path>
                            <path d="M15.9051419,17.5545811 L15.8042352,17.8259753 L15.5728415,17.6519236 C14.6794548,16.979928 14.0035921,16.1511316 13.5475966,15.1677313 C12.7896451,13.5331323 14.0227657,11.9285468 15.766529,12.4680801 C17.0144192,12.8541867 17.0144192,14.5711199 15.9051419,17.5545811 Z M15.6388374,12.8807772 C14.2694197,12.4570692 13.3323002,13.6764862 13.9395132,14.9860025 C14.3252796,15.8179467 14.8788357,16.5305038 15.601924,17.1253072 C16.5261497,14.5417793 16.4968271,13.1462456 15.6388374,12.8807772 Z" id="Leaves-base"></path>
                            <path d="M36.4622646,21.6811561 C36.5781303,21.7095478 36.6490419,21.8264915 36.6206502,21.9423572 C36.5922584,22.0582228 36.4753147,22.1291345 36.359449,22.1007427 C28.1799653,20.0964407 20.4198993,13.5941305 19.90066,7.6139743 C19.8903409,7.49512794 19.9783196,7.39041867 20.097166,7.38009959 C20.2160124,7.36978051 20.3207216,7.45775925 20.3310407,7.57660561 C20.831284,13.3379818 28.4432152,19.7161669 36.4622646,21.6811561 Z" id="Leaves-base" transform="translate(28.263372, 14.743138) rotate(40.000000) translate(-28.263372, -14.743138) "></path>
                            <path d="M27.1217417,13.3495625 C27.1349188,13.468126 27.0494863,13.5749229 26.9309228,13.5881 C26.8123593,13.6012771 26.7055624,13.5158445 26.6923853,13.397281 C26.3623082,10.4273506 26.6261384,8.30238482 27.5026606,7.01737814 C27.569883,6.9188282 27.704268,6.8934322 27.802818,6.96065459 C27.9013679,7.02787697 27.9267639,7.162262 27.8595415,7.26081194 C27.0542043,8.4414593 26.8020094,10.4727113 27.1217417,13.3495625 Z" id="Leaves-base" transform="translate(27.226161, 10.256257) rotate(40.000000) translate(-27.226161, -10.256257) "></path>
                            <path d="M28.193553,12.3529093 L27.9187915,12.6737046 L27.8195486,12.2631508 C26.798328,8.03850573 27.4763122,5.83286044 29.9240864,5.83286044 C31.1940905,5.83286044 31.7086883,6.48355435 31.3491527,7.65320983 C31.0221642,8.71698159 29.9714705,10.277118 28.193553,12.3529093 Z M30.9362206,7.52628034 C31.2082133,6.64142297 30.9104108,6.26486044 29.9240864,6.26486044 C27.9323222,6.26486044 27.3174222,8.0358278 28.1427355,11.7452741 C29.7160599,9.87500591 30.6482136,8.46323602 30.9362206,7.52628034 Z" id="Leaves-base" transform="translate(29.411124, 9.253283) rotate(40.000000) translate(-29.411124, -9.253283) "></path>
                            <path d="M27.1218607,1.78354374 C26.8433111,0.919928594 26.3635179,0.764422521 25.5253019,1.28039464 C23.8495085,2.31194585 24.3470244,4.06749722 27.1824114,6.66236858 C27.438005,4.32492573 27.4153987,2.69362937 27.1218607,1.78354374 Z M25.2988451,0.912507037 C26.3686477,0.25397944 27.1657603,0.512332072 27.5330038,1.65093406 C27.8681783,2.69010938 27.8756193,4.51005867 27.5639386,7.12863184 L27.5152047,7.53806808 L27.2063504,7.26489766 C23.9146947,4.35354731 23.217967,2.19341215 25.2988451,0.912507037 Z" id="Leaves-base" transform="translate(25.955565, 4.047066) rotate(40.000000) translate(-25.955565, -4.047066) "></path>
                            <path d="M26.6792293,11.3436824 C26.7808824,11.4061131 26.8126784,11.5391293 26.7502477,11.6407824 C26.687817,11.7424354 26.5548008,11.7742314 26.4531477,11.7118007 C23.8029697,10.0841813 21.9708304,9.14889102 20.9781552,8.91085938 C20.8621501,8.88304275 20.7906593,8.76645223 20.8184759,8.65044716 C20.8462925,8.5344421 20.962883,8.46295124 21.0788881,8.49076787 C22.1307556,8.74299312 23.9903942,9.69232148 26.6792293,11.3436824 Z" id="Leaves-base" transform="translate(23.797346, 10.114268) rotate(40.000000) translate(-23.797346, -10.114268) "></path>
                            <path d="M25.7557875,7.67861251 L25.9741384,8.00040439 L25.585561,8.0157261 C24.9475568,8.04088278 23.9963551,8.17965161 22.7361132,8.43233213 C21.723709,8.6353208 20.3978868,8.18058977 19.5888314,7.37665744 C18.6549979,6.44873718 18.6015239,5.28021801 19.6619328,4.27864826 C21.2172143,2.80966508 23.2610119,4.0019684 25.7557875,7.67861251 Z M19.9585655,4.59270724 C19.0843217,5.41844165 19.1249716,6.30672585 19.8933298,7.07021864 C20.6042706,7.77665764 21.7864891,8.18213545 22.6511867,8.00876219 C23.7036493,7.79774177 24.5469896,7.66446347 25.1835145,7.60909352 C22.9255917,4.37627155 21.1953438,3.42455445 19.9585655,4.59270724 Z" id="Leaves-base" transform="translate(22.425831, 6.073627) rotate(40.000000) translate(-22.425831, -6.073627) "></path>
                            <path d="M25.8825732,13.7067207 C25.9996016,13.7298568 26.0757164,13.8434826 26.0525803,13.9605111 C26.0294442,14.0775396 25.9158184,14.1536544 25.79879,14.1305183 C23.8383228,13.7429411 22.540385,13.7429411 21.9317046,14.1043478 C21.8291297,14.165252 21.6966037,14.1314714 21.6356994,14.0288965 C21.5747951,13.9263216 21.6085758,13.7937955 21.7111507,13.7328912 C22.4410952,13.2994834 23.8226601,13.2994834 25.8825732,13.7067207 Z" id="Leaves-base" transform="translate(23.831058, 13.769574) rotate(40.000000) translate(-23.831058, -13.769574) "></path>
                            <path d="M19.7546227,11.6525153 C18.8515648,11.7816855 18.5415802,12.5001109 18.84126,13.3689136 C19.1302462,14.2067145 19.8178571,14.6683802 20.4133499,14.3468298 C21.4030984,13.8123916 22.6636036,13.1555352 24.195061,12.3761453 C22.63328,11.692346 21.1540519,11.4523461 19.7546227,11.6525153 Z M24.7885898,12.559148 C23.0792354,13.4262326 21.6891577,14.1488835 20.6186065,14.7269531 C19.7408665,15.2009096 18.7977937,14.5677255 18.4328723,13.5097805 C18.0528508,12.4080587 18.4890383,11.3971431 19.6934536,11.2248679 C21.3023858,10.9947321 23.0006307,11.3119702 24.7846665,12.1719401 L25.1780761,12.3615777 L24.7885898,12.559148 Z" id="Leaves-base" transform="translate(21.738818, 13.019420) rotate(40.000000) translate(-21.738818, -13.019420) "></path>
                            <path d="M26.8401385,17.5819726 C26.9588224,17.5940172 27.0452706,17.6999937 27.033226,17.8186776 C27.0211813,17.9373614 26.9152049,18.0238096 26.796521,18.011765 C24.5274756,17.7814905 23.0514523,18.1005655 22.3578821,18.9350654 C22.2816322,19.026809 22.1454465,19.039369 22.0537029,18.9631191 C21.9619594,18.8868691 21.9493993,18.7506834 22.0256493,18.6589399 C22.8340175,17.6863155 24.4423703,17.3386346 26.8401385,17.5819726 Z" id="Leaves-base" transform="translate(24.505053, 18.260066) rotate(40.000000) translate(-24.505053, -18.260066) "></path>
                            <path d="M18.6237675,17.5607791 C18.3681997,17.7402671 18.3475766,17.8900525 18.5112551,18.0946588 C18.6974571,18.3274204 19.0997336,18.5717759 19.6070309,18.7605675 C20.6846194,19.161594 21.7941338,19.1723557 22.0292053,18.7807537 C22.4417106,18.0935672 23.2624288,17.2204616 24.4943845,16.1537888 C21.4933196,16.449894 19.5301373,16.9242258 18.6237675,17.5607791 Z M25.2935729,16.0420602 C23.8029391,17.2840118 22.8368049,18.2747531 22.3995962,19.0030925 C22.0134724,19.6463303 20.7146965,19.6337329 19.456357,19.1654395 C18.8824142,18.9518457 18.4181657,18.6698465 18.1739146,18.3645206 C17.8551951,17.9661055 17.9151655,17.5305416 18.3754838,17.2072551 C19.4313608,16.4657013 21.6773578,15.9568501 25.1368982,15.6608972 L25.8213335,15.6023459 L25.2935729,16.0420602 Z" id="Leaves-base" transform="translate(21.897825, 17.552668) rotate(40.000000) translate(-21.897825, -17.552668) "></path>
                            <path d="M29.4182463,20.6299338 C29.4915156,20.7240749 29.4745957,20.8597878 29.3804546,20.9330571 C29.2863134,21.0063264 29.1506005,20.9894065 29.0773312,20.8952654 C27.234963,18.5280721 26.4590618,16.9384979 26.7783912,16.0473101 C26.8186311,15.9350083 26.9422906,15.8765906 27.0545924,15.9168305 C27.1668942,15.9570703 27.2253119,16.0807298 27.185072,16.1930316 C26.938163,16.8821077 27.6729665,18.3874859 29.4182463,20.6299338 Z" id="Leaves-base" transform="translate(28.086136, 18.441361) rotate(40.000000) translate(-28.086136, -18.441361) "></path>
                            <path d="M29.7182656,18.4247468 L29.6173589,18.696141 L29.3859652,18.5220893 C28.4925785,17.8500937 27.8167158,17.0212973 27.3607203,16.037897 C26.6027688,14.403298 27.8358894,12.7987125 29.5796527,13.3382458 C30.8275429,13.7243524 30.8275429,15.4412856 29.7182656,18.4247468 Z M29.4519612,13.7509429 C28.0825434,13.3272348 27.1454239,14.5466519 27.7526369,15.8561682 C28.1384033,16.6881124 28.6919594,17.4006695 29.4150477,17.9954729 C30.3392734,15.411945 30.3099508,14.0164113 29.4519612,13.7509429 Z" id="Leaves-base" transform="translate(28.833253, 15.963952) rotate(40.000000) translate(-28.833253, -15.963952) "></path>
                            <path d="M29.317592,36.6198126 C29.4334576,36.6482043 29.5043692,36.7651481 29.4759775,36.8810137 C29.4475858,36.9968794 29.330642,37.067791 29.2147764,37.0393993 C21.0352926,35.0350973 13.2752267,28.5327871 12.7559873,22.5526308 C12.7456682,22.4337845 12.833647,22.3290752 12.9524933,22.3187561 C13.0713397,22.308437 13.176049,22.3964158 13.1863681,22.5152621 C13.6866114,28.2766383 21.2985425,34.6548235 29.317592,36.6198126 Z" id="Leaves-base" transform="translate(21.118700, 29.681795) scale(-1, -1) rotate(126.000000) translate(-21.118700, -29.681795) "></path>
                            <path d="M16.6106815,34.1227737 C16.6238586,34.2413372 16.538426,34.348134 16.4198625,34.3613111 C16.301299,34.3744883 16.1945022,34.2890557 16.1813251,34.1704922 C15.851248,31.2005618 16.1150782,29.075596 16.9916004,27.7905893 C17.0588228,27.6920394 17.1932078,27.6666434 17.2917578,27.7338658 C17.3903077,27.8010882 17.4157037,27.9354732 17.3484813,28.0340231 C16.5431441,29.2146705 16.2909492,31.2459225 16.6106815,34.1227737 Z" id="Leaves-base" transform="translate(16.715101, 31.029469) scale(-1, -1) rotate(126.000000) translate(-16.715101, -31.029469) "></path>
                            <path d="M14.3445825,32.0194187 L14.069821,32.340214 L13.9705781,31.9296602 C12.9493574,27.7050151 13.6273416,25.4993699 16.0751158,25.4993699 C17.34512,25.4993699 17.8597177,26.1500638 17.5001821,27.3197192 C17.1731937,28.383491 16.1225,29.9436274 14.3445825,32.0194187 Z M17.08725,27.1927898 C17.3592427,26.3079324 17.0614403,25.9313699 16.0751158,25.9313699 C14.0833516,25.9313699 13.4684517,27.7023372 14.293765,31.4117835 C15.8670894,29.5415153 16.7992431,28.1297454 17.08725,27.1927898 Z" id="Leaves-base" transform="translate(15.562154, 28.919792) scale(-1, -1) rotate(126.000000) translate(-15.562154, -28.919792) "></path>
                            <path d="M11.7759619,30.4665788 C11.4974123,29.6029636 11.0176191,29.4474576 10.1794031,29.9634297 C8.50360972,30.9949809 9.00112555,32.7505323 11.8365126,35.3454036 C12.0921062,33.0079608 12.0694999,31.3766644 11.7759619,30.4665788 Z M9.95294626,29.5955421 C11.0227489,28.9370145 11.8198615,29.1953671 12.187105,30.3339691 C12.5222795,31.3731444 12.5297205,33.1930937 12.2180398,35.8116669 L12.1693059,36.2211031 L11.8604516,35.9479327 C8.5687959,33.0365823 7.87206815,30.8764472 9.95294626,29.5955421 Z" id="Leaves-base" transform="translate(10.609666, 32.730101) scale(-1, -1) rotate(126.000000) translate(-10.609666, -32.730101) "></path>
                            <path d="M19.6945231,35.6892506 C19.7961762,35.7516813 19.8279722,35.8846975 19.7655414,35.9863505 C19.7031107,36.0880036 19.5700945,36.1197996 19.4684415,36.0573689 C16.8182635,34.4297494 14.9861241,33.4944592 13.9934489,33.2564276 C13.8774439,33.2286109 13.805953,33.1120204 13.8337696,32.9960153 C13.8615863,32.8800103 13.9781768,32.8085194 14.0941818,32.836336 C15.1460494,33.0885613 17.0056879,34.0378897 19.6945231,35.6892506 Z" id="Leaves-base" transform="translate(16.812639, 34.459836) scale(-1, -1) rotate(126.000000) translate(-16.812639, -34.459836) "></path>
                            <path d="M16.20747,37.7148564 L16.4258209,38.0366483 L16.0372435,38.05197 C15.3992393,38.0771267 14.4480376,38.2158955 13.1877957,38.468576 C12.1753915,38.6715647 10.8495693,38.2168337 10.0405139,37.4129013 C9.10668043,36.4849811 9.05320641,35.3164619 10.1136153,34.3148922 C11.6688968,32.845909 13.7126944,34.0382123 16.20747,37.7148564 Z M10.410248,34.6289511 C9.53600424,35.4546855 9.5766541,36.3429697 10.3450123,37.1064625 C11.0559531,37.8129015 12.2381716,38.2183793 13.1028692,38.0450061 C14.1553318,37.8339857 14.9986721,37.7007074 15.635197,37.6453374 C13.3772742,34.4125154 11.6470263,33.4607983 10.410248,34.6289511 Z" id="Leaves-base" transform="translate(12.877513, 36.109871) scale(-1, -1) rotate(126.000000) translate(-12.877513, -36.109871) "></path>
                            <path d="M22.5082043,34.108371 C22.6252328,34.1315071 22.7013476,34.2451329 22.6782115,34.3621614 C22.6550754,34.4791898 22.5414496,34.5553046 22.4244211,34.5321685 C20.463954,34.1445913 19.1660162,34.1445913 18.5573358,34.505998 C18.4547609,34.5669023 18.3222348,34.5331216 18.2613305,34.4305467 C18.2004263,34.3279718 18.2342069,34.1954458 18.3367818,34.1345415 C19.0667264,33.7011337 20.4482913,33.7011337 22.5082043,34.108371 Z" id="Leaves-base" transform="translate(20.456690, 34.171224) scale(-1, -1) rotate(126.000000) translate(-20.456690, -34.171224) "></path>
                            <path d="M17.870115,34.9437924 C16.9670571,35.0729625 16.6570725,35.7913879 16.9567523,36.6601906 C17.2457385,37.4979916 17.9333494,37.9596572 18.5288422,37.6381068 C19.5185907,37.1036686 20.7790959,36.4468123 22.3105532,35.6674223 C20.7487722,34.983623 19.2695442,34.7436231 17.870115,34.9437924 Z M22.9040821,35.850425 C21.1947277,36.7175096 19.80465,37.4401606 18.7340988,38.0182301 C17.8563588,38.4921867 16.913286,37.8590025 16.5483646,36.8010575 C16.1683431,35.6993357 16.6045306,34.6884201 17.8089459,34.5161449 C19.4178781,34.2860091 21.116123,34.6032472 22.9001588,35.4632171 L23.2935684,35.6528548 L22.9040821,35.850425 Z" id="Leaves-base" transform="translate(19.854310, 36.310697) scale(-1, -1) rotate(126.000000) translate(-19.854310, -36.310697) "></path>
                            <path d="M27.224313,32.5075367 C27.3429969,32.5195813 27.429445,32.6255578 27.4174004,32.7442417 C27.4053557,32.8629256 27.2993793,32.9493737 27.1806954,32.9373291 C24.91165,32.7070546 23.4356267,33.0261296 22.7420566,33.8606296 C22.6658066,33.9523731 22.5296209,33.9649332 22.4378773,33.8886832 C22.3461338,33.8124332 22.3335737,33.6762475 22.4098237,33.584504 C23.2181919,32.6118797 24.8265447,32.2641987 27.224313,32.5075367 Z" id="Leaves-base" transform="translate(24.889228, 33.185630) scale(-1, -1) rotate(126.000000) translate(-24.889228, -33.185630) "></path>
                            <path d="M21.0913661,35.8439653 C20.8357983,36.0234533 20.8151752,36.1732387 20.9788537,36.3778449 C21.1650557,36.6106065 21.5673322,36.854962 22.0746295,37.0437536 C23.152218,37.4447802 24.2617324,37.4555419 24.4968039,37.0639399 C24.9093092,36.3767534 25.7300274,35.5036478 26.9619831,34.436975 C23.9609182,34.7330802 21.997736,35.207412 21.0913661,35.8439653 Z M27.7611716,34.3252464 C26.2705378,35.567198 25.3044035,36.5579393 24.8671948,37.2862787 C24.4810711,37.9295165 23.1822951,37.9169191 21.9239556,37.4486257 C21.3500129,37.2350318 20.8857644,36.9530326 20.6415132,36.6477067 C20.3227938,36.2492917 20.3827642,35.8137277 20.8430824,35.4904413 C21.8989594,34.7488875 24.1449565,34.2400363 27.6044968,33.9440833 L28.2889321,33.885532 L27.7611716,34.3252464 Z" id="Leaves-base" transform="translate(24.365423, 35.835854) scale(-1, -1) rotate(126.000000) translate(-24.365423, -35.835854) "></path>
                            <path d="M26.1523871,31.7891977 C26.2256564,31.8833388 26.2087365,32.0190518 26.1145953,32.0923211 C26.0204542,32.1655904 25.8847413,32.1486704 25.811472,32.0545293 C23.9691038,29.6873361 23.1932025,28.0977618 23.512532,27.2065741 C23.5527719,27.0942723 23.6764314,27.0358545 23.7887331,27.0760944 C23.9010349,27.1163343 23.9594527,27.2399937 23.9192128,27.3522955 C23.6723038,28.0413716 24.4071073,29.5467498 26.1523871,31.7891977 Z" id="Leaves-base" transform="translate(24.820277, 29.600625) scale(-1, -1) rotate(126.000000) translate(-24.820277, -29.600625) "></path>
                            <path d="M23.1817994,31.488938 L23.0808926,31.7603322 L22.8494989,31.5862805 C21.9561122,30.9142848 21.2802495,30.0854885 20.824254,29.1020882 C20.0663025,27.4674892 21.2994231,25.8629037 23.0431864,26.402437 C24.2910766,26.7885435 24.2910766,28.5054768 23.1817994,31.488938 Z M22.9154949,26.8151341 C21.5460771,26.391426 20.6089576,27.6108431 21.2161706,28.9203594 C21.6019371,29.7523036 22.1554932,30.4648607 22.8785814,31.0596641 C23.8028071,28.4761361 23.7734845,27.0806025 22.9154949,26.8151341 Z" id="Leaves-base" transform="translate(22.296786, 29.028143) scale(-1, -1) rotate(126.000000) translate(-22.296786, -29.028143) "></path>
                        </g>
                        <g id="Leaves" transform="translate(157.032000, 37.304000)" fill-rule="nonzero">
                            <path d="M20.736,93.1147384 L112.691903,93.1147384 C106.492606,89.1429759 103.392958,85.798442 103.392958,83.081137 C103.392958,79.0051793 93.4142809,80.8181723 90.1609283,80.2386135 C86.9075758,79.6590546 89.5314856,73.5258831 83.3801139,72.8784699 C77.2287422,72.2310568 76.8559564,75.8134079 73.3570975,75.2507254 C69.8582386,74.6880428 74.4981205,64.5752451 62.2387325,64.5752451 C49.9793444,64.5752451 57.5186696,71.1653043 52.0424515,71.268 C46.5662334,71.3706956 48.6826589,68.1440995 42.5132614,69.188693 C36.343864,70.2332864 41.2384139,83.081137 34.9012885,80.8495237 C30.6765381,79.3617815 25.9547753,83.4501864 20.736,93.1147384 Z" fill="#C9DAF2" transform="translate(66.713952, 78.844992) scale(-1, 1) translate(-66.713952, -78.844992) "></path>
                            <g id="Group-28" transform="translate(40.392000, 8.640000)">
                                <path d="M0.505462269,79.1171823 C-1.40735896,29.2804879 4.17543462,2.99073967 17.253843,0.247937754 C30.3322514,-2.49486416 24.7494578,23.794884 0.505462269,79.1171823 Z" id="Leaf-base" fill="#FFFFFF"></path>
                                <path d="M0.844444493,73.8191772 C6.81114244,39.540881 12.030733,19.8062059 16.5032162,14.6151518" id="Leaf-base" stroke="#7990DD" stroke-width="0.5" stroke-linecap="round"></path>
                            </g>
                            <g id="Group-29" transform="translate(18.360000, 0.000000)">
                                <path d="M20.2799175,96.8180769 C18.6620985,60.2578617 -15.2890505,14.6704317 8.42805076,1.40255446 C32.1451521,-11.8653228 24.2878693,81.4312512 20.2799175,96.8180769 Z" id="Leaf-base" fill="#7990DD"></path>
                                <path d="M21.5041506,86.2313096 C16.8772243,48.6381221 13.6783534,26.1739664 11.907538,18.8388426" id="Leaf-base" stroke="#FFFFFF" stroke-width="0.5" stroke-linecap="round"></path>
                            </g>
                            <g id="Group-25" transform="translate(5.832000, 68.904000)">
                                <path d="M36.6888209,23.9538461 C17.8075659,0.509318335 0.366609188,-5.62266531 0.106425313,5.54569306 C-0.153758562,16.7140514 19.4566161,10.1252729 36.6888209,23.9538461 Z" id="Leaf-base" fill="#7990DD"></path>
                                <path d="M31.9534615,20.0501899 C27.5290382,14.9975757 20.5883459,10.5506913 11.1313844,6.70953657" id="Leaf-base" stroke="#FFFFFF" stroke-width="0.5" stroke-linecap="round"></path>
                            </g>
                            <g id="Group-27" transform="translate(37.584000, 45.576000)">
                                <path d="M0,51.405664 C4.56079234,22.1246905 26.6406195,-13.4535395 35.8271364,5.37483232 C45.0136532,24.2032041 12.8377485,33.4665943 0,51.405664 Z" id="Leaf-base" fill="#7990DD"></path>
                                <path d="M1.08380651,48.7820499 C8.08535161,33.3358311 15.5623401,22.4433618 23.5147721,16.1046417" id="Leaf-base" stroke="#FFFFFF" stroke-width="0.5" stroke-linecap="round"></path>
                            </g>
                            <g id="Group-26" transform="translate(36.936000, 82.296000)">
                                <path d="M0.214494813,15.8119851 C5.68878885,5.06363504 25.2529256,-5.52492064 32.0424572,3.40222304 C38.8319887,12.3293667 6.98209242,11.161067 0.214494813,15.8119851 Z" id="Leaf-base" fill="#FFFFFF"></path>
                                <path d="M26.4200285,4.6195173 C17.9562406,4.6195173 9.49245269,7.9250617 1.02866478,14.5361505" id="Leaf-base" stroke="#7990DD" stroke-width="0.5" stroke-linecap="round"></path>
                            </g>
                            <g id="Leaf-base" transform="translate(0.000000, 40.824000)">
                                <path d="M39.373858,51.3517676 C29.7000952,9.55715716 9.68986711,-9.41864165 1.3589734,4.53659338 C-6.97192031,18.4918284 25.1459743,22.7777718 39.373858,51.3517676 Z" fill="#FFFFFF"></path>
                                <path d="M36.8928,44.4945878 C30.7080196,30.8995319 22.9370112,20.9731354 13.5797748,14.7153982" stroke="#7990DD" stroke-width="0.5" stroke-linecap="round"></path>
                            </g>
                        </g>
                        <g id="Leaves" transform="translate(20.304000, 58.472000)" fill-rule="nonzero">
                            <g id="Leaf" transform="translate(4.968000, 19.872000)">
                                <path d="M35.31459,57.2771026 C27.2695577,58.9915724 18.1888996,59.2921696 16.6529688,50.7245407 C15.117038,42.1569118 22.6478757,44.0188121 22.6478757,39.9173683 C22.6478757,35.8159246 14.0634725,33.7588761 14.7883267,26.015178 C15.5131808,18.27148 24.1891245,17.6599576 21.6251881,12.9301338 C19.0612516,8.20030997 22.6365311,3.7076986 24.2064744,3.6331125 C25.7764177,3.55852639 26.4132363,2.98766658 30.6776504,7.12052675 C34.9420646,11.2533869 37.9161151,10.8173886 39.4463437,14.7087791 C40.9765723,18.6001697 36.4416812,21.655472 38.5774737,27.5017224 C40.7132662,33.3479728 48.5043406,33.5635052 48.5043406,42.3798925 C48.5043406,51.1962798 43.3596224,55.5626329 35.31459,57.2771026 Z" id="Leaf-base" fill="#FF8E88" transform="translate(31.624609, 30.905088) scale(-1, 1) rotate(48.000000) translate(-31.624609, -30.905088) "></path>
                                <path d="M27.7381658,14.242313 L27.8428985,14.2115742 C29.7081704,13.6188881 31.1212311,11.90356 32.0946009,9.06281391 C32.1951078,9.13879314 32.2947433,9.21208954 32.3934746,9.28340645 C31.3693963,12.2050922 29.8663299,13.9671251 27.8971572,14.5664926 C28.1888157,15.1518123 28.4830937,15.6949998 28.7797424,16.1953134 C30.7029823,15.2863468 32.1585764,13.1615828 33.1587031,9.81225573 C33.263663,9.88048417 33.3668578,9.94736887 33.4689242,10.012552 C32.4442324,13.3840639 30.9388023,15.549495 28.9642045,16.5007328 C28.9989904,16.5567919 29.0332664,16.6117412 29.0675737,16.6661228 C29.8915067,17.9721677 30.6454842,19.3577933 31.3287599,20.8105336 L31.0930246,21.0224292 C33.9595752,18.4773214 36.0625822,15.6863982 37.4031157,12.6479685 C37.4939978,12.7365626 37.5819818,12.8289411 37.6677384,12.9250656 C36.3292898,15.9033632 34.2682908,18.6442158 31.4857576,21.1475887 C32.6183348,23.6125485 33.5503828,26.2655006 34.2779657,29.046638 L34.1048349,29.2037355 C35.3970164,28.055248 36.5254299,26.8448557 37.4901656,25.5723665 C37.5077931,25.7324364 37.5310109,25.8947905 37.5593885,26.0594684 C36.6406169,27.2395422 35.5788593,28.3649704 34.3771943,29.4366043 C34.6773475,30.6148278 34.9400735,31.8166147 35.1660393,33.036275 C36.6845249,32.3875792 38.1664465,31.5116683 39.6109685,30.4096426 C39.6878302,30.499194 39.7671097,30.5877978 39.8476998,30.6751699 C38.34987,31.8208693 36.8105395,32.7276645 35.2308491,33.3953293 C35.6291046,35.6189237 35.9052224,37.9001428 36.0581446,40.2119963 C36.2326531,42.8501876 36.2369737,45.4550723 36.0871555,47.9273356 C40.873093,44.6848639 43.9806952,40.5922612 45.415363,35.6447658 C45.5082398,35.7492824 45.6003973,35.8560347 45.6907751,35.9648727 C44.1814931,40.9719974 40.9691026,45.1102707 36.0584824,48.3752545 C35.9848839,49.4445607 35.8825213,50.4874296 35.7524532,51.495827 C40.7100949,49.6936932 44.4560486,45.1982196 47.0008918,38.0072714 C47.0739964,38.1602697 47.1429282,38.318042 47.208133,38.4800098 C44.5961809,45.6573051 40.7561071,50.1280338 35.6994761,51.8917017 C35.4145944,53.9661565 35.0108897,55.8870507 34.5004027,57.5814734 L34.7530638,57.5271102 C34.5371098,57.573132 34.3204096,57.618135 34.1031291,57.661975 C34.6213692,55.9886859 35.0318683,54.0818613 35.3234868,52.0167275 C30.1060338,53.6793784 23.6245173,52.5270823 15.8908308,48.5578417 C15.8941787,48.4231037 15.9016674,48.2939467 15.9120384,48.1682482 C23.7054135,52.1969906 30.189362,53.350026 35.3773279,51.6261729 C35.5059272,50.6542904 35.6088182,49.6498627 35.6844943,48.6197087 L35.5856096,48.6836034 L35.5856096,48.6836034 L35.394255,48.3845527 L35.7152579,48.1766484 C35.8812409,45.6398809 35.8834071,42.9557578 35.7034636,40.2354012 C35.6246921,39.0445459 35.5130476,37.8619461 35.3687707,36.6913521 L35.4287053,36.6749725 C28.8635406,38.4416364 22.6448787,37.3620193 16.7850491,33.4409348 C16.4994151,33.1204771 16.2253175,32.7865241 15.9688381,32.4360711 C22.0389463,36.8741847 28.4850073,38.1716783 35.3229915,36.3354405 C35.2020202,35.3923978 35.0590425,34.458023 34.8949655,33.5336808 C28.911216,35.9255025 22.3534169,34.9114475 15.2376329,30.4896751 L15.424909,30.1880457 C22.4684297,34.5649134 28.931173,35.5617637 34.8298397,33.1767829 C33.7129262,27.1007854 31.6797241,21.4727005 28.7668411,16.8553888 L28.6361453,16.6458572 C26.6681059,17.4409502 24.2578764,17.089765 21.4157096,15.5850384 C21.4531853,15.467973 21.4820043,15.3496722 21.5021187,15.2289288 L21.3724774,15.1586104 C24.1788668,16.6896528 26.5345855,17.0849749 28.4503339,16.3369968 C28.1464724,15.8213508 27.8452664,15.2623595 27.546727,14.6594172 C25.7439699,15.072899 23.5702704,14.5621972 21.0356587,13.12542 L21.0636618,13.1801414 C20.9500674,12.970588 20.8485237,12.7615002 20.7583224,12.5532417 C23.37109,14.1247278 25.5769232,14.7182858 27.3871681,14.3321325 C26.1042809,11.6655185 24.8710279,8.18217716 23.6862558,3.88111988 L23.6449481,3.88312009 C23.7857192,3.87643222 23.918988,3.86575429 24.0480422,3.85483508 C25.2315921,8.14176124 26.4619462,11.6041267 27.7381658,14.242313 Z" id="Leaf-base" fill="#FFFFFF" transform="translate(31.222883, 30.758405) scale(-1, 1) rotate(48.000000) translate(-31.222883, -30.758405) "></path>
                            </g>
                            <g id="Leaf" transform="translate(36.764426, 4.536000)">
                                <path d="M23.5728432,67.6092995 C14.353255,69.6126285 3.94684213,69.9638712 2.18666901,59.9527416 C0.426495884,49.9416119 9.05681835,52.1172109 9.05681835,47.3247432 C9.05681835,42.5322754 -0.780887646,40.128649 0.0497935203,31.0802686 C0.880474687,22.0318882 13.3496376,21.2749097 10.4113724,15.7481905 C7.47310726,10.2214712 4.93423679,1.42193045 10.4113724,0.184262694 C15.8885081,-1.05340506 13.3719127,4.17301042 18.2589213,9.00218773 C23.14593,13.831365 26.5541849,13.3219083 28.3078233,17.8689325 C30.0614616,22.4159566 24.8644871,25.9860258 27.3121003,32.8172707 C29.7597134,39.6485155 38.6882665,39.9003615 38.6882665,50.2021611 C38.6882665,60.5039607 32.7924314,65.6059705 23.5728432,67.6092995 Z" id="Leaf-base" fill="#374ABE"></path>
                                <path d="M15.521314,17.0676695 L15.5732636,17.0521345 C17.7604134,16.3846593 19.4143691,14.3671821 20.5483595,10.9964716 C20.6493693,11.0742194 20.748567,11.1486314 20.8469828,11.2212886 C19.6710772,14.6440122 17.9435507,16.7022199 15.6774897,17.3914534 C16.0217069,18.0987225 16.3691439,18.752759 16.7194809,19.3537121 C18.9403259,18.2964485 20.6192279,15.8047853 21.7680537,11.8689466 C21.8727611,11.9394078 21.9756938,12.0074504 22.0776473,12.0739739 C20.9039363,16.0293383 19.1748751,18.5603645 16.9019259,19.6594179 C16.9462236,19.734894 16.9911646,19.8084725 17.0361529,19.8811842 C17.9732319,21.3957254 18.8313125,23.0019565 19.6095536,24.6856155 L19.3399409,24.9294129 C22.697697,21.9367205 25.0738754,18.6656042 26.526189,15.0848427 C26.6179943,15.1739846 26.7080084,15.2664972 26.7960579,15.3621867 C25.3463675,18.8697218 23.0194818,22.0820912 19.7651061,25.0248361 C21.0934805,27.957144 22.1828761,31.1191014 23.0284282,34.4362712 L22.7350523,34.7014475 C24.2735786,33.3301937 25.6016933,31.9020348 26.7269332,30.4132573 C26.7459762,30.5727364 26.7703584,30.7348926 26.7990499,30.8990222 C25.7466172,32.2589573 24.5233369,33.5673959 23.126197,34.8275854 C23.4604369,36.1712827 23.7545129,37.541191 24.008471,38.9310811 C25.7499923,38.1750312 27.4526412,37.1626373 29.1155552,35.8952643 C29.1916482,35.9851706 29.2694016,36.0747007 29.3482915,36.163139 C27.6326207,37.473768 25.8736406,38.516282 24.0721496,39.2913259 C24.5407498,41.9274843 24.8645528,44.6347878 25.0425862,47.3790772 C25.242593,50.4620759 25.2474264,53.5060753 25.0755393,56.3948102 C30.6240751,52.6423977 34.2014206,47.8676689 35.8127073,42.0650633 C35.9060571,42.1717451 35.9982093,42.2806406 36.0888174,42.3913821 C34.4024742,48.2502181 30.7204696,53.0685149 25.0481076,56.841254 C24.9639838,58.1027625 24.8466777,59.332363 24.6970739,60.5210657 C30.3593721,58.3862826 34.6718675,53.1735101 37.645532,44.8793491 C37.7166344,45.0357394 37.7845952,45.1963852 37.8493371,45.3607258 C34.8090295,53.6367508 30.4044451,58.8231193 24.6459722,60.9180745 C24.3177895,63.3848753 23.8491387,65.6687345 23.2541586,67.6787476 C23.1220358,67.7058449 22.9905645,67.7333741 22.8589051,67.7605252 C23.4597244,65.773846 23.9349273,63.5059503 24.2694679,61.0491924 C18.2679287,63.0732781 10.8246439,61.8054717 1.95254679,57.2433726 C1.95524403,57.1081823 1.96063276,56.9783715 1.96842653,56.8514932 C10.9013279,61.4747336 18.3476516,62.7436261 24.3218607,60.6565097 C24.4702993,59.503772 24.5884803,58.3102949 24.6744763,57.0861713 L24.5683413,57.15481 L24.5683413,57.15481 L24.3764159,56.8561252 L24.7041019,56.6432338 C24.8917308,53.6900387 24.8931992,50.5669835 24.6878758,47.4020336 C24.5945269,45.9631093 24.4609117,44.534488 24.2873333,43.1210093 L24.4162236,43.085326 C16.9429807,45.1661236 9.88719986,44.0629961 3.26101446,39.7801161 C2.96893224,39.4587432 2.68507583,39.1267769 2.41422979,38.7811011 C9.23460632,43.5698847 16.5057223,44.8962357 24.2415109,42.7650009 C24.0992296,41.6422038 23.9306757,40.5306074 23.737043,39.4312657 C16.7953996,42.2825244 9.22706916,41.1849539 1.04798582,36.1372579 L1.23433112,35.835052 C9.34067033,40.8378542 16.8142955,41.9186531 23.6717553,39.0749916 C22.388976,32.0000097 20.0622755,25.4474603 16.7337781,20.0678217 L16.5739478,19.8065062 C14.725482,20.5721083 12.5334751,20.4320539 10.0036995,19.3820546 C10.0848435,19.2858539 10.1615452,19.189081 10.2328988,19.0913305 C12.605652,20.0604927 14.6564828,20.1963379 16.3913855,19.4968222 C16.0334728,18.8800277 15.6791915,18.2102163 15.3281143,17.4862251 C14.0069012,17.7989475 12.5121112,17.6685667 10.8455457,17.0942738 C10.8342486,16.965325 10.8126,16.8340666 10.7810332,16.6999415 C12.420246,17.2936226 13.8827572,17.4467949 15.1705904,17.1584238 C13.2763117,13.1526687 11.4753767,7.5604047 9.76605954,0.379147688 C9.8742703,0.336727581 9.98680426,0.298617108 10.1033349,0.264241135 C11.8199548,7.47859823 13.6263115,13.0799995 15.521314,17.0676695 Z" id="Leaf-base" fill="#FFFFFF"></path>
                            </g>
                            <g id="Leaf" transform="translate(48.600000, 0.000000)">
                                <path d="M19.6571364,71.4279132 C10.6128291,70.6138571 1.38013074,67.81072 4.96386635,57.4014668 C8.54760196,46.9922135 12.8348802,55.9181923 15.7132483,50.5060687 C18.5916165,45.0939451 11.9672981,41.3754369 12.7352887,36.244001 C13.5032792,31.1125651 23.185502,34.9312896 23.1120284,32.1680224 C23.032312,29.1699708 19.2130548,25.7182298 21.5854158,20.1906997 C23.9577768,14.6631697 31.0178977,20.0388131 31.2854935,13.6971014 C31.5530893,7.35538972 31.226633,2.10887844 36.6239273,2.54559063 C42.0212216,2.98230283 42.2783049,9.43591782 44.0624498,15.6792838 C45.8465946,21.9226497 49.9880887,18.7728694 49.1904662,23.7895148 C48.3928438,28.8061603 42.0475768,30.7552808 40.6866032,38.2354731 C39.3256296,45.7156653 46.9645,48.6664849 41.7009585,58.8297568 C36.437417,68.9930287 28.7014436,72.2419693 19.6571364,71.4279132 Z" id="Leaf-base" fill="#000140" transform="translate(26.731820, 37.033835) rotate(-7.000000) translate(-26.731820, -37.033835) "></path>
                                <path d="M37.6057999,18.6123228 L37.5792442,18.7677128 C39.7169431,19.3866864 41.9545177,18.4878291 44.3073735,16.0715209 C44.3513702,16.1974616 44.3972804,16.3188611 44.4441799,16.4359388 C42.0395138,18.8512593 39.7250292,19.7454625 37.515326,19.1178496 C37.3031307,20.2372588 36.9903011,21.3545144 36.5778903,22.468872 C35.8385164,24.4667026 35.1488939,26.4035801 34.5028436,28.2941663 L34.4817125,28.2994815 C39.959921,26.8014159 43.7703549,23.615686 45.9196912,18.7307893 C46.0118874,18.818993 46.1048444,18.9014812 46.1979327,18.9786743 C43.998678,23.9001926 40.1222607,27.1252556 34.5758028,28.6419847 L34.4898647,28.3321585 C33.0853596,32.4446365 31.8869631,36.3384005 30.8310136,40.1645042 L30.7690188,40.1597788 C34.5738084,40.5018541 37.8298716,40.3592417 40.5399144,39.7318168 C40.5381061,39.8528129 40.5405706,39.9732418 40.5451942,40.0926078 C37.810061,40.7148227 34.5394083,40.8552618 30.7374719,40.513443 C30.4060567,41.7138521 30.0886811,42.9168724 29.7833603,44.1183519 C29.7983923,44.1205993 29.8131195,44.1228836 29.8278578,44.1251502 L29.7740907,44.4761096 L29.6959942,44.4634089 L29.6959942,44.4634089 L29.4355472,45.5073224 C29.199699,46.4632066 28.9709947,47.4192831 28.7484177,48.3779641 C28.470734,49.5740001 27.948652,51.9931412 27.4063438,54.5124995 L27.2346776,55.3101079 C26.8851219,56.9342771 26.5369575,58.551024 26.2496323,59.8625716 L25.8943338,59.8610032 C34.7191354,59.9359949 39.6986008,56.0353742 42.6721784,47.4876667 L42.7895651,47.5281883 C42.8307895,47.6455874 42.8710962,47.7635938 42.9103161,47.8822984 L43.0078778,47.6045098 C40.0182168,56.1984499 34.9835457,60.2079173 26.1731739,60.217139 C25.9534505,61.2096287 25.7768026,61.9930074 25.6712702,62.4198822 L25.6023534,62.6937615 C30.6774609,63.0830974 36.5771158,60.2732517 43.3160016,54.2614136 C43.273839,54.4576358 43.22526,54.6583179 43.1708698,54.8622864 C36.4894081,60.7258947 30.5994961,63.4529769 25.5130976,63.043383 C24.612185,66.5470686 23.6505696,69.0377907 22.2737024,71.2270103 C22.1339505,71.2278505 21.9937324,71.2267964 21.8531582,71.2246522 C23.2653535,69.0359313 24.2406646,66.551075 25.1553405,63.0108818 C20.1432226,62.4559854 15.9234958,58.8113082 12.5096815,52.0725867 C12.6479077,52.0862066 12.7856902,52.0958857 12.9222722,52.0986696 C16.2655346,58.6160945 20.368591,62.1375915 25.2441035,62.6608178 L25.3262468,62.3344479 L25.3262468,62.3344479 C25.5654859,61.3667352 26.1733613,58.5514456 26.8019856,55.6311028 L26.9736817,54.8333502 C27.5459742,52.1742208 28.1092772,49.5591889 28.4022179,48.2974384 C28.704143,46.99699 29.0173279,45.7013124 29.3442982,44.4044147 C23.5468459,43.3645357 19.4898117,39.5677818 17.1769846,33.0355643 C17.2997591,33.0283536 17.4233453,33.0219922 17.5472111,33.0168 C19.8271147,39.3820289 23.7873893,43.0554749 29.431911,44.0595219 C31.1812508,37.1700789 33.3261059,30.23126 36.2445477,22.3454632 C36.6551468,21.236001 36.9653497,20.1235549 37.1751002,19.0080679 C35.1280433,18.2782267 33.1737321,16.230889 31.3227279,12.866681 L31.3232438,12.853158 L31.3232438,12.853158 L31.6286361,12.6858419 C33.4229372,15.9499094 35.288531,17.9396753 37.2372643,18.6554318 C38.108344,13.5048166 36.8392489,8.28920286 33.4252128,3.00310081 C33.5152617,2.92790851 33.611085,2.85839896 33.7114623,2.79383395 C37.1593838,8.12502739 38.4587501,13.3993299 37.6057999,18.6123228 Z" id="Leaf-base" fill="#FFFFFF" transform="translate(29.353807, 37.010925) rotate(-7.000000) translate(-29.353807, -37.010925) "></path>
                            </g>
                            <path d="M0,76.2667384 C43.7661937,77.0242057 69.1485974,77.0242057 76.1472113,76.2667384 C86.6451321,75.1305374 78.7738136,71.2043969 78.7738136,67.7409657 C78.7738136,64.2775345 69.263925,65.8180746 66.1634119,65.3256107 C63.0628988,64.8331468 65.5635398,59.6216555 59.7011537,59.0715342 C53.8387675,58.521413 53.4834947,61.5654159 50.1490089,61.0872921 C46.8145231,60.6091683 55.2582829,51.84 43.5748291,51.84 C31.8913753,51.84 35.0546551,57.6158196 29.8357045,57.7030823 C24.6167538,57.7903451 29.2029645,54.7872034 20.7541866,55.9362493 C12.3054087,57.0852951 18.5802979,61.6564993 16.2777435,62.6799407 C13.9751891,63.7033822 9.4350378,60.0814431 6.62992599,62.6799407 C3.82481418,65.2784384 9.4350378,69.0317843 8.4835307,71.8283582 C7.84919263,73.6927408 5.02134906,75.1722009 0,76.2667384 Z" fill="#FFFFFF"></path>
                        </g>
                        <g id="-Seat" transform="translate(74.304000, 74.024000)" fill="#2D3053" fill-rule="nonzero">
                            <path d="M20.952,0 L20.952,2.16 L93.528,2.16 L93.528,0 L99.36,0 L99.36,2.16 L111.672,2.16 L111.672,10.368 L99.36,10.368 L99.36,14.04 L111.672,14.04 L111.672,22.248 L99.36,22.248 L99.36,25.92 L111.672,25.92 L111.672,34.128 L99.36,34.128 L99.36,36.288 L120.312,36.288 L120.312,42.336 L110.16,42.336 L110.16,77.328 L104.328,77.328 L104.328,42.336 L99.36,42.336 L99.36,68.688 L93.528,68.688 L93.528,42.336 L20.952,42.336 L20.952,68.688 L15.12,68.688 L15.12,42.336 L12.312,42.336 L12.312,77.328 L6.48,77.328 L6.48,42.336 L0,42.336 L0,36.288 L15.12,36.288 L15.12,34.128 L6.48,34.128 L6.48,25.92 L15.12,25.92 L15.12,22.248 L6.48,22.248 L6.48,14.04 L15.12,14.04 L15.12,10.368 L6.48,10.368 L6.48,2.16 L15.12,2.16 L15.12,0 L20.952,0 Z M93.528,34.128 L20.952,34.128 L20.952,36.288 L93.528,36.288 L93.528,34.128 Z M93.528,22.248 L20.952,22.248 L20.952,25.92 L93.528,25.92 L93.528,22.248 Z M93.528,10.368 L20.952,10.368 L20.952,14.04 L93.528,14.04 L93.528,10.368 Z"></path>
                        </g>
                        <g id="Girl" transform="translate(115.560000, 42.272000)" fill-rule="nonzero">
                            <g id="Hand" transform="translate(0.000000, 29.376000)">
                                <path d="M6.00277165,17.4746256 L22.7716618,30.5608307 C23.670637,31.2623782 23.8730566,32.5389774 23.2351058,33.4836319 C22.597155,34.4282864 21.3362486,34.7190562 20.3482336,34.1493556 L2.50105772,23.765518 C-0.124788339,22.5064416 -0.411868204,22.9153926 0.599100889,18.4645328 C0.61618264,18.3042663 0.652801158,18.1434761 0.710373857,17.9852011 L6.27554407,2.685803 C7.02200266,0.633688384 9.29069449,-0.424754953 11.3428091,0.321703637 L11.3435287,0.321965466 C13.071106,0.950752195 13.9618518,2.8609627 13.3330651,4.58854004 C13.2679672,4.76739506 13.1876495,4.94033737 13.092995,5.10546573 L6.00277165,17.4746256 Z" fill="#FFB0B6"></path>
                                <path d="M6.00277165,17.4746256 L22.7716618,30.5608307 C23.670637,31.2623782 7.35441609,20.8851607 5.31280865,19.9338882 C3.27120122,18.9826158 8.18594435,13.8926166 6.00277165,10.5527233 C4.91659427,8.89105145 5.00751841,6.26874469 6.27554407,2.685803 C7.02200266,0.633688384 9.29069449,-0.424754953 11.3428091,0.321703637 C13.071106,0.950752195 13.9618518,2.8609627 13.3330651,4.58854004 C13.2679672,4.76739506 13.1876495,4.94033737 13.092995,5.10546573 L6.00277165,17.4746256 Z" id="Shadow-hand" fill="#E9989E"></path>
                            </g>
                            <g id="Hand" transform="translate(15.336000, 29.376000)">
                                <path d="M23.3246231,18.7084051 C24.1899562,22.6035351 23.8224572,22.2771778 21.3045977,23.4844753 L3.45742187,33.8683129 C2.46940688,34.4380135 1.20850044,34.1472437 0.570549647,33.2025892 C-0.0674011447,32.2579347 0.135018436,30.9813355 1.0339936,30.279788 L17.765493,17.2227621 L10.8196424,5.10546573 C10.7249878,4.94033737 10.6446701,4.76739506 10.5795722,4.58854004 C9.95078551,2.8609627 10.8415313,0.950752195 12.5691086,0.321965466 L12.5698282,0.321703637 C14.6219428,-0.424754953 16.8906347,0.633688384 17.6370933,2.685803 L23.2022635,17.9852011 C23.289135,18.2240227 23.3282984,18.4685707 23.3246231,18.7084051 L23.3246231,18.7084051 Z" fill="#FFB0B6"></path>
                                <path d="M17.765493,17.2227621 L10.8196424,5.10546573 C10.7249878,4.94033737 18.1573657,7.85419267 18.1077554,8.0392725 C17.7707535,9.29651669 16.2451088,10.8988034 16.7200967,12.5510571 C17.1950846,14.2033109 18.2970098,16.5925246 18.8945383,17.7043734 C19.2229523,18.3154685 18.1077554,17.7043734 16.859448,18.0460968 C16.7451255,18.0773925 17.0471405,17.8029476 17.765493,17.2227621 Z" id="Shadow-hand" fill="#E9989E"></path>
                            </g>
                            <path d="M19.7358763,0.149169895 C14.6850029,0.149169895 9.17396993,4.52216432 9.17396993,10.2614344 C9.17396993,14.0876144 9.93263053,17.8785237 11.4499517,21.6341622 C7.99131434,20.9336202 6.26199565,21.5739467 6.26199565,23.5551418 C6.26199565,26.5269343 11.8458353,32.0664142 20.1234951,31.0382255 C28.4011548,30.0100367 32.8032451,26.1618125 32.8032451,23.5551418 C32.8032451,21.8173613 31.3723568,21.1770348 28.5105804,21.6341622 C29.8535644,12.7987588 30.3351865,7.53440474 29.9554465,5.84110009 C29.3858365,3.30114313 26.5489095,2.81961419 24.8855714,3.57004576 C24.5212064,2.64973599 24.7867497,0.149169895 19.7358763,0.149169895 Z" id="Hair" fill="#510000"></path>
                            <path d="M22.7920865,19.3919461 L22.7920368,26.2169461 L30.6708324,28.9473978 C31.3546912,35.5928437 31.3546912,39.7881323 30.6708324,41.5332635 C28.0004587,48.3477592 28.7008499,50.3521509 30.6708324,53.9601978 C24.8919878,60.5460148 14.8065235,60.8933568 8.7228973,53.9601978 C10.0691036,50.0185956 11.2520278,48.2545124 8.7228973,41.5332635 C8.29838517,40.4051084 8.15612208,38.1724552 8.29610802,34.835304 C8.34314647,33.7139457 8.48540956,31.7513103 8.7228973,28.9473978 L16.3200368,26.5049461 L16.3202595,19.3919461 L22.7920865,19.3919461 Z" id="Body" fill="#FFB0B6"></path>
                            <path d="M16.3202595,19.3919461 L22.7920865,19.3919461 C22.7920865,22.399716 22.7920865,24.3632735 22.7920865,25.2826187 C22.7920865,27.004889 20.6867934,29.3553961 19.7973086,29.3553961 C19.0967632,29.3553961 15.3159103,28.0933898 14.6024333,27.0571639 C15.1158676,26.8311196 16.3202595,26.5908203 16.3202595,26.4301524 C16.3202595,25.4593578 16.3202595,23.1132891 16.3202595,19.3919461 Z" id="Shadow" fill="#E9989E"></path>
                            <g id="Tees" transform="translate(3.672000, 26.856000)">
                                <path d="M22.2145335,0.434690787 L24.7475268,1.31097729 C26.7729953,1.02701672 29.10567,2.67375478 30.1940011,4.63589235 L31.502266,6.91341891 C30.8003602,9.13788942 30.1090388,10.5666395 29.4283019,11.199669 C28.9205262,11.6718589 28.2363374,12.2640282 27.3757357,12.9761769 C27.2901849,13.6872595 27.1645996,14.2542442 26.9988324,14.6772635 C24.3284587,21.4917592 25.0288499,23.4961509 26.9988324,27.1041978 C21.2199878,33.6900148 11.1345235,34.0373568 5.0508973,27.1041978 C6.39710358,23.1625956 7.58002781,21.3985124 5.0508973,14.6772635 C4.99166305,14.5198465 4.93792418,14.340925 4.8896807,14.1404989 C3.6768018,13.1529393 2.7486848,12.3607958 2.10449757,11.7617544 C1.42376071,11.1287248 0.732439351,9.69997481 0.0305334978,7.47550431 L0.0305334978,7.47550431 L1.33879838,5.19797774 C2.22418648,3.60172341 3.93311626,2.21420937 5.63020858,1.90513841 L9.5525335,0.644690787 L9.55303784,1.10007385 C9.55303784,4.51896125 12.2630036,7.30490224 15.6520717,7.4270335 L15.884173,7.43120899 C19.3807624,7.43120899 22.2153081,4.59666324 22.2153081,1.10007385 L22.2153081,1.10007385 L22.2145335,0.434690787 Z" fill="#FFFEFE"></path>
                                <path d="M9.07196179,17.6646846 C10.3143501,17.8582809 13.5256319,17.1112814 16.4413592,17.133024 C19.9757699,17.15938 23.335794,17.7604072 25.567842,15.4049918 C26.9384514,13.9586275 25.1196761,11.6246821 25.3497622,9.37731981 C25.5755461,7.17197995 26.276948,2.0067227 26.5974727,5.12144427 C26.6627507,5.75578864 26.7254547,6.34019875 26.7848865,6.87994547 C26.8103382,7.11109196 27.242074,5.12144427 27.3356264,6.13871825 C27.4832761,7.74423966 27.931478,9.37731981 31.3590946,7.35323508 C30.1952562,11.4015146 27.931478,12.4907663 27.3356264,13.0458514 C27.2170429,13.7953392 27.178529,14.2186979 26.9988324,14.6772635 C24.3284587,21.4917592 25.0288499,23.4961509 26.9988324,27.1041978 C21.2199878,33.6900148 11.1345235,34.0373568 5.0508973,27.1041978 C6.39710358,23.1625956 7.58002781,21.3985124 5.0508973,14.6772635 C5.03553979,14.6364504 5.08780524,14.3411384 5.0508973,14.2878004 C4.77531127,13.8895337 3.89497565,13.45815 2.86199894,12.3278518 C4.14432558,11.724703 4.95378959,7.63403753 5.0508973,5.31906871 C5.07320101,4.78736639 5.52346073,7.18985289 5.70910794,7.056 C5.91499004,6.90755762 5.68121835,4.32179908 6.00940902,4.92556796 C7.05707957,6.85295635 5.60473125,17.1244001 9.07196179,17.6646846 Z" id="Shadow-Tees" fill="#E9EDF0"></path>
                            </g>
                            <path d="M9.69389672,113.54867 C8.35534108,113.661768 7.97028125,114.646825 8.53871725,116.503842 C9.39137124,119.289366 10.015248,120.156865 12.2184409,121.796073 C14.4216338,123.43528 17.3416469,123.81009 17.6882772,123.311247 C18.0349075,122.812404 17.1811276,120.793523 15.8155671,118.176388 C15.343777,117.27219 13.8901674,115.550387 11.4547384,113.01098 L9.69389672,113.54867 Z" id="Shoes" fill="#0A1039" transform="translate(13.025059, 118.263766) scale(-1, 1) rotate(-343.000000) translate(-13.025059, -118.263766) "></path>
                            <path d="M14.6724515,113.712109 C13.061704,110.302676 11.1965314,105.911618 9.61528882,103.171903 C8.39178172,101.052014 11.9175279,97.9728836 14.6920769,102.865835 C16.0711583,105.297862 16.6340789,110.395841 17.7266595,112.779476 C17.8877958,113.056006 19.7353629,115.102551 19.3930856,115.887617 C18.7649306,117.328388 15.9005019,118.228145 14.6724515,113.712109 Z" id="Leg" fill="#FFB0B6" transform="translate(14.400431, 108.654422) scale(-1, 1) rotate(-343.000000) translate(-14.400431, -108.654422) "></path>
                            <path d="M38.4049769,105.674845 C36.4795996,107.703125 37.6641575,103.551707 36.4361072,99.0356702 C34.8253596,95.6262371 34.4249942,93.8097482 32.8437517,91.0700339 C31.6202446,88.9501442 35.1459908,85.8710142 37.9205397,90.7639654 C39.2996211,93.1959924 40.2892305,96.3420148 41.3818111,98.7256498 C41.7968746,99.4379508 42.1109705,101.356571 41.3818111,101.99568 C39.7660817,104.059918 38.7738036,105.286307 38.4049769,105.674845 Z" id="Leg" fill="#FFB0B6" transform="translate(37.206369, 97.175132) scale(-1, 1) rotate(-306.000000) translate(-37.206369, -97.175132) "></path>
                            <path d="M39.5283157,101.674986 C40.1108784,103.297423 41.1312834,103.297423 42.5895309,101.674986 C43.2551148,100.934461 44.0913636,99.7076357 44.7760623,98.867049 C45.2325281,98.3066578 45.4466838,97.7698546 45.4185293,97.2566394 C46.8088544,98.213126 47.3971509,99.1073771 47.183419,99.9393926 C47.0807169,100.339191 47.4050316,106.437052 46.9828055,106.459484 C46.7354889,106.472624 46.4645163,104.668744 46.1698878,101.047843 C44.1020692,104.274944 42.7135936,106.18565 42.0044612,106.779961 C41.4332535,107.25868 36.7717819,107.954729 35.9792602,107.72707 C35.1867385,107.499411 35.333594,106.344214 35.9792602,105.601685 C36.4097044,105.106665 37.5927229,103.797765 39.5283157,101.674986 Z" id="Shoes" fill="#0A1039" transform="translate(41.332339, 102.514108) scale(-1, 1) rotate(-330.000000) translate(-41.332339, -102.514108) "></path>
                            <g id="Pants" transform="translate(4.320000, 55.080000)">
                                <path d="M19.7577953,5.23659288 C23.4129217,5.23659288 24.2817776,16.2208991 19.4059572,17.0192687 C11.7106976,18.2792948 11.575847,17.4219069 10.3073355,18.2352729 C8.08235354,19.6619249 3.35398537,21.3347621 1.9256019,19.1124772 C0.79489316,17.3533159 1.6794028,14.250009 3.02240974,12.6466514 C5.4263482,9.88034183 7.85465678,7.95584636 10.3073355,6.87316505 C13.9863535,5.24914308 16.1026688,5.23659288 19.7577953,5.23659288 Z" id="Pants-base" fill="#374ABE" transform="translate(12.096047, 12.714287) scale(-1, 1) rotate(-13.000000) translate(-12.096047, -12.714287) "></path>
                                <path d="M25.336474,5.98124303 C32.2769208,7.29621349 31.8754175,15.2066583 26.7025218,17.9897788 C21.529626,20.7728992 17.1545257,18.1665571 15.8860142,18.979923 C13.6610323,20.406575 8.9326641,22.0794123 7.50428063,19.8571274 C6.37357189,18.0979661 7.25808153,14.9946592 8.60108847,13.3913016 C11.0050269,10.624992 13.4333355,8.70049651 15.8860142,7.6178152 C19.5650323,5.99379323 18.3960272,4.66627256 25.336474,5.98124303 Z" id="Pants-base" fill="#020687" transform="translate(18.778043, 13.191587) rotate(-34.000000) translate(-18.778043, -13.191587) "></path>
                                <path d="M18.4747041,13.116474 C21.7102975,15.6071168 21.7642434,18.045793 20.2538562,21.7218828 C17.1243096,29.3388003 14.1375972,39.9312574 11.2937188,53.499254 C10.9717653,54.4457868 10.0020012,55.0597151 8.90379283,54.9830139 C7.80558446,54.9063128 6.08432864,53.5918375 6.17695924,52.5770338 C7.35362972,39.6862236 7.6990952,23.0655961 10.0638604,18.0910351 C12.4286255,13.116474 15.1683616,10.571371 18.4747041,13.116474 Z" id="Pants-base" fill="#020687" transform="translate(13.692651, 33.552623) rotate(-4.000000) translate(-13.692651, -33.552623) "></path>
                                <path d="M19.9319816,9.46512093 C21.3959859,15.571679 26.1467846,26.0882978 34.1843778,41.0149775 C34.6268396,42.1571947 33.7660716,42.5613491 32.7025335,43.1709273 C31.6862224,43.7534369 30.6619692,44.0246439 29.8327564,43.615477 C28.8402251,43.1257223 23.2351751,30.7290733 15.6963084,24.6169602 C11.3036421,21.0556195 10.4663149,17.044606 10.4663149,15.7823926 C10.4663149,14.5201791 9.59463554,9.52194132 11.7956372,8.00074776 C13.9791244,6.49165909 19.4597462,7.49536375 19.9319816,9.46512093 Z" id="Pants-base" fill="#374ABE"></path>
                                <path d="M3.18822791,9.79084046 C7.55259484,9.61888307 11.2539459,11.8350471 14.2922812,16.4393325 C17.3306164,21.0436179 22.6560797,29.2542669 30.2686711,41.0712795" id="Texture" stroke="#FFFFFF" stroke-width="0.5" stroke-linecap="round" stroke-linejoin="round" stroke-dasharray="0.8640000343322755,0.8640000343322755"></path>
                                <path d="M29.1888788,41.7537367 C30.8169452,41.8717703 32.0877206,41.3789799 33.0012051,40.2753656" id="Texture" stroke="#FFFFFF" stroke-width="0.5"></path>
                            </g>
                            <g id="Macbook" transform="translate(5.832000, 45.792000)">
                                <path d="M1.20025946,0.0408244398 L27.0899027,0.0408244398 L27.0899027,0.0408244398 L27.0899027,17.4654716 L0.0770594595,17.4654716 L0.0770594595,1.16402444 C0.0770594595,0.543698209 0.579933228,0.0408244398 1.20025946,0.0408244398 Z" id="macbook-base" fill="#7990DD"></path>
                                <path d="M13.8648649,7.04402697 C14.3166403,7.04402697 14.737332,7.17695154 15.0898734,7.40577932 C14.8543088,7.63541182 14.7090162,7.95511857 14.7090162,8.3087191 C14.7090162,9.00718928 15.2759254,9.57341124 15.9752432,9.57341124 L16.0993508,9.56666754 C15.963888,10.6790125 15.0151287,11.5407101 13.8648649,11.5407101 C12.6216331,11.5407101 11.6137946,10.5340933 11.6137946,9.29236854 C11.6137946,8.05064378 12.6216331,7.04402697 13.8648649,7.04402697 Z" id="macbook-base" fill="#FFFFFF"></path>
                            </g>
                            <g id="Face" transform="translate(11.664000, 4.752000)">
                                <path d="M7.89288966,21.389748 C9.27984879,21.389748 14.864689,18.1624831 15.5112008,11.0128449 C15.922033,6.46953752 12.4773069,0 7.89288966,0 C3.30847247,0 0.216,4.65240918 0.216,11.0128449 C0.216,17.3732807 6.50593054,21.389748 7.89288966,21.389748 Z" id="Face-base" fill="#FFB0B6"></path>
                                <path d="M10.6097201,10.207952 C11.2756254,9.97866242 12.8286788,10.5161406 12.8892404,10.7025301 C12.91479,10.7811637 11.4309222,10.561083 10.2709474,11.1996558 C9.66475575,11.5333678 9.94381492,10.4372415 10.6097201,10.207952 Z" id="Face-base" fill="#510000"></path>
                                <path d="M8.33894876,4.12627613 C11.6513326,4.22711511 13.7421548,4.78466446 15.0256628,5.53304824 C15.4149765,6.61476611 15.6246406,7.78179168 15.6246406,8.96346806 C15.6246406,9.36941028 15.5834656,9.80124505 15.5066785,10.2511907 C14.7623054,9.81041713 13.6721199,8.38317235 12.2348021,5.96919563 C7.50445677,9.00850393 3.50886618,10.853484 0.248030356,11.5041357 C0.0749149756,10.7161546 0.0749149756,9.29860889 0.0749149756,8.50553976 C0.0749149756,7.32562021 0.289586464,6.19071592 0.686738408,5.15597767 C2.96085556,4.46822579 5.6091653,4.04317326 8.33894876,4.12627613 Z" id="Face-base" fill="#E9989E"></path>
                                <path d="M5.08784571,9.99195198 C5.75375095,10.2212415 6.03281011,11.3173678 5.42661842,10.9836558 C4.26664363,10.345083 2.78277586,10.5651637 2.80832548,10.4865301 C2.86888709,10.3001406 4.42194048,9.76266242 5.08784571,9.99195198 Z" id="Face-base" fill="#510000"></path>
                                <path d="M10.6966762,12.2357556 C10.4440302,12.42075 10.252135,12.6654702 10.1663875,12.7045213 C10.0802168,12.7437651 10.3908841,11.9575332 10.8369209,11.7267784 C10.857049,11.7127414 10.8790103,11.7021028 10.902684,11.6953145 C10.9083184,11.6936989 10.913986,11.6923196 10.9196823,11.6911724 C10.9283616,11.6881985 10.9370831,11.6854507 10.9458451,11.6829382 C11.4488485,11.5387043 12.4055053,12.2651702 12.2948812,12.2807383 C12.2263585,12.2903815 11.7865575,12.0392986 11.3526836,12.020083 C11.3742549,12.0657217 11.3928921,12.1149217 11.4078113,12.166951 C11.4980227,12.4815555 11.4181311,12.7804713 11.2293684,12.8345981 C11.0406057,12.888725 10.8144525,12.6775661 10.7242411,12.3629616 C10.7119435,12.3200746 10.7028069,12.2774792 10.6966762,12.2357556 L10.6966762,12.2357556 Z" id="Face-base" fill="#510000"></path>
                                <path d="M4.84702901,12.2357556 C4.84089838,12.2774792 4.83176179,12.3200746 4.81946414,12.3629616 C4.72925276,12.6775661 4.50309958,12.888725 4.31433688,12.8345981 C4.12557418,12.7804713 4.04568256,12.4815555 4.13589395,12.166951 C4.15081312,12.1149217 4.16945037,12.0657217 4.19102168,12.020083 C3.75714778,12.0392986 3.31734672,12.2903815 3.24882405,12.2807383 C3.13819998,12.2651702 4.09485672,11.5387043 4.59786014,11.6829382 C4.60662216,11.6854507 4.61534368,11.6881985 4.62402293,11.6911724 C4.62971927,11.6923196 4.6353869,11.6936989 4.64102121,11.6953145 C4.66469495,11.7021028 4.68665626,11.7127414 4.70678434,11.7267784 C5.15282117,11.9575332 5.46348841,12.7437651 5.37731772,12.7045213 C5.29157029,12.6654702 5.09967509,12.42075 4.84702901,12.2357556 L4.84702901,12.2357556 Z" id="Face-base" fill="#510000"></path>
                                <path d="M5.83204641,17.7678131 C5.82386316,17.7417521 6.89958946,17.5296464 7.60405606,17.4971201 C7.74549176,17.4905898 7.87251481,17.6612188 7.9744191,17.6612188 C8.08477112,17.6612188 8.22498297,17.501421 8.37793431,17.4971201 C9.06972997,17.4776675 10.1178333,17.7180232 10.1178333,17.7180232 C11.018496,17.4668196 8.61664424,18.2425373 7.9744191,18.2425373 C7.33219397,18.2425373 5.85901257,17.8536916 5.83204641,17.7678131 Z" id="Face-base" fill="#FF5932"></path>
                                <path d="M6.85580014,15.848189 C6.96205943,15.7259233 6.73613194,16.192102 6.93347401,16.2900323 C6.94224039,16.2943826 7.8016714,16.7065552 7.99858836,16.7065552 C8.12986633,16.7065552 8.47838021,16.5662118 9.04413001,16.2855249 C9.28998025,16.1563419 8.80667927,15.7158526 8.92657355,15.7158526 C9.00650307,15.7158526 9.12763864,15.8217203 9.28998025,16.0334555 C9.29530227,16.0434835 9.30009355,16.0537843 9.30433427,16.0643152 C9.3711759,16.2303026 9.29080238,16.4190478 9.12481499,16.4858894 C8.56999754,16.810301 8.19458866,16.9725067 7.99858836,16.9725067 C7.80258806,16.9725067 7.42703836,16.8155695 6.87193925,16.501695 C6.84846174,16.4918382 6.826228,16.4792482 6.80569829,16.4641856 C6.66142498,16.3583327 6.63027907,16.1555654 6.73613194,16.0112921 C6.74507122,15.9840672 6.78496062,15.9296995 6.85580014,15.848189 Z" id="Face-base" fill="#FF6868"></path>
                            </g>
                            <path d="M10.8283972,11.8433629 C12.4015381,6.62327582 15.3486894,4.01323228 19.6698511,4.01323228 C23.9910127,4.01323228 26.6754175,6.42893329 27.7230655,11.2603353 C24.9046561,9.37570643 22.3379038,8.34873973 20.0228086,8.17943521 C17.7077133,8.01013069 14.6429095,9.23143992 10.8283972,11.8433629 Z" id="Hairbands" fill="#FFC23F"></path>
                            <path d="M23.9171599,10.3956676 C15.4950015,15.0312094 10.4688616,16.5668763 8.83874007,15.0026682 C6.45965466,12.7197803 10.2565988,6.42156775 20.0029488,6.71827613 C29.7492987,7.0149845 28.9197306,11.2657556 28.066951,12.6975586 C27.4984312,13.652094 26.1151675,12.884797 23.9171599,10.3956676 Z" id="Hair" fill="#510000"></path>
                        </g>
                        <g id="Bag" transform="translate(154.872000, 90.872000)" fill-rule="nonzero">
                            <rect id="Bag-base" stroke="#0A1039" stroke-width="0.5" x="7.63124898" y="0.305398162" width="9.22" height="10.948"></rect>
                            <path d="M3.48530984,5.80211055 L18.4864692,5.80211055 C18.719233,5.80211055 18.9101488,5.98652504 18.91821,6.21914924 L19.3232949,17.9087422 C19.3314161,18.1430966 19.1510956,18.3411362 18.917008,18.3549529 L2.1242678,19.3461219 L2.1242678,19.3461219 L0.613027824,19.2318516 C0.375119952,19.2138626 0.19684053,19.0064171 0.214829591,18.7685092 C0.216423775,18.7474259 0.219563633,18.7264881 0.22422385,18.7058646 L3.06393379,6.13889383 C3.10843465,5.94195787 3.28340862,5.80211055 3.48530984,5.80211055 Z" id="Bag-base" fill="#BB8615"></path>
                            <path d="M3.5307087,5.80211055 L20.2873587,5.80211055 C20.4898365,5.80211055 20.6651479,5.94274037 20.7090715,6.1403966 L23.5410715,18.8843966 C23.5928283,19.1173022 23.4459782,19.3480666 23.2130726,19.3998234 C23.1823035,19.406661 23.1508784,19.4101106 23.1193587,19.4101106 L2.31699441,19.4101106 C2.0784074,19.4101106 1.88499441,19.2166976 1.88499441,18.9781106 C1.88499441,18.9644349 1.88564379,18.950767 1.88694037,18.937153 L3.10065465,6.19315303 C3.12177064,5.97143521 3.30798763,5.80211055 3.5307087,5.80211055 Z" id="Bag-base" fill="#FFC23F"></path>
                            <polyline id="Bag-base" stroke="#F1675F" stroke-width="0.5" stroke-linecap="round" stroke-linejoin="round" points="3.70703115 8.03453706 12.3716689 13.6709867 20.1648352 8.03453706"></polyline>
                        </g>
                        <g id="UI" transform="translate(80.352000, 0.000000)" fill-rule="nonzero">
                            <g id="Ui-after-pick" transform="translate(0.000000, 29.592000)" stroke="#374ABE" stroke-dasharray="2.160000085830688,2.160000085830688">
                                <use id="UI-after-pick-base" mask="url(#mask-4)" xlink:href="#path-3"></use>
                            </g>
                            <g>
                                <path d="M27.682,-0.25 L27.682,27.682 L-0.25,27.682 L-0.25,-0.25 L27.682,-0.25 Z" id="UI-base" stroke="#374ABE" stroke-width="0.5" fill="#FFFFFF"></path>
                                <polygon id="UI-base" fill="#C9DAF2" points="-3.06954462e-15 21.6 27.432 21.6 27.432 27.432 -3.06954462e-15 27.432"></polygon>
                                <polygon id="UI-base" fill="#FFFFFF" points="1.728 22.896 8.208 22.896 8.208 26.568 1.728 26.568"></polygon>
                                <polygon id="UI-base" fill="#FFFFFF" points="10.368 23.328 23.328 23.328 23.328 23.976 10.368 23.976"></polygon>
                                <polygon id="UI-base" fill="#FFFFFF" points="10.368 25.488 23.328 25.488 23.328 26.136 10.368 26.136"></polygon>
                                <g id="流程" transform="translate(5.648000, 3.000000)">
                                    <rect id="矩形" fill="#000000" opacity="0" x="0" y="0" width="16" height="16"></rect>
                                    <path d="M14.571125,11.6023281 C14.4026875,11.5356875 14.2952813,11.3281719 14.089875,11.3574844 C13.56725,11.4317187 13.5332813,11.143625 13.5456563,10.7273906 C13.5728438,9.80404687 13.5468906,8.8796875 13.557375,7.95567188 C13.5623281,7.47465625 13.3376875,7.28432813 12.8680937,7.28835938 C11.5679844,7.29971875 10.2672812,7.27410938 8.9671875,7.30439063 C8.56490625,7.31392188 8.44703125,7.18434375 8.50996875,6.81807813 C8.513,6.8014375 8.50996875,6.78390625 8.51059375,6.7669375 C8.51984375,6.28935938 8.35698437,5.6865 8.58773437,5.36940625 C8.8104375,5.0626875 9.44975,5.28792188 9.90498437,5.27182812 C10.3036719,5.25795313 10.5252188,5.07473438 10.5301719,4.68564062 C10.5424531,3.72775 10.5313906,2.7694375 10.535125,1.81126562 C10.5363437,1.56928125 10.3703437,1.4159375 10.2593125,1.23245312 L5.74128125,1.23245312 C5.52660938,1.47029687 5.4525625,1.74546875 5.45875,2.06792187 C5.47417188,2.88859375 5.4580625,3.710125 5.46610938,4.53104687 C5.4716875,5.10832812 5.62529688,5.25425 6.19728125,5.26751562 C6.23125,5.26820312 6.26579688,5.2650625 6.29971875,5.26820312 C6.686,5.30182812 7.34254688,5.11670312 7.40975,5.34804687 C7.57517188,5.91632812 7.49739063,6.56234375 7.47209375,7.17542187 C7.46285938,7.38642187 7.219125,7.28775 7.0858125,7.28835937 C5.80301563,7.29632812 4.5201875,7.29267187 3.237375,7.29325 C2.58703125,7.29359375 2.44878125,7.42528125 2.44690625,8.05929687 C2.44446875,9.03423437 2.43826563,10.0094375 2.45126563,10.984375 C2.45496875,11.2413594 2.39692188,11.3787344 2.11495313,11.3397969 C1.83979688,11.3015313 1.63739063,11.4610312 1.42885938,11.6023437 L1.42885938,14.0664844 C1.53184375,14.16925 1.63432813,14.2719531 1.73734375,14.3747031 L4.7145625,14.3747031 C4.90276563,14.1430156 4.9786875,13.88225 4.96942188,13.5805781 C4.95457813,13.0680781 4.97307813,12.5550313 4.96320313,12.0426094 C4.95215625,11.4906563 4.81210938,11.3599063 4.25114063,11.3392031 C3.45951563,11.3102188 3.45951563,11.3102188 3.45951563,10.5228438 C3.45951563,9.8906875 3.46998438,9.25820313 3.4545625,8.6264375 C3.44903125,8.37990625 3.528625,8.30648438 3.77354688,8.308625 C4.91815625,8.32010938 6.0634375,8.31945313 7.20798438,8.30896875 C7.43757813,8.30709375 7.49682813,8.38545313 7.49429688,8.60359375 C7.48378125,9.40657813 7.48315625,10.2100625 7.49429688,11.0131094 C7.497375,11.2429531 7.45110938,11.3332656 7.190125,11.3469219 C5.96898438,11.4089688 5.96967188,11.4190625 5.96967188,12.6719219 C5.96967188,12.9626719 5.98503125,13.2541094 5.96528125,13.5432031 C5.94371875,13.8678281 6.03071875,14.1417656 6.25470313,14.3747031 L9.74590625,14.3747031 C9.969875,14.1417656 10.0494531,13.8678281 10.0359063,13.5432031 C10.0162188,13.0656875 10.0353125,12.5865 10.0297344,12.1080469 C10.0223594,11.5011094 9.87489063,11.3551563 9.27259375,11.3391875 C8.510625,11.3190781 8.510625,11.3190781 8.510625,10.5514688 C8.510625,9.9194375 8.52228125,9.28692188 8.50440625,8.65504688 C8.49701562,8.39103125 8.56729688,8.303375 8.84379688,8.30740625 C9.9711875,8.32284375 11.0990625,8.3200625 12.2270312,8.30859375 C12.4720156,8.306125 12.5497344,8.37989063 12.5460156,8.62609375 C12.5324687,9.42914063 12.5312344,10.2325 12.5460156,11.0353125 C12.5509687,11.2990938 12.4362187,11.3339531 12.2109844,11.3440625 C11.0348438,11.3962969 11.0348438,11.4021563 11.0348438,12.6068906 C11.0348438,12.9145469 11.0478906,13.2227656 11.0312031,13.5293906 C11.0145313,13.8465156 11.0805469,14.1291094 11.2860625,14.3747031 L14.2632344,14.3747031 C14.36625,14.2719375 14.4687031,14.1692188 14.571125,14.0664375 L14.571125,11.6023281 L14.571125,11.6023281 Z" id="路径" fill="#7990DD"></path>
                                </g>
                            </g>
                            <g transform="translate(0.000000, 59.184000)">
                                <path d="M27.682,-0.25 L27.682,27.682 L-0.25,27.682 L-0.25,-0.25 L27.682,-0.25 Z" id="UI-base" stroke="#374ABE" stroke-width="0.5" fill="#FFFFFF"></path>
                                <polygon id="UI-base" fill="#C9DAF2" points="-3.06954462e-15 21.6 27.432 21.6 27.432 27.432 -3.06954462e-15 27.432"></polygon>
                                <polygon id="UI-base" fill="#FFFFFF" points="1.728 22.896 8.208 22.896 8.208 26.568 1.728 26.568"></polygon>
                                <polygon id="UI-base" fill="#FFFFFF" points="10.368 23.328 23.328 23.328 23.328 23.976 10.368 23.976"></polygon>
                                <polygon id="UI-base" fill="#FFFFFF" points="10.368 25.488 23.328 25.488 23.328 26.136 10.368 26.136"></polygon>
                                <g id="时间" transform="translate(6.648000, 3.816000)">
                                    <rect id="矩形" fill="#000000" opacity="0" x="0" y="0" width="14" height="14"></rect>
                                    <path d="M7,14 C3.13400391,14 0,10.8659961 0,7 C0,3.13400391 3.13400391,0 7,0 C10.8659961,0 14,3.13400391 14,7 C14,10.8659961 10.8659961,14 7,14 Z M9.41497266,8.60466797 L7.6015625,7.21782031 L7.6015625,3.07617188 C7.6015625,2.74394531 7.33222656,2.47460938 7,2.47460938 C6.66777344,2.47460938 6.3984375,2.74394531 6.3984375,3.07617188 L6.3984375,7.81232812 L8.68408789,9.5603457 C8.94799609,9.76216992 9.32554492,9.71184375 9.52736914,9.44794922 C9.72919336,9.18404102 9.67886719,8.80649219 9.41497266,8.60466797 L9.41497266,8.60466797 Z" id="形状" fill="#7990DD"></path>
                                </g>
                            </g>
                            <g transform="translate(97.391421, 54.947954) rotate(28.000000) translate(-97.391421, -54.947954) translate(80.391421, 38.447954)">
                                <path d="M27.682,5.15 L27.682,33.082 L-0.25,33.082 L-0.25,5.15 L27.682,5.15 Z" id="Rectangle-6" stroke="#374ABE" stroke-width="0.5" fill="#FFFFFF"></path>
                                <polygon id="Rectangle-6-Copy" fill="#C9DAF2" points="-3.06954462e-15 27 27.432 27 27.432 32.832 -3.06954462e-15 32.832"></polygon>
                                <polygon id="Rectangle-6-Copy-2" fill="#FFFFFF" points="1.62659414 28.3212833 8.10659414 28.3212833 8.10659414 31.9932833 1.62659414 31.9932833"></polygon>
                                <polygon id="Rectangle-6-Copy-3" fill="#FFFFFF" points="10.2665941 28.7532833 23.2265941 28.7532833 23.2265941 29.4012833 10.2665941 29.4012833"></polygon>
                                <polygon id="Rectangle-6-Copy-4" fill="#FFFFFF" points="10.2665941 30.9132833 23.2265941 30.9132833 23.2265941 31.5612833 10.2665941 31.5612833"></polygon>
                                <g id="文件" transform="translate(6.313836, 8.792474)">
                                    <rect id="矩形" fill="#000000" opacity="0" x="0" y="0" width="16" height="16"></rect>
                                    <path d="M9.1,1.06666667 L9.1,4.69333333 L9.10266667,4.77133333 C9.1436737,5.36926229 9.64066652,5.83333589 10.24,5.83333333 L13.8666667,5.83333333 L13.8666667,13.8666667 C13.8666667,14.4557704 13.3891037,14.9333333 12.8,14.9333333 L3.2,14.9333333 C2.61089627,14.9333333 2.13333333,14.4557704 2.13333333,13.8666667 L2.13333333,2.13333333 C2.13333333,1.5442296 2.61089627,1.06666667 3.2,1.06666667 L9.1,1.06666667 Z M10.332,1.506 L13.4273333,4.60066667 C13.4986667,4.672 13.5623333,4.75033334 13.6173333,4.83333333 L10.24,4.83333333 L10.208,4.82966667 C10.1447138,4.8148079 10.1,4.75834046 10.1,4.69333333 L10.1003333,1.31666667 C10.1833333,1.37133334 10.261,1.43466667 10.332,1.506 L10.332,1.506 Z" id="形状" fill="#7990DD"></path>
                                </g>
                                <g id="Check-list-icon" transform="translate(26.992091, 6.924233) rotate(-330.000000) translate(-26.992091, -6.924233) translate(21.992091, 1.924233)">
                                    <circle id="Check-list-base" fill="#48F868" cx="4.968" cy="4.968" r="4.968"></circle>
                                    <polyline id="Check-list-base" stroke="#FFFFFF" stroke-width="0.864" stroke-linecap="round" stroke-linejoin="round" points="2.16 4.50741077 3.61790966 7.01483681 7.77870824 3.672"></polyline>
                                </g>
                            </g>
                            <g transform="translate(0.000000, 88.776000)">
                                <path d="M27.682,-0.25 L27.682,27.682 L-0.25,27.682 L-0.25,-0.25 L27.682,-0.25 Z" id="UI-base" stroke="#374ABE" stroke-width="0.5" fill="#FFFFFF"></path>
                                <polygon id="UI-base" fill="#C9DAF2" points="-3.06954462e-15 21.6 27.432 21.6 27.432 27.432 -3.06954462e-15 27.432"></polygon>
                                <polygon id="UI-base" fill="#FFFFFF" points="1.728 22.896 8.208 22.896 8.208 26.568 1.728 26.568"></polygon>
                                <polygon id="UI-base" fill="#FFFFFF" points="10.368 23.328 23.328 23.328 23.328 23.976 10.368 23.976"></polygon>
                                <polygon id="UI-base" fill="#FFFFFF" points="10.368 25.488 23.328 25.488 23.328 26.136 10.368 26.136"></polygon>
                                <g id="通知" transform="translate(4.648000, 1.224000)">
                                    <rect id="矩形" fill="#000000" opacity="0" x="0" y="0" width="18" height="18"></rect>
                                    <path d="M14.8717051,13.4722892 L13.5122021,10.6746988 C13.4981685,10.6439759 13.4893975,10.6114458 13.4893975,10.5771084 L13.4858891,7.47951807 C13.4841349,5.73192771 12.3351355,4.26084337 10.775654,3.82168675 L10.775654,3.81987952 C10.775654,2.81506024 9.98451091,2 9.0091771,2 C8.03559749,2 7.24620862,2.81144578 7.24270023,3.81445783 C5.66567668,4.24638554 4.50264374,5.72831325 4.50439794,7.48855422 L4.50790634,10.5861446 C4.50790634,10.6204819 4.50088955,10.653012 4.48510177,10.6837349 L3.12735291,13.4777108 C2.73090428,14.2945783 3.30803525,15.2578313 4.19565918,15.2560266 L13.8069072,15.2487952 C14.692777,15.2506024 15.269908,14.2891566 14.8717051,13.4722892 Z M7.40759479,15.780109 C7.23042084,15.780109 7.13393998,15.9915663 7.24445442,16.1343373 C7.65493664,16.6620482 8.28644774,17 8.99338932,17 C9.70208511,17 10.3335962,16.6620482 10.7458326,16.1325301 C10.8563471,15.989759 10.7598662,15.7783133 10.5826923,15.780109 L7.40759479,15.780109 Z" id="形状" fill="#7990DD"></path>
                                </g>
                            </g>
                        </g>
                    </g>
                </g>
            </g>
        </g>
    </g>
</svg>