<?xml version="1.0" encoding="UTF-8"?>
<svg width="269px" height="165px" viewBox="0 0 269 165" version="1.1" xmlns="http://www.w3.org/2000/svg" xmlns:xlink="http://www.w3.org/1999/xlink">
    <title>img/设计字段</title>
    <g id="空页面" stroke="none" stroke-width="1" fill="none" fill-rule="evenodd">
        <g id="字段无权限" transform="translate(-366.000000, -436.000000)">
            <g id="编组" transform="translate(350.000000, 153.000000)">
                <g id="编组-2" transform="translate(0.000000, 185.000000)">
                    <g id="img/设计字段" transform="translate(16.000000, 98.000000)">
                        <g id="编组-4" transform="translate(0.000000, 10.000000)" fill-rule="nonzero">
                            <g id="Background">
                                <path d="M255.821852,1.56161986 C255.20238,16.403199 252.855607,26.4861631 248.781532,31.8105121 C241.733345,41.0216828 230.601329,48.7905254 230.601329,53.872761 C230.601329,76.9914988 240.900315,87.8459716 240.900315,96.775325 C240.900315,111.761853 220.6163,119.255117 180.048269,119.255117 C152.129463,119.255117 107.597918,119.255117 46.4536339,119.255117 C29.0189129,119.255117 24.2283373,106.980411 24.2283373,96.775325 C24.2283373,86.016673 50.1194779,81.3100053 49.8072606,68.7289062 C49.4950433,56.1478072 -9.58649464,4.68485959 38.2795924,1.56161986 C70.1903171,-0.520539955 142.704403,-0.520539955 255.821852,1.56161986 Z" id="Background-base" fill="#F4F7FA" transform="translate(137.699255, 59.627558) scale(1, -1) translate(-137.699255, -59.627558) "></path>
                                <path d="M268.802455,136.346555 C269.888482,138.388166 249.439083,139.943572 249.439083,141.020185 C249.439083,145.91762 260.408329,145.346511 260.408329,150.108593 C260.408329,153.283314 238.804228,154.870675 195.596026,154.870675 C159.339371,154.870675 108.649265,154.870675 43.525706,154.870675 C11.1663242,154.870675 0.278422191,154.592235 0,152.369279 C-0.277055826,150.14028 54.2513381,146.953807 54.2513381,142.607116 C54.2513381,138.260426 40.1752446,143.77413 40.1752446,132.079389 C40.1752446,120.384647 257.710378,115.494669 268.802455,136.346555 Z" id="Background-base" fill="#E3EDFA" transform="translate(134.422115, 138.438773) scale(1, -1) translate(-134.422115, -138.438773) "></path>
                            </g>
                            <g id="Leaves" transform="translate(54.000000, 33.000000)">
                                <g id="Group-28" transform="translate(38.266105, 8.203636)">
                                    <path d="M0.478858992,75.121365 C-1.33328743,27.8016753 3.95567491,2.83969221 16.345746,0.235415645 C28.7358171,-2.36886092 23.4468548,22.5931222 0.478858992,75.121365 Z" id="Leaf-base" fill="#FFFFFF"></path>
                                    <path d="M0.800000046,70.0909359 C6.45266126,37.5438668 11.3975365,18.8058925 15.6346259,13.8770128" id="Leaf-base" stroke="#7990DD" stroke-width="0.5" stroke-linecap="round"></path>
                                </g>
                                <g id="Group-29" transform="translate(17.393684, 0.000000)">
                                    <path d="M19.2125534,91.9282751 C17.6798828,57.2145353 -14.4843637,13.9295009 7.98446914,1.33171838 C30.4533019,-11.2660641 23.0095604,77.3185618 19.2125534,91.9282751 Z" id="Leaf-base" fill="#7990DD"></path>
                                    <path d="M20.3723532,81.8761929 C15.9889493,46.1816513 12.9584401,24.8520489 11.2808254,17.8873859" id="Leaf-base" stroke="#FFFFFF" stroke-width="0.5" stroke-linecap="round"></path>
                                </g>
                                <g id="Group-25" transform="translate(5.525053, 65.424000)">
                                    <path d="M34.7578303,22.7440559 C16.8703256,0.483595187 0.347313968,-5.33869232 0.100823981,5.26560755 C-0.145666006,15.8699074 18.4325837,9.61389552 34.7578303,22.7440559 Z" id="Leaf-base" fill="#7990DD"></path>
                                    <path d="M30.2717004,19.0375541 C26.0801415,14.2401224 19.5047487,10.0178281 10.5455221,6.37067109" id="Leaf-base" stroke="#FFFFFF" stroke-width="0.5" stroke-linecap="round"></path>
                                </g>
                                <g id="Group-27" transform="translate(35.605895, 43.274182)">
                                    <path d="M0,48.8094183 C4.32075064,21.0072819 25.2384816,-12.7740678 33.9414976,5.10337614 C42.6445136,22.9808201 12.1620775,31.7763623 0,48.8094183 Z" id="Leaf-base" fill="#7990DD"></path>
                                    <path d="M1.02676406,46.31831 C7.65980679,31.6522033 14.7432696,21.3098586 22.2771525,15.291276" id="Leaf-base" stroke="#FFFFFF" stroke-width="0.5" stroke-linecap="round"></path>
                                </g>
                                <g id="Group-26" transform="translate(34.992000, 78.139636)">
                                    <path d="M0.203205612,15.0134 C5.38937891,4.8078959 23.9238243,-5.24588425 30.3560121,3.23039359 C36.7881998,11.7066714 6.61461387,10.5973767 0.203205612,15.0134 Z" id="Leaf-base" fill="#FFFFFF"></path>
                                    <path d="M25.0295007,4.38620835 C17.0111753,4.38620835 8.99284992,7.52480606 0.974524533,13.8020015" id="Leaf-base" stroke="#7990DD" stroke-width="0.5" stroke-linecap="round"></path>
                                </g>
                                <g id="Leaf-base" transform="translate(0.000000, 38.762182)">
                                    <path d="M37.3015497,48.758244 C28.1369323,9.07447245 9.17987411,-8.94295268 1.28744848,4.3074725 C-6.60497714,17.5578977 23.822502,21.6273793 37.3015497,48.758244 Z" fill="#FFFFFF"></path>
                                    <path d="M34.9510737,42.2473864 C29.0918081,29.3389495 21.7298001,19.9138861 12.8650498,13.9721963" stroke="#7990DD" stroke-width="0.5" stroke-linecap="round"></path>
                                </g>
                            </g>
                            <g id="Leaves" transform="translate(174.989977, 98.879308) scale(-1, 1) rotate(-357.000000) translate(-174.989977, -98.879308) translate(155.989977, 79.379308)" fill="#FF8D88">
                                <path d="M36.9924472,32.0555922 C37.0681463,32.1400775 37.0610733,32.269977 36.9766493,32.345731 C36.8922253,32.4214849 36.7624199,32.4144068 36.6867209,32.3299216 C30.8486009,25.8141873 25.5537137,21.9778713 20.8117869,20.8150659 C13.0369419,18.9085348 5.66076617,12.7234104 5.16721357,7.03496914 C5.15740497,6.92192016 5.24103141,6.82231865 5.35399845,6.81250294 C5.46696548,6.80268723 5.56649479,6.88637433 5.57630339,6.99942331 C6.05179969,12.4797567 13.2871689,18.5468109 20.9095162,20.4159469 C25.7464562,21.6020512 31.1041906,25.4839021 36.9924472,32.0555922 Z" id="Leaves-base"></path>
                                <path d="M9.52029098,14.1234812 C9.53281622,14.2362611 9.45161001,14.3378484 9.33891184,14.3503827 C9.22621367,14.362917 9.12470004,14.2816519 9.1121748,14.168872 C8.79842664,11.3438162 9.04920513,9.32250732 9.88236586,8.10018389 C9.94626276,8.00644126 10.0739998,7.98228409 10.1676744,8.04622734 C10.2613491,8.11017059 10.2854888,8.23800025 10.2215919,8.33174287 C9.45609468,9.45479768 9.21637586,11.3869642 9.52029098,14.1234812 Z" id="Leaves-base"></path>
                                <path d="M9.44037722,12.0626937 L9.17920813,12.3678404 L9.08487478,11.9773137 C8.11417387,7.95874885 8.75861824,5.86069601 11.0853011,5.86069601 C12.2924782,5.86069601 12.7816188,6.47964875 12.4398694,7.59224787 C12.1290571,8.60412833 11.1303412,10.0881606 9.44037722,12.0626937 Z M12.0473651,7.47151006 C12.3059023,6.62981646 12.0228321,6.27162284 11.0853011,6.27162284 C9.19206943,6.27162284 8.60758854,7.95620155 9.39207365,11.4846993 C10.8875658,9.70566366 11.7736058,8.36276059 12.0473651,7.47151006 Z" id="Leaves-base"></path>
                                <path d="M6.00921389,5.28035428 C5.74444419,4.4588667 5.2883863,4.31094629 4.49163686,4.80174904 C2.89874491,5.78298068 3.37164864,7.4528954 6.06676921,9.92118766 C6.30971856,7.69776642 6.28823065,6.14604549 6.00921389,5.28035428 Z M4.27638282,4.45180717 C5.29326236,3.82540287 6.0509418,4.07115294 6.40001778,5.15421337 C6.71861124,6.14269721 6.7256841,7.87386849 6.42942225,10.3647064 L6.38309919,10.7541701 L6.08952394,10.4943251 C2.96070633,7.72499183 2.29844567,5.67022911 4.27638282,4.45180717 Z" id="Leaves-base"></path>
                                <path d="M9.77542183,14.3435355 C9.87204613,14.4029208 9.90226918,14.5294484 9.84292691,14.6261428 C9.78358464,14.7228372 9.65714876,14.7530822 9.56052446,14.6936968 C7.04145068,13.1454735 5.2999472,12.2558071 4.35637961,12.0293868 C4.24611331,12.0029271 4.1781591,11.8920239 4.20459964,11.7816776 C4.23104018,11.6713313 4.34186297,11.6033278 4.45212927,11.6297875 C5.45196094,11.8697091 7.21960327,12.7727288 9.77542183,14.3435355 Z" id="Leaves-base"></path>
                                <path d="M6.73387569,12.5950545 L6.94142478,12.9011492 L6.57207031,12.9157235 C5.96562808,12.939653 5.06148236,13.0716526 3.86358453,13.3120073 C2.90126391,13.5050941 1.64103012,13.072545 0.871998657,12.3078289 C-0.0156380924,11.4251731 -0.0664667622,10.3136548 0.941483777,9.36094214 C2.41982555,7.96361667 4.36251653,9.09775885 6.73387569,12.5950545 Z M1.22344207,9.65968117 C0.392447081,10.4451358 0.431085988,11.2900891 1.16143351,12.0163384 C1.8372041,12.6883169 2.96093833,13.0740153 3.78285939,12.9090993 C4.78325664,12.7083725 5.58487695,12.5815956 6.18991303,12.5289267 C4.04368959,9.45380332 2.39903692,8.54851144 1.22344207,9.65968117 Z" id="Leaves-base"></path>
                                <path d="M11.2440306,15.7572275 C11.3552697,15.779235 11.4276191,15.8873181 11.4056275,15.9986379 C11.383636,16.1099576 11.2756312,16.1823595 11.1643922,16.160352 C9.30090923,15.791681 8.06718042,15.791681 7.4886114,16.1354581 C7.39111089,16.1933914 7.26514089,16.1612586 7.20724953,16.0636874 C7.14935817,15.9661161 7.18146773,15.8400547 7.27896824,15.7821214 C7.97280248,15.3698554 9.28602139,15.3698554 11.2440306,15.7572275 Z" id="Leaves-base"></path>
                                <path d="M5.42616989,15.2494322 C4.56778618,15.3723013 4.27313657,16.0556816 4.55799119,16.8821037 C4.83268125,17.6790363 5.48627611,18.1181817 6.05230982,17.8123167 C6.99309553,17.3039486 8.19124362,16.679134 9.64693979,15.9377631 C8.16242004,15.2873198 6.75636935,15.0590273 5.42616989,15.2494322 Z M10.2111068,16.1118388 C8.58631408,16.9366266 7.26500347,17.6240263 6.24741239,18.1738974 C5.41309417,18.6247341 4.51667518,18.022437 4.1698064,17.016099 C3.80858453,15.9681197 4.22319388,15.0065171 5.36802679,14.8426456 C6.89736517,14.6237359 8.51159795,14.925499 10.2073776,15.7435191 L10.5813252,15.9239062 L10.2111068,16.1118388 Z" id="Leaves-base"></path>
                                <path d="M14.7479821,18.0320126 C14.8607947,18.0434697 14.9429663,18.1442765 14.9315175,18.257171 C14.9200687,18.3700654 14.8193349,18.4522966 14.7065223,18.4408395 C12.5497265,18.2217979 11.1467221,18.5253083 10.4874628,19.3191009 C10.4149849,19.4063692 10.2855363,19.4183165 10.1983313,19.3457861 C10.1111263,19.2732556 10.0991876,19.1437131 10.1716655,19.0564449 C10.9400437,18.1312656 12.4688313,17.8005448 14.7479821,18.0320126 Z" id="Leaves-base"></path>
                                <path d="M7.08566198,19.763423 C6.84273714,19.9341555 6.82313424,20.0766343 6.97871561,20.2712598 C7.15570617,20.4926671 7.5380821,20.7251029 8.02028338,20.9046851 C9.04456365,21.2861494 10.0991904,21.2963861 10.3226329,20.9238866 C10.7147316,20.2702215 11.4948489,19.4397064 12.6658598,18.4250664 C9.81325744,18.7067275 7.94719377,19.1579211 7.08566198,19.763423 Z M13.4255124,18.318788 C12.0086202,19.5001566 11.0902806,20.442569 10.6747006,21.1353797 C10.3076784,21.74724 9.07315284,21.7352571 7.87706333,21.2898073 C7.33151349,21.0866327 6.89023135,20.8183895 6.65806333,20.5279576 C6.35511089,20.1489774 6.41211455,19.7346605 6.84966087,19.4271441 C7.85330371,18.7217636 9.98819133,18.2377345 13.2765884,17.9562182 L13.9271647,17.9005231 L13.4255124,18.318788 Z" id="Leaves-base"></path>
                                <path d="M16.5129523,18.7013579 C16.582597,18.7909068 16.5665141,18.9199996 16.4770301,18.9896948 C16.3875461,19.05939 16.2585469,19.0432954 16.1889022,18.9537466 C14.4376759,16.7020262 13.7001585,15.1899921 14.0036908,14.3422769 C14.04194,14.2354533 14.159482,14.1798852 14.2662282,14.2181621 C14.3729745,14.2564391 14.4285023,14.3740664 14.3902531,14.48089 C14.1555586,15.1363527 14.8540114,16.5682978 16.5129523,18.7013579 Z" id="Leaves-base"></path>
                                <path d="M15.1183151,16.69826 L15.0224002,16.9564156 L14.8024536,16.7908542 C13.9532627,16.1516388 13.3108349,15.3632715 12.8773975,14.427842 C12.1569418,12.8729795 13.32906,11.3466665 14.9865594,11.8598811 C16.1727164,12.2271532 16.1727164,13.8603335 15.1183151,16.69826 Z M14.8651847,12.2524466 C13.563512,11.8494072 12.6727517,13.0093405 13.249926,14.254978 C13.6166086,15.0463396 14.1427803,15.7241378 14.8300973,16.2899264 C15.7086017,13.8324242 15.6807296,12.5049653 14.8651847,12.2524466 Z" id="Leaves-base"></path>
                                <path d="M34.6631688,20.6243457 C34.7733452,20.6513837 34.8408087,20.7626136 34.8138528,20.8727847 C34.7868968,20.9829557 34.6757291,21.0503483 34.5655526,21.0233103 C26.7876971,19.1145731 19.4071031,12.9286666 18.9113723,7.24175263 C18.9015204,7.12873401 18.9851364,7.0291922 19.0981338,7.01941978 C19.2111312,7.00964736 19.3107202,7.09334494 19.3205721,7.20636356 C19.7981669,12.6852255 27.0378699,18.753047 34.6631688,20.6243457 Z" id="Leaves-base" transform="translate(26.865184, 14.023961) rotate(40.000000) translate(-26.865184, -14.023961) "></path>
                                <path d="M25.7811251,12.6971968 C25.7936943,12.8099474 25.7125,12.9114752 25.5997726,12.9239655 C25.4870451,12.9364559 25.385472,12.8551788 25.3729028,12.7424282 C25.0580523,9.91810647 25.3081845,7.89749246 26.1411587,6.67583268 C26.2050413,6.58214094 26.3328079,6.55803663 26.4265335,6.62199419 C26.5202591,6.68595174 26.5444516,6.81375174 26.480569,6.90744347 C25.7152432,8.02988853 25.4761422,9.9613908 25.7811251,12.6971968 Z" id="Leaves-base" transform="translate(25.878976, 9.755724) rotate(40.000000) translate(-25.878976, -9.755724) "></path>
                                <path d="M26.798819,11.7503283 L26.5376499,12.0554751 L26.4433165,11.6649483 C25.4726156,7.6463835 26.11706,5.54833066 28.4437429,5.54833066 C29.65092,5.54833066 30.1400606,6.16728341 29.7983112,7.27988252 C29.4874989,8.29176298 28.4887829,9.7757952 26.798819,11.7503283 Z M29.4058068,7.15914471 C29.664344,6.31745111 29.3812739,5.95925749 28.4437429,5.95925749 C26.5505112,5.95925749 25.9660303,7.6438362 26.7505154,11.1723339 C28.2460075,9.39329831 29.1320476,8.05039524 29.4058068,7.15914471 Z" id="Leaves-base" transform="translate(27.956157, 8.801903) rotate(40.000000) translate(-27.956157, -8.801903) "></path>
                                <path d="M25.7801432,1.6965416 C25.5153735,0.875054029 25.0593156,0.727133617 24.2625661,1.21793637 C22.6696742,2.199168 23.1425779,3.86908272 25.8376985,6.33737499 C26.0806478,4.11395374 26.0591599,2.56223281 25.7801432,1.6965416 Z M24.0473121,0.867994499 C25.0641916,0.241590199 25.8218711,0.487340263 26.1709471,1.57040069 C26.4895405,2.55888453 26.4966134,4.29005581 26.2003515,6.7808937 L26.1540285,7.17035744 L25.8604532,6.91051241 C22.7316356,4.14117915 22.0693749,2.08641643 24.0473121,0.867994499 Z" id="Leaves-base" transform="translate(24.671544, 3.849648) rotate(40.000000) translate(-24.671544, -3.849648) "></path>
                                <path d="M25.3606472,10.7909603 C25.4573216,10.8503623 25.4875989,10.9768628 25.4282734,11.073507 C25.3689478,11.1701513 25.2424848,11.200342 25.1458104,11.14094 C22.6254291,9.59228053 20.8830861,8.70225862 19.9391549,8.47556907 C19.8288461,8.4490779 19.760832,8.33818366 19.7872411,8.22787987 C19.8136501,8.11757607 19.9244819,8.04963253 20.0347907,8.0761237 C21.0350076,8.31633054 22.803502,9.21971111 25.3606472,10.7909603 Z" id="Leaves-base" transform="translate(22.620092, 9.620889) rotate(40.000000) translate(-22.620092, -9.620889) "></path>
                                <path d="M24.4816496,7.30404604 L24.6891987,7.61014076 L24.3198442,7.62471507 C23.713402,7.64864459 22.8092563,7.78064421 21.6113585,8.02099886 C20.6490378,8.21408564 19.3888041,7.78153661 18.6197726,7.01682049 C17.7321358,6.13416464 17.6813072,5.0226464 18.6892577,4.06993372 C20.1675995,2.67260824 22.1102905,3.80675043 24.4816496,7.30404604 Z M18.971216,4.36867274 C18.140221,5.15412742 18.1788599,5.99908069 18.9092074,6.72532993 C19.584978,7.39730849 20.7087123,7.78300689 21.5306333,7.61809086 C22.5310306,7.41736412 23.3326509,7.2905872 23.937687,7.23791822 C21.7914635,4.16279489 20.1468109,3.25750301 18.971216,4.36867274 Z" id="Leaves-base" transform="translate(21.316426, 5.777353) rotate(40.000000) translate(-21.316426, -5.777353) "></path>
                                <path d="M24.602666,13.0984953 C24.7139384,13.0985568 24.7863096,13.0986895 24.7643115,13.0987918 C24.7423133,13.098894 24.6342762,13.0989271 24.5230038,13.0988656 C22.6589623,13.0978353 21.4248637,13.0973947 20.8461214,13.0975281 C20.7485917,13.0975506 20.6225839,13.0974738 20.5646752,13.0973566 C20.5067665,13.0972394 20.5388856,13.0971262 20.6364153,13.0971037 C21.3304573,13.0969438 22.6440698,13.0974128 24.602666,13.0984953 Z" id="Leaves-base" transform="translate(22.652055, 13.097985) rotate(40.000000) translate(-22.652055, -13.097985) "></path>
                                <path d="M18.7773622,11.0841 C17.9189785,11.2069691 17.6243289,11.8903494 17.9091835,12.7167715 C18.1838736,13.5137041 18.8374685,13.9528495 19.4035022,13.6469844 C20.3442879,13.1386164 21.542436,12.5138018 22.9981321,11.7724309 C21.5136124,11.1219876 20.1075617,10.893695 18.7773622,11.0841 Z M23.5622991,11.9465066 C21.9375064,12.7712944 20.6161958,13.4586941 19.5986047,14.0085651 C18.7642865,14.4594019 17.8678675,13.8571048 17.5209988,12.8507668 C17.1597769,11.8027875 17.5743862,10.8411849 18.7192191,10.6773134 C20.2485575,10.4584037 21.8627903,10.7601668 23.5585699,11.5781869 L23.9325175,11.7585739 L23.5622991,11.9465066 Z" id="Leaves-base" transform="translate(20.663399, 12.384326) rotate(40.000000) translate(-20.663399, -12.384326) "></path>
                                <path d="M25.5129376,16.725363 C25.6257881,16.736857 25.7080203,16.837663 25.6966083,16.9505196 C25.6851964,17.0633761 25.5844618,17.1455467 25.4716112,17.1340527 C23.3140909,16.9143064 21.9107743,17.2172247 21.2516007,18.0105442 C21.1791323,18.0977604 21.0496491,18.109658 20.9623921,18.0371181 C20.8751351,17.9645782 20.8631466,17.8350703 20.935615,17.747854 C21.7038933,16.8232263 23.2330211,16.4931505 25.5129376,16.725363 Z" id="Leaves-base" transform="translate(23.292946, 17.369163) rotate(40.000000) translate(-23.292946, -17.369163) "></path>
                                <path d="M17.7024503,16.7041557 C17.4595255,16.8748882 17.4399226,17.017367 17.595504,17.2119925 C17.7724945,17.4333999 18.1548705,17.6658356 18.6370717,17.8454178 C19.661352,18.2268821 20.7159788,18.2371189 20.9394213,17.8646194 C21.33152,17.2109542 22.1116373,16.3804391 23.2826481,15.3657991 C20.4300458,15.6474602 18.5639821,16.0986538 17.7024503,16.7041557 Z M24.0423008,15.2595207 C22.6254086,16.4408893 21.707069,17.3833017 21.291489,18.0761124 C20.9244667,18.6879728 19.6899412,18.6759898 18.4938517,18.23054 C17.9483019,18.0273654 17.5070197,17.7591222 17.2748517,17.4686903 C16.9718992,17.0897101 17.0289029,16.6753932 17.4664492,16.3678768 C18.4700921,15.6624964 20.6049797,15.1784672 23.8933767,14.896951 L24.543953,14.8412558 L24.0423008,15.2595207 Z" id="Leaves-base" transform="translate(20.814540, 16.696440) rotate(40.000000) translate(-20.814540, -16.696440) "></path>
                                <path d="M27.9640286,19.6234616 C28.0337261,19.7130085 28.0176844,19.8420569 27.9281985,19.9116993 C27.8387126,19.9813416 27.709669,19.9652058 27.6399714,19.8756588 C25.8874166,17.6239873 25.1491385,16.1121427 25.4524592,15.2647898 C25.4906817,15.1580118 25.6082392,15.1025023 25.715031,15.1408059 C25.8218229,15.1791095 25.8774094,15.2967214 25.8391868,15.4034994 C25.6046559,16.058682 26.3038292,17.4904477 27.9640286,19.6234616 Z" id="Leaves-base" transform="translate(26.696757, 17.541829) rotate(40.000000) translate(-26.696757, -17.541829) "></path>
                                <path d="M28.2481041,17.5259786 L28.1521892,17.7841341 L27.9322426,17.6185727 C27.0830516,16.9793574 26.4406238,16.1909901 26.0071864,15.2555606 C25.2867307,13.7006981 26.458849,12.1743851 28.1163483,12.6875997 C29.3025054,13.0548718 29.3025054,14.6880521 28.2481041,17.5259786 Z M27.9949737,13.0801652 C26.6933009,12.6771258 25.8025407,13.8370591 26.379715,15.0826966 C26.7463975,15.8740582 27.2725692,16.5518563 27.9598863,17.117645 C28.8383907,14.6601428 28.8105186,13.3326839 27.9949737,13.0801652 Z" id="Leaves-base" transform="translate(27.406873, 15.185223) rotate(40.000000) translate(-27.406873, -15.185223) "></path>
                                <path d="M27.8686768,34.8276612 C27.9788536,34.8546172 28.0462509,34.9657803 28.0192129,35.075951 C27.9921749,35.1861217 27.8809403,35.2535806 27.7707636,35.2266246 C19.9928846,33.3236797 12.6153388,27.1440339 12.1235126,21.4584615 C12.1137383,21.3454695 12.1974388,21.2458864 12.3104628,21.2360364 C12.4234869,21.2261864 12.5230346,21.3097995 12.5328089,21.4227914 C13.006642,26.9003609 20.243355,32.9620411 27.8686768,34.8276612 Z" id="Leaves-base" transform="translate(20.073958, 28.233902) scale(-1, -1) rotate(126.000000) translate(-20.073958, -28.233902) "></path>
                                <path d="M15.7877207,32.456598 C15.800213,32.56932 15.7189332,32.6708871 15.6061772,32.6834544 C15.4934212,32.6960216 15.3918874,32.6148301 15.3793951,32.502108 C15.0664717,29.6785007 15.318066,27.6580642 16.1520436,26.4360333 C16.2160031,26.3423131 16.3438091,26.3181233 16.4375062,26.3820039 C16.5312033,26.4458845 16.5553104,26.5736452 16.4913508,26.6673654 C15.7251031,27.7901515 15.4846045,29.721484 15.7877207,32.456598 Z" id="Leaves-base" transform="translate(15.888404, 29.515525) scale(-1, -1) rotate(126.000000) translate(-15.888404, -29.515525) "></path>
                                <path d="M13.6349565,30.4574958 L13.3737874,30.7626426 L13.2794541,30.3721158 C12.3087532,26.353551 12.9531975,24.2554982 15.2798804,24.2554982 C16.4870575,24.2554982 16.9761981,24.8744509 16.6344487,25.98705 C16.3236364,26.9989305 15.3249205,28.4829627 13.6349565,30.4574958 Z M16.2419444,25.8663122 C16.5004816,25.0246186 16.2174114,24.666425 15.2798804,24.666425 C13.3866487,24.666425 12.8021678,26.3510037 13.5866529,29.8795014 C15.082145,28.1004658 15.9681851,26.7575627 16.2419444,25.8663122 Z" id="Leaves-base" transform="translate(14.792294, 27.509070) scale(-1, -1) rotate(126.000000) translate(-14.792294, -27.509070) "></path>
                                <path d="M11.1934054,28.9804042 C10.9286357,28.1589166 10.4725778,28.0109962 9.67582841,28.501799 C8.08293645,29.4830306 8.55584019,31.1529453 11.2509608,33.6212376 C11.4939101,31.3978163 11.4724222,29.8460954 11.1934054,28.9804042 Z M9.46057436,28.1518571 C10.4774539,27.5254528 11.2351333,27.7712029 11.5842093,28.8542633 C11.9028028,29.8427471 11.9098756,31.5739184 11.6136138,34.0647563 L11.5672907,34.45422 L11.2737155,34.194375 C8.14489787,31.4250417 7.48263721,29.370279 9.46057436,28.1518571 Z" id="Leaves-base" transform="translate(10.084807, 31.133510) scale(-1, -1) rotate(126.000000) translate(-10.084807, -31.133510) "></path>
                                <path d="M18.7211332,33.9468119 C18.8177829,34.0061357 18.8479767,34.1325928 18.7885729,34.2292618 C18.7291692,34.3259308 18.6026628,34.356205 18.5060131,34.2968812 C15.986277,32.7502612 14.2442534,31.8616177 13.3003159,31.6356302 C13.1900064,31.6092211 13.1220581,31.4983939 13.1485493,31.3880909 C13.1750404,31.2777878 13.2859392,31.2097784 13.3962488,31.2361875 C14.3964724,31.4756504 16.1646427,32.3776319 18.7211332,33.9468119 Z" id="Leaves-base" transform="translate(15.980919, 32.778869) scale(-1, -1) rotate(126.000000) translate(-15.980919, -32.778869) "></path>
                                <path d="M15.4056871,35.8751073 L15.6132361,36.181202 L15.2438817,36.1957763 C14.6374394,36.2197059 13.7332937,36.3517055 12.5353959,36.5920601 C11.5730753,36.7851469 10.3128415,36.3525979 9.54381002,35.5878818 C8.65617328,34.7052259 8.60534461,33.5937077 9.61329514,32.640995 C11.0916369,31.2436695 13.0343279,32.3778117 15.4056871,35.8751073 Z M9.89525344,32.939734 C9.06425845,33.7251887 9.10289736,34.5701419 9.83324488,35.2963912 C10.5090155,35.9683698 11.6327497,36.3540681 12.4546708,36.1891521 C13.455068,35.9884254 14.2566883,35.8616485 14.8617244,35.8089795 C12.715501,32.7338562 11.0708483,31.8285643 9.89525344,32.939734 Z" id="Leaves-base" transform="translate(12.240463, 34.348414) scale(-1, -1) rotate(126.000000) translate(-12.240463, -34.348414) "></path>
                                <path d="M21.3957635,32.5035459 C21.5070554,32.5035293 21.5794391,32.5036112 21.5574371,32.5037289 C21.535435,32.5038466 21.427379,32.5039554 21.3160871,32.503972 C19.4517196,32.5042502 18.2174051,32.5046758 17.6385613,32.5052153 C17.5410144,32.5053062 17.4149846,32.5053179 17.3570658,32.5052414 C17.299147,32.5051649 17.3312719,32.5050291 17.4288187,32.5049382 C18.1229825,32.5042912 19.4368248,32.5038382 21.3957635,32.5035459 Z" id="Leaves-base" transform="translate(19.444811, 32.504418) scale(-1, -1) rotate(126.000000) translate(-19.444811, -32.504418) "></path>
                                <path d="M16.9860811,33.2392171 C16.1276973,33.3620863 15.8330477,34.0454665 16.1179024,34.8718886 C16.3925924,35.6688212 17.0461873,36.1079666 17.612221,35.8021016 C18.5530067,35.2937335 19.7511548,34.668919 21.206851,33.9275481 C19.7223312,33.2771048 18.3162805,33.0488122 16.9860811,33.2392171 Z M21.771018,34.1016238 C20.1462253,34.9264116 18.8249146,35.6138113 17.8073236,36.1636823 C16.9730053,36.614519 16.0765864,36.0122219 15.7297176,35.005884 C15.3684957,33.9579047 15.7831051,32.9963021 16.927938,32.8324305 C18.4572763,32.6135208 20.0715091,32.9152839 21.7672887,33.7333041 L22.1412364,33.9136911 L21.771018,34.1016238 Z" id="Leaves-base" transform="translate(18.872118, 34.539443) scale(-1, -1) rotate(126.000000) translate(-18.872118, -34.539443) "></path>
                                <path d="M25.8789872,30.9212621 C25.9918494,30.9326749 26.0740252,31.0334056 26.0625321,31.1462504 C26.0510389,31.2590952 25.950229,31.3413222 25.8373668,31.3299094 C23.6796225,31.1117157 22.2758474,31.415566 21.6160015,32.2092095 C21.5434591,32.2964613 21.413945,32.3084477 21.3267235,32.2359817 C21.2395021,32.1635157 21.2276024,32.0340388 21.3001448,31.9467869 C22.0692067,31.0217816 23.5988341,30.6906903 25.8789872,30.9212621 Z" id="Leaves-base" transform="translate(23.658130, 31.566959) scale(-1, -1) rotate(126.000000) translate(-23.658130, -31.566959) "></path>
                                <path d="M20.047977,34.0954792 C19.8050521,34.2662116 19.7854492,34.4086905 19.9410306,34.6033159 C20.1180212,34.8247233 20.5003971,35.057159 20.9825984,35.2367413 C22.0068786,35.6182056 23.0615054,35.6284423 23.2849479,35.2559428 C23.6770466,34.6022776 24.4571639,33.7717625 25.6281748,32.7571225 C22.7755724,33.0387836 20.9095087,33.4899772 20.047977,34.0954792 Z M26.3878274,32.6508441 C24.9709352,33.8322127 24.0525956,34.7746252 23.6370156,35.4674358 C23.2699933,36.0792962 22.0354678,36.0673133 20.8393783,35.6218635 C20.2938285,35.4186888 19.8525463,35.1504457 19.6203783,34.8600137 C19.3174259,34.4810335 19.3744295,34.0667166 19.8119758,33.7592002 C20.8156187,33.0538198 22.9505063,32.5697906 26.2389034,32.2882744 L26.8894797,32.2325792 L26.3878274,32.6508441 Z" id="Leaves-base" transform="translate(23.160067, 34.087763) scale(-1, -1) rotate(126.000000) translate(-23.160067, -34.087763) "></path>
                                <path d="M24.8585299,30.2371327 C24.9281768,30.3266151 24.9120417,30.4556522 24.8224913,30.5253452 C24.7329408,30.5950382 24.6038859,30.5789957 24.534239,30.4895134 C22.7829574,28.2394653 22.045611,26.7284029 22.3495796,25.8809852 C22.3878838,25.774199 22.5055007,25.7186168 22.6122845,25.7568387 C22.7190682,25.7950607 22.7745818,25.912613 22.7362776,26.0193992 C22.5012458,26.6746319 23.1995366,28.1056567 24.8585299,30.2371327 Z" id="Leaves-base" transform="translate(23.592376, 28.156734) scale(-1, -1) rotate(126.000000) translate(-23.592376, -28.156734) "></path>
                                <path d="M22.0349966,29.9528922 L21.9390816,30.2110477 L21.719135,30.0454863 C20.8699441,29.4062709 20.2275163,28.6179037 19.7940789,27.6824742 C19.0736232,26.1276116 20.2457414,24.6012986 21.9032408,25.1145133 C23.0893979,25.4817853 23.0893979,27.1149657 22.0349966,29.9528922 Z M21.7818661,25.5070788 C20.4801934,25.1040394 19.5894332,26.2639727 20.1666074,27.5096101 C20.53329,28.3009717 21.0594617,28.9787699 21.7467788,29.5445586 C22.6252831,27.0870563 22.5974111,25.7595975 21.7818661,25.5070788 Z" id="Leaves-base" transform="translate(21.193765, 27.612136) scale(-1, -1) rotate(126.000000) translate(-21.193765, -27.612136) "></path>
                            </g>
                            <g id="Leaves" transform="translate(146.000000, 96.000000) scale(-1, 1) translate(-146.000000, -96.000000) translate(96.000000, 62.000000)">
                                <path d="M0.0572348323,61.4216973 L87.6342857,61.4216973 C81.7301934,57.6705883 78.7781472,54.5118619 78.7781472,51.9455182 C78.7781472,48.0960027 69.2746452,49.8082738 66.1762142,49.2609127 C63.0777832,48.7135516 65.576745,42.9211118 59.7182957,42.3096661 C53.8598465,41.6982203 53.5048123,45.0815519 50.1725658,44.5501295 C46.8403192,44.0187071 51.2592544,34.4677315 39.5836467,34.4677315 C27.908039,34.4677315 35.0883487,40.6916763 29.8729029,40.7886666 C24.6574571,40.8856569 26.6731005,37.8383162 20.7974838,38.8248767 C14.9218672,39.8114371 19.5833434,51.9455182 13.5479857,49.8378835 C9.52441401,48.4327936 5.02749704,52.2940649 0.0572348323,61.4216973 Z" fill="#C9DAF2" transform="translate(43.845760, 47.944714) scale(-1, 1) translate(-43.845760, -47.944714) "></path>
                                <g id="Leaf" transform="translate(19.748571, 14.708000)">
                                    <path d="M29.8650522,48.9268537 C23.1173995,50.3939551 15.5068374,50.6779389 14.2496516,43.4920801 C12.9924657,36.3062212 19.2967423,37.8427306 19.311061,34.4001945 C19.3253798,30.9576583 12.1389058,29.2610272 12.7733617,22.7588457 C13.4078176,16.2566642 20.680318,15.713118 18.548274,11.7520971 C16.4162301,7.79107621 19.4279676,4.00774197 20.7438269,3.93966148 C22.0596861,3.871581 22.5953275,3.39020972 26.1544411,6.84423849 C29.7135548,10.2982673 32.2073054,9.92193804 33.4760383,13.1828283 C34.7447711,16.4437185 30.9339052,19.0239988 32.7032707,23.9235831 C34.4726361,28.8231673 41.0007364,28.9768942 40.9700655,36.376906 C40.9391778,43.7769177 36.612705,47.4597524 29.8650522,48.9268537 Z" id="Leaf-base" fill="#FF8E88" transform="translate(26.851880, 26.822941) scale(-1, 1) rotate(48.000000) translate(-26.851880, -26.822941) "></path>
                                    <path d="M39.9533355,33.1501493 L39.9267942,33.2205287 C37.7271017,39.1708961 34.5028222,42.8814136 30.2636029,44.3501044 C30.023907,46.0842395 29.6838501,47.6901997 29.253782,49.1066952 L29.4666928,49.0606042 C29.2846416,49.0991062 29.1019605,49.1367548 28.9187897,49.1734289 C29.3556878,47.7761631 29.7015724,46.1817119 29.9472032,44.4548006 C25.554405,45.8453275 20.0980125,44.8848095 13.5879955,41.5714093 C13.5898611,41.458214 13.5960931,41.350477 13.6047423,41.2456182 C20.1654332,44.6088014 25.6239154,45.5701285 29.99192,44.1285471 C30.1006633,43.3170936 30.1872266,42.478222 30.250896,41.6178754 L30.1691149,41.6696255 L30.1691149,41.6696255 L30.0079198,41.4197679 L30.2768762,41.2463719 C30.4164677,39.127627 30.4182377,36.8858883 30.2668019,34.6138985 C30.2004014,33.6176929 30.106255,32.6284023 29.9845658,31.6491719 L30.0377111,31.6355068 C24.5114298,33.1121762 19.2775105,32.2142977 14.3463171,28.9458808 C14.1071293,28.6784727 13.876305,28.3999602 13.6602227,28.1077131 C18.7663787,31.806551 24.1907904,32.8864622 29.9457622,31.3527755 C29.844387,30.5658447 29.7239267,29.7848206 29.5856858,29.0121886 C24.5457422,31.011318 19.0236521,30.1663304 13.0327454,26.4755429 L13.1905505,26.2235635 C19.1208103,29.8769887 24.56302,30.7075708 29.5312446,28.7137902 C28.5902849,23.6382553 26.8788149,18.9373765 24.427097,15.0805976 L24.3180815,14.905211 C22.6613021,15.5698124 20.632168,15.2765924 18.2393125,14.0194824 C18.2701568,13.9208551 18.2944587,13.8217021 18.3113844,13.7204942 L18.2020911,13.6627873 C20.5651111,14.9422119 22.5485728,15.2724725 24.1614882,14.647234 C23.9050049,14.2170253 23.6512208,13.7496274 23.3996852,13.2454492 C21.8817744,13.5913755 20.0515926,13.164497 17.9175221,11.9637817 L17.9420541,12.0100383 C17.8465246,11.835149 17.7611185,11.6606478 17.6852416,11.4868377 C19.8852919,12.7995733 21.7425818,13.295339 23.2667081,12.9722572 C22.1856495,10.7447786 21.1474495,7.83468949 20.1500611,4.24147028 L20.1151506,4.24265514 C20.2337165,4.23706501 20.3459604,4.22813819 20.4546543,4.21901106 C21.4507762,7.80035381 22.4867309,10.6935246 23.5613103,12.8979022 C25.1754171,12.4293074 26.3940056,10.987416 27.2286129,8.57016626 C27.3130636,8.63348563 27.3969969,8.69476301 27.480168,8.75438446 C26.6179526,11.1957373 25.3524137,12.6678639 23.6944104,13.1684532 C23.9406508,13.6576557 24.188565,14.1117595 24.4384777,14.5299941 C26.0571788,13.7699422 27.2827228,11.9944467 28.1246485,9.1954881 C28.2127209,9.25321287 28.2998348,9.30924552 28.3859935,9.36384901 C27.5228261,12.1805496 26.2558811,13.9892036 24.5941299,14.7839675 C24.622582,14.8312027 24.6514145,14.8770739 24.6802734,14.9224715 C25.3734927,16.0129696 26.0078904,17.1698742 26.5828394,18.3827892 L26.3872826,18.5587945 C28.8004584,16.4337681 30.5705618,14.1031872 31.6984933,11.5656395 C31.7741487,11.6393861 31.8485067,11.7168682 31.9209749,11.7975056 C30.7949195,14.2853248 29.0590604,16.5751794 26.7148923,18.6662527 C27.6691395,20.7248735 28.4540502,22.941897 29.0667373,25.2660721 L28.9228135,25.3941344 C30.0101463,24.4356294 30.9596683,23.4254124 31.7714554,22.3633232 C31.7857829,22.4970154 31.8054106,22.6332017 31.8294177,22.7713452 C31.0558108,23.7561981 30.1622136,24.6955342 29.1508662,25.5899272 C29.4024869,26.5742633 29.6235775,27.5776781 29.8137592,28.5960115 C31.0920772,28.0546382 32.3392188,27.3234676 33.5549918,26.4038006 C33.6202495,26.4786254 33.6867757,26.5524342 33.7543992,26.6252196 C32.4925366,27.5823906 31.1967362,28.3394044 29.8670673,28.8969741 C30.2039266,30.7547154 30.4365796,32.6617177 30.5653957,34.5943444 C30.712279,36.7980345 30.7159443,38.973909 30.5898945,41.039043 C34.619658,38.3313432 37.2357154,34.9129488 38.4425351,30.7797938 C38.5216579,30.8665064 38.5992318,30.9556984 38.6753073,31.046633 C37.4050168,35.230048 34.7006746,38.686692 30.5656995,41.4131522 C30.5038941,42.3059435 30.4177397,43.1773943 30.3082533,44.020041 C34.3985813,42.5418931 37.5089799,38.9059732 39.6492589,33.1094071 L39.7785362,32.7521364 C39.8398332,32.881412 39.8981719,33.0140071 39.9533355,33.1501493 Z" id="Leaf-base" fill="#FFFFFF" transform="translate(26.493040, 26.697099) scale(-1, 1) rotate(48.000000) translate(-26.493040, -26.697099) "></path>
                                </g>
                                <g id="Leaf" transform="translate(46.697143, 3.060000)">
                                    <path d="M19.8311221,56.4470536 C12.0749606,58.1196345 3.32035925,58.4128873 1.83957869,50.0545878 C0.358798125,41.6962883 7.61922813,43.5126975 7.61922813,39.5114627 C7.61922813,35.5102279 -0.656937226,33.5034384 0.0418897869,25.948939 C0.7407168,18.3944396 11.2306475,17.7624377 8.75877362,13.1481757 C6.28689976,8.53391378 4.1510246,1.18717077 8.75877362,0.153841058 C13.3665226,-0.879488658 11.2493868,3.48404945 15.3606798,7.51593312 C19.4719728,11.5478168 22.3392349,11.122471 23.814518,14.9187848 C25.289801,18.7150986 20.9177431,21.6957519 22.9768462,27.3991633 C25.0359494,33.1025746 32.5472718,33.312841 32.5472718,41.913821 C32.5472718,50.5148011 27.5872836,54.7744728 19.8311221,56.4470536 Z" id="Leaf-base" fill="#374ABE"></path>
                                    <path d="M13.0577093,14.2500101 L13.0885492,14.2406863 C14.9348721,13.6873435 16.3305291,12.0016629 17.2867267,9.18092816 C17.371726,9.2459045 17.455743,9.30844881 17.5390933,9.36950848 C16.5485745,12.2263792 15.0953586,13.9446277 13.1891573,14.5200894 C13.4779225,15.1093897 13.7703494,15.6557696 14.0652184,16.1577871 C15.9340119,15.2757352 17.3462147,13.1957316 18.312516,9.91020245 C18.3997361,9.96746057 18.486915,10.0246579 18.5732591,10.0805698 C17.5862526,13.3826134 16.1315096,15.4962196 14.2189935,16.4138169 C14.2560488,16.4761931 14.2940052,16.5378689 14.3320016,16.5988152 C15.1201727,17.8630418 15.8419127,19.2037882 16.4965143,20.6091546 L16.2723688,20.8097938 C19.0967143,18.3131131 21.095137,15.5837816 22.3161789,12.5957646 C22.3939414,12.6697964 22.4697365,12.7471442 22.5438752,12.8271522 L22.5165068,12.8921702 C21.2951959,15.794895 19.345616,18.4550882 16.6262615,20.8930776 C17.7447276,23.3399122 18.6612929,25.9797992 19.3727162,28.7492878 L19.1285783,28.9684885 C20.4226156,27.8245782 21.5396303,26.6331209 22.4859605,25.3910208 C22.5004515,25.5243307 22.5210176,25.6601436 22.5452322,25.7976148 C21.6602824,26.9327037 20.6310197,28.0245178 19.4554073,29.0759994 C19.7360755,30.1973472 19.9834329,31.3406672 20.1970638,32.500662 C21.6623589,31.8690315 23.0945841,31.0242507 24.4934977,29.9669628 C24.5573965,30.0432832 24.622613,30.1178254 24.6887806,30.1914608 C23.2455816,31.2841352 21.7659179,32.1540361 20.2506125,32.801007 C20.6451459,35.0032402 20.9177306,37.2645794 21.0675725,39.5568262 C21.2357977,42.1302962 21.2398967,44.671219 21.0953839,47.0825845 C25.7645218,43.9508795 28.7739783,39.9650037 30.1280929,35.1201496 C30.2066283,35.209151 30.2844206,35.300383 30.3609046,35.3931672 C28.9428802,40.2853085 25.8447351,44.3078252 21.0704266,47.4564011 C21.0015455,48.5087215 20.9029605,49.5346107 20.7772422,50.5264106 C25.5392329,48.742962 29.1672802,44.3925535 31.6705355,37.4722568 C31.7304935,37.6017929 31.7878104,37.7363266 31.8424028,37.8739637 C29.2824926,44.7794146 25.5768542,49.1078823 20.7336945,50.8579322 C20.4581009,52.918787 20.0636932,54.8265166 19.5629136,56.5054006 L19.2820778,56.5627325 C19.2650627,56.5662314 19.2480438,56.5697228 19.2310212,56.5732069 C19.7362889,54.9134147 20.1361416,53.0191438 20.4175693,50.9671155 C15.3677184,52.6591842 9.10586839,51.6031316 1.64258665,47.7972319 C1.64470889,47.6846744 1.64919562,47.5758766 1.65571962,47.4695439 C9.16916488,51.3266183 15.4336859,52.3839245 20.4603734,50.639905 C20.586337,49.6777375 20.6856877,48.6816573 20.7579828,47.6600135 L20.6704482,47.715638 L20.6704482,47.715638 L20.5088833,47.4662556 L20.7829368,47.2895875 C20.940663,44.8245203 20.9418536,42.2177364 20.7691654,39.5759925 C20.6905204,38.3728991 20.5779026,37.1784325 20.4315684,35.9966509 L20.5433203,35.9675161 C14.2586803,37.7050823 8.32579859,36.7896746 2.75485913,33.2247628 C2.50817096,32.9560966 2.26833428,32.678321 2.03945876,32.3890484 C7.77410307,36.3777108 13.8881504,37.479955 20.39374,35.7009529 C20.2734886,34.7638638 20.1316108,33.8356303 19.9686269,32.917635 C14.1255403,35.2995256 7.75715075,34.3857178 0.876113819,30.1756532 L1.03302918,29.9233656 C7.85351543,34.0963831 14.1427653,34.9959966 19.9147073,32.6201499 C18.8345993,26.7152357 16.8773789,21.2454481 14.0776229,16.754639 L13.9439333,16.5362437 C12.3886948,17.1757018 10.5443091,17.0587444 8.41563523,16.1817889 C8.4844256,16.1013312 8.54871573,16.0208155 8.60853828,15.9394894 C10.6045339,16.7484254 12.3301555,16.8619921 13.7898789,16.2778734 C13.4890935,15.7640873 13.1908971,15.2046404 12.895399,14.5999143 C11.7833321,14.8603511 10.5258229,14.751451 9.12381148,14.2719468 C9.11456937,14.1644223 9.09622015,14.0540931 9.0694123,13.9413373 C10.4486338,14.438467 11.6792064,14.5663823 12.7627795,14.3255319 C11.1689011,10.9809027 9.65398575,6.31241141 8.21612976,0.317544643 C8.30713573,0.281060191 8.40182193,0.249243166 8.49987116,0.2205448 C9.94388706,6.24427441 11.4635113,10.9207837 13.0577093,14.2500101 Z" id="Leaf-base" fill="#FFFFFF"></path>
                                </g>
                                <g id="Leaf" transform="translate(62.742857, 0.000000)">
                                    <path d="M14.124962,59.2821137 C6.49592792,59.5275959 -1.49403952,58.1451022 0.42955022,49.1609608 C2.35313996,40.1768193 6.84437256,47.1323865 8.69137624,42.3580191 C10.5383799,37.5836517 4.63080783,35.1779414 4.74588202,30.850583 C4.86095621,26.5232245 13.3299964,28.7010064 12.9856316,26.420253 C12.6120074,23.9457126 9.07201831,21.4757005 10.4850393,16.6572156 C11.8980604,11.8387306 18.3389764,15.5723812 17.9125933,10.2936881 C17.4862101,5.01499496 16.6764018,0.703623343 21.2240873,0.516482268 C25.7717729,0.329341193 26.6473578,5.64735252 28.7754287,10.6359936 C30.9034995,15.6246348 34.0360778,12.5952532 33.8845229,16.8305681 C33.7329679,21.065883 28.638793,23.3250859 28.2695985,29.6577098 C27.9004039,35.9903336 34.575773,37.6571757 31.2255274,46.6084196 C27.8752817,55.5596635 21.7539961,59.0366314 14.124962,59.2821137 Z" id="Leaf-base" fill="#000140"></path>
                                    <path d="M25.6475276,14.7282378 L25.6271218,14.8437924 C27.4217252,15.355782 29.3004795,14.6051727 31.2762808,12.5922758 C31.3140034,12.6972296 31.3524514,12.7981692 31.3917252,12.8955282 C29.3724617,14.9079013 27.4292947,15.654891 25.5743468,15.1361503 C25.395005,16.0684367 25.1318669,16.9997269 24.7851569,17.9286305 C24.1629308,19.5956952 23.5825609,21.2118821 23.0388457,22.78943 L23.0152713,22.7956128 C27.6206171,21.5445955 30.8246442,18.8864783 32.6329672,14.8116672 C32.7105086,14.8854285 32.7886117,14.9541978 32.8668245,15.0185548 C31.0161198,19.1240721 27.7567256,21.814772 23.0942782,23.0813006 L23.0244376,22.8312499 C21.8435332,26.2601557 20.8357327,29.5068692 19.9475549,32.6972306 L19.8947946,32.6918188 C23.0939996,32.9762147 25.8318333,32.8562601 28.110572,32.3318502 C28.1089089,32.432551 28.1109595,32.5327266 28.1148145,32.6320204 C25.8153468,33.1528776 23.0651344,33.2710468 19.8681781,32.9868508 C19.5903371,33.9883575 19.3238825,34.9894977 19.0675128,35.9893546 C19.0801507,35.991405 19.0925533,35.99331 19.1049653,35.9952002 L19.0596694,36.2879819 L18.993959,36.2772683 C18.7169614,37.3655013 18.4517236,38.4526642 18.1960734,39.5438684 C17.7873041,41.2886382 16.7492907,46.1533674 16.0912834,49.129444 L15.7973113,49.1281207 C23.216107,49.1883075 27.4032903,45.9331067 29.9054269,38.8018861 L30.0004909,38.8345751 C30.0356409,38.9338817 30.069999,39.0337087 30.1034171,39.1341349 L30.1876103,38.8992654 C27.671321,46.0708218 23.436233,49.4167186 16.0261598,49.4251379 C15.8422719,50.2515725 15.6940173,50.9030035 15.6053795,51.2583384 L15.5469912,51.4890832 C19.8144103,51.8146698 24.7763672,49.4693953 30.4452199,44.4509085 C30.4092974,44.6149558 30.3685618,44.7822231 30.3229507,44.9522271 C24.7025164,49.8470172 19.7485946,52.1232962 15.4715547,51.7807152 C14.7130538,54.7044553 13.9033675,56.7830484 12.7439966,58.6103946 C12.6263855,58.6098621 12.5088731,58.6089209 12.3910634,58.6070764 C13.5795513,56.7814731 14.4007372,54.7078271 15.1711235,51.7528851 C10.9588401,51.2900543 7.41342528,48.2497464 4.54613093,42.6290842 C4.66259889,42.6397145 4.77801192,42.6478439 4.89242423,42.6502793 C7.70132816,48.0871485 11.148663,51.0245266 15.2459343,51.46156 L15.3153492,51.1871626 L15.3153492,51.1871626 C15.7181196,49.5725194 17.3625095,41.7925511 17.9050527,39.4767876 C18.1592847,38.3916367 18.4229855,37.3104645 18.6982816,36.2282691 C13.8244877,35.3623156 10.414718,32.1957781 8.47222207,26.7465379 C8.5749792,26.7399244 8.67930707,26.7345917 8.78387171,26.7302427 C10.6979846,32.0403805 14.0264873,35.1043287 18.7719441,35.9405292 C20.244353,30.1936504 22.0493605,24.4047931 24.5049565,17.8257735 C24.8500105,16.9013068 25.1108736,15.974384 25.2874985,15.0449578 C23.5652313,14.4395125 21.9203375,12.7314768 20.3628987,9.92172873 L20.3631618,9.90985382 L20.3631618,9.90985382 L20.6197284,9.77008931 C22.1292574,12.4960461 23.6992247,14.1561729 25.3396286,14.7507112 C26.0750411,10.4502791 25.008294,6.0966611 22.1357664,1.68473252 C22.2116822,1.62254561 22.2921696,1.56492225 22.3764664,1.51140273 C25.2806124,5.96451849 26.3719962,10.3717543 25.6475276,14.7282378 Z" id="Leaf-base" fill="#FFFFFF" transform="translate(18.706530, 30.060899) rotate(-7.000000) translate(-18.706530, -30.060899) "></path>
                                </g>
                            </g>
                            <g id="Leaves" transform="translate(69.000000, 101.000000)" fill="#FFFFFF">
                                <path d="M0,23.4496688 C41.6312574,24.1768375 65.7754951,24.1768375 72.4327132,23.4496688 C82.4185403,22.3589159 74.9311885,18.589821 74.9311885,15.2649271 C74.9311885,11.9400331 65.885197,13.4189517 62.9359284,12.9461863 C59.9866598,12.4734209 62.3653184,7.47038924 56.7889023,6.94227287 C51.2124861,6.41415649 50.8745438,9.33639923 47.7027158,8.87740039 C44.5308878,8.41840156 52.5627569,0 41.4492277,0 C30.3356985,0 33.3446719,5.5447868 28.3803043,5.62855903 C23.4159366,5.71233126 27.7784296,2.82931525 19.7417873,3.93239929 C11.7051449,5.03548334 17.6739419,9.42383928 15.4837072,10.4063431 C13.2934725,11.3888469 8.97479205,7.9117854 6.30651497,10.4063431 C3.63823788,12.9009008 8.97479205,16.5041129 8.06969993,19.1888239 C7.46630518,20.9786312 4.77640521,22.3989128 0,23.4496688 Z"></path>
                            </g>
                        </g>
                        <g id="plant_14_" transform="translate(221.203540, 23.643038)" fill-rule="nonzero">
                            <path d="M3.00129823,52.6650177 C3.00129823,52.6650177 0.921154867,-3.9146481 34.9894708,0.363210127 C38.9006628,2.15943291 32.0940265,8.40205063 28.4585053,9.74854177 C23.7545345,11.490238 26.8873619,17.8995899 21.8009655,20.4934329 C15.5614363,23.6753519 17.1375345,28.0829924 16.4046646,35.2588709 C15.8771965,40.4208709 5.36702212,43.7650177 3.00129823,52.6650177 Z" id="Path" fill="#F3F9FF"></path>
                            <path d="M0.257202655,69.464162 C0.257202655,69.464162 19.0618248,20.2554987 46.4208,43.3531392 C49.0874195,47.112319 41.040715,48.5214481 37.4660035,47.5868354 C32.8404097,46.3773367 33.1692327,53.6068405 27.9094159,52.9020506 C21.4572779,52.0372861 21.1924177,56.6788051 17.9613938,62.3500203 C15.6366602,66.4300506 5.5003531,63.2625519 0.257202655,69.464162 Z" id="Path" fill="#E7F4FE"></path>
                            <path d="M4.22695221,66.1335342 C4.22695221,66.1335342 9.34533009,3.18011646 40.9335097,17.9590734 C43.6514796,19.5169114 38.7538186,24.8190582 34.228223,25.1822684 C29.7030779,25.5454785 31.123323,34.3030785 27.8035619,39.1302582 C24.1189425,44.4887342 17.2861805,43.6771443 16.0186354,51.8236861 C15.1073903,57.6850684 7.46653451,56.1668861 4.22695221,66.1335342 Z" id="Path" fill="#DCEEFD"></path>
                        </g>
                        <g id="window" transform="translate(49.134513, 0.660759)" fill-rule="nonzero">
                            <g id="Group">
                                <rect id="Rectangle" fill="#F3F9FF" x="5.70575487" y="5.85822785" width="171.468587" height="101.392405"></rect>
                                <path d="M177.919373,0.225316456 L4.96027257,0.225316456 C2.26212212,0.225316456 0.0752238938,2.41313924 0.0752238938,5.11243038 L0.0752238938,107.99643 C0.0752238938,110.695722 2.26212212,112.883544 4.96027257,112.883544 L177.919824,112.883544 C180.617974,112.883544 182.804873,110.695722 182.804873,107.99643 L182.804873,5.11243038 C182.804873,2.41313924 180.617524,0.225316456 177.919373,0.225316456 Z M177.174342,107.250633 L5.70575487,107.250633 L5.70575487,5.85822785 L177.174342,5.85822785 L177.174342,107.250633 L177.174342,107.250633 Z" id="Shape" fill="#224380"></path>
                            </g>
                            <g id="Group" transform="translate(12.612389, 11.716456)">
                                <path d="M153.784215,89.9630025 L59.6836283,89.9630025 C58.4399566,89.9630025 57.4314159,88.9540354 57.4314159,87.709838 L57.4314159,4.50632911 C57.4314159,3.26213165 58.4399566,2.25316456 59.6836283,2.25316456 L153.784215,2.25316456 C155.027887,2.25316456 156.036427,3.26213165 156.036427,4.50632911 L156.036427,87.709838 C156.036427,88.9540354 155.027887,89.9630025 153.784215,89.9630025 Z" id="Path" fill="#DAE7FF"></path>
                                <path d="M153.784215,87.709838 L59.6836283,87.709838 C58.4399566,87.709838 57.4314159,86.7008709 57.4314159,85.4566734 L57.4314159,2.25316456 C57.4314159,1.00896709 58.4399566,0 59.6836283,0 L153.784215,0 C155.027887,0 156.036427,1.00896709 156.036427,2.25316456 L156.036427,85.4566734 C156.036427,86.7008709 155.027887,87.709838 153.784215,87.709838 Z" id="Path" fill="#FFFFFF"></path>
                                <path d="M50.6482027,22.3833873 L2.60580973,22.3833873 C1.36213805,22.3833873 0.353597345,21.3744203 0.353597345,20.1302228 L0.353597345,4.50632911 C0.353597345,3.26213165 1.36213805,2.25316456 2.60580973,2.25316456 L50.6482027,2.25316456 C51.8918743,2.25316456 52.900415,3.26213165 52.900415,4.50632911 L52.900415,20.1302228 C52.900415,21.3748709 51.8923248,22.3833873 50.6482027,22.3833873 Z" id="Path" fill="#DAE7FF"></path>
                                <path d="M50.6482027,20.1302228 L2.60580973,20.1302228 C1.36213805,20.1302228 0.353597345,19.1212557 0.353597345,17.8770582 L0.353597345,2.25316456 C0.353597345,1.00896709 1.36213805,0 2.60580973,0 L50.6482027,0 C51.8918743,0 52.900415,1.00896709 52.900415,2.25316456 L52.900415,17.8770582 C52.900415,19.1217063 51.8923248,20.1302228 50.6482027,20.1302228 Z" id="Path" fill="#FFFFFF"></path>
                                <path d="M50.6482027,53.1395342 L2.60580973,53.1395342 C1.36213805,53.1395342 0.353597345,52.1305671 0.353597345,50.8863696 L0.353597345,35.2624759 C0.353597345,34.0182785 1.36213805,33.0093114 2.60580973,33.0093114 L50.6482027,33.0093114 C51.8918743,33.0093114 52.900415,34.0182785 52.900415,35.2624759 L52.900415,50.8863696 C52.900415,52.1305671 51.8923248,53.1395342 50.6482027,53.1395342 Z" id="Path" fill="#DAE7FF"></path>
                                <path d="M50.6482027,50.8863696 L2.60580973,50.8863696 C1.36213805,50.8863696 0.353597345,49.8774025 0.353597345,48.6332051 L0.353597345,33.0093114 C0.353597345,31.7651139 1.36213805,30.7561468 2.60580973,30.7561468 L50.6482027,30.7561468 C51.8918743,30.7561468 52.900415,31.7651139 52.900415,33.0093114 L52.900415,48.6332051 C52.900415,49.8774025 51.8923248,50.8863696 50.6482027,50.8863696 Z" id="Path" fill="#FFFFFF"></path>
                                <path d="M113.111061,11.3636101 L66.5582814,11.3636101 C66.0605425,11.3636101 65.6573965,10.9602937 65.6573965,10.4623443 L65.6573965,6.6558481 C65.6573965,6.15789873 66.0605425,5.75458228 66.5582814,5.75458228 L113.111061,5.75458228 C113.6088,5.75458228 114.011946,6.15789873 114.011946,6.6558481 L114.011946,10.4623443 C114.011946,10.9602937 113.6088,11.3636101 113.111061,11.3636101 Z" id="Path" fill="#374ABE"></path>
                                <path d="M85.4232628,40.2717114 L66.5587319,40.2717114 C66.0609929,40.2717114 65.6578469,39.8683949 65.6578469,39.3704456 L65.6578469,35.5639494 C65.6578469,35.066 66.0609929,34.6626835 66.5587319,34.6626835 L85.4232628,34.6626835 C85.9210018,34.6626835 86.3241478,35.066 86.3241478,35.5639494 L86.3241478,39.3704456 C86.3241478,39.8679443 85.9205513,40.2717114 85.4232628,40.2717114 Z" id="Path" fill="#FF8E88"></path>
                                <g transform="translate(65.314159, 14.870886)" fill="#DCEEFD" id="Path">
                                    <path d="M81.6760319,1.7827038 L1.16304248,1.7827038 C0.710347788,1.7827038 0.343237168,1.41543797 0.343237168,0.962551899 L0.343237168,0.959397468 C0.343237168,0.506511392 0.710347788,0.13924557 1.16304248,0.13924557 L81.6760319,0.13924557 C82.1287265,0.13924557 82.4958372,0.506511392 82.4958372,0.959397468 L82.4958372,0.962551899 C82.4958372,1.41588861 82.129177,1.7827038 81.6760319,1.7827038 Z"></path>
                                    <path d="M81.6760319,6.57022785 L1.16304248,6.57022785 C0.710347788,6.57022785 0.343237168,6.20296203 0.343237168,5.75007595 L0.343237168,5.74692152 C0.343237168,5.29403544 0.710347788,4.92676962 1.16304248,4.92676962 L81.6760319,4.92676962 C82.1287265,4.92676962 82.4958372,5.29403544 82.4958372,5.74692152 L82.4958372,5.75007595 C82.4958372,6.20296203 82.129177,6.57022785 81.6760319,6.57022785 Z"></path>
                                    <path d="M81.6760319,11.3577519 L1.16304248,11.3577519 C0.710347788,11.3577519 0.343237168,10.9904861 0.343237168,10.5376 L0.343237168,10.5344456 C0.343237168,10.0815595 0.710347788,9.71429367 1.16304248,9.71429367 L81.6760319,9.71429367 C82.1287265,9.71429367 82.4958372,10.0815595 82.4958372,10.5344456 L82.4958372,10.5376 C82.4958372,10.9904861 82.129177,11.3577519 81.6760319,11.3577519 Z"></path>
                                    <path d="M31.6206115,16.1448253 L1.16304248,16.1448253 C0.710347788,16.1448253 0.343237168,15.7775595 0.343237168,15.3246734 L0.343237168,15.321519 C0.343237168,14.8686329 0.710347788,14.5013671 1.16304248,14.5013671 L31.6206115,14.5013671 C32.0733062,14.5013671 32.4404168,14.8686329 32.4404168,15.321519 L32.4404168,15.3246734 C32.4404168,15.7780101 32.0737566,16.1448253 31.6206115,16.1448253 Z"></path>
                                </g>
                            </g>
                        </g>
                        <g id="chevron_arrow_2_" transform="translate(21.657522, 29.951899)" fill-rule="nonzero">
                            <polygon id="Path" fill="#F3F9FF" points="9.90342832 35.9375241 19.4167735 45.4548911 19.4167735 52.2125823 9.90342832 42.6952152 0.390533628 52.2125823 0.390533628 45.4548911"></polygon>
                            <polygon id="Path" fill="#E7F4FE" points="9.90342832 24.0412658 19.4167735 33.5581823 19.4167735 40.3158734 9.90342832 30.7985063 0.390533628 40.3158734 0.390533628 33.5581823"></polygon>
                            <polygon id="Path" fill="#DCEEFD" points="9.90342832 12.144557 19.4167735 21.6619241 19.4167735 28.4191646 9.90342832 18.9017975 0.390533628 28.4191646 0.390533628 21.6619241"></polygon>
                            <polygon id="Path" fill="#D0E7FE" points="9.90342832 0.247848101 19.4167735 9.76521519 19.4167735 16.5224557 9.90342832 7.00553924 0.390533628 16.5224557 0.390533628 9.76521519"></polygon>
                        </g>
                        <g id="woman_7_" transform="translate(60.395575, 0.660759)" fill-rule="nonzero">
                            <rect id="Rectangle" fill="#0D1F42" x="4.08326106" y="0.225316456" width="1.28511239" height="78.3907494"></rect>
                            <g id="Group" transform="translate(4.504425, 36.050633)">
                                <path d="M38.2313053,13.5663038 L32.8642832,13.5663038 C32.6255487,13.5663038 32.4318584,13.3725316 32.4318584,13.1336962 L32.4318584,13.131443 C32.4318584,12.8926076 32.6255487,12.6988354 32.8642832,12.6988354 L38.2313053,12.6988354 L39.3574115,13.1323443 L38.2313053,13.5663038 Z" id="Path" fill="#224380"></path>
                                <polygon id="Path" fill="#FFB0B6" points="11.9470858 55.8536962 12.2795124 57.4998582 10.1236947 57.8035848 9.47100354 56.2507038"></polygon>
                                <path d="M12.3263584,57.302481 C12.3263584,57.302481 10.2818,57.8378329 9.61064071,57.9031747 C8.93948142,57.9685165 7.80076283,59.4087392 7.11248673,59.6277468 C6.27736637,59.8931696 6.37556283,60.8543696 7.00798407,61.0247089 C7.9012115,61.2648962 13.096615,61.1806278 13.1101283,59.4195544 C13.124092,57.5543848 12.3263584,57.302481 12.3263584,57.302481 Z" id="Path" fill="#102B5E"></path>
                                <polygon id="Path" fill="#FFB0B6" points="15.5330584 55.3133873 14.6204619 56.7423443 16.6042106 57.7742937 17.7947301 56.5436152"></polygon>
                                <path d="M6.40979646,41.1040304 C5.74088938,41.9219291 7.54581239,56.3620101 8.63408142,57.0658987 C9.72235044,57.7697873 12.4673469,56.2547595 12.4673469,56.2547595 C12.4673469,56.2547595 14.2182168,42.902957 13.4137265,41.1035797 C12.6096867,39.3051038 7.07870354,40.2861316 6.40979646,41.1040304 Z" id="Path" fill="#0B224E"></path>
                                <path d="M29.5999265,41.9088608 C28.7954363,37.4110937 19.2735327,33.7177063 16.6042106,33.575757 C13.9348885,33.4338076 4.33460796,36.6414127 3.67110619,37.2569772 C3.00760442,37.8725418 2.71842035,42.5717418 8.5872354,42.4297924 C14.4560504,42.287843 17.2005965,41.4356962 17.2005965,41.4356962 C17.2005965,41.4356962 20.6897239,42.8506835 22.8613071,43.7465418 C20.8190009,46.0150278 15.1740558,52.5582177 15.2127938,55.5450127 C15.4019796,56.3971595 17.6262646,57.2970734 18.241569,57.0127241 C18.8568735,56.7283747 30.4048673,46.4070785 29.5999265,41.9088608 Z" id="Path" fill="#102B5E"></path>
                                <path d="M14.5974894,12.0093671 C14.5974894,12.0093671 13.6984062,15.3237722 13.1303982,16.0812861 C12.5623903,16.8388 17.0114106,17.9752962 17.4843752,17.501681 C17.9573398,17.0280658 18.0523832,13.8087443 18.0523832,13.8087443 C18.0523832,13.8087443 20.4185575,14.3733873 21.0338619,13.8664253 C21.6491664,13.3594633 21.8383522,12.4356658 21.8856487,12.1517671 C21.9329451,11.8678684 22.7847319,11.5600861 22.7847319,11.1337873 C22.7847319,10.7074886 22.3586133,7.76801013 21.5307,7.0857519 C21.0703478,6.70676962 15.7330549,5.04979241 15.2127938,8.0798481 C14.6920823,11.1099038 14.5974894,12.0093671 14.5974894,12.0093671 Z" id="Path" fill="#FFB0B6"></path>
                                <path d="M15.1182009,12.8619646 C16.585292,12.8619646 18.9992133,12.4356658 18.9992133,10.9679544 C18.9992133,9.50024304 17.1060035,7.36965063 18.9992133,7.60623291 C20.892423,7.84281519 22.3586133,7.84506835 22.3595142,5.85462278 C22.360415,3.10846582 15.1596416,0.109503797 12.5628407,6.3710481 C10.7642239,10.7074886 13.2362522,12.8619646 15.1182009,12.8619646 Z" id="Path" fill="#102B5E"></path>
                                <path d="M31.0800805,16.7905823 C31.0800805,16.7905823 32.9543717,14.9479443 33.1741876,14.6825215 C34.1660619,13.4842886 33.7512044,12.0179291 35.1349637,12.0179291 C35.8953106,12.0179291 37.2538451,12.588881 37.2930336,13.5478278 C37.3101504,13.9610582 37.4475354,15.4778886 36.2142239,15.6721114 C35.1822602,15.8343392 32.4165434,18.6963089 32.4165434,18.6963089 L31.0800805,16.7905823 Z" id="Path" fill="#FFB0B6"></path>
                                <path d="M33.7629159,17.1330633 C33.5264336,15.6180354 31.7688071,15.3737924 30.7341407,16.3282329 C30.4030655,16.633762 26.4504327,18.6462886 24.7256885,19.9008506 C23.2221115,17.986562 19.3879451,14.8740405 14.533977,14.8740405 C7.64040531,14.8740405 0.0680168142,21.6448 0.0680168142,26.3318329 C0.0680168142,29.5980203 1.9193354,29.8170278 3.62155752,29.329443 C3.06075664,31.5434025 2.32067965,35.3210582 2.95400177,37.9793418 C3.4400292,40.0198076 9.10749646,37.6003595 11.3790779,37.2691443 C13.6506593,36.9379291 18.3361619,37.0798785 18.1469761,34.7600203 C17.9577903,32.440162 17.4969876,25.1043089 21.4554761,25.2827595 C23.2540929,25.2827595 23.5865195,26.5215494 25.1513566,26.5215494 C28.1328354,26.5210987 34.0957929,19.2636557 33.7629159,17.1330633 Z" id="Path" fill="#5A5D88"></path>
                                <path d="M13.2961611,3.39236456 C13.2961611,3.39236456 13.3862496,0.030643038 8.5872354,0.030643038 C-1.16214159,0.030643038 2.7188708,9.12126076 2.57653097,13.8560608 C2.43419115,18.5908608 0.163060177,18.2591949 0.0680168142,19.9166228 C-0.0265761062,21.5736 9.2966823,20.247838 9.95928319,13.8087443 C10.6218841,7.36965063 11.0948487,4.40358481 12.4677973,4.95470886 C13.840746,5.50628354 13.2961611,3.39236456 13.2961611,3.39236456 Z" id="Path" fill="#102B5E"></path>
                                <path d="M14.5763186,2.54742785 C15.5154912,2.9944557 13.3430071,6.90324557 12.0259133,6.39267848 C10.7088195,5.88211139 13.3520159,1.96475949 14.5763186,2.54742785 Z" id="Path" fill="#7990DD"></path>
                                <path d="M3.61029646,29.3736051 C3.61029646,29.3736051 5.22693451,23.2544608 7.56968584,21.6921165 C7.56968584,21.6921165 4.65892655,29.3736051 2.75580708,36.7008962 C2.75580708,36.7008962 2.63283628,32.3171392 3.61029646,29.3736051 Z" id="Path" fill="#3C3F5D"></path>
                                <path d="M22.7851823,43.8312608 L24.1338071,44.2764861 C24.1338071,44.2764861 20.8275593,47.4561519 18.7775956,48.6715089 C18.7775956,48.6715089 21.7901549,44.2480962 22.7851823,43.8312608 Z" id="Path" fill="#0B224E"></path>
                                <path d="M14.6132549,56.3516456 C14.6132549,56.3516456 16.8352876,57.748157 17.6145531,58.0870329 C18.3933681,58.4263595 19.1221841,60.4393367 19.8532522,60.9517063 C20.7401735,61.5731291 20.1937867,62.5735342 19.3568646,62.505038 C18.1744531,62.4081519 11.9592478,60.2392557 12.7277027,58.3285722 C13.5407513,56.3052304 14.6132549,56.3516456 14.6132549,56.3516456 Z" id="Path" fill="#102B5E"></path>
                            </g>
                            <path d="M2.03825221,81.3694329 L35.2286558,81.3694329 C36.119631,81.3694329 36.8416903,80.6470684 36.8416903,79.7557165 L36.8416903,79.6034025 C36.8416903,78.7120506 36.119631,77.9896861 35.2286558,77.9896861 L2.03825221,77.9896861 C1.14727699,77.9896861 0.425217699,78.7120506 0.425217699,79.6034025 L0.425217699,79.7557165 C0.425217699,80.6470684 1.14727699,81.3694329 2.03825221,81.3694329 Z" id="Path" fill="#0D1F42"></path>
                            <rect id="Rectangle" fill="#0D1F42" x="32.6534761" y="0.225316456" width="1.28511239" height="78.3907494"></rect>
                        </g>
                        <g id="man_on_ladder_1_" transform="translate(179.762832, 34.118987)" fill-rule="nonzero">
                            <rect id="Rectangle" fill="#183168" x="23.1117531" y="7.31782785" width="20.8581894" height="1.80253165"></rect>
                            <rect id="Rectangle" fill="#183168" x="22.9716655" y="20.7615595" width="20.5032407" height="1.80253165"></rect>
                            <rect id="Rectangle" fill="#183168" x="23.1117531" y="38.1158835" width="21.0352133" height="1.80253165"></rect>
                            <rect id="Rectangle" fill="#183168" x="26.0049451" y="53.9101165" width="17.8420265" height="1.80253165"></rect>
                            <rect id="Rectangle" fill="#183168" x="23.1806708" y="103.444137" width="20.6802646" height="1.80253165"></rect>
                            <rect id="Rectangle" fill="#183168" x="23.1806708" y="119.620506" width="20.6802646" height="1.80253165"></rect>
                            <rect id="Rectangle" fill="#183168" x="23.2892274" y="69.464162" width="20.6802646" height="1.80253165"></rect>
                            <rect id="Rectangle" fill="#183168" x="43.1141018" y="0.446577215" width="1.80176991" height="128.434435"></rect>
                            <rect id="Rectangle" fill="#183168" x="22.7428407" y="0.446577215" width="1.80176991" height="128.434435"></rect>
                            <g id="Group" transform="translate(0.000000, 7.210127)">
                                <path d="M5.83413097,9.94817215 L6.25979912,9.11450127 C6.40529204,8.82925063 6.4314177,8.50479494 6.33232035,8.20016709 C6.23367345,7.89598987 6.02241593,7.64814177 5.73773628,7.50258734 L0.925659292,5.04438481 C0.542783186,4.84881013 0.390533628,4.37834937 0.585575221,3.99531139 L1.59411593,2.01928608 C1.68915929,1.83362532 1.8504177,1.69618228 2.04816195,1.63219241 C2.24635664,1.56730127 2.45851504,1.58352405 2.64274602,1.67950886 L4.44226372,2.5988 L4.63235044,2.22612658 L2.83283274,1.30683544 C2.54680177,1.16263291 2.22338407,1.13559494 1.9193354,1.23473418 C1.61483628,1.33342278 1.36754336,1.54476962 1.22205044,1.82956962 L0.213509735,3.80604557 C-0.0864849558,4.39457215 0.147745133,5.11738734 0.735572566,5.41795949 L5.54764956,7.87616203 C5.73323186,7.9703443 5.87061681,8.13167089 5.93457965,8.32994937 C5.99854248,8.52822785 5.98187611,8.73957468 5.88728319,8.92478481 L5.46161504,9.7584557 L5.83413097,9.94817215 Z" id="Path" fill="#4D78CC"></path>
                                <path d="M3.42381327,4.12013671 L11.5939389,8.2934481 C12.1367221,8.57058734 12.8011248,8.35518481 13.0785973,7.81217215 L13.9186726,6.16601013 C14.1956947,5.62299747 13.9803832,4.95831392 13.4376,4.68072405 L5.26747434,0.507412658 C4.72469115,0.230273418 4.0602885,0.445675949 3.78281593,0.988688608 L2.94274071,2.63485063 C2.66571858,3.17831392 2.88103009,3.84299747 3.42381327,4.12013671 Z" id="Path" fill="#7266D5"></path>
                                <path d="M4.92648938,13.8231646 L6.75438496,10.2415342 C7.03140708,9.69852152 6.81609558,9.03383797 6.27331239,8.7562481 L6.16926018,8.70307342 C5.62647699,8.42593418 4.96207434,8.64133671 4.68460177,9.18434937 L2.85670619,12.7659797 C2.57968407,13.3089924 2.79499558,13.9736759 3.33777876,14.2512658 L3.44183097,14.3044405 C3.98461416,14.5815797 4.64946726,14.3661772 4.92648938,13.8231646 Z" id="Path" fill="#224380"></path>
                            </g>
                            <rect id="Rectangle" fill="#183168" x="24.0162416" y="87.2673165" width="20.6802646" height="1.80253165"></rect>
                            <path d="M31.2688159,82.9646734 L32.098531,85.3796152 C32.098531,85.3796152 33.7849876,86.9059089 34.658846,84.7302532 C34.658846,84.7302532 34.3872292,83.2625418 34.2881319,82.7267392 C34.1890345,82.1904861 31.2688159,82.9646734 31.2688159,82.9646734 Z" id="Path" fill="#FFB0B6"></path>
                            <path d="M34.9232558,83.1160861 L30.6913487,83.1160861 C30.6913487,83.1160861 26.7301575,67.5561823 25.6283752,63.434243 C24.7603726,60.1878835 23.7513814,49.4578633 24.1518248,44.4598937 C24.5338,39.6949013 32.6363593,42.2756759 33.0588743,45.6220759 C34.2980416,55.4319038 31.9917761,62.7078228 32.1102425,64.4233823 C34.1205673,69.5110278 34.9232558,83.1160861 34.9232558,83.1160861 Z" id="Path" fill="#102B5E"></path>
                            <path d="M23.3140018,13.8299241 C22.8022991,14.929919 23.0531956,15.5288101 22.9275221,15.9920608 C22.8018487,16.455762 22.3212265,17.3912759 22.3009566,17.8351494 C22.2806867,18.2790228 22.7518496,18.3394076 22.8536496,18.9193722 C22.9554496,19.4993367 22.6883372,20.2550481 23.0419345,20.8629519 C23.3955319,21.4708557 24.7675796,21.3302582 24.6865,21.9169823 C24.6058708,22.5037063 23.7410212,24.6811646 23.7410212,24.6811646 L29.3828133,24.7717418 C29.3828133,24.7717418 29.157592,21.6024405 29.4445239,20.2924506 C29.7314558,18.9824608 30.3674805,14.1697013 29.1958796,13.5861316 C28.0242788,13.002562 23.8572354,12.6623342 23.3140018,13.8299241 Z" id="Path" fill="#FFB0B6"></path>
                            <path d="M26.4112442,11.3347696 C31.1048549,11.4812253 32.7516726,12.6645873 32.6980699,16.3336405 C32.6660885,18.520562 31.4598035,21.5474633 29.8760478,21.5375737 C28.7341761,21.5303392 26.4828646,21.4032608 26.088277,20.7791342 C25.1518071,19.2974532 25.9535947,17.2520304 25.3261283,16.5458886 C24.4342522,15.5423291 22.4077115,16.0592051 22.686085,12.6019494 C22.9644584,9.14469367 24.8491097,11.2856506 26.4112442,11.3347696 Z" id="Path" fill="#0B224E"></path>
                            <path d="M37.0700646,10.2884 C37.0700646,10.2884 37.8700504,8.05911899 37.7272602,6.86719494 C37.4970841,4.94659747 32.928246,4.93803544 32.7314027,6.60132152 C32.5228478,8.3673519 33.3458062,8.82925063 33.8831841,9.2902481 C34.4205619,9.75124557 35.0349655,10.5578785 35.1885664,10.8652101 C35.3421673,11.1725418 36.8394381,11.1720911 37.0700646,10.2884 Z" id="Path" fill="#FFB0B6"></path>
                            <path d="M4.98234425,23.1354937 C4.98234425,23.1354937 2.73328496,22.3951038 1.88194867,21.5492658 C0.510351327,20.1861013 3.31390531,16.5774329 4.7454115,17.4453519 C6.26565487,18.3668962 6.12331504,19.300157 6.1557469,20.0076506 C6.18817876,20.7151443 6.4462823,21.6957215 6.59402743,22.0062076 C6.74177257,22.316243 5.8206177,23.4969013 4.98234425,23.1354937 Z" id="Path" fill="#FFB0B6"></path>
                            <path d="M20.1172115,79.2830025 L21.3325053,81.5285063 C21.3325053,81.5285063 23.2468858,82.7569316 23.7513814,80.4672658 C23.7513814,80.4672658 23.2423814,79.0644456 23.0563487,78.5516253 C22.8703159,78.0392557 20.1172115,79.2830025 20.1172115,79.2830025 Z" id="Path" fill="#FFB0B6"></path>
                            <path d="M20.2397319,44.6667342 C20.2397319,44.6667342 12.0898761,56.2096962 11.8916814,58.5268506 C11.5335796,62.7082734 19.5086637,79.3131949 19.5086637,79.3131949 L23.6333655,78.4277013 C23.6333655,78.4277013 20.8708018,65.9109215 18.6879575,61.6434278 C22.8860814,55.9645519 29.5364142,52.7934481 29.5364142,45.3760304 C29.5368646,43.3648557 20.2397319,44.6667342 20.2397319,44.6667342 Z" id="Path" fill="#0B224E"></path>
                            <path d="M28.8274177,23.8308203 C27.619331,23.7492557 25.3707221,23.8727291 24.0612858,23.8479443 C20.708192,23.7848557 16.1776416,26.7671443 12.5461743,27.8328911 C10.1732434,25.2633823 6.69402566,21.1865063 6.69402566,21.1865063 L3.76795133,22.9944456 C3.76795133,22.9944456 8.9912823,32.0071038 12.2020363,32.5239797 C14.1452451,32.836719 17.2690637,32.7168506 19.6933451,31.7114886 C19.6933451,34.7298278 15.8280982,46.5584911 18.6681381,47.1609873 C21.5081779,47.7634835 25.9837743,46.7306329 28.7377796,47.1609873 C31.491785,47.5913418 34.5038938,49.6579443 33.8156177,44.4918886 C33.1268912,39.3258329 30.1143319,39.8814633 36.5691726,30.0256709 C38.2596832,27.4444456 40.2276664,23.6843646 39.9294735,20.5312861 C39.3461504,14.3684304 37.8493301,9.73592405 37.8493301,9.73592405 L34.6466841,10.2523494 C34.6466841,10.2523494 34.9232558,16.740562 35.6115319,20.5290329 C34.9228053,22.3522937 33.884085,23.6068557 32.6980699,24.9037772 C32.0485319,25.6144253 30.7188257,23.7627747 28.8274177,23.8308203 Z" id="Path" fill="#FFC23F"></path>
                            <path d="M34.7309168,84.1547949 C35.0646947,84.1110835 35.4173912,84.4697873 35.4034274,85.8014076 C35.3894637,87.1330278 35.4507239,87.8382684 34.4183097,87.981119 C33.7696726,88.0707949 31.3251212,87.4236861 28.9436319,87.4664962 C28.0832867,87.4818177 26.5022336,87.0780506 25.9477389,86.338562 C25.8346779,86.1876 25.8094531,85.9699443 25.8837761,85.7856354 C25.9580991,85.6013266 26.1180062,85.4846127 26.2900752,85.4895696 C28.2085097,85.5431949 28.2418425,85.729757 29.7945177,84.6266076 C30.3580212,84.2259949 30.8287336,83.851519 31.1260257,83.8312405 C31.7043938,83.7915848 31.9719566,84.5621671 32.9142823,84.4616759 C33.8575088,84.3607342 34.1539,84.2305013 34.7309168,84.1547949 Z" id="Path" fill="#0B224E"></path>
                            <path d="M23.7811106,79.8197063 C24.1302035,79.7512101 24.5851504,80.2158127 24.7603726,81.4460405 C24.9355947,82.676719 25.2900929,83.66 24.2103823,83.8794582 C23.5324664,84.0173519 20.0037,83.6581975 17.4735646,83.9001873 C16.5596168,83.9876101 15.4884646,83.5441873 14.792531,82.9087949 C14.6501912,82.7790127 14.5925345,82.5802835 14.6456867,82.4036354 C14.6988389,82.2269873 14.8524398,82.1057671 15.0362204,82.0954025 C17.087085,81.981843 17.1496965,82.151281 18.6460664,81.0012658 C19.1893,80.5835291 19.6370398,80.1977873 19.9509982,80.1540759 C20.5613478,80.0684557 20.9284584,80.593443 21.9180805,80.4204 C22.9077027,80.247357 23.1770673,79.9386734 23.7811106,79.8197063 Z" id="Path" fill="#0B224E"></path>
                        </g>
                        <g id="man_with_paper" transform="translate(110.277876, 72.083544)">
                            <path d="M12.2538372,2.24820759 C13.7893956,2.04587342 15.1573894,3.02284557 15.1573894,4.21702278 C15.1573894,4.47703797 15.0555894,4.94614684 15.2542345,5.54053165 C15.387115,5.93798987 15.9443124,6.45126076 15.9393904,6.99292152 C15.9344027,7.53458228 15.1249575,7.41246076 15.1893708,7.89689114 C15.2537841,8.38087089 15.5767513,9.38172658 15.3506292,9.76882025 C15.1249575,10.1563646 12.6083354,9.70437975 12.5439221,10.6078987 C12.4795088,11.5114177 13.1245425,13.2495089 13.1245425,13.2495089 L7.70436814,12.8349266 C7.70436814,12.8349266 7.25167345,4.46532152 7.70436814,3.82947848 C8.46291327,2.76463291 11.0277327,2.40953418 12.2538372,2.24820759 Z" id="Path" fill="#FFB0B6" fill-rule="nonzero"></path>
                            <path d="M2.40536283,76.5030481 C2.40536283,76.5030481 1.39997522,80.8097468 2.39770531,81.6736101 L4.60081947,81.875043 C4.80171681,81.893519 4.97919115,81.7452608 4.99765929,81.5442785 L5.02919027,81.1999949 C5.02919027,81.1999949 5.9521469,82.1035139 6.6796115,82.169757 C7.40707611,82.236 11.2871876,82.2657418 11.2871876,82.2657418 C11.2871876,82.2657418 12.1817664,82.5063797 12.2610442,81.6366582 C12.3745558,80.3911089 9.20208938,80.228881 7.99084956,79.0955392 C6.77960973,77.9621975 6.21610619,76.8509367 6.21610619,76.8509367 L2.40536283,76.5030481 Z" id="Path" fill="#0B224E"></path>
                            <path d="M14.0272292,77.6593722 C14.0272292,77.6593722 13.4177805,82.0399747 14.4898336,82.8092051 L16.7024071,82.8092051 C16.9042053,82.8092051 17.0677159,82.6456253 17.0677159,82.4437418 L17.0677159,82.0981063 C17.0677159,82.0981063 18.0690496,82.9137519 18.7992168,82.9137519 C19.5293841,82.9137519 24.2027248,82.9051899 24.2027248,82.9051899 C24.2027248,82.9051899 25.1153212,83.063362 25.1153212,82.1900354 C25.1153212,80.9395291 21.1347611,80.7511646 19.8253248,79.7327342 C18.5158885,78.7143038 17.8537381,77.6589215 17.8537381,77.6589215 L14.0272292,77.6589215 L14.0272292,77.6593722 Z" id="Path" fill="#0B224E"></path>
                            <path d="M33.0521177,27.0843899 C33.0521177,27.403438 32.9210389,27.7085165 32.6895115,27.9279747 C24.8301912,35.3791899 11.4583558,35.3215156 11.4583558,35.3215156 L11.4583558,18.3551797 C11.4583558,18.3551797 23.5338177,19.4713975 32.4016788,11.2356304 C32.5142894,11.1306329 32.6787009,11.1026937 32.8196894,11.1644304 C32.9606779,11.2261671 33.0521177,11.3654127 33.0521177,11.5195291 L33.0521177,27.0843899 Z" id="Path" fill="#7990DD" fill-rule="nonzero"></path>
                            <path d="M28.8900292,20.9418127 C28.8900292,20.9418127 30.0999177,19.5376405 30.3418053,19.2474329 C30.5836929,18.9567747 30.7814372,17.2623949 31.2147628,16.8266329 C31.6480885,16.3908709 33.0169832,15.636962 33.3786885,15.677519 C33.8899407,15.7352 34.4349761,17.9275291 34.2489434,19.5006886 C34.0777752,20.9472203 33.2750867,21.4370582 32.071054,21.6308304 C31.4444885,21.7317722 30.2562212,23.1318886 30.1593761,23.5189823 L28.8900292,20.9418127 Z" id="Path" fill="#FFB0B6" fill-rule="nonzero"></path>
                            <path d="M13.7542611,15.9654734 C13.7542611,15.9654734 13.9204743,13.4671646 13.0565257,13.1936304 C12.192577,12.9200962 8.09355044,11.6930228 7.54130796,12.5163291 C6.98951593,13.3396354 6.9075354,15.4999696 6.9075354,15.4999696 L13.7542611,15.9654734 Z" id="Path" fill="#EF1C00" fill-rule="nonzero"></path>
                            <path d="M16.5456531,2.136 C16.4744832,-0.397458228 5.92782301,-0.965706329 5.69944867,4.58699241 C5.56791947,7.7923443 6.40844513,10.4461215 7.14762124,10.4366582 C9.08632566,10.4114228 7.90076106,7.02671899 9.02236283,6.87710886 C10.2696381,6.71037468 9.01155221,12.3960101 12.1781628,12.0616405 C17.4893301,11.5001519 16.1028681,7.53458228 12.8128363,8.16862278 C9.52280442,8.80266329 10.3475646,5.13631392 13.089408,4.45045063 C15.8308009,3.76368608 16.597454,3.98269367 16.5456531,2.136 Z" id="Path" fill="#0B224E" fill-rule="nonzero"></path>
                            <path d="M3.67470973,39.7755646 C3.67470973,39.7755646 3.44273186,48.287119 4.59541416,56.9149367 L1.87384071,76.9135747 C1.85176903,77.0749013 1.89861504,77.2375797 2.00221681,77.3628557 C2.10581858,77.4881316 2.2576177,77.563838 2.41977699,77.5724 L7.0390646,77.8071797 C7.30933009,77.8206987 7.55211858,77.6463038 7.62644159,77.3862886 C8.35615841,74.8284962 11.980869,61.9453519 12.2416752,57.5926886 C12.5322106,52.7510886 13.5966062,39.8724506 11.2736743,38.5169468 C8.95074248,37.161443 3.97245221,35.7991797 3.67470973,39.7755646 Z" id="Path" fill="#0B224E" fill-rule="nonzero"></path>
                            <path d="M6.53141593,39.2915848 C7.17960265,44.3864405 11.6615053,58.7548709 12.7259009,60.6912405 L13.3776912,77.9243443 C13.3925558,78.3136911 13.6934513,78.6313873 14.0812823,78.6665367 L17.9307637,79.0166785 C18.1393186,79.0356051 18.3469726,78.969362 18.5059788,78.8323696 C18.664985,78.6953772 18.7613796,78.5002532 18.773992,78.2907089 L19.8883867,59.4231595 C19.8883867,59.4231595 18.6303009,40.3559797 16.3069186,38.4196101 C13.9835363,36.4832405 6.19853894,36.6756608 6.53141593,39.2915848 Z" id="Path" fill="#102B5E" fill-rule="nonzero"></path>
                            <path d="M6.47961504,26.2556759 C7.86427522,25.2210228 9.46469735,23.8596608 9.99892212,22.756962 C11.0056611,20.6781924 10.4232389,11.7732354 6.7156469,14.484243 C3.00805487,17.1952506 0.181077876,25.3620709 0.332876991,28.1226481 C0.484676106,30.8832253 12.8903124,36.4471899 12.8903124,36.4471899 L13.9515549,31.9543797 C13.9515549,31.9539291 8.92641858,28.0784861 6.47961504,26.2556759 Z" id="Path" fill="#EF1C00" fill-rule="nonzero"></path>
                            <path d="M31.5120549,22.5857215 L29.5039823,19.9337468 C29.377408,19.766562 29.1409257,19.7305114 28.970208,19.8526329 C27.9972522,20.5488608 24.9283876,22.7894076 22.8324788,24.7884152 C21.0798071,21.6794987 16.5952018,14.1868253 13.9844372,14.0182886 C12.5533814,13.5825266 7.98319204,12.9529924 6.14448584,14.6960405 C4.3053292,16.4390886 4.98279469,20.6998228 4.69270973,27.2840203 C4.40217434,33.8686684 1.59546726,39.9688861 3.82155398,40.9372962 C6.04764071,41.9057063 8.27372743,39.4849063 11.2745752,39.5817924 C14.2749726,39.6786785 17.9604929,41.4217266 18.2474248,39.0009266 C18.5055283,36.8207646 16.1852991,31.4248861 16.4262858,27.1195392 C18.5996708,29.4664354 21.2514257,31.9079646 22.5991496,31.5452051 C24.8576681,30.9368506 30.3895522,24.4022228 31.5012442,23.0674481 C31.6156566,22.9291038 31.6206115,22.7294734 31.5120549,22.5857215 Z" id="Path" fill="#FB5934" fill-rule="nonzero"></path>
                            <path d="M16.9501504,32.1413924 C15.2195504,30.7741722 11.9326717,27.3426025 12.8231965,21.4744608 C12.8231965,21.4744608 13.1601274,21.9935899 13.7330903,22.895757 C14.3718177,23.8912051 15.3051345,25.3593671 16.4159257,27.1100759 C16.4159257,27.1100759 16.4159257,27.1141316 16.4199796,27.1141316 L16.4199796,27.1181873 C16.3267381,28.7134278 16.5938504,30.4641367 16.9501504,32.1413924 Z" id="Path" fill="#EF1C00" fill-rule="nonzero"></path>
                        </g>
                        <g id="plant_13_" transform="translate(14.000000, 82.898734)" fill-rule="nonzero">
                            <path d="M34.7665018,26.5265063 C34.5894779,26.5265063 34.4363274,26.3944709 34.4120035,26.2137671 C32.8795982,13.8542582 34.0782257,6.43638987 37.9741027,4.16970633 C41.7168292,1.99314937 46.4469257,5.44905316 46.6415168,5.59866329 C46.8014239,5.71492658 46.8325044,5.93934177 46.7144885,6.09571139 C46.5964726,6.25388354 46.3667469,6.28677975 46.2176504,6.16871392 C46.1726062,6.13401519 41.678992,2.83808608 38.3290513,4.78662278 C35.8372035,6.23811139 33.2588708,11.1193671 35.1214504,26.1267949 C35.1457743,26.3214684 35.0065876,26.4990177 34.8119965,26.5233519 C34.7944292,26.5247038 34.7804655,26.5265063 34.7665018,26.5265063 Z" id="Path" fill="#FF8D88"></path>
                            <path d="M27.086908,57.0293975 L30.6553133,69.557443 C30.9125159,70.4605114 33.1935566,71.1671038 35.9691832,71.1671038 C38.7448097,71.1671038 41.0258504,70.4605114 41.2830531,69.557443 L44.8514584,57.0293975 L27.086908,57.0293975 Z" id="Path" fill="#C3D3F3"></path>
                            <path d="M44.8658726,56.9266532 C44.8658726,56.9613519 44.8609177,56.9956 44.8514584,57.0293975 C44.5852469,57.9644608 40.7105407,58.7066532 35.9696336,58.7066532 C31.2287265,58.7066532 27.3540204,57.9649114 27.0878088,57.0293975 C27.0783496,56.9951494 27.0733947,56.9609013 27.0733947,56.9266532 C27.0733947,55.9433722 31.0566575,55.1466532 35.9700841,55.1466532 C40.8835106,55.1466532 44.8658726,55.9438228 44.8658726,56.9266532 Z" id="Path" fill="#DAE7FF"></path>
                            <path d="M35.2264035,56.9131342 C35.3813558,48.2907241 35.3101858,39.631362 34.7002867,31.0305823 C34.3403832,26.7518228 33.9813805,22.4000608 32.7552761,18.3421114 C32.4133903,17.3737013 32.0372708,16.3174177 31.3638593,15.7032051 C30.7440504,15.001119 29.8305531,15.4035342 29.1607451,16.2155747 C27.7819407,17.7274481 26.8846593,19.7507899 25.9738646,21.6727392 L25.9644053,21.6925671 C25.8801726,21.8701165 25.6680142,21.9458228 25.4905398,21.8615544 C25.3144168,21.7777367 25.2387425,21.5681924 25.3198221,21.3910937 C26.2306168,19.4132658 27.0621336,17.3791089 28.5787735,15.6545367 C28.9359743,15.2088608 29.4445239,14.8524101 30.0337027,14.5838329 C30.7170239,14.4053823 31.4746681,14.5982532 31.9282637,15.0588 C32.8701389,15.9298734 33.2138265,17.0204051 33.6129186,18.0537063 C34.9543363,22.2788405 35.3624372,26.623843 35.7948619,30.9409063 C36.5376416,39.5962127 36.7371876,48.2609823 36.7110619,56.9406228 C36.7097106,57.3511494 36.3763832,57.6823646 35.9660301,57.6814651 C35.555677,57.6801114 35.2246018,57.346643 35.2255027,56.9361165 C35.2264035,56.9334127 35.2264035,56.915838 35.2264035,56.9131342 Z" id="Path" fill="#FF8D88"></path>
                            <path d="M35.9133283,45.1547696 C35.7151336,45.1547696 35.5588301,44.9947949 35.5588301,44.798319 C35.5588301,35.2268759 36.8583566,29.9526684 39.420023,29.1217013 C41.7866478,28.3466127 44.1568761,31.5952253 44.2577752,31.7326684 C44.3726381,31.892643 44.3375035,32.1134532 44.1780469,32.2297165 C44.0181398,32.3446278 43.7956212,32.3094785 43.6812088,32.1499544 C43.656885,32.1202127 41.5267425,29.1965063 39.6393885,29.7981013 C38.1033796,30.2987544 36.268277,33.3062785 36.268277,44.798319 C36.2678265,44.9947949 36.111523,45.1547696 35.9133283,45.1547696 Z" id="Path" fill="#FF8D88"></path>
                            <path d="M34.1705664,20.3203899 C34.1705664,20.3203899 35.3615363,12.9164911 29.2422752,5.65364051 C29.2422752,5.65364051 32.5079832,13.4288608 34.1705664,20.3203899 Z" id="Path" fill="#FF8D88"></path>
                            <path d="M43.9699425,31.9408608 C41.6925053,27.8468608 46.1014363,23.0633924 49.4725478,23.0633924 C52.8436593,23.0633924 57.4539381,28.1185924 57.4539381,28.1185924 C57.4539381,28.1185924 49.4725478,27.2790633 49.4725478,28.4200658 C49.4725478,29.5610684 56.2643195,27.5769316 58.9908478,28.9162127 C61.7173761,30.2554937 62.1637646,34.1732962 62.1637646,34.1732962 C62.1637646,34.1732962 51.0094575,31.5943241 50.9599088,32.4870278 C50.9103602,33.3797316 62.1142159,33.4788709 62.8578965,35.7108557 C63.601577,37.9428405 63.3538336,40.0256658 63.3538336,40.0256658 C63.3538336,40.0256658 52.8936584,35.3638684 52.5959159,36.9505468 C52.2986239,38.5376759 63.3934726,38.8350937 63.3934726,41.860643 C63.3934726,44.8861924 61.5196319,50.7381114 61.9655699,51.7304051 C61.9655699,51.7304051 55.5206389,53.9128203 53.934631,51.7304051 C52.3481726,49.5479899 52.0508805,43.2990633 50.7617142,43.2990633 C49.4725478,43.2990633 50.0180336,51.090957 52.9927558,52.7001671 C52.9927558,52.7001671 47.1428593,53.9123696 46.5478248,50.2424152 C45.9527903,46.5724608 47.3906027,40.2239443 46.3496301,39.7778177 C45.3086575,39.3316911 42.8794212,46.4769266 46.0027894,51.5816962 C46.0027894,51.5816962 41.5411566,52.4248304 41.0452195,48.4570076 C40.5492823,44.4891848 43.1271646,37.9779899 42.3839345,37.9779899 C41.6407044,37.9779899 37.5750106,44.0430582 37.8727531,47.5147342 C37.8727531,47.5147342 33.0142805,43.9934886 34.0057044,41.6127949 C34.9971283,39.2321013 38.7650796,36.4548506 38.1204965,35.9091342 C37.4759133,35.3634177 33.1133779,38.5872456 32.8656345,40.4717924 C32.8656345,40.4717924 30.5354956,35.1155696 35.0966761,30.8503291 C38.5245434,27.6436253 43.9699425,31.9408608 43.9699425,31.9408608 Z" id="Path" fill="#FF8E88"></path>
                            <path d="M59.1075124,18.306962 C59.1075124,18.306962 61.8133204,13.8195595 59.9971363,11.4460759 C55.9936035,6.17997975 52.0270071,7.58910886 52.0643938,6.66215696 C52.1013301,5.73520506 58.4030204,6.29128608 59.7007451,8.25694684 C59.7007451,8.25694684 59.6268726,3.13910886 57.3282646,3.13910886 C55.0296566,3.13910886 52.1013301,4.25172152 51.8792619,3.54693165 C51.6567434,2.84214177 56.9949372,2.32301266 56.9949372,2.32301266 C56.9949372,2.32301266 53.069331,-0.198729114 49.7126336,0.0977873418 C45.582977,0.4628 46.4302593,5.88301266 46.4302593,5.88301266 C46.4302593,5.88301266 43.2424779,0.3204 40.3137009,3.10170633 C37.3853743,5.88301266 38.4231938,8.96128608 39.6092088,10.8156405 C40.3506372,8.70172152 42.5744717,5.80910886 43.0938319,6.56932658 C43.6127416,7.3295443 37.7560885,12.5212861 41.8704301,15.4882532 C42.5375354,12.3730278 45.0212752,7.66346329 45.7257673,8.62736709 C46.5293566,8.84412152 41.8334938,14.9547038 43.1681549,17.1569468 C44.5028159,18.6404304 46.4302593,19.4191241 46.4302593,19.4191241 C46.4302593,19.4191241 47.1716876,10.4073671 48.6545442,11.3347696 C50.1374009,12.2621722 45.5036991,17.5278177 47.8761796,20.1239139 C50.2486602,22.7200101 54.6598434,22.4973975 55.0674938,23.7952203 C55.0674938,23.7952203 59.0710265,20.7543494 58.4039212,18.4921722 C57.5012345,15.4319241 52.9175319,13.8195595 53.2513097,13.0593418 C53.5841867,12.2991241 58.7367982,13.523043 59.1075124,18.306962 Z M52.0643938,9.18389873 C51.9531345,8.59041519 52.509431,8.07128608 55.0670434,8.84997975 C57.6246558,9.62867342 59.255708,13.5225924 59.255708,13.5225924 C57.3652009,10.0738987 52.1756531,9.77738228 52.0643938,9.18389873 Z" id="Shape" fill="#FFCDCB"></path>
                            <path d="M12.6686947,32.0607291 C13.061931,33.406319 5.03819912,35.1083595 2.86166106,40.0346785 C1.25268053,43.676243 7.2935646,49.6381165 7.2935646,49.6381165 C8.25841239,47.5539392 15.594769,48.8864608 20.1307248,45.0569823 C24.6666805,41.2275038 18.0546354,31.4037063 20.7383717,30.1739291 C23.422108,28.9446025 22.7041027,44.1917671 22.7041027,44.1917671 C22.7041027,44.1917671 26.1004389,43.3076253 28.6567,41.1148456 C31.369715,37.7184253 24.8373982,26.4674734 26.2292655,26.2791089 C27.6179796,24.818157 30.751708,33.2431899 31.1913398,38.6034684 C38.7245398,34.5324506 30.0485673,24.5662532 31.0827832,23.4063241 C32.1169991,22.2463949 35.2115389,27.5728759 35.9926062,31.2730228 C38.3817531,28.4268253 40.7884673,23.5000557 36.4907956,18.2064709 C32.1931239,12.9128861 25.6468434,21.5316911 25.6468434,21.5316911 C25.6468434,21.5316911 28.2436442,12.6425063 21.409531,11.1324354 C15.8546743,9.90536203 8.73498053,13.2724911 8.73498053,13.2724911 C8.73498053,13.2724911 17.5582478,15.3034937 17.0325814,16.4345823 C16.506915,17.5656709 11.8466372,15.0660101 7.99895752,14.5658076 C4.15127788,14.0656051 2.91526372,22.6172658 2.91526372,22.6172658 C5.51431681,19.6092911 16.1848487,20.0491089 16.0452115,21.6092 C15.9055743,23.1692911 9.5723531,19.9472658 1.72519469,27.8914734 C-1.83149912,31.4694987 1.72294248,39.5705266 1.72294248,39.5705266 C3.38327345,31.6425418 12.2754584,30.7151392 12.6686947,32.0607291 Z M2.51482035,31.5298835 C2.51482035,31.5298835 6.09178407,25.3661266 10.5430566,24.6189772 C14.9943292,23.8718278 15.8123327,24.8618684 15.497023,25.8311797 C15.1817133,26.8000405 6.42961593,26.1673519 2.51482035,31.5298835 Z" id="Shape" fill="#FFE4E5"></path>
                        </g>
                    </g>
                </g>
            </g>
        </g>
    </g>
</svg>