<?xml version="1.0" encoding="UTF-8"?>
<svg width="295px" height="188px" viewBox="0 0 295 188" version="1.1" xmlns="http://www.w3.org/2000/svg" xmlns:xlink="http://www.w3.org/1999/xlink">
    <title>image/配置SLA</title>
    <g id="空页面" stroke="none" stroke-width="1" fill="none" fill-rule="evenodd">
        <g id="SLA模式无权限" transform="translate(-1071.000000, -443.000000)">
            <g id="编组" transform="translate(350.000000, 153.000000)">
                <g id="编组-2" transform="translate(0.000000, 207.000000)">
                    <g id="image/配置SLA" transform="translate(721.000000, 83.000000)">
                        <g id="Background" transform="translate(0.000000, 6.000000)" fill-rule="nonzero">
                            <path d="M213.472616,3.03269949 C246.669244,7.8326358 269.619798,-6.09076218 269.619798,23.4838503 C269.619798,53.0584629 242.671962,52.1924275 242.671962,57.3346818 C242.671962,80.72644 277.416563,66.9508944 272.776017,98.2123341 C268.135471,129.473774 252.024388,133.368672 208.837621,123.465169 C165.650854,113.561666 147.516968,152.249408 98.7357059,140.439466 C49.9544436,128.629523 33.9921548,79.3355904 53.8275148,62.1533818 C64.8591432,52.5973294 0.396409777,40.4456763 0.0824546226,27.716001 C-0.231500532,14.9863256 0.300947966,1.30844472 38.7734798,1.30844472 C77.2460116,1.30844472 177.875532,-2.11432141 213.472616,3.03269949 Z" id="Background-base" fill="#F4F7FA" transform="translate(136.622161, 71.449270) scale(1, -1) translate(-136.622161, -71.449270) "></path>
                            <path d="M141.321937,167.237574 C87.7316925,166.806544 45.2141457,160.523113 45.2141457,152.835047 C45.2141457,144.867722 90.8765791,138.408929 147.204045,138.408929 C203.531511,138.408929 249.193945,144.867722 249.193945,152.835047 C249.193945,159.546235 216.794857,165.187067 172.913537,166.798926 C193.017007,167.630751 207.846688,170.515518 207.846688,173.94644 C207.846688,178.027265 186.866651,181.335427 160.986464,181.335427 C135.106277,181.335427 114.12624,178.027265 114.12624,173.94644 C114.12624,170.972974 125.264985,168.40973 141.321937,167.237574 L141.321937,167.237574 Z" id="Background-base" fill="#E3EDFA"></path>
                        </g>
                        <g id="Leaves" transform="translate(197.000000, 38.000000)" fill-rule="nonzero">
                            <g id="Group-28" transform="translate(41.140000, 8.800000)">
                                <path d="M0.514822682,80.5823153 C-1.43342116,29.8227191 4.25275749,3.04612374 17.5733586,0.252529194 C30.8939598,-2.54106535 25.2077811,24.23553 0.514822682,80.5823153 Z" id="Leaf-base" fill="#FFFFFF"></path>
                                <path d="M0.860082354,75.186199 C6.9372747,40.2731196 12.2535244,20.1729875 16.8088313,14.8858028" id="Leaf-base" stroke="#7990DD" stroke-width="0.55" stroke-linecap="round"></path>
                            </g>
                            <g id="Group-29" transform="translate(18.700000, 0.000000)">
                                <path d="M20.6554715,98.6110043 C19.0076929,61.373748 -15.5721811,14.9421064 8.58412578,1.42852769 C32.7404326,-12.085051 24.7376446,82.9392373 20.6554715,98.6110043 Z" id="Leaf-base" fill="#7990DD"></path>
                                <path d="M21.9023756,87.8281857 C17.1897655,49.538828 13.9316562,26.6586695 12.1280479,19.18771" id="Leaf-base" stroke="#FFFFFF" stroke-width="0.55" stroke-linecap="round"></path>
                            </g>
                            <g id="Group-25" transform="translate(5.940000, 70.180000)">
                                <path d="M37.3682435,24.3974358 C18.1373357,0.518750156 0.373398247,-5.72678875 0.108396152,5.64839108 C-0.156605943,17.0235709 19.8169238,10.312778 37.3682435,24.3974358 Z" id="Leaf-base" fill="#7990DD"></path>
                                <path d="M32.5451923,20.4214897 C28.0388352,15.2753086 20.9696115,10.7460744 11.3375212,6.83378725" id="Leaf-base" stroke="#FFFFFF" stroke-width="0.55" stroke-linecap="round"></path>
                            </g>
                            <g id="Group-27" transform="translate(38.280000, 46.420000)">
                                <path d="M0,52.3576207 C4.64525146,22.534407 27.1339643,-13.7026791 36.4906019,5.47436625 C45.8472394,24.6514116 13.0754845,34.0863461 0,52.3576207 Z" id="Leaf-base" fill="#7990DD"></path>
                                <path d="M1.103877,49.6854212 C8.23508035,33.9531613 15.8505316,22.8589796 23.9502308,16.4028759" id="Leaf-base" stroke="#FFFFFF" stroke-width="0.55" stroke-linecap="round"></path>
                            </g>
                            <g id="Group-26" transform="translate(37.620000, 83.820000)">
                                <path d="M0.218466939,16.1047996 C5.79413679,5.15740606 25.7205724,-5.62723399 32.635836,3.46522717 C39.5510996,12.5576883 7.11139042,11.3677534 0.218466939,16.1047996 Z" id="Leaf-base" fill="#FFFFFF"></path>
                                <path d="M26.9092883,4.70506392 C18.2887636,4.70506392 9.66823885,8.0718221 1.04771413,14.8053385" id="Leaf-base" stroke="#7990DD" stroke-width="0.55" stroke-linecap="round"></path>
                            </g>
                            <g id="Leaf-base" transform="translate(0.000000, 41.580000)">
                                <path d="M40.1030035,52.3027263 C30.250097,9.73414155 9.8693091,-9.59306094 1.38413957,4.62060437 C-7.10102995,18.8342697 25.6116405,23.1995824 40.1030035,52.3027263 Z" fill="#FFFFFF"></path>
                                <path d="M37.576,45.3185616 C31.2766866,31.4717454 23.3617707,21.3615268 13.8312521,14.9879056" stroke="#7990DD" stroke-width="0.55" stroke-linecap="round"></path>
                            </g>
                            <path d="M12.32,103.639085 L97.1787905,103.639085 C91.4579524,100.206108 88.5975333,97.3152725 88.5975333,94.9665802 C88.5975333,91.4435417 79.3890057,93.0105953 76.3867454,92.5096558 C73.3844851,92.0087163 75.8058828,86.7075328 70.129271,86.1479438 C64.4526593,85.5883547 64.1086448,88.6847463 60.8798262,88.1983937 C57.6510076,87.7120412 61.9327856,78.971083 50.6195713,78.971083 C39.306357,78.971083 46.2638006,84.6671756 41.2102345,84.7559402 C36.1566683,84.8447047 38.1097491,82.0558087 32.4165028,82.9586991 C26.7232564,83.8615894 31.2400474,94.9665802 25.3920182,93.0376937 C21.4933321,91.7517694 17.1359927,95.2855667 12.32,103.639085 Z" fill="#C9DAF2" transform="translate(54.749395, 91.305084) scale(-1, 1) translate(-54.749395, -91.305084) "></path>
                        </g>
                        <g id="编组" transform="translate(15.000000, 0.000000)">
                            <g id="plant_24_" transform="translate(1.350785, 32.843102)" fill-rule="nonzero">
                                <path d="M58.3224084,68.971188 C58.3224084,68.971188 41.8599372,7.64966917 0.105811518,43.0925965 L10.6757068,41.3763246 L7.20058639,45.101287 L16.7983665,51.9069912 L25.168733,45.3635639 C25.168733,45.3635639 20.2280105,52.105386 18.013623,54.1244236 C19.9659581,56.3004674 30.6929948,59.7820476 30.6929948,59.7820476 L32.8510995,51.2713183 C32.8510995,51.2713183 32.4431623,58.7977218 31.2477173,61.9472945 L41.4614555,64.8467368 L43.514199,59.3866078 L46.6192042,64.6577895 L58.3224084,68.971188 Z" id="Path" fill="#FFE4E5"></path>
                                <path d="M57.4146806,70.7729361 C57.4146806,70.7729361 54.1984607,4.12040226 7.80528796,20.1935251 L17.8938534,26.2204962 L17.6272984,30.2414762 L24.4843351,39.8962368 L30.939288,33.3703546 C30.939288,33.3703546 29.3984921,40.1378195 26.9103455,41.1252945 C28.3120105,44.0895188 33.2518325,49.7664875 33.2518325,49.7664875 L36.9867539,42.4614223 C36.9867539,42.4614223 37.1673089,47.7483496 35.4117382,50.277995 L42.3723351,59.3915564 L45.397644,54.9976303 L43.4547644,60.7731216 L57.4146806,70.7729361 Z" id="Path" fill="#FE8E88"></path>
                                <path d="M57.4443979,70.7774348 C57.4443979,70.7774348 56.6816545,-11.9882607 19.3382932,1.86653008 L26.3961466,13.1336416 L33.3333298,11.7592744 L26.1016754,15.6497907 L29.5894031,24.4830802 L38.9791623,23.8330113 L35.1960628,26.8129812 L37.8953822,38.445391 L43.0986073,35.0902256 C43.0986073,35.0902256 42.3201047,40.3254173 40.1948691,42.1055714 L45.1788168,53.7442794 L48.8470995,50.6419436 L45.9600209,55.5190351 L57.4443979,70.7774348 Z" id="Path" fill="#FFCDCB"></path>
                            </g>
                            <g id="cloud_4_" transform="translate(98.476440, 23.097487)" fill="#FFFFFF" fill-rule="nonzero">
                                <path d="M32.0269948,8.85500501 C31.7827224,8.85500501 31.5527999,8.90522923 31.3143979,8.92675389 C29.6814587,4.23959531 25.2708594,0.855005013 20.0269948,0.855005013 C14.7834562,0.855005013 10.372857,4.23992144 8.73959158,8.92675389 C8.50118963,8.90522923 8.27094095,8.85500501 8.02699476,8.85500501 C3.60889448,8.85500501 0.0269947644,12.4365786 0.0269947644,16.855005 C0.0269947644,21.2731053 3.60889448,24.855005 8.02699476,24.855005 C10.0682504,24.855005 29.9857392,24.855005 32.0269948,24.855005 C36.445095,24.855005 40.0269948,21.2731053 40.0269948,16.855005 C40.0269948,12.4365786 36.4454212,8.85500501 32.0269948,8.85500501 Z" id="Path"></path>
                            </g>
                            <g id="browser" transform="translate(40.973822, 44.089969)">
                                <path d="M165.970785,13.6903258 L165.970785,107.439073 C165.970785,107.922026 165.774742,108.359293 165.457919,108.675843 C165.140941,108.992548 164.703062,109.188446 164.219476,109.188446 L164.219476,109.188446 L2.3773822,109.188446 C1.8937966,109.188446 1.45591726,108.992548 1.13893927,108.675843 C0.822117017,108.359293 0.626073298,107.922026 0.626073298,107.439073 L0.626073298,107.439073 L0.626073298,13.6903258 L165.970785,13.6903258 Z" id="Path" stroke="#374ABE" fill="#FFFFFF" fill-rule="nonzero"></path>
                                <path d="M166.470785,4.18158521 L166.470785,14.3150125 L0.126073298,14.3150125 L0.126073298,4.18158521 C0.126073298,2.04108145 1.86273298,0.305914787 4.00507853,0.305914787 L162.59133,0.305914787 C164.734126,0.305914787 166.470785,2.04108145 166.470785,4.18158521 Z" id="Path" fill="#2D3053" fill-rule="nonzero"></path>
                                <ellipse id="Oval" fill="#FFCB01" fill-rule="nonzero" cx="12.0454031" cy="7.09452381" rx="2.4539267" ry="2.45181704"></ellipse>
                                <ellipse id="Oval" fill="#44D690" fill-rule="nonzero" cx="20.7818325" cy="7.09452381" rx="2.4539267" ry="2.45181704"></ellipse>
                                <g id="Group" transform="translate(24.094241, 19.190476)">
                                    <rect id="矩形" fill="#FB5934" x="0" y="7" width="12" height="12" rx="2"></rect>
                                    <rect id="矩形备份-4" fill="#FB5934" x="52" y="21" width="12" height="12" rx="2"></rect>
                                    <rect id="矩形备份-5" stroke="#374ABE" x="106.5" y="21.5" width="11" height="11" rx="2"></rect>
                                    <rect id="矩形备份-11" fill="#E3EDFA" x="103" y="0" width="8" height="8" rx="2"></rect>
                                    <rect id="矩形备份-12" fill="#E3EDFA" x="115" y="0" width="8" height="8" rx="2"></rect>
                                    <rect id="矩形备份-13" fill="#E3EDFA" x="127" y="0" width="8" height="8" rx="2"></rect>
                                    <rect id="矩形备份-7" stroke="#374ABE" x="53.5" y="58.5" width="11" height="11" rx="2"></rect>
                                    <rect id="矩形备份" stroke="#FB5934" x="0.5" y="41.5" width="35" height="11" rx="2"></rect>
                                    <rect id="矩形备份" fill="#FF8D88" x="2" y="43" width="32" height="8" rx="1"></rect>
                                    <rect id="矩形备份-8" fill="#FF8D88" x="96" y="60" width="32" height="8" rx="1"></rect>
                                    <rect id="矩形" fill="#C9DAF2" x="5" y="19" width="2" height="22"></rect>
                                    <rect id="矩形备份-2" fill="#C9DAF2" x="36" y="46" width="21" height="2"></rect>
                                    <rect id="矩形备份-6" fill="#C9DAF2" x="64" y="26" width="42" height="2"></rect>
                                    <rect id="矩形备份-10" fill="#C9DAF2" x="65" y="63" width="31" height="2"></rect>
                                    <rect id="矩形备份-3" fill="#C9DAF2" x="57" y="33" width="2" height="15"></rect>
                                    <rect id="矩形备份-9" fill="#C9DAF2" x="111" y="33" width="2" height="27"></rect>
                                </g>
                            </g>
                            <g id="woman_11_" transform="translate(0.000000, 95.825558)" fill-rule="nonzero">
                                <g id="Group" transform="translate(14.408377, 0.000000)">
                                    <g transform="translate(6.303665, 1.799499)" id="Path">
                                        <path d="M3.94474346,0.404887218 C-1.14051309,0.871857143 1.73981152,5.86501629 1.55250262,7.99157393 C1.36564398,10.1185815 0.190910995,13.3315865 0.190910995,13.3315865 L5.31263874,14.1692531 C5.31263874,14.1692531 5.55668063,12.4412845 5.53191623,11.5410852 C5.50715183,10.640886 6.17759162,10.2189035 7.28613613,10.2940326 C8.39468063,10.3691617 8.48248168,8.21291228 8.65313089,7.81927193 C8.93229319,7.17505138 10.0147225,7.63347368 9.83236649,6.85069173 C9.65001047,6.06790977 8.81297382,5.7759411 8.69590576,3.71416541 C8.5788377,1.65238972 6.3581466,0.183098997 3.94474346,0.404887218 Z" fill="#FFB0B6"></path>
                                        <path d="M7.00202094,10.2859348 C6.47161257,10.2904336 6.06367539,10.4312444 5.81242932,10.701619 L5.26806283,9.59852632 C5.84709948,9.96742356 6.66612565,10.2634411 7.00202094,10.2859348 Z" fill="#CD916A"></path>
                                    </g>
                                    <path d="M11.3790157,0.0598333333 C4.63229319,-0.0917744361 4.98980105,6.32838722 2.16170681,6.02562155 C0.662335079,5.86501629 0.443057592,5.47992356 0.443057592,5.47992356 C0.443057592,5.47992356 0.565078534,6.87993358 1.54754974,7.83726692 C1.10584293,7.9033985 0.639371728,7.91059649 0.188659686,7.84986341 C0.188659686,7.84986341 0.511947644,12.1425677 4.32206283,12.5510539 C7.08757068,12.8475213 8.22132984,11.4083722 8.68374869,10.1671679 C9.88909948,10.3043797 11.7563351,10.077193 12.0386492,7.44812531 C12.1890366,6.04856516 12.4240733,5.02824937 12.6645131,4.28685589 C17.1378639,4.72953258 16.8519476,0.182649123 11.3790157,0.0598333333 Z" id="Path" fill="#510000"></path>
                                </g>
                                <path d="M5.52201047,77.6924586 C5.4733822,76.9942531 6.15507853,75.2199474 7.18077487,72.9462807 L3.98616754,72.1023158 C3.7781466,72.9485301 3.55031414,73.817688 3.28465969,74.7214862 C2.88437696,76.0837068 2.56964398,76.6303045 2.52011518,77.2605789 C2.47103665,77.8908534 4.85472251,80.8307845 4.85472251,80.8307845 L6.62290052,80.6697293 C6.62290052,80.6697293 5.67735079,79.9197882 5.52201047,77.6924586 Z" id="Path" fill="#FFB0B6"></path>
                                <path d="M29.2940314,79.0722243 C28.8212565,78.315985 28.6969843,75.5402581 28.684377,72.1023158 L24.7157696,72.1023158 C25.1011937,73.7965439 25.5194869,75.5434073 25.9229215,77.4985627 C26.2097382,78.8891253 26.1881257,79.5193997 26.4411728,80.0992882 C26.6937696,80.6791767 30.1796963,82.1565652 30.1796963,82.1565652 L31.6651099,81.1848358 C31.6646597,81.184386 30.4777696,80.9661967 29.2940314,79.0722243 Z" id="Path" fill="#FFB0B6"></path>
                                <path d="M8.08354974,82.8448734 C7.88363351,83.2205188 6.58958115,82.8376754 6.58958115,82.8376754 L2.85556021,80.8537281 C2.46698429,80.6472356 2.25761257,80.2162556 2.33055497,79.7825764 C2.44852356,79.0825714 2.55793717,78.1049937 2.27967539,77.9776792 C1.8402199,77.7761353 0.737078534,79.7281416 0.737078534,79.7281416 L0.00270157068,79.3381003 C0.00270157068,79.3381003 0.843790576,78.0172682 1.20174869,77.4049887 C1.55970681,76.7927093 1.20174869,76.3783747 1.66867016,75.5006692 C2.13559162,74.6234135 3.06943455,74.137099 3.37020942,74.2968045 C3.67098429,74.45651 3.37336126,76.4750977 3.64126702,77.3519035 C3.98121466,78.463094 4.69983246,79.5036541 6.15417801,80.0587995 C6.5265445,80.2014098 8.28346597,82.4692281 8.08354974,82.8448734 Z" id="Path" fill="#0A1039"></path>
                                <path d="M33.9767539,82.4201917 C33.9767539,82.8457732 32.6543351,83.1143484 32.6543351,83.1143484 L28.4250262,83.1143484 C27.9851204,83.1143484 27.597445,82.8322769 27.4583141,82.4152431 C27.2336335,81.7417807 26.8711728,80.8276353 26.565445,80.8456303 C26.0827644,80.8739724 26.0260314,83.1147982 26.0260314,83.1147982 L25.1943979,83.1147982 C25.1943979,83.1147982 25.3164188,81.554183 25.3447853,80.8456303 C25.3731518,80.1370777 24.8621047,79.9391328 24.8621047,78.9453596 C24.8621047,77.9515865 25.4582513,77.0842281 25.7990995,77.0842281 C26.1399476,77.0842281 26.8252461,79.0065426 27.4740733,79.6543622 C28.2967016,80.4762832 29.4196545,81.0579712 30.9645026,80.8658747 C31.3598325,80.8163885 33.9767539,81.9946103 33.9767539,82.4201917 Z" id="Path" fill="#0A1039"></path>
                                <path d="M20.4589948,34.1130977 C20.4589948,34.1130977 27.7748482,46.0383759 28.9711937,53.0537218 C30.1486283,59.9583985 28.8662827,75.1416692 28.8662827,75.1416692 L25.0804817,75.0444962 C25.0804817,75.0444962 21.661644,60.7218358 22.8602408,56.5402506 C20.0803246,51.6397657 15.2845864,46.0041855 14.8172147,41.9566629 C14.6371099,40.3969474 18.0829634,35.336307 20.4589948,34.1130977 Z" id="Path" fill="#020687"></path>
                                <path d="M11.2259267,33.0190025 C11.2259267,33.0190025 9.34518325,35.5221053 8.76974869,40.3663559 C8.10741361,45.9416529 8.81252356,50.7256203 8.31363351,54.9620902 C4.97404188,58.9866692 3.39272251,73.5041253 3.39272251,73.5041253 L6.70619895,74.4470627 C6.70619895,74.4470627 13.4988482,60.6368095 14.8613403,57.1736742 C15.9253089,54.4690276 20.0803246,44.5605376 19.2883141,35.5418997 C19.2883141,35.5414499 15.4732461,32.3117995 11.2259267,33.0190025 Z" id="Path" fill="#374ABE"></path>
                                <path d="M33.3270262,22.200416 C33.3270262,22.200416 35.2145236,25.4485113 36.6828272,25.8151591 C38.1511309,26.181807 43.6564817,26.0769862 44.8100524,25.8151591 C45.963623,25.5533321 45.9411099,19.9038058 46.9897696,19.8516203 C48.0384293,19.7994348 48.1658534,27.1247444 47.1694241,28.3299586 C46.1729948,29.5347231 45.3341571,29.0110689 44.6002304,29.1680752 C43.8663037,29.3250815 37.5171623,30.8627531 34.4504293,30.2342782 C31.3832461,29.6058033 28.8662827,25.1965815 28.8662827,25.1965815 C28.8662827,25.1965815 30.8627435,22.1482306 33.3270262,22.200416 Z" id="Path" fill="#FFB0B6"></path>
                                <path d="M31.5178743,21.5714912 C31.1725236,22.9094185 29.5601361,22.8968221 29.3822827,24.8861679 C29.3314031,25.4552594 29.2138848,25.9307769 29.0463874,26.328916 C28.6452042,27.2943471 27.9554031,27.8058546 27.2304817,28.0942243 C26.0354869,28.5688421 24.7436859,28.4383784 24.4816335,28.737995 C22.2798534,31.2527945 23.8539686,37.6194211 22.5954869,37.7773271 C21.3370052,37.9343333 17.7277068,35.7002556 15.9194555,35.6219774 C14.1103037,35.5436992 8.46176963,37.2896629 8.56668063,34.5130363 C8.63016754,32.8206078 14.6564712,29.7727068 15.6758639,25.8255063 C17.4616021,18.9127318 17.8326178,12.8232281 24.2668586,13.5353797 C28.8437696,14.0414887 32.1468901,19.1363195 31.5178743,21.5714912 Z" id="Path" fill="#C9DAF2"></path>
                                <path d="M29.0463874,26.328916 C28.6452042,27.2943471 27.9554031,27.8058546 27.2304817,28.0942243 C24.4285026,23.0259361 24.3285445,18.3215965 24.3285445,18.3215965 L29.0463874,26.328916 Z" id="Path" fill="#7090C2"></path>
                                <path d="M28.2998534,15.6591859 C30.1216126,15.6394436 32.8020209,21.2574787 34.0870681,22.0434098 C34.6904188,22.4100576 30.2332775,25.9204298 29.1323874,26.4962694 C28.0310471,27.0725589 25.514534,22.5148784 24.7801571,20.8908308 C24.0462304,19.2667832 22.559466,15.7222206 28.2998534,15.6591859 Z" id="Path" fill="#C9DAF2"></path>
                            </g>
                            <g id="man_7_" transform="translate(138.429319, 121.468415)" fill-rule="nonzero">
                                <path d="M14.2299729,30.5423213 L0.140262616,7.45525424 C-0.134813865,7.0044483 0.00718163329,6.4159138 0.457046296,6.1404567 L0.457046296,6.1404567 C0.907229334,5.86499959 1.49495061,6.00719157 1.77002709,6.4576787 L15.8597374,29.5447458 C16.1348139,29.9955517 15.9928184,30.5840862 15.5429537,30.8595433 L15.5429537,30.8595433 C15.0927707,31.1350004 14.5050494,30.9928084 14.2299729,30.5423213 Z" id="Path" fill="#00023D"></path>
                                <g id="man_6_" transform="translate(8.356021, 0.000000)">
                                    <g id="Group" transform="translate(20.712042, 0.000000)">
                                        <path d="M12.5411414,16.2049361 C12.5411414,16.2049361 8.66348691,13.4386566 8.86970681,12.0345977 C9.0759267,10.6309887 9.2078534,5.53390852 7.35727749,5.09303133 C5.50670157,4.65215414 1.86993717,4.63775815 1.25623037,5.92934837 C0.678094241,7.1462594 1.15537173,7.73334586 1.04640838,8.23360652 C0.937445026,8.73386717 0.378219895,9.77532707 0.423246073,10.2400476 C0.468272251,10.7043183 1.18328796,10.7007193 1.43408377,11.2896053 C1.68487958,11.8784912 1.41427225,12.7026617 2.04598953,13.2847995 C2.67770681,13.8669373 4.43237696,13.5790175 4.6840733,14.148109 C5.30453403,15.548119 3.81776963,18.5798246 3.81776963,18.5798246 L4.07306806,22.7240702 C4.07351832,22.7249699 10.0246283,24.8524273 12.5411414,16.2049361 Z" id="Path" fill="#FFB0B6"></path>
                                        <path d="M12.3115079,6.50248872 C12.298,6.05801253 12.1088901,5.66212281 11.8153194,5.37285338 C12.0908796,5.06648872 12.2556754,4.65980201 12.2426178,4.21532581 C12.2147016,3.2984812 11.448356,2.57778195 10.5311728,2.60567419 C10.5235183,2.60567419 10.5163141,2.60837343 10.5086597,2.60837343 C10.3744817,1.80084837 9.66757068,1.19441729 8.82603141,1.21961028 C8.5293089,1.22860777 8.25735079,1.32128195 8.02006283,1.46479198 C7.76746597,0.837666667 7.14880628,0.400838346 6.43289005,0.422432331 C5.89212565,0.43862782 5.42430366,0.715300752 5.13298429,1.12423684 C4.81735079,0.733745614 4.33376963,0.485864662 3.79300524,0.502510025 C3.00819895,0.526353383 2.37062827,1.09184586 2.21934031,1.82829073 C2.20268063,1.82829073 2.18692147,1.82424185 2.17026178,1.82469173 C1.25262827,1.85258396 0.531308901,2.61827068 0.559225131,3.53466541 C0.560125654,3.56075815 0.567329843,3.5846015 0.56913089,3.61024436 C0.248544503,4.18068546 0.16434555,4.72413409 0.174701571,5.05659148 C0.203518325,6.00357769 1.2193089,6.26900376 4.06226178,6.18307769 C6.90521466,6.09715163 6.49727749,10.2476955 7.03038743,10.2315 C7.56349738,10.2153045 7.16951832,8.95385589 8.17630366,8.92326441 C9.18308901,8.89267293 7.98674346,12.4534311 9.05296335,12.4210401 C9.89405236,12.3953972 11.0777906,10.4092005 11.4938325,7.97492857 C11.9963246,7.67666165 12.3304188,7.12781454 12.3115079,6.50248872 Z" id="Path" fill="#0B224E"></path>
                                    </g>
                                    <path d="M19.6431204,23.7457356 C19.6431204,23.7457356 17.7286073,25.7994135 16.4980419,27.0140752 C13.675801,26.1845063 8.05833508,24.5055739 6.78094241,23.9135388 C5.05734031,23.1145614 4.59897382,21.759089 3.97896335,22.1797218 C3.35895288,22.6003546 4.77187435,23.9454799 3.52284817,24.2869348 C3.04602094,24.4173985 0.613706806,23.0623759 0.447560209,24.2401479 C0.281863874,25.4174699 2.16936126,27.1899762 2.95912042,27.4005175 C4.06406283,27.6951855 5.16315183,27.2992957 6.00559162,27.1967243 C6.84803141,27.0941529 14.659623,31.4984261 17.284199,31.4696341 C18.1072775,31.4606366 21.415801,29.9953947 24.2556021,26.6802682 C27.0963037,23.3642419 20.9673403,22.5018321 19.6431204,23.7457356 Z" id="Path" fill="#FFB0B6"></path>
                                    <path d="M46.8497382,46.0280288 L43.2026178,47.0771366 L42.2061885,51.4094298 L46.1829005,50.3913634 C46.1833508,50.3918133 47.7453089,49.2086429 46.8497382,46.0280288 Z" id="Path" fill="#FFB0B6"></path>
                                    <path d="M46.3760628,46.1800865 C46.488178,45.7805977 47.1784293,45.5754549 48.4769843,46.0937105 C49.7755393,46.6119662 50.5752042,46.6034185 50.2357068,47.8423734 C50.0222827,48.6206566 48.5526283,52.4612368 47.4891099,55.2095213 C47.1050366,56.2023947 45.7704607,56.8538133 44.7884398,57.2110138 C44.5880733,57.2838935 44.3629424,57.2308083 44.2166073,57.0756015 C44.0702723,56.9203947 44.030199,56.693208 44.1148482,56.4975125 C45.0581466,54.3165201 45.2562618,54.3484612 44.8960524,52.1508233 C44.7650262,51.3527456 44.6164398,50.6720852 44.7348586,50.3229825 C44.9644921,49.6441216 45.6691518,49.563594 46.008199,48.4443058 C46.3472461,47.3245677 46.1824503,46.8706441 46.3760628,46.1800865 Z" id="Path" fill="#0A1039"></path>
                                    <path d="M16.856,36.2657481 C11.4443037,38.4921779 22.1069529,51.7508847 22.1069529,51.7508847 L26.1417487,49.4551742 C26.1417487,49.4551742 25.3222723,45.7459574 24.5352147,42.9598835 C25.7162513,43.4115576 27.4961361,43.9212657 29.5718429,43.9496078 C33.330178,44.0004436 34.7390471,38.7693008 34.7390471,38.7693008 C34.7390471,38.7693008 22.2676963,34.0388684 16.856,36.2657481 Z" id="Path" fill="#020687"></path>
                                    <path d="M44.4030157,46.0572707 C43.8190262,45.6226917 40.1205759,46.677198 36.2406702,47.9633897 C39.9283141,45.1525727 42.7946806,41.5913647 41.6816335,37.6918509 C40.3276963,33.5386078 37.0948168,35.939589 37.0948168,35.939589 C33.7606283,36.858683 15.9703351,50.988797 17.3400314,55.7696153 C18.7097277,60.5504336 40.4695288,54.4339373 41.2601885,53.8621466 C42.0503979,53.2908058 45.6957173,47.0200025 44.4030157,46.0572707 Z" id="Path" fill="#374ABE"></path>
                                    <path d="M36.359089,47.8459724 C36.359089,47.8459724 29.2886283,52.6677293 28.036,53.3825802 C28.036,53.3825802 35.9898743,52.2898346 37.7603037,51.1264586 C39.5311832,49.9630827 40.0035079,47.0006579 40.0035079,47.0006579 L36.359089,47.8459724 Z" id="Path" fill="#020687"></path>
                                    <path d="M35.3901257,39.0909612 C31.5980209,39.2214248 29.5074555,41.0461165 27.9477487,39.9610188 C26.3880419,38.8763709 29.5389738,36.029114 24.8445445,28.8131241 C24.6486806,28.2039937 24.4285026,27.5912644 24.1804084,26.9794348 C24.088555,26.7522481 23.8922408,26.4341867 23.6450471,26.0450451 C22.1569319,23.7025476 18.8276963,18.7885664 25.3555916,15.7150226 C26.7347435,15.0654035 28.3872042,14.1067206 30.0648796,14.0738797 C32.2211832,14.0315915 34.418911,15.5202268 36.1290052,21.1634549 C39.1687225,31.1961103 44.1207016,36.549619 44.3516859,38.7027193 C44.5822199,40.8558195 39.1822304,38.9600476 35.3901257,39.0909612 Z" id="Path" fill="#FFC23F"></path>
                                    <path d="M28.3169634,19.5731479 C29.0990681,23.9864185 25.5028272,28.1027719 24.8445445,28.8126742 C24.6486806,28.2035439 24.4285026,27.5908145 24.1804084,26.978985 C24.088555,26.7517982 23.8922408,26.4337368 23.6450471,26.0445952 C23.648199,25.6311604 23.6927749,25.2051291 23.782377,24.7885451 C24.1542932,23.0538283 28.3169634,19.5731479 28.3169634,19.5731479 Z" id="Path" fill="#F0B701"></path>
                                    <path d="M22.6535707,17.5851516 C22.6535707,17.5851516 20.2815916,22.3880138 18.768712,23.7115451 C17.2558325,25.0350764 22.3856649,26.0009574 23.1700209,27.6367018 C23.954377,29.2724461 26.9544712,24.2666905 27.7825026,21.6637155 C28.610534,19.0602907 30.1351204,12.3576078 22.6535707,17.5851516 Z" id="Path" fill="#FFC23F"></path>
                                    <path d="M24.5356649,42.9607832 C24.5356649,42.9607832 23.734199,42.5968346 23.0133298,42.2661767 C23.0133298,42.2661767 24.2947749,44.7485852 25.2862513,45.7203145 L24.5356649,42.9607832 Z" id="Path" fill="#102B5E"></path>
                                </g>
                            </g>
                            <g id="plant_23_" transform="translate(200.774869, 79.136335)" fill-rule="nonzero">
                                <path d="M25.198,71.0028221 C38.5766283,69.5785188 43.5277068,63.4206341 42.9216545,50.5420714 C42.3156021,37.6639586 33.7651309,32.431916 31.7105864,22.7051754 C29.6560419,12.977985 25.5365969,0.752190476 22.6008901,0.403987469 C19.664733,0.0557844612 18.8353508,6.43230827 15.8564188,10.5324662 C11.4051309,16.6593095 3.66197906,14.334807 7.85526702,29.5986053 C11.4519581,42.6904085 0.332293194,42.1087206 0.063486911,55.4632506 C-0.199015707,68.4682281 11.4924817,72.4622155 25.198,71.0028221 Z" id="Path" fill="#FFE4E5"></path>
                                <path d="M21.5148586,96.2632857 C22.6477173,90.5557256 23.651801,83.9034286 23.9525759,78.1027444 C24.2682094,72.3119574 24.1376335,66.4599875 23.3046492,60.5913722 C23.1371518,59.6205426 22.9570471,58.6582607 22.7791937,57.6941792 C27.0580314,52.9079624 29.4408168,47.1815075 29.7987749,41.259807 C29.0459372,46.7136378 26.4726911,51.8291629 22.485623,56.0719311 C21.6864084,51.7400877 20.9295183,47.4550313 20.839466,43.1294862 C20.5981257,37.3355501 20.9389738,31.5506115 22.255089,25.9501216 C20.7133927,31.5020251 20.1393089,37.2739173 20.1523665,43.0804499 C20.1339058,44.0035927 20.1915393,44.9352832 20.2302618,45.8647243 C18.4927016,44.5902293 17.017644,42.9747293 15.8870366,41.3083935 C14.6064921,39.3406416 13.7190262,37.2374774 13.2304921,35.1050714 C13.4929948,37.2406266 14.1589319,39.3950764 15.2670262,41.4770965 C16.4453613,43.5460702 17.9433822,45.5385652 20.2689843,47.2381917 C20.5639058,51.6906015 21.3523141,56.1830501 21.9372042,60.5742769 C23.0682618,72.1581003 21.5810471,85.1720752 19.0222094,96.2632857 L21.5148586,96.2632857 L21.5148586,96.2632857 Z" id="Path" fill="#FF8E88"></path>
                            </g>
                            <path d="M56.0557906,0 C62.3400942,0 67.5293613,4.62516165 68.4361885,10.651683 C69.7491518,9.28766291 71.5907225,8.43515038 73.6340105,8.43515038 C77.1271414,8.43515038 80.0398848,10.9153095 80.7067225,14.2088421 C82.2574241,12.0125539 84.8117592,10.5738546 87.7064921,10.5738546 C92.4373927,10.5738546 96.2727225,14.4058872 96.2727225,19.1327206 C96.2727225,20.0005288 96.1412461,20.8368459 95.9008063,21.6259261 C96.731089,21.0073484 97.7576859,20.6366516 98.8729843,20.6366516 C101.625435,20.6366516 103.856932,22.8662306 103.856932,25.6163145 C103.856932,28.3663985 101.625885,30.5959774 98.8729843,30.5959774 L42.8334031,30.5959774 C39.1700733,30.5959774 36.2001466,27.628604 36.2001466,23.9684236 C36.2001466,20.3082431 39.1700733,17.3408697 42.8334031,17.3408697 C43.4435079,17.3408697 44.0315497,17.4299449 44.5930262,17.5842519 C43.9077277,16.0362331 43.5196021,14.3271591 43.5196021,12.525411 C43.5196021,5.60768797 49.1321152,0 56.0557906,0 Z" id="cloud_3_" fill="#F3F9FF" fill-rule="nonzero"></path>
                        </g>
                        <g id="Leaves" transform="translate(273.500000, 112.000000) scale(-1, 1) rotate(-357.000000) translate(-273.500000, -112.000000) translate(255.000000, 93.000000)" fill="#FF8D88" fill-rule="nonzero">
                            <path d="M36.0349118,31.2032118 C36.1086514,31.2854505 36.1017615,31.4118959 36.0195228,31.4856356 C35.9372841,31.5593752 35.8108386,31.5524853 35.737099,31.4702466 C30.0500966,25.1277702 24.8922655,21.3934644 20.2730817,20.2615789 C12.6994856,18.4057437 5.51423939,12.3850861 5.0334622,6.84790443 C5.0239075,6.7378615 5.1053693,6.64090847 5.21541223,6.63135377 C5.32545515,6.62179906 5.42240819,6.70326086 5.43196289,6.81330379 C5.89515115,12.1479113 12.9432355,18.0536383 20.3682813,19.8730727 C25.0800189,21.0276377 30.2990705,24.8062675 36.0349118,31.2032118 Z" id="Leaves-base"></path>
                            <path d="M9.27386186,13.747928 C9.28606289,13.8577091 9.20695867,13.956595 9.09717765,13.9687961 C8.98739663,13.9809971 8.88851064,13.9018929 8.87630961,13.7921119 C8.5706827,11.0421763 8.81496989,9.07461539 9.62656457,7.88479439 C9.68880752,7.79354444 9.8132381,7.77002962 9.90448805,7.83227258 C9.99573799,7.89451553 10.0192528,8.01894611 9.95700986,8.11019605 C9.21132726,9.20338805 8.97781346,11.084177 9.27386186,13.747928 Z" id="Leaves-base"></path>
                            <path d="M9.19601663,11.7419383 L8.94160781,12.038971 L8.84971625,11.6588286 C7.90414155,7.7471202 8.53190473,5.70485604 10.7983623,5.70485604 C11.9742921,5.70485604 12.4507715,6.3073504 12.1178681,7.39036474 C11.8151011,8.37533859 10.8422365,9.81990937 9.19601663,11.7419383 Z M11.7355236,7.27283743 C11.9873687,6.45352505 11.7116257,6.10485604 10.7983623,6.10485604 C8.9541362,6.10485604 8.38478437,7.74464063 9.14896339,11.1793132 C10.6057452,9.44758333 11.4688505,8.14038899 11.7355236,7.27283743 Z" id="Leaves-base"></path>
                            <path d="M5.85366767,5.139946 C5.59575143,4.34030235 5.15149843,4.19631524 4.37537254,4.67406721 C2.82371199,5.62920721 3.28437479,7.25471774 5.90973319,9.65737641 C6.14639388,7.49307747 6.12546218,5.98261788 5.85366767,5.139946 Z M4.16569027,4.33343053 C5.15624827,3.72368276 5.89431547,3.96289816 6.23435575,5.01715926 C6.54470254,5.97935863 6.55159232,7.66449687 6.2629991,10.0891016 L6.21787509,10.4682093 L5.93189892,10.2152737 C2.88406957,7.51957894 2.23895127,5.51945379 4.16569027,4.33343053 Z" id="Leaves-base"></path>
                            <path d="M9.52238875,13.962131 C9.61651196,14.0199372 9.6459527,14.1431003 9.58814648,14.2372235 C9.53034026,14.3313467 9.40717712,14.3607875 9.31305391,14.3029813 C6.8591854,12.7959262 5.16276008,11.9299167 4.24361637,11.7095171 C4.13620427,11.6837609 4.07000904,11.5758067 4.09576517,11.4683946 C4.12152131,11.3609825 4.2294755,11.2947873 4.3368876,11.3205434 C5.310839,11.5540853 7.03272658,12.4330931 9.52238875,13.962131 Z" id="Leaves-base"></path>
                            <path d="M6.55957187,12.2601432 L6.76174863,12.5580987 L6.40195476,12.5722855 C5.81121006,12.5955787 4.93046781,12.7240683 3.76357711,12.9580318 C2.8261658,13.1459843 1.59855268,12.724937 0.849427302,11.9805552 C-0.0152333064,11.1213698 -0.0647462953,10.0394076 0.917113826,9.1120282 C2.35718928,7.75185858 4.24959444,8.85584314 6.55957187,12.2601432 Z M1.19177374,9.40282355 C0.382288737,10.1673924 0.419927491,10.9898778 1.13137024,11.6968156 C1.78964877,12.3509258 2.88429556,12.7263682 3.6849415,12.5658374 C4.65944386,12.3704481 5.44031453,12.2470423 6.02968948,12.1957738 C3.93902022,9.20242014 2.33693876,8.32120059 1.19177374,9.40282355 Z" id="Leaves-base"></path>
                            <path d="M10.9529832,15.3382319 C11.0613429,15.3596542 11.1318195,15.4648633 11.1103972,15.573223 C11.0889749,15.6815827 10.9837658,15.7520593 10.8754061,15.730637 C9.06015873,15.3717693 7.85836452,15.3717693 7.29477154,15.7064051 C7.19979479,15.7627979 7.07708547,15.7315195 7.02069261,15.6365428 C6.96429974,15.541566 6.99557816,15.4188567 7.09055491,15.3624638 C7.76642951,14.9611603 9.04565624,14.9611603 10.9529832,15.3382319 Z" id="Leaves-base"></path>
                            <path d="M5.28571554,14.8439392 C4.44955076,14.9635412 4.16252805,15.6287499 4.44000931,16.4331968 C4.70758913,17.2089385 5.34426593,17.6364067 5.89564807,17.3386748 C6.8120819,16.8438246 7.97921638,16.2356243 9.39723241,15.5139669 C7.95113889,14.8808194 6.58148329,14.6585973 5.28571554,14.8439392 Z M9.94679617,15.6834139 C8.3640606,16.48627 7.07695161,17.1553912 6.08570049,17.6906408 C5.27297828,18.1294895 4.39976276,17.5432079 4.06187255,16.5636291 C3.71000076,15.5435164 4.11387811,14.6074834 5.22907745,14.4479694 C6.71882949,14.2348806 8.29127847,14.5286196 9.94316346,15.324888 L10.3074316,15.5004785 L9.94679617,15.6834139 Z" id="Leaves-base"></path>
                            <path d="M14.3662362,17.5525289 C14.4761287,17.5636813 14.5561733,17.6618076 14.5450208,17.7717001 C14.5338684,17.8815926 14.4357421,17.9616372 14.3258496,17.9504848 C12.2248816,17.7372677 10.8581934,18.0327075 10.2159988,18.8053926 C10.145397,18.8903404 10.0192991,18.90197 9.93435137,18.8313682 C9.84940362,18.7607664 9.83777396,18.6346685 9.90837579,18.5497208 C10.6568648,17.6491427 12.1460804,17.3272159 14.3662362,17.5525289 Z" id="Leaves-base"></path>
                            <path d="M6.9022523,19.2378999 C6.66561548,19.4040925 6.64651999,19.5427827 6.79807421,19.7322329 C6.97048343,19.9477529 7.34296171,20.174008 7.81268139,20.3488151 C8.81044855,20.7201359 9.83777669,20.7301005 10.0554355,20.367506 C10.4373849,19.7312222 11.1973091,18.9227911 12.3380088,17.9351311 C9.559245,18.2093026 7.74148367,18.6484987 6.9022523,19.2378999 Z M13.0779981,17.8316787 C11.6977816,18.9816339 10.8032129,19.8989869 10.39839,20.5733753 C10.040868,21.1689658 8.83829772,21.1573016 7.67316854,20.7236966 C7.14174005,20.5259245 6.71188032,20.2648141 6.48572189,19.9821049 C6.19061125,19.6132021 6.2461394,19.2099022 6.67235999,18.9105629 C7.65002392,18.223939 9.72965078,17.7527805 12.9329289,17.47875 L13.5666653,17.4245358 L13.0779981,17.8316787 Z" id="Leaves-base"></path>
                            <path d="M16.0855208,18.2040759 C16.1533627,18.2912436 16.1376961,18.4169037 16.0505284,18.4847457 C15.9633607,18.5525876 15.8377006,18.536921 15.7698586,18.4497533 C14.0639621,16.2579077 13.3455351,14.7860797 13.6412105,13.9609059 C13.6784697,13.8569227 13.7929692,13.8028322 13.8969523,13.8400913 C14.0009355,13.8773505 14.055026,13.99185 14.0177668,14.0958331 C13.7891473,14.7338666 14.4695209,16.1277353 16.0855208,18.2040759 Z" id="Leaves-base"></path>
                            <path d="M14.7269833,16.2542417 L14.6335511,16.5055327 L14.4192977,16.3443737 C13.5920877,15.7221555 12.966289,14.9547515 12.5440709,14.0441957 C11.8422639,12.530678 12.9840423,11.0449507 14.598638,11.5445187 C15.7540918,11.9020247 15.7540918,13.4917777 14.7269833,16.2542417 Z M14.480405,11.9266456 C13.2124256,11.5343233 12.3447224,12.6634131 12.9069567,13.8759282 C13.2641478,14.646247 13.7766998,15.306022 14.4462259,15.856766 C15.3019905,13.4646104 15.2748399,12.1724496 14.480405,11.9266456 Z" id="Leaves-base"></path>
                            <path d="M33.7613561,20.0751445 C33.8686391,20.1014332 33.9342981,20.2097144 33.9080094,20.3169974 C33.8817208,20.4242804 33.7734395,20.4899393 33.6661565,20.4636507 C26.0925605,18.6078155 18.9073142,12.5871579 18.426537,7.04997621 C18.4169823,6.93993328 18.4984441,6.84298025 18.608487,6.83342554 C18.71853,6.82387084 18.815483,6.90533264 18.8250377,7.01537557 C19.288226,12.3499831 26.3363104,18.2557101 33.7613561,20.0751445 Z" id="Leaves-base" transform="translate(26.169789, 13.651054) rotate(40.000000) translate(-26.169789, -13.651054) "></path>
                            <path d="M25.1127238,12.360706 C25.1249248,12.470487 25.0458206,12.569373 24.9360396,12.581574 C24.8262586,12.5937751 24.7273726,12.5146709 24.7151716,12.4048898 C24.4095446,9.65495428 24.6538318,7.68739335 25.4654265,6.49757235 C25.5276695,6.40632241 25.6521,6.38280759 25.74335,6.44505054 C25.8345999,6.50729349 25.8581148,6.63172407 25.7958718,6.72297402 C25.0501892,7.81616602 24.8166754,9.69695492 25.1127238,12.360706 Z" id="Leaves-base" transform="translate(25.209408, 9.496535) rotate(40.000000) translate(-25.209408, -9.496535) "></path>
                            <path d="M26.1051417,11.4378789 L25.8507329,11.7349116 L25.7588413,11.3547693 C24.8132666,7.44306086 25.4410298,5.40079671 27.7074874,5.40079671 C28.8834171,5.40079671 29.3598965,6.00329106 29.0269932,7.0863054 C28.7242261,8.07127925 27.7513616,9.51585003 26.1051417,11.4378789 Z M28.6446487,6.96877809 C28.8964938,6.14946571 28.6207508,5.80079671 27.7074874,5.80079671 C25.8632613,5.80079671 25.2939095,7.44058129 26.0580885,10.8752538 C27.5148703,9.14352399 28.3779756,7.83632965 28.6446487,6.96877809 Z" id="Leaves-base" transform="translate(27.232522, 8.567854) rotate(40.000000) translate(-27.232522, -8.567854) "></path>
                            <path d="M25.1128339,1.65142939 C24.8549177,0.851785735 24.4106647,0.70779863 23.6345388,1.1855506 C22.0828783,2.1406906 22.5435411,3.76620113 25.1688995,6.16885979 C25.4055602,4.00456086 25.3846285,2.49410127 25.1128339,1.65142939 Z M23.4248565,0.844913923 C24.4154145,0.235166148 25.1534817,0.474381548 25.493522,1.52864265 C25.8038688,2.49084202 25.8107586,4.17598025 25.5221654,6.60058504 L25.4770414,6.97969266 L25.1910652,6.7267571 C22.1432358,4.03106233 21.4981175,2.03093717 23.4248565,0.844913923 Z" id="Leaves-base" transform="translate(24.032931, 3.747283) rotate(40.000000) translate(-24.032931, -3.747283) "></path>
                            <path d="M24.7029901,10.5034096 C24.7971133,10.5612158 24.8265541,10.684379 24.7687479,10.7785022 C24.7109416,10.8726254 24.5877785,10.9020661 24.4936553,10.8442599 C22.0397868,9.33720489 20.3433615,8.47119539 19.4242178,8.25079572 C19.3168057,8.22503959 19.2506104,8.1170854 19.2763666,8.0096733 C19.3021227,7.9022612 19.4100769,7.83606596 19.517489,7.8618221 C20.4914404,8.095364 22.213328,8.97437174 24.7029901,10.5034096 Z" id="Leaves-base" transform="translate(22.034579, 9.365063) rotate(40.000000) translate(-22.034579, -9.365063) "></path>
                            <path d="M23.8479514,7.1098264 L24.0501282,7.40778184 L23.6903343,7.42196861 C23.0995896,7.44526183 22.2188473,7.57375149 21.0519566,7.80771494 C20.1145453,7.99566741 18.8869322,7.57462015 18.1378068,6.83023837 C17.2731462,5.97105295 17.2236332,4.88909075 18.2054934,3.96171136 C19.6455688,2.60154174 21.537974,3.70552629 23.8479514,7.1098264 Z M18.4801533,4.2525067 C17.6706683,5.0170756 17.708307,5.83956097 18.4197498,6.54649874 C19.0780283,7.20060893 20.1726751,7.57605134 20.973321,7.41552055 C21.9478234,7.22013127 22.7286941,7.09672543 23.318069,7.04545696 C21.2273998,4.05210329 19.6253183,3.17088375 18.4801533,4.2525067 Z" id="Leaves-base" transform="translate(20.764658, 5.623729) rotate(40.000000) translate(-20.764658, -5.623729) "></path>
                            <path d="M23.9653455,12.6914081 C24.0737052,12.7128304 24.1441819,12.8180395 24.1227596,12.9263992 C24.1013373,13.0347589 23.9961282,13.1052355 23.8877685,13.0838132 C22.0725211,12.7249454 20.8707269,12.7249454 20.3071339,13.0595813 C20.2121572,13.1159741 20.0894478,13.0846957 20.033055,12.9897189 C19.9766621,12.8947422 20.0079405,12.7720329 20.1029173,12.71564 C20.7787919,12.3143365 22.0580186,12.3143365 23.9653455,12.6914081 Z" id="Leaves-base" transform="translate(22.065795, 12.749606) rotate(40.000000) translate(-22.065795, -12.749606) "></path>
                            <path d="M18.2913173,10.7893661 C17.4551526,10.908968 17.1681298,11.5741767 17.4456111,12.3786237 C17.7131909,13.1543653 18.3498677,13.5818335 18.9012499,13.2841017 C19.8176837,12.7892514 20.9848182,12.1810512 22.4028342,11.4593938 C20.9567407,10.8262463 19.5870851,10.6040241 18.2913173,10.7893661 Z M22.952398,11.6288407 C21.3696624,12.4316968 20.0825534,13.1008181 19.0913023,13.6360677 C18.2785801,14.0749163 17.4053646,13.4886347 17.0674743,12.509056 C16.7156026,11.4889432 17.1194799,10.5529103 18.2346793,10.3933962 C19.7244313,10.1803075 21.2968803,10.4740465 22.9487653,11.2703149 L23.3130334,11.4459053 L22.952398,11.6288407 Z" id="Leaves-base" transform="translate(20.128535, 12.055018) rotate(40.000000) translate(-20.128535, -12.055018) "></path>
                            <path d="M24.8519801,16.2796042 C24.9618726,16.2907567 25.0419172,16.388883 25.0307648,16.4987755 C25.0196123,16.608668 24.921486,16.6887126 24.8115935,16.6775602 C22.7106255,16.464343 21.3439373,16.7597828 20.7017427,17.532468 C20.6311409,17.6174157 20.5050431,17.6290454 20.4200953,17.5584436 C20.3351476,17.4878417 20.3235179,17.3617439 20.3941197,17.2767962 C21.1426088,16.3762181 22.6318243,16.0542913 24.8519801,16.2796042 Z" id="Leaves-base" transform="translate(22.689864, 16.907469) rotate(40.000000) translate(-22.689864, -16.907469) "></path>
                            <path d="M17.2442291,16.2599807 C17.0075923,16.4261732 16.9884968,16.5648634 17.140051,16.7543137 C17.3124603,16.9698337 17.6849385,17.1960888 18.1546582,17.3708958 C19.1524254,17.7422167 20.1797535,17.7521812 20.3974123,17.3895868 C20.7793617,16.753303 21.5392859,15.9448719 22.6799856,14.9572118 C19.9012218,15.2313834 18.0834605,15.6705794 17.2442291,16.2599807 Z M23.4199749,14.8537595 C22.0397585,16.0037147 21.1451897,16.9210677 20.7403668,17.595456 C20.3828448,18.1910466 19.1802745,18.1793823 18.0151454,17.7457773 C17.4837169,17.5480053 17.0538571,17.2868949 16.8276987,17.0041857 C16.5325881,16.6352829 16.5881162,16.2319829 17.0143368,15.9326436 C17.9920007,15.2460197 20.0716276,14.7748612 23.2749057,14.5008307 L23.9086421,14.4466165 L23.4199749,14.8537595 Z" id="Leaves-base" transform="translate(20.275763, 16.252470) rotate(40.000000) translate(-20.275763, -16.252470) "></path>
                            <path d="M27.239117,19.1017905 C27.3069589,19.1889582 27.2912923,19.3146184 27.2041246,19.3824603 C27.1169569,19.4503023 26.9912967,19.4346356 26.9234548,19.3474679 C25.2175583,17.1556224 24.4991313,15.6837943 24.7948067,14.8586205 C24.8320658,14.7546374 24.9465653,14.7005469 25.0505485,14.737806 C25.1545316,14.7750651 25.2086221,14.8895646 25.171363,14.9935478 C24.9427435,15.6315812 25.6231171,17.0254499 27.239117,19.1017905 Z" id="Leaves-base" transform="translate(26.005681, 17.075334) rotate(40.000000) translate(-26.005681, -17.075334) "></path>
                            <path d="M27.5169126,17.0599507 L27.4234804,17.3112417 L27.2092271,17.1500827 C26.3820171,16.5278645 25.7562183,15.7604605 25.3340003,14.8499047 C24.6321933,13.336387 25.7739717,11.8506597 27.3885673,12.3502276 C28.5440212,12.7077337 28.5440212,14.2974866 27.5169126,17.0599507 Z M27.2703344,12.7323545 C26.002355,12.3400323 25.1346517,13.4691221 25.696886,14.6816372 C26.0540772,15.4519559 26.5666291,16.111731 27.2361553,16.6624749 C28.0919198,14.2703194 28.0647693,12.9781586 27.2703344,12.7323545 Z" id="Leaves-base" transform="translate(26.697456, 14.781437) rotate(40.000000) translate(-26.697456, -14.781437) "></path>
                            <path d="M27.1459185,33.9072339 C27.2532015,33.9335225 27.3188604,34.0418038 27.2925718,34.1490868 C27.2662831,34.2563698 27.1580019,34.3220287 27.0507189,34.2957401 C19.4771228,32.4399049 12.2918766,26.4192473 11.8110994,20.8820656 C11.8015447,20.7720227 11.8830065,20.6750696 11.9930494,20.6655149 C12.1030923,20.6559602 12.2000454,20.737422 12.2096001,20.847465 C12.6727883,26.1820725 19.7208727,32.0877995 27.1459185,33.9072339 Z" id="Leaves-base" transform="translate(19.554352, 27.483143) scale(-1, -1) rotate(126.000000) translate(-19.554352, -27.483143) "></path>
                            <path d="M15.3802606,31.5951608 C15.3924617,31.7049418 15.3133575,31.8038278 15.2035764,31.8160288 C15.0937954,31.8282299 14.9949094,31.7491256 14.9827084,31.6393446 C14.6770815,28.8894091 14.9213687,26.9218482 15.7329634,25.7320272 C15.7952063,25.6407772 15.9196369,25.6172624 16.0108868,25.6795053 C16.1021368,25.7417483 16.1256516,25.8661789 16.0634086,25.9574288 C15.317726,27.0506208 15.0842122,28.9314097 15.3802606,31.5951608 Z" id="Leaves-base" transform="translate(15.476945, 28.730990) scale(-1, -1) rotate(126.000000) translate(-15.476945, -28.730990) "></path>
                            <path d="M13.2820208,29.6476099 L13.027612,29.9446426 L12.9357204,29.5645002 C11.9901457,25.6527918 12.6179089,23.6105276 14.8843665,23.6105276 C16.0602963,23.6105276 16.5367756,24.213022 16.2038723,25.2960363 C15.9011053,26.2810102 14.9282407,27.725581 13.2820208,29.6476099 Z M15.8215278,25.178509 C16.0733729,24.3591966 15.7976299,24.0105276 14.8843665,24.0105276 C13.0401404,24.0105276 12.4707886,25.6503122 13.2349676,29.0849848 C14.6917494,27.3532549 15.5548547,26.0460606 15.8215278,25.178509 Z" id="Leaves-base" transform="translate(14.409402, 26.777585) scale(-1, -1) rotate(126.000000) translate(-14.409402, -26.777585) "></path>
                            <path d="M10.9036684,28.2097952 C10.6457521,27.4101515 10.2014991,27.2661644 9.42537326,27.7439164 C7.87371271,28.6990564 8.33437551,30.3245669 10.9597339,32.7272256 C11.1963946,30.5629266 11.1754629,29.052467 10.9036684,28.2097952 Z M9.21569098,27.4032797 C10.206249,26.7935319 10.9443162,27.0327473 11.2843565,28.0870084 C11.5947033,29.0492078 11.601593,30.734346 11.3129998,33.1589508 L11.2678758,33.5380584 L10.9818996,33.2851229 C7.93407028,30.5894281 7.28895199,28.5893029 9.21569098,27.4032797 Z" id="Leaves-base" transform="translate(9.823765, 30.305649) scale(-1, -1) rotate(126.000000) translate(-9.823765, -30.305649) "></path>
                            <path d="M18.2356695,33.0456024 C18.3297927,33.1034086 18.3592335,33.2265717 18.3014273,33.3206949 C18.243621,33.4148182 18.1204579,33.4442589 18.0263347,33.3864527 C15.5724662,31.8793976 13.8760409,31.0133881 12.9568971,30.7929885 C12.849485,30.7672323 12.7832898,30.6592782 12.8090459,30.5518661 C12.8348021,30.444454 12.9427563,30.3782587 13.0501684,30.4040149 C14.0241198,30.6375567 15.7460074,31.5165645 18.2356695,33.0456024 Z" id="Leaves-base" transform="translate(15.567259, 31.907256) scale(-1, -1) rotate(126.000000) translate(-15.567259, -31.907256) "></path>
                            <path d="M15.0069167,34.9211633 L15.2090934,35.2191188 L14.8492996,35.2333055 C14.2585549,35.2565988 13.3778126,35.3850884 12.2109219,35.6190519 C11.2735106,35.8070043 10.0458975,35.3859571 9.29677212,34.6415753 C8.43211151,33.7823899 8.38259852,32.7004277 9.36445865,31.7730483 C10.8045341,30.4128787 12.6969393,31.5168632 15.0069167,34.9211633 Z M9.63911856,32.0638436 C8.82963356,32.8284125 8.86727231,33.6508979 9.57871506,34.3578357 C10.2369936,35.0119459 11.3316404,35.3873883 12.1322863,35.2268575 C13.1067887,35.0314682 13.8876593,34.9080624 14.4770343,34.8567939 C12.386365,31.8634402 10.7842836,30.9822207 9.63911856,32.0638436 Z" id="Leaves-base" transform="translate(11.923623, 33.435066) scale(-1, -1) rotate(126.000000) translate(-11.923623, -33.435066) "></path>
                            <path d="M20.84093,31.581825 C20.9492896,31.6032473 21.0197663,31.7084564 20.998344,31.8168161 C20.9769217,31.9251758 20.8717126,31.9956524 20.7633529,31.9742301 C18.9481055,31.6153623 17.7463113,31.6153623 17.1827183,31.9499982 C17.0877416,32.006391 16.9650323,31.9751126 16.9086394,31.8801358 C16.8522465,31.7851591 16.883525,31.6624498 16.9785017,31.6060569 C17.6543763,31.2047534 18.933603,31.2047534 20.84093,31.581825 Z" id="Leaves-base" transform="translate(18.941379, 31.640023) scale(-1, -1) rotate(126.000000) translate(-18.941379, -31.640023) "></path>
                            <path d="M16.5464028,32.3553633 C15.710238,32.4749653 15.4232153,33.140174 15.7006966,33.9446209 C15.9682764,34.7203625 16.6049532,35.1478308 17.1563353,34.8500989 C18.0727692,34.3552487 19.2399036,33.7470484 20.6579197,33.025391 C19.2118262,32.3922435 17.8421705,32.1700214 16.5464028,32.3553633 Z M21.2074834,33.194838 C19.6247479,33.9976941 18.3376389,34.6668153 17.3463877,35.2020649 C16.5336655,35.6409136 15.66045,35.054632 15.3225598,34.0750532 C14.970688,33.0549405 15.3745654,32.1189075 16.4897647,31.9593934 C17.9795167,31.7463047 19.5519657,32.0400437 21.2038507,32.8363121 L21.5681188,33.0119026 L21.2074834,33.194838 Z" id="Leaves-base" transform="translate(18.383620, 33.621016) scale(-1, -1) rotate(126.000000) translate(-18.383620, -33.621016) "></path>
                            <path d="M25.2076972,30.099571 C25.3175897,30.1107235 25.3976343,30.2088498 25.3864818,30.3187423 C25.3753294,30.4286348 25.277203,30.5086794 25.1673106,30.4975269 C23.0663426,30.2843098 21.6996544,30.5797496 21.0574598,31.3524348 C20.9868579,31.4373825 20.8607601,31.4490122 20.7758124,31.3784104 C20.6908646,31.3078085 20.6792349,31.1817107 20.7498368,31.0967629 C21.4983258,30.1961849 22.9875414,29.8742581 25.2076972,30.099571 Z" id="Leaves-base" transform="translate(23.045581, 30.727436) scale(-1, -1) rotate(126.000000) translate(-23.045581, -30.727436) "></path>
                            <path d="M19.5290427,33.1888567 C19.2924059,33.3550493 19.2733104,33.4937395 19.4248646,33.6831897 C19.5972738,33.8987098 19.9697521,34.1249648 20.4394718,34.2997719 C21.4372389,34.6710928 22.4645671,34.6810573 22.6822258,34.3184628 C23.0641752,33.6821791 23.8240995,32.8737479 24.9647992,31.8860879 C22.1860354,32.1602594 20.368274,32.5994555 19.5290427,33.1888567 Z M25.7047885,31.7826355 C24.324572,32.9325907 23.4300033,33.8499438 23.0251804,34.5243321 C22.6676584,35.1199227 21.4650881,35.1082584 20.2999589,34.6746534 C19.7685304,34.4768813 19.3386707,34.2157709 19.1125123,33.9330618 C18.8174016,33.564159 18.8729298,33.160859 19.2991504,32.8615197 C20.2768143,32.1748958 22.3564412,31.7037373 25.5597193,31.4297068 L26.1934557,31.3754926 L25.7047885,31.7826355 Z" id="Leaves-base" transform="translate(22.560577, 33.181346) scale(-1, -1) rotate(126.000000) translate(-22.560577, -33.181346) "></path>
                            <path d="M24.2151732,29.4344423 C24.2830152,29.52161 24.2673486,29.6472702 24.1801809,29.7151121 C24.0930132,29.782954 23.967353,29.7672874 23.8995111,29.6801197 C22.1936146,27.4882741 21.4751875,26.0164461 21.770863,25.1912723 C21.8081221,25.0872891 21.9226216,25.0331986 22.0266048,25.0704578 C22.1305879,25.1077169 22.1846784,25.2222164 22.1474193,25.3261996 C21.9187998,25.964233 22.5991734,27.3581017 24.2151732,29.4344423 Z" id="Leaves-base" transform="translate(22.981738, 27.407986) scale(-1, -1) rotate(126.000000) translate(-22.981738, -27.407986) "></path>
                            <path d="M21.464629,29.156424 L21.3711968,29.407715 L21.1569435,29.246556 C20.3297335,28.6243378 19.7039347,27.8569338 19.2817167,26.946378 C18.5799097,25.4328603 19.7216881,23.947133 21.3362837,24.446701 C22.4917376,24.804207 22.4917376,26.39396 21.464629,29.156424 Z M21.2180508,24.8288279 C19.9500714,24.4365056 19.0823681,25.5655954 19.6446024,26.7781105 C20.0017936,27.5484293 20.5143455,28.2082043 21.1838717,28.7589483 C22.0396362,26.3667927 22.0124857,25.0746319 21.2180508,24.8288279 Z" id="Leaves-base" transform="translate(20.645173, 26.877910) scale(-1, -1) rotate(126.000000) translate(-20.645173, -26.877910) "></path>
                        </g>
                    </g>
                </g>
            </g>
        </g>
    </g>
</svg>