<?xml version="1.0" encoding="UTF-8"?>
<svg width="301px" height="187px" viewBox="0 0 301 187" version="1.1" xmlns="http://www.w3.org/2000/svg" xmlns:xlink="http://www.w3.org/1999/xlink">
    <title>image/设置触发器</title>
    <g id="空页面" stroke="none" stroke-width="1" fill="none" fill-rule="evenodd">
        <g id="触发器无权限" transform="translate(-362.000000, -428.000000)">
            <g id="编组" transform="translate(350.000000, 153.000000)">
                <g id="编组-2" transform="translate(0.000000, 207.000000)">
                    <g id="image/设置触发器" transform="translate(12.000000, 68.000000)">
                        <g id="Background" transform="translate(3.000000, 27.000000)" fill-rule="nonzero">
                            <path d="M263.1552,1.60572583 C262.517971,16.8664865 260.103926,27.2342311 255.913063,32.7089595 C248.662835,42.180288 237.21171,50.1685517 237.21171,55.3943286 C237.21171,79.1660257 247.805925,90.3270693 247.805925,99.5086209 C247.805925,114.918424 226.940451,122.623326 185.209504,122.623326 C156.490382,122.623326 110.682302,122.623326 47.7852664,122.623326 C29.8507645,122.623326 24.9228629,110.001937 24.9228629,99.5086209 C24.9228629,88.4461045 51.5561949,83.6065029 51.2350276,70.6700667 C50.9138603,57.7336306 -9.86129956,4.81717749 39.3769091,1.60572583 C72.2023815,-0.535241944 146.795145,-0.535241944 263.1552,1.60572583 Z" id="Background-base" fill="#F4F7FA" transform="translate(141.646520, 61.311663) scale(1, -1) translate(-141.646520, -61.311663) "></path>
                            <path d="M276.507904,140.197489 C277.625063,142.296764 256.589464,143.896101 256.589464,145.00312 C256.589464,150.038877 267.873152,149.451638 267.873152,154.348219 C267.873152,157.612606 245.649752,159.2448 201.20295,159.2448 C163.906968,159.2448 111.763787,159.2448 44.7734069,159.2448 C11.4864163,159.2448 0.286403398,158.958496 0,156.672756 C-0.284997864,154.380801 55.8064983,151.10433 55.8064983,146.634873 C55.8064983,142.165416 41.3269017,147.834847 41.3269017,135.809803 C41.3269017,123.784758 265.097863,118.756669 276.507904,140.197489 Z" id="Background-base" fill="#E3EDFA" transform="translate(138.275438, 142.348800) scale(1, -1) translate(-138.275438, -142.348800) "></path>
                        </g>
                        <g id="Leaves" transform="translate(249.000000, 114.000000) rotate(26.000000) translate(-249.000000, -114.000000) translate(214.000000, 68.000000)" fill-rule="nonzero">
                            <g id="Group-28" transform="translate(37.400000, 8.000000)">
                                <path d="M0.46802062,73.2566503 C-1.30311015,27.1115628 3.86614317,2.7692034 15.9757806,0.229571994 C28.085418,-2.31005941 22.9161646,22.0323 0.46802062,73.2566503 Z" id="Leaf-base" fill="#FFFFFF"></path>
                                <path d="M0.781893049,68.35109 C6.30661337,36.6119269 11.1395676,18.3390796 15.2807557,13.532548" id="Leaf-base" stroke="#7990DD" stroke-width="0.5" stroke-linecap="round"></path>
                            </g>
                            <g id="Group-29" transform="translate(17.000000, 0.000000)">
                                <path d="M18.7777013,89.6463675 C17.2797208,55.7943164 -14.1565283,13.5837331 7.80375071,1.29866154 C29.7640297,-10.98641 22.4887678,75.3993067 18.7777013,89.6463675 Z" id="Leaf-base" fill="#7990DD"></path>
                                <path d="M19.9112506,79.8438051 C15.6270595,45.0352982 12.665142,24.2351541 11.0254981,17.4433728" id="Leaf-base" stroke="#FFFFFF" stroke-width="0.5" stroke-linecap="round"></path>
                            </g>
                            <g id="Group-25" transform="translate(5.400000, 63.800000)">
                                <path d="M33.9711305,22.1794871 C16.488487,0.471591051 0.339452952,-5.20617159 0.0985419564,5.13490098 C-0.142369039,15.4759736 18.0153853,9.37525272 33.9711305,22.1794871 Z" id="Leaf-base" fill="#7990DD"></path>
                                <path d="M29.5865385,18.5649907 C25.4898502,13.8866442 19.0632832,9.76915858 10.3068374,6.21253387" id="Leaf-base" stroke="#FFFFFF" stroke-width="0.5" stroke-linecap="round"></path>
                            </g>
                            <g id="Group-27" transform="translate(34.800000, 42.200000)">
                                <path d="M0,47.597837 C4.22295587,20.4858246 24.6672403,-12.456981 33.1732744,4.97669659 C41.6793086,22.4103742 11.8868041,30.9875873 0,47.597837 Z" id="Leaf-base" fill="#7990DD"></path>
                                <path d="M1.00352455,45.1685647 C7.48643668,30.8665103 14.4095742,20.7808905 21.7729371,14.9117053" id="Leaf-base" stroke="#FFFFFF" stroke-width="0.5" stroke-linecap="round"></path>
                            </g>
                            <g id="Group-26" transform="translate(34.200000, 76.200000)">
                                <path d="M0.198606308,14.6407269 C5.26739709,4.68855097 23.3823385,-5.11566726 29.6689418,3.15020652 C35.9555451,11.4160803 6.46490038,10.3343213 0.198606308,14.6407269 Z" id="Leaf-base" fill="#FFFFFF"></path>
                                <path d="M24.4629894,4.27733083 C16.6261487,4.27733083 8.78930805,7.33802009 0.952467393,13.4593986" id="Leaf-base" stroke="#7990DD" stroke-width="0.5" stroke-linecap="round"></path>
                            </g>
                            <g id="Leaf-base" transform="translate(0.000000, 37.800000)">
                                <path d="M36.4572759,47.547933 C27.5000881,8.84921959 8.97209918,-8.72096449 1.2583087,4.20054942 C-6.45548177,17.1220633 23.2833096,21.0905294 36.4572759,47.547933 Z" fill="#FFFFFF"></path>
                                <path d="M34.16,41.1986924 C28.4333515,28.6106777 21.2379733,19.4195698 12.5738655,13.6253687" stroke="#7990DD" stroke-width="0.5" stroke-linecap="round"></path>
                            </g>
                        </g>
                        <g id="Leaves" transform="translate(0.000000, 79.000000)" fill-rule="nonzero">
                            <g id="Leaf" transform="translate(0.520000, 22.080000)">
                                <path d="M39.2384334,63.6412252 C30.2995085,65.5461916 20.2098884,65.8801884 18.5032986,56.3606008 C16.7967088,46.8410131 25.1643064,48.9097912 25.1643064,44.3526315 C25.1643064,39.7954717 15.6260806,37.5098623 16.4314741,28.9057534 C17.2368676,20.3016444 26.876805,19.6221752 24.0279867,14.3668153 C21.1791685,9.11145552 25.1517012,4.11966511 26.8960827,4.03679166 C28.6404641,3.95391822 29.3480403,3.31962953 34.0862783,7.91169639 C38.8245162,12.5037632 42.1290168,12.0193206 43.8292708,16.3430879 C45.5295247,20.6668552 40.4907569,24.0616356 42.8638596,30.5574694 C45.2369624,37.0533032 53.8937118,37.2927836 53.8937118,47.0887695 C53.8937118,56.8847553 48.1773582,61.7362587 39.2384334,63.6412252 Z" id="Leaf-base" fill="#FF8E88" transform="translate(35.138454, 34.338986) scale(-1, 1) rotate(48.000000) translate(-35.138454, -34.338986) "></path>
                                <path d="M30.8206976,15.8270082 L30.8452298,15.8188194 C32.9628786,15.1875205 34.5630759,13.2721807 35.6603518,10.0695785 C35.7718553,10.1544018 35.8828344,10.2360419 35.992804,10.3154719 C34.8544552,13.5613121 33.1844671,15.5190899 30.9966248,16.1851225 C31.3207675,16.8361131 31.6472989,17.4388246 31.9764572,17.9940279 C34.1138451,16.9853097 35.7313694,14.6242162 36.842702,10.9021813 C36.9591399,10.9785037 37.0738568,11.0528563 37.1873188,11.1253165 C36.048509,14.8716198 34.3758995,17.2774277 32.1820638,18.3343165 C32.2201468,18.395848 32.258478,18.4573029 32.2968445,18.5181189 C33.2122491,19.9691584 34.0499382,21.5086063 34.8090831,23.1226146 L34.5473455,23.3584592 C37.7326664,20.5303267 40.0694646,17.4290205 41.5589292,14.0526612 C41.6596291,14.1520265 41.7575802,14.2548775 41.8530466,14.3619082 C40.3652725,17.6708621 38.0751581,20.7163244 34.9832934,23.4979052 C36.2421605,26.2363192 37.2779862,29.1847241 38.0865259,32.2756113 L37.8938014,32.4487997 C39.3298495,31.1724439 40.5838593,29.8272771 41.6559314,28.413086 C41.6747905,28.5914156 41.7007785,28.7731137 41.7325844,28.9574318 C40.7103456,30.2673636 39.5314406,31.5168981 38.1973125,32.7067494 C38.5300658,34.0173023 38.8219349,35.3524543 39.0729699,36.7074603 C40.7603969,35.9862686 42.4070725,35.0129418 44.0121878,33.7883453 C44.0972517,33.8883372 44.1853863,33.986834 44.2749785,34.0839609 C42.6095599,35.3573299 40.8992508,36.3647414 39.1441014,37.1064755 C39.5873607,39.5761779 39.8942116,42.111166 40.0641455,44.6802005 C40.258086,47.6121624 40.2628466,50.5071007 40.0962711,53.2545938 C45.4138464,49.6503981 48.8669675,45.1028721 50.4610918,39.6053728 C50.5643133,39.7216989 50.6667681,39.8403818 50.7672432,39.9613848 C49.090272,45.5244114 45.5209025,50.1226391 40.0645113,53.7504937 C39.9827389,54.9386375 39.8690181,56.0972325 39.7245212,57.2175363 C45.2335553,55.2148832 49.395563,50.2197373 52.2230393,42.2296988 C52.3039284,42.4003516 52.3808303,42.5763755 52.4535565,42.7571002 C49.5506635,50.7305488 45.2842892,55.6976297 39.6664135,57.6573759 C39.3492603,59.9618171 38.9006122,62.0966968 38.3332611,63.9798189 L38.6140557,63.919216 C38.3743005,63.97031 38.1337174,64.0202739 37.8924905,64.0689478 C38.4676206,62.2103797 38.9238207,60.0913521 39.2478872,57.7963697 C33.4513146,59.6440345 26.2495111,58.3638306 17.6563342,53.9535237 C17.6597127,53.8042035 17.6680206,53.6607556 17.6795281,53.5211471 C26.339576,57.9970181 33.5436818,59.2779643 39.3078894,57.3625502 C39.4506089,56.2824977 39.5649753,55.1659477 39.649075,54.02079 L39.5391066,54.0930973 L39.5391066,54.0930973 L39.3264904,53.7608188 L39.683216,53.5289619 C39.8675863,50.7105823 39.8699726,47.7285198 39.6700556,44.7062059 C39.5825231,43.3829046 39.4584581,42.0687778 39.2981276,40.7679936 L39.3647685,40.7501741 C32.0698717,42.7132065 25.1600064,41.5134707 18.6488736,37.1563161 C18.3312889,36.7996217 18.0268219,36.428596 17.7419306,36.0392406 C24.4858182,40.971302 31.6489981,42.4134621 39.2477616,40.3727947 C39.1129967,39.3257347 38.9540707,38.2870923 38.7716811,37.2596067 C32.1230603,39.9174214 24.8366413,38.7906838 16.9302436,33.8776214 L17.1383282,33.5424776 C24.9647361,38.4058341 32.1457905,39.5133529 38.70005,36.8630187 C37.4585948,30.1128737 35.1994111,23.8590419 31.9626972,18.7284144 L31.8178026,18.495471 C29.6308892,19.3791346 26.95254,18.9888634 23.7941509,17.3165845 C23.8365386,17.1864508 23.8686381,17.0545623 23.890999,16.9199403 L23.7467376,16.843105 C26.8648592,18.5442148 29.4822642,18.9834851 31.6108407,18.1524943 C31.2734483,17.579565 30.9388479,16.958608 30.607209,16.2888381 C28.603445,16.7479258 26.1877471,16.1801676 23.3709087,14.5831055 L23.4036091,14.6448062 C23.2773864,14.4119568 23.1645549,14.1796249 23.0643272,13.9482144 C25.9669145,15.6942012 28.4180991,16.3538834 30.429665,15.9248095 C29.0041732,12.9614786 27.6340794,9.09161111 26.3178386,4.3134177 L26.271705,4.3147825 C26.4277623,4.3073684 26.5755214,4.29554101 26.7186107,4.28343733 C28.0347168,9.04705725 29.4022106,12.8951956 30.8206976,15.8270082 Z" id="Leaf-base" fill="#FFFFFF" transform="translate(34.691900, 34.176193) scale(-1, 1) rotate(48.000000) translate(-34.691900, -34.176193) "></path>
                            </g>
                            <g id="Leaf" transform="translate(35.849362, 5.040000)">
                                <path d="M26.192048,75.1214439 C15.9480611,77.347365 4.38538014,77.7376347 2.42963223,66.6141573 C0.473884316,55.4906799 10.0631315,57.9080122 10.0631315,52.583048 C10.0631315,47.2580838 -0.86765294,44.5873878 0.0553261337,34.5336318 C0.978305207,24.4798758 14.8329306,23.6387886 11.5681916,17.4979894 C8.30345251,11.3571902 5.48248533,1.57992272 11.5681916,0.204736327 C17.6538978,-1.17045007 14.8576807,4.63667825 20.2876904,10.0024308 C25.7177,15.3681834 29.5046499,14.8021204 31.453137,19.8543694 C33.401624,24.9066184 27.6272079,28.873362 30.3467781,36.4636341 C33.0663483,44.0539061 42.9869627,44.333735 42.9869627,55.780179 C42.9869627,67.226623 36.4360349,72.8955228 26.192048,75.1214439 Z" id="Leaf-base" fill="#374ABE"></path>
                                <path d="M17.2459774,18.9642306 L17.3103472,18.9447607 C19.7369804,18.2011034 21.5723792,15.9604532 22.8311979,12.219231 C22.9425652,12.3038012 23.0530409,12.3866819 23.1626439,12.4676035 C21.8562969,16.2717855 19.9368229,18.5583399 17.4190355,19.3239579 C17.8018015,20.1094695 18.1875036,20.8355683 18.5764223,21.5027887 C21.0448155,20.3294096 22.9102977,17.5608242 24.1867812,13.1875305 C24.3030774,13.2660166 24.4176709,13.3417665 24.5311721,13.4158221 C23.2268166,17.8102961 21.3052697,20.6230669 18.7791763,21.8441561 C18.8287708,21.9270599 18.8788883,22.0091173 18.9290588,22.0902046 C19.970269,23.7730465 20.9237013,25.5577683 21.788421,27.4285227 L21.4888232,27.6993477 C25.2194717,24.3743047 27.8595903,20.7399336 29.4732946,16.7615494 C29.5746975,16.8591207 29.6747776,16.9619485 29.7726726,17.0683085 C28.1628539,20.9660584 25.5773363,24.5355487 21.9611705,27.8054263 C23.4370261,31.0629562 24.647628,34.5766574 25.5872272,38.2628562 L25.2611692,38.5571639 C26.9709495,37.0332753 28.4468553,35.446136 29.6972652,33.791618 C29.7176768,33.9692867 29.7449097,34.1504012 29.7769817,34.3337316 C28.6068372,35.8437712 27.2483839,37.2967805 25.6969701,38.6962386 C26.0671894,40.1904888 26.393917,41.7125124 26.676075,43.2567352 C28.6113334,42.4166062 30.5034333,41.2915254 32.3513705,39.8830526 C32.4361639,39.9846856 32.5226116,40.0842047 32.6103229,40.1825099 C30.703322,41.63722 28.7492136,42.7954461 26.7478855,43.6565759 C27.2675087,46.5861689 27.6272834,49.5942468 27.8250958,52.6434191 C28.0473365,56.0691419 28.0526965,59.4515279 27.8616821,62.6613745 C34.0270869,58.4912235 38.0018484,53.1858596 39.7920559,46.738387 C39.8957298,46.8576154 39.9984789,46.9790399 40.0994999,47.1025304 C38.2245657,53.6121092 34.133169,58.9657648 27.8301823,63.1576462 C27.7378251,64.5578223 27.6075166,65.9238966 27.4413298,67.2445431 C33.732569,64.8736635 38.524183,59.0818101 41.8282469,49.8662838 C41.9072427,50.0393958 41.9829195,50.2182744 42.055004,50.401276 C38.6765081,59.5968474 33.7822542,65.3595443 27.383559,67.6870603 C27.0196676,70.428073 26.4990195,72.9652652 25.8380495,75.1982859 C25.6917611,75.2285897 25.5449553,75.2593304 25.3979383,75.2896467 C26.0664053,73.081933 26.59446,70.5617257 26.966185,67.8316321 C20.2979361,70.0813335 12.0279957,68.6728482 2.17060725,63.6043185 C2.17245659,63.4543384 2.17846569,63.309437 2.18717144,63.1678237 C12.1124185,68.305251 20.3862856,69.7151883 27.024406,67.3960812 C27.1892738,66.1147088 27.3205188,64.7892461 27.4160368,63.4297621 L27.298157,63.5053445 L27.298157,63.5053445 L27.0849066,63.1734725 L27.4490234,62.936591 C27.6574788,59.6553621 27.6591024,56.1854174 27.4309732,52.6689262 C27.32723,51.06978 27.1787273,49.4820863 26.9858024,47.9112262 L27.1291373,47.8725844 C18.8254257,50.184612 10.985573,48.9588526 3.62306118,44.1999427 C3.29890734,43.8431044 2.9845922,43.4755359 2.68461957,43.0928456 C10.2630082,48.4115304 18.3413081,49.8844896 26.9358093,47.5164481 C26.7769489,46.2693094 26.5896773,45.0342485 26.3745425,43.8128026 C18.6620026,46.9806476 10.2525408,45.7612091 1.16442869,40.1525087 L1.37147903,39.8167245 C10.3787862,45.3755563 18.6830367,46.5763515 26.3026194,43.4163798 C24.8768123,35.5560515 22.2915405,28.275155 18.5930868,22.2975796 L18.4150825,22.007401 C16.36095,22.8580297 13.9250198,22.7021477 11.1137083,21.5349879 C11.2055855,21.4284458 11.2903117,21.3215482 11.3691662,21.2135775 C14.0049357,22.2894095 16.2846507,22.4406568 18.213051,21.6629743 C17.8155064,20.9788287 17.4215404,20.2340315 17.0311403,19.4289373 C15.5634886,19.7766056 13.9026298,19.6317921 12.0509088,18.9937418 C12.0381302,18.8507107 12.0139846,18.7042903 11.9787299,18.5546588 C13.7999766,19.2152252 15.425781,19.3854899 16.857309,19.0646695 C14.7514897,14.61415 12.750472,8.40061849 10.8512496,0.42157916 C10.9713993,0.374146027 11.0964373,0.331800601 11.2259162,0.293604654 C13.1332712,8.30954071 15.1403747,14.533439 17.2459774,18.9642306 Z" id="Leaf-base" fill="#FFFFFF"></path>
                            </g>
                            <g id="Leaf" transform="translate(49.000000, 0.000000)">
                                <path d="M21.8412626,79.364348 C11.7920323,78.4598413 1.5334786,75.3452445 5.51540706,63.7794075 C9.49733551,52.2135705 14.260978,62.1313248 17.4591648,56.1178541 C20.6573517,50.1043834 13.2969979,45.9727076 14.1503207,40.2711122 C15.0036436,34.5695168 25.7616689,38.812544 25.6800315,35.7422471 C25.5914578,32.4110787 21.3478387,28.5758109 23.9837954,22.4341108 C26.619752,16.2924108 34.4643307,22.2653479 34.7616594,15.2190016 C35.0589881,8.17265525 34.6962588,2.34319826 40.6932525,2.82843404 C46.6902462,3.31366981 46.9758944,10.4843531 48.9582775,17.4214264 C50.9406607,24.3584997 55.5423207,20.8587438 54.6560736,26.4327943 C53.7698265,32.0068448 46.7195298,34.1725342 45.2073369,42.4838589 C43.695144,50.7951837 52.1827777,54.0738722 46.3343983,65.3663965 C40.4860189,76.6589208 31.8904929,80.2688548 21.8412626,79.364348 Z" id="Leaf-base" fill="#000140" transform="translate(29.702023, 41.148706) rotate(-7.000000) translate(-29.702023, -41.148706) "></path>
                                <path d="M41.8078173,20.532836 L41.7541192,20.8528723 C44.1294548,21.5409289 46.6157743,20.5423187 49.230198,17.857464 C49.2795655,17.9979596 49.330293,18.1320835 49.3821075,18.2614586 C46.7113391,20.9456276 44.139115,21.9396304 41.6833661,21.2419923 C41.4478008,22.4862074 41.1002449,23.7274315 40.6420736,24.9654365 C39.8206206,27.1850497 39.054437,29.3369494 38.3366589,31.4374219 L38.3129871,31.4438916 C44.400426,29.7792264 48.6344527,26.2390457 51.0224885,20.8105656 C51.124029,20.9097929 51.2276863,21.0017773 51.33149,21.0878374 C48.8871542,26.5559916 44.580092,30.1392429 38.4175319,31.8244506 L38.3226956,31.4782949 C36.7617625,36.0486851 35.4299392,40.3759404 34.2564488,44.6279977 L34.1877719,44.6219996 C38.4146147,45.0020203 42.0319637,44.8436776 45.0428241,44.1468332 C45.0423149,44.2810246 45.0450541,44.4148214 45.0501919,44.5474373 C42.0111951,45.2387132 38.3771186,45.3947607 34.1527199,45.0149598 L34.1527924,45.0048937 C33.7845667,46.3484305 33.4319715,47.684941 33.0927674,49.0197392 C33.1092264,49.0229002 33.1256257,49.0254439 33.1420375,49.0279678 L33.0822963,49.4179227 L32.9954901,49.4039387 C32.6299697,50.8528817 32.2799816,52.3004072 31.9426596,53.7533166 C31.4034093,56.0759692 30.0346509,62.5499424 29.1661845,66.5142058 L28.7714553,66.5122489 C38.5767904,66.5955731 44.1095298,62.2615501 47.4135049,52.7640973 L47.5437318,52.8085443 C47.5895063,52.9388905 47.6342629,53.0699105 47.6778141,53.2017048 L47.7865042,52.8939229 C44.4646401,62.4427985 38.8705173,66.8977587 29.081114,66.9079555 C28.8370349,68.0111898 28.6408336,68.8812701 28.5236068,69.3554478 L28.4475903,69.6598009 C34.0865114,70.0921507 40.6415489,66.9700403 48.1290163,60.2903469 C48.0819644,60.5087485 48.0279161,60.7319996 47.9673952,60.9589113 C40.5437755,67.4731353 33.9997322,70.5031318 28.3483949,70.0482696 C27.3466492,73.9418153 26.278138,76.7092292 24.7481908,79.1416874 C24.5934173,79.1420795 24.4377201,79.1409102 24.2816279,79.1385312 C25.8500274,76.707521 26.9339271,73.9462004 27.9504387,70.0117773 C22.3813217,69.3954912 17.6928487,65.3459678 13.8997893,57.8587883 C14.0533874,57.8735848 14.2057808,57.8842899 14.3568528,57.8874092 C18.0729837,65.1293209 22.6320902,69.0420606 28.049527,69.6232131 L28.1402475,69.2605208 L28.1402475,69.2605208 C28.67189,67.1100483 30.841916,56.7481227 31.5579931,53.6638436 C31.8934936,52.2187802 32.2415069,50.7790186 32.6048401,49.3379005 C26.1634681,48.1829004 21.6557849,43.9646607 19.0859096,36.7073293 C19.2223929,36.698171 19.3593373,36.6911236 19.4965908,36.6853684 C22.0291204,43.7568845 26.4296493,47.8392505 32.7019407,48.9550198 C34.6460541,41.299313 37.0291476,33.5898588 40.2716929,24.8283156 C40.727962,23.5954505 41.0726564,22.3592692 41.3057136,21.1197084 C39.0311254,20.3093123 36.8593479,18.0340807 34.8023917,14.295222 L34.8035442,14.2821816 L34.8035442,14.2821816 L35.1429023,14.095403 C37.1366719,17.7223297 39.2096637,19.9332212 41.3750427,20.7284023 C42.3425693,15.0050443 40.9323349,9.20981564 37.1387511,3.33626379 C37.2394012,3.25305146 37.346176,3.17562026 37.4580392,3.10371365 C41.2554392,8.97663688 42.7073013,14.7882011 41.8078173,20.532836 Z" id="Leaf-base" fill="#FFFFFF" transform="translate(32.615138, 41.123043) rotate(-7.000000) translate(-32.615138, -41.123043) "></path>
                            </g>
                            <path d="M8.67430795,84.7408204 C49.9698094,85.5824508 73.9193239,85.5824508 80.5228515,84.7408204 C90.4281429,83.4783748 83.0011767,79.1159966 83.0011767,75.2677397 C83.0011767,71.4194827 74.028141,73.131194 71.1026583,72.5840119 C68.1771755,72.0368297 70.5366502,66.2462838 65.0052079,65.635038 C59.4737656,65.0237922 59.1385487,68.4060176 55.9923015,67.874769 C52.8460543,67.3435203 60.8131464,57.6 49.7892478,57.6 C38.7653491,57.6 41.7500552,64.0175773 36.8257251,64.1145359 C31.9013951,64.2114945 36.2287047,60.8746704 28.2568778,62.1513881 C20.2850509,63.4281057 26.2057096,68.5072214 24.0331391,69.6443786 C21.8605687,70.7815358 17.5767183,66.757159 14.9299609,69.6443786 C12.2832035,72.5315982 17.5767183,76.7019825 16.6789258,79.8092869 C16.0803974,81.8808231 13.4121915,83.5246676 8.67430795,84.7408204 Z" fill="#FFFFFF"></path>
                        </g>
                        <g id="编组-6" transform="translate(29.000000, 0.000000)">
                            <g id="cog_7_" transform="translate(80.450000, 0.000000)" fill="#F3F9FF" fill-rule="nonzero">
                                <path d="M58.21065,15.6240625 C57.73365,14.4716302 56.51055,13.8161224 55.28835,14.0580521 L51.42735,14.8225859 C50.517,15.0032448 49.57515,14.6856276 48.96,13.9900234 C48.30885,13.2534219 47.619,12.5600703 46.8927,11.9126719 C46.2006,11.2959089 45.8865,10.357474 46.0665,9.44742188 L46.82925,5.58871094 C47.0709,4.36509635 46.4166,3.14058073 45.2655,2.66302865 L39.5649,0.299145833 C38.4138,-0.17840625 37.08585,0.224359375 36.3924,1.26100781 L34.2063,4.52953646 C33.6915,5.29947656 32.80455,5.74188802 31.8807,5.68782552 C30.91005,5.63151042 29.9322,5.6333125 28.95165,5.69323177 C28.0242,5.74954688 27.13635,5.30803646 26.61885,4.53539323 L24.42915,1.26145833 C23.7357,0.224809896 22.4082,-0.177505208 21.25665,0.299596354 L15.55605,2.66347917 C14.40495,3.14103125 13.7502,4.36554688 13.99185,5.58916146 L14.75595,9.45463021 C14.93595,10.3660339 14.61915,11.308974 13.92435,11.9248359 C13.1886,12.5767396 12.49605,13.267388 11.8494,13.9945286 C11.23335,14.6874297 10.296,15.0018932 9.387,14.8216849 L5.5323,14.0580521 C4.3101,13.8161224 3.087,14.4711797 2.61,15.623612 L0.24885,21.3308099 C-0.22815,22.4832422 0.17415,23.8127292 1.20915,24.5069818 L4.4739,26.695612 C5.24295,27.2110078 5.6844,28.0989844 5.63085,29.0239036 C5.5746,29.9956771 5.5764,30.9746589 5.63625,31.9563438 C5.6925,32.8848672 5.25195,33.7741953 4.47975,34.2918438 L1.2096,36.4845286 C0.17415,37.1787813 -0.2277,38.5078177 0.24885,39.6607005 L2.61,45.3678984 C3.087,46.5203307 4.3101,47.1758385 5.5323,46.9339089 L9.3933,46.1689245 C10.30365,45.9887161 11.2455,46.3058828 11.86065,47.001487 C12.5118,47.7380885 13.20165,48.4318906 13.92795,49.0788385 C14.62005,49.6956016 14.93415,50.6340365 14.75415,51.5440885 L13.9914,55.4027995 C13.7493,56.6268646 14.40405,57.8513802 15.55515,58.3289323 L21.25575,60.6928151 C22.40685,61.1703672 23.7348,60.7680521 24.42825,59.7309531 L26.61435,56.4624245 C27.12915,55.6924844 28.0161,55.2500729 28.93995,55.3041354 C29.9106,55.3604505 30.88845,55.3586484 31.869,55.2991797 C32.79645,55.2428646 33.6843,55.6839245 34.20135,56.4570182 L36.3915,59.7314036 C37.08495,60.7680521 38.41245,61.1703672 39.564,60.6932656 L45.2646,58.3293828 C46.4157,57.8518307 47.07045,56.6273151 46.8288,55.4037005 L46.0647,51.5382318 C45.8847,50.6268281 46.2015,49.683888 46.8963,49.0684766 C47.63205,48.4161224 48.3246,47.725474 48.97125,46.9983333 C49.5873,46.3054323 50.52465,45.9909688 51.43365,46.1711771 L55.2879,46.9343594 C56.5101,47.1767396 57.73365,46.5212318 58.2102,45.3687995 L60.57135,39.6616016 C61.0479,38.5091693 60.64605,37.1796823 59.6106,36.4854297 L56.34585,34.2967995 C55.5768,33.7809531 55.13535,32.8934271 55.1889,31.9685078 C55.24515,30.9967344 55.24335,30.0177526 55.1835,29.0360677 C55.12725,28.1075443 55.5678,27.2182161 56.34,26.7005677 L59.61015,24.5083333 C60.6456,23.8140807 61.04745,22.4850443 60.57045,21.3321615 L58.21065,15.6240625 Z M35.41185,42.5850313 C28.74285,45.3507786 21.0969,42.180013 18.3348,35.5032943 C15.57225,28.8265755 18.73935,21.171776 25.40835,18.4064792 C32.07735,15.6411823 39.7233,18.8114974 42.4854,25.4882161 C45.24795,32.1649349 42.08085,39.8197344 35.41185,42.5850313 Z" id="Shape"></path>
                            </g>
                            <g id="cog_6_" transform="translate(0.350000, 5.856771)" fill-rule="nonzero">
                                <path d="M73.3905,45.3039245 C71.51175,43.996513 70.3917,41.8511328 70.39125,39.5606849 C70.3908,37.270237 71.50995,35.1226042 73.38915,33.8156432 C77.82885,30.7268724 79.87005,27.4556406 78.2334,23.4991667 C76.59675,19.5431432 72.84375,18.6749896 67.5234,19.6332474 C65.2716,20.0387161 62.96445,19.3147292 61.34625,17.6951068 C59.72805,16.0754844 59.0031,13.764763 59.4081,11.5103568 C60.3657,6.18294792 59.499,2.42515365 55.5471,0.786158854 C51.5952,-0.852835938 48.32775,1.19072656 45.2421,5.63601562 C43.9362,7.51739062 41.7924,8.6391875 39.50415,8.6391875 C37.21545,8.63873698 35.073,7.51603906 33.7671,5.63466406 C30.6819,1.19072656 27.4149,-0.851934896 23.46345,0.786609375 C19.512,2.42515365 18.64485,6.1824974 19.602,11.5085547 C20.007,13.7629609 19.28385,16.0727812 17.66655,17.6928542 C16.0488,19.3129271 13.74075,20.0387161 11.48895,19.6332474 C6.1677,18.6745391 2.41425,19.5422422 0.77715,23.4991667 C-0.85995,27.4556406 1.18125,30.7268724 5.6214,33.8156432 C7.5006,35.1230547 8.6211,37.2693359 8.6211,39.5602344 C8.62065,41.8515833 7.49925,43.996513 5.62005,45.3039245 C1.18125,48.3926953 -0.8595,51.6634766 0.7776,55.6195 C2.4147,59.575974 6.16815,60.4441276 11.4894,59.4849688 C13.74165,59.0790495 16.0497,59.8030365 17.6679,61.4235599 C19.2861,63.0440833 20.0079,65.3548047 19.60245,67.6096615 C18.6453,72.9361693 19.51245,76.693513 23.4639,78.3320573 C27.4158,79.9706016 30.68325,77.9270391 33.76845,73.4822005 C35.07435,71.6008255 37.21815,70.4790286 39.5064,70.4790286 C41.7951,70.4794792 43.93755,71.6021771 45.24345,73.4835521 C48.32865,77.9274896 51.59565,79.9706016 55.5471,78.3320573 C59.49855,76.693513 60.3657,72.9361693 59.40855,67.6096615 C59.00355,65.3552552 59.7267,63.0449844 61.34445,61.425362 C62.9622,59.8052891 65.27025,59.0795 67.52205,59.4849688 C72.8433,60.4436771 76.59675,59.575974 78.23385,55.6195 C79.8696,51.6634766 77.8293,48.3922448 73.3905,45.3039245 Z" id="Path" fill="#F3F9FF"></path>
                                <ellipse id="Oval" fill="#DCEEFD" cx="39.50505" cy="39.5588828" rx="20.95965" ry="20.9839089"></ellipse>
                                <path d="M60.46425,39.5588828 C60.46425,51.1350156 51.06735,60.5427917 39.5046,60.5427917 C33.2865,60.5427917 27.6624,57.814888 23.85495,53.4781745 C27.5229,56.8007656 32.41305,58.7943203 37.75815,58.7943203 C49.3209,58.7943203 58.7178,49.3865443 58.7178,37.8104115 C58.7178,32.4595755 56.72655,27.5633151 53.4078,23.8911198 C57.7395,27.7029766 60.46425,33.3335859 60.46425,39.5588828 Z" id="Path" fill="#F3F9FF"></path>
                                <path d="M55.1547,25.6395911 C51.48675,22.3174505 46.5966,20.3238958 41.2515,20.3238958 C29.68875,20.3238958 20.29185,29.7316719 20.29185,41.3078047 C20.29185,46.6586406 22.2831,51.554901 25.60185,55.2270964 C21.27015,51.4152396 18.5454,45.7841797 18.5454,39.5593333 C18.5454,27.9832005 27.9423,18.5754245 39.50505,18.5754245 C45.72315,18.5754245 51.34725,21.3028776 55.1547,25.6395911 Z" id="Path" fill="#D0E7FE"></path>
                            </g>
                            <g id="laptop" transform="translate(39.000000, 50.000000)">
                                <path d="M157.75101,106.363373 L5.57091,106.363373 C2.58857235,106.363373 0.17091,103.945711 0.17091,100.963373 L0.17091,4.35838359 L0.17091,4.35838359 C0.17091,2.11897969 1.984095,0.303696094 4.22091,0.303696094 L159.10101,0.303696094 C161.337825,0.303696094 163.15101,2.11897969 163.15101,4.35838359 L163.15101,100.963373 C163.15101,103.945711 160.733348,106.363373 157.75101,106.363373 Z" id="Path" fill="#2D3053" fill-rule="nonzero"></path>
                                <rect id="Rectangle" fill="#FFFFFF" fill-rule="nonzero" x="7.433775" y="8.03111953" width="146.68209" height="89.7428039"></rect>
                                <g id="编组-4" transform="translate(101.696605, 43.977344)">
                                    <path d="M1.62,2.43029062 L37.26,2.43029062 C38.154645,2.43029062 38.88,3.15648516 38.88,4.05216562 L38.88,16.6602164 C38.88,17.5558969 38.154645,18.2820914 37.26,18.2820914 L1.62,18.2820914 C0.725355,18.2820914 -4.01456646e-13,17.5558969 -4.01456646e-13,16.6602164 L-4.01456646e-13,4.05216562 C-4.01456646e-13,3.15648516 0.72495,2.43029062 1.62,2.43029062 Z" id="Path" fill="#DAE7FF" fill-rule="nonzero"></path>
                                    <path d="M26.1225,12.9724781 L35.4375,12.9724781 C35.548875,12.9724781 35.64,12.8812477 35.64,12.7697437 L35.64,11.5533375 C35.64,11.4418336 35.548875,11.3506031 35.4375,11.3506031 L26.1225,11.3506031 C26.011125,11.3506031 25.92,11.4418336 25.92,11.5533375 L25.92,12.7697437 C25.92,12.8812477 26.011125,12.9724781 26.1225,12.9724781 Z" id="Path" fill="#FFFFFF" fill-rule="nonzero"></path>
                                    <path d="M30.9825,9.72872812 L35.4375,9.72872812 C35.548875,9.72872812 35.64,9.63749766 35.64,9.52599375 L35.64,8.3095875 C35.64,8.19808359 35.548875,8.10685312 35.4375,8.10685312 L30.9825,8.10685312 C30.871125,8.10685312 30.78,8.19808359 30.78,8.3095875 L30.78,9.52599375 C30.78,9.63749766 30.871125,9.72872812 30.9825,9.72872812 Z" id="Path" fill="#FFFFFF" fill-rule="nonzero"></path>
                                    <text id="else" font-family="Baloo-Regular, Baloo" font-size="12" font-weight="600" fill="#7990DD">
                                        <tspan x="2.713395" y="13">else</tspan>
                                    </text>
                                </g>
                                <path d="M34.529895,30.8800945 L34.528275,30.8800945 C33.71625,30.8800945 33.058125,31.5389812 33.058125,32.3519461 L33.058125,32.4691266 C33.058125,33.3161508 32.439285,34.0727555 31.59729,34.1530383 C30.63096,34.2450797 29.818125,33.4868531 29.818125,32.5388672 L29.818125,32.5384617 C29.818125,31.9026867 29.30337,31.3869305 28.667925,31.3869305 L28.4877,31.3869305 C27.852255,31.3869305 27.3375,31.9026867 27.3375,32.5384617 L27.3375,35.3074078 C27.3375,36.154432 26.71866,36.9110367 25.876665,36.9913195 C24.910335,37.0833609 24.0975,36.3251344 24.0975,35.3771484 L24.0975,32.197868 C24.0975,31.749825 23.735025,31.3869305 23.2875,31.3869305 C22.499775,31.3869305 21.86109,30.7479117 21.86109,29.959275 L21.86109,24.4371961 C21.86109,23.0691445 20.75301,21.959782 19.38654,21.959782 L19.382895,21.959782 C18.016425,21.959782 16.908345,23.0691445 16.908345,24.4371961 L16.908345,26.2318008 L16.90146,29.2403789 C16.90227,29.2634906 16.908345,29.2849805 16.908345,29.3080922 C16.908345,29.8866961 16.674255,30.4101562 16.29558,30.7892695 C14.62455,32.4622336 14.62455,35.175225 16.29558,36.8481891 C16.674255,37.2273023 16.908345,37.751168 16.908345,38.3293664 C16.908345,39.4861687 15.97158,40.4244234 14.81571,40.4244234 C13.65984,40.4244234 12.723075,39.4865742 12.723075,38.3293664 C12.723075,37.7507625 12.957165,37.2273023 13.33584,36.8481891 C15.007275,35.175225 15.007275,32.4622336 13.33584,30.7892695 C12.957165,30.4101562 12.723075,29.8862906 12.723075,29.3080922 C12.723075,29.2849805 12.723075,29.2403789 12.723075,29.2403789 L12.723075,25.6090008 C12.723075,23.5934156 11.090925,21.959782 9.078075,21.959782 L7.43337,21.959782 L7.43337,97.7743289 L21.57192,97.7743289 L21.860685,97.7743289 L35.9992357,97.7743289 L35.9992357,32.3519461 C36.000045,31.5389812 35.341515,30.8800945 34.529895,30.8800945 Z" id="Path" fill="#FF8E88" fill-rule="nonzero"></path>
                                <g id="编组-7" transform="translate(85.696605, 14.977344)">
                                    <path d="M1.62,1.98255234 L37.26,1.98255234 C38.154645,1.98255234 38.88,2.70874688 38.88,3.60442734 L38.88,16.2124781 C38.88,17.1081586 38.154645,17.8343531 37.26,17.8343531 L1.62,17.8343531 C0.725355,17.8343531 5.32907052e-14,17.1081586 5.32907052e-14,16.2124781 L5.32907052e-14,3.60442734 C5.32907052e-14,2.70874688 0.72495,1.98255234 1.62,1.98255234 Z" id="Path" fill="#DAE7FF" fill-rule="nonzero"></path>
                                    <path d="M29.765,12.9028648 L35.515,12.9028648 C35.58375,12.9028648 35.64,12.7903648 35.64,12.6528648 L35.64,11.1528648 C35.64,11.0153648 35.58375,10.9028648 35.515,10.9028648 L29.765,10.9028648 C29.69625,10.9028648 29.64,11.0153648 29.64,11.1528648 L29.64,12.6528648 C29.64,12.7903648 29.69625,12.9028648 29.765,12.9028648 Z" id="Path" fill="#FFFFFF" fill-rule="nonzero"></path>
                                    <path d="M30.9825,9.28098984 L35.4375,9.28098984 C35.548875,9.28098984 35.64,9.18975937 35.64,9.07825547 L35.64,7.86184922 C35.64,7.75034531 35.548875,7.65911484 35.4375,7.65911484 L30.9825,7.65911484 C30.871125,7.65911484 30.78,7.75034531 30.78,7.86184922 L30.78,9.07825547 C30.78,9.18975937 30.871125,9.28098984 30.9825,9.28098984 Z" id="Path" fill="#FFFFFF" fill-rule="nonzero"></path>
                                    <text id="then" font-family="Baloo-Regular, Baloo" font-size="12" font-weight="600" fill="#7990DD">
                                        <tspan x="2.713395" y="13">then</tspan>
                                    </text>
                                </g>
                                <path d="M102.889105,85.6661328 L101.53924,85.6661328 L101.53924,85.2606641 L102.889105,85.2606641 C103.08877,85.2606641 103.28155,85.2197117 103.46299,85.1398344 L103.62661,85.5104328 C103.39333,85.6138273 103.145065,85.6661328 102.889105,85.6661328 Z M99.513835,85.6661328 L97.488835,85.6661328 L97.488835,85.2606641 L99.513835,85.2606641 L99.513835,85.6661328 Z M95.463835,85.6661328 L93.438835,85.6661328 L93.438835,85.2606641 L95.463835,85.2606641 L95.463835,85.6661328 Z M91.413835,85.6661328 L89.388835,85.6661328 L89.388835,85.2606641 L91.413835,85.2606641 L91.413835,85.6661328 Z M87.363835,85.6661328 L85.338835,85.6661328 L85.338835,85.2606641 L87.363835,85.2606641 L87.363835,85.6661328 Z M83.313835,85.6661328 L81.288835,85.6661328 L81.288835,85.2606641 L83.313835,85.2606641 L83.313835,85.6661328 Z M79.263835,85.6661328 L77.238835,85.6661328 L77.238835,85.2606641 L79.263835,85.2606641 L79.263835,85.6661328 Z M75.213835,85.6661328 L73.188835,85.6661328 L73.188835,85.2606641 L75.213835,85.2606641 L75.213835,85.6661328 Z M71.163835,85.6661328 L69.138835,85.6661328 L69.138835,85.2606641 L71.163835,85.2606641 L71.163835,85.6661328 Z M67.097635,85.6596453 C66.31315,85.5951758 65.662315,85.0372508 65.477635,84.2713203 L65.871295,84.1764406 C66.01507,84.7720742 66.52132,85.2055203 67.130845,85.2557984 L67.097635,85.6596453 Z M104.711605,83.6870398 L104.306605,83.6870398 L104.306605,81.6596961 L104.711605,81.6596961 L104.711605,83.6870398 Z M65.831605,82.2001859 L65.426605,82.2001859 L65.426605,80.1728422 L65.831605,80.1728422 L65.831605,82.2001859 Z M104.711605,79.6323523 L104.306605,79.6323523 L104.306605,77.6050086 L104.711605,77.6050086 L104.711605,79.6323523 Z M65.831605,78.1454984 L65.426605,78.1454984 L65.426605,76.1181547 L65.831605,76.1181547 L65.831605,78.1454984 Z M104.711605,75.5776648 L104.306605,75.5776648 L104.306605,73.5503211 L104.711605,73.5503211 L104.711605,75.5776648 Z M65.831605,74.0908109 L65.426605,74.0908109 L65.426605,72.0634672 L65.831605,72.0634672 L65.831605,74.0908109 Z M104.711605,71.5229773 L104.306605,71.5229773 L104.306605,71.2334727 C104.306605,70.7144727 104.023915,70.2368305 103.568695,69.9874672 L103.76269,69.6318711 C104.34832,69.9521914 104.711605,70.5660711 104.711605,71.2334727 L104.711605,71.5229773 Z M66.200155,70.2789992 L65.90086,70.0057133 C66.245515,69.6266 66.73678,69.4088633 67.249105,69.4084578 L69.274105,69.4084578 L69.274105,69.8139266 L67.249105,69.8139266 C66.850585,69.8147375 66.468265,69.9842234 66.200155,70.2789992 Z M101.674105,69.814332 L99.649105,69.814332 L99.649105,69.4088633 L101.674105,69.4088633 L101.674105,69.814332 Z M97.624105,69.814332 L95.599105,69.814332 L95.599105,69.4088633 L97.624105,69.4088633 L97.624105,69.814332 Z M93.574105,69.814332 L91.549105,69.814332 L91.549105,69.4088633 L93.574105,69.4088633 L93.574105,69.814332 Z M89.524105,69.814332 L87.499105,69.814332 L87.499105,69.4088633 L89.524105,69.4088633 L89.524105,69.814332 Z M85.474105,69.814332 L83.449105,69.814332 L83.449105,69.4088633 L85.474105,69.4088633 L85.474105,69.814332 Z M81.424105,69.814332 L79.399105,69.814332 L79.399105,69.4088633 L81.424105,69.4088633 L81.424105,69.814332 Z M77.374105,69.814332 L75.349105,69.814332 L75.349105,69.4088633 L77.374105,69.4088633 L77.374105,69.814332 Z M73.324105,69.814332 L71.299105,69.814332 L71.299105,69.4088633 L73.324105,69.4088633 L73.324105,69.814332 Z" id="Shape" fill="#7990DD" fill-rule="nonzero"></path>
                                <g id="编组-8" transform="translate(46.629105, 38.977344)">
                                    <path d="M1.62,1.18611016 L37.26,1.18611016 C38.154645,1.18611016 38.88,1.91230469 38.88,2.80798516 L38.88,15.4160359 C38.88,16.3117164 38.154645,17.0379109 37.26,17.0379109 L1.62,17.0379109 C0.725355,17.0379109 5.32907052e-14,16.3117164 5.32907052e-14,15.4160359 L5.32907052e-14,2.80798516 C5.32907052e-14,1.91230469 0.72495,1.18611016 1.62,1.18611016 Z" id="Path" fill="#DAE7FF" fill-rule="nonzero"></path>
                                    <text id="if" font-family="Baloo-Regular, Baloo" font-size="12" font-weight="600" fill="#7990DD">
                                        <tspan x="2.780895" y="13">if</tspan>
                                    </text>
                                    <path d="M26.1225,11.7282977 L35.4375,11.7282977 C35.548875,11.7282977 35.64,11.6370672 35.64,11.5255633 L35.64,10.309157 C35.64,10.1976531 35.548875,10.1064227 35.4375,10.1064227 L26.1225,10.1064227 C26.011125,10.1064227 25.92,10.1976531 25.92,10.309157 L25.92,11.5255633 C25.92,11.6370672 26.011125,11.7282977 26.1225,11.7282977 Z" id="Path" fill="#FFFFFF" fill-rule="nonzero"></path>
                                    <path d="M30.9825,8.48454766 L35.4375,8.48454766 C35.548875,8.48454766 35.64,8.39331719 35.64,8.28181328 L35.64,7.06540703 C35.64,6.95390312 35.548875,6.86267266 35.4375,6.86267266 L30.9825,6.86267266 C30.871125,6.86267266 30.78,6.95390312 30.78,7.06540703 L30.78,8.28181328 C30.78,8.39331719 30.871125,8.48454766 30.9825,8.48454766 Z" id="Path" fill="#FFFFFF" fill-rule="nonzero"></path>
                                </g>
                            </g>
                            <g id="woman_9_" transform="translate(16.050000, 87.138021)" fill-rule="nonzero">
                                <path d="M45.1062,15.688487 L44.92395,14.6968906 C44.8614,14.3576484 44.93475,14.0143516 45.1305,13.7305234 C45.3258,13.4466953 45.6201,13.256125 45.9585,13.1939531 L51.6789,12.1410859 C52.13385,12.0572891 52.43625,11.6189323 52.35255,11.1630052 L51.921,8.8121875 C51.8805,8.59143229 51.7563,8.39951042 51.5718,8.27246354 C51.3873,8.14451563 51.16365,8.09540885 50.94405,8.13775781 L48.8052,8.53151302 L48.72375,8.08820052 L50.8626,7.69444531 C51.2019,7.633625 51.5439,7.70525781 51.8274,7.9016849 C52.1109,8.09766146 52.30125,8.39185156 52.36335,8.73064323 L52.7949,11.0819115 C52.92315,11.7820208 52.45875,12.456 51.7599,12.584849 L46.0395,13.6377161 C45.819,13.6778125 45.62775,13.8017057 45.5004,13.9864193 C45.37305,14.1711328 45.32535,14.3945911 45.36585,14.6153464 L45.5481,15.6069427 L45.1062,15.688487 Z" id="Path" fill="#DAE7FF"></path>
                                <path d="M49.4712,10.4011745 L39.591,12.2194766 C38.99205,12.3298542 38.4174,11.9329453 38.3076,11.3337526 L37.917,9.20729427 C37.80675,8.60765104 38.2032,8.03233594 38.8017,7.92240885 L48.6819,6.10410677 C49.28085,5.99372917 49.8555,6.39063802 49.9653,6.98983073 L50.3559,9.11628906 C50.46615,9.71548177 50.07015,10.2907969 49.4712,10.4011745 Z" id="Path" fill="#F3F9FF"></path>
                                <path d="M44.86455,20.0522318 L44.0514,15.623612 C43.94115,15.0239687 44.3376,14.4486536 44.9361,14.3387266 L45.2277,14.2851146 C45.82665,14.174737 46.4013,14.5716458 46.5111,15.1708385 L47.32425,19.5994583 C47.4345,20.1991016 47.03805,20.7744167 46.43955,20.8843438 L46.14795,20.9379557 C45.54945,21.0483333 44.9748,20.651875 44.86455,20.0522318 Z" id="Path" fill="#224380"></path>
                                <polygon id="Path" fill="#F1B282" points="15.45525 72.2027214 15.88365 74.3296302 13.1013 74.7220339 12.2589 72.7154141"></polygon>
                                <path d="M15.9444,74.0750859 C15.9444,74.0750859 13.30515,74.7666354 12.43845,74.8508828 C11.57175,74.9351302 10.10205,76.7957813 9.2133,77.0787083 C8.1351,77.4220052 8.262,78.6636406 9.07875,78.8834948 C10.2321,79.1939036 16.93935,79.0848776 16.95645,76.8097474 C16.97445,74.3999115 15.9444,74.0750859 15.9444,74.0750859 Z" id="Path" fill="#03193F"></path>
                                <polygon id="Path" fill="#FFB0B6" points="20.08395 71.5048646 18.90585 73.351099 21.46725 74.6841901 23.004 73.0943021"></polygon>
                                <path d="M8.30655,53.1479427 C7.443,54.2044141 9.77265,72.8595807 11.178,73.7691823 C12.58335,74.6787839 16.12665,72.7212708 16.12665,72.7212708 C16.12665,72.7212708 18.387,55.4721797 17.3484,53.1479427 C16.31025,50.8237057 9.1701,52.0914714 8.30655,53.1479427 Z" id="Path" fill="#020687"></path>
                                <path d="M38.24415,54.1877448 C37.20555,48.3769271 24.9129,43.6059115 21.46725,43.422099 C18.02115,43.238737 5.6277,47.3826276 4.7709,48.1777969 C3.9141,48.9729661 3.5415,55.0437344 11.11725,54.8603724 C18.69345,54.6770104 22.23675,53.5759375 22.23675,53.5759375 C22.23675,53.5759375 26.74125,55.4037005 29.54475,56.5610885 C26.9082,59.4917266 19.6209,67.944849 19.67085,71.8035599 C19.9152,72.9046328 22.78665,74.066526 23.5809,73.6998021 C24.37515,73.3330781 39.28275,59.9985625 38.24415,54.1877448 Z" id="Path" fill="#374ABE"></path>
                                <path d="M18.8766,15.5605391 C18.8766,15.5605391 17.7156,19.8422891 16.98255,20.8208203 C16.2495,21.7993516 21.9924,23.267599 22.6035,22.6557917 C23.2146,22.0439844 23.33655,17.884776 23.33655,17.884776 C23.33655,17.884776 26.3916,18.6146198 27.18585,17.959112 C27.9801,17.3036042 28.22445,16.1110755 28.28565,15.743901 C28.34685,15.3767266 29.44665,14.9793672 29.44665,14.4288307 C29.44665,13.8782943 28.89675,10.0804036 27.82755,9.1991849 C27.2331,8.70946875 20.34315,6.56904427 19.6713,10.4836198 C18.99945,14.3981953 18.8766,15.5605391 18.8766,15.5605391 Z" id="Path" fill="#FFB0B6"></path>
                                <path d="M19.54845,16.661612 C21.4425,16.661612 24.5583,16.1110755 24.5583,14.2148333 C24.5583,12.3185911 22.11435,9.56590885 24.5583,9.8718125 C27.00225,10.1777161 28.8954,10.1804193 28.8963,7.60884635 C28.89765,4.06099479 19.602,0.186515625 16.2495,8.27606771 C13.9275,13.8787448 17.11935,16.661612 19.54845,16.661612 Z" id="Path" fill="#510000"></path>
                                <path d="M40.15485,21.7371797 C40.15485,21.7371797 42.5745,19.3566276 42.858,19.0137813 C44.13825,17.4657917 45.23535,14.931612 46.83825,15.7200234 C47.457,16.024125 48.4749,17.127901 48.52575,18.3668333 C48.54735,18.9007005 48.3741,20.0414193 46.782,20.2923594 C45.44955,20.5023021 41.8797,24.1997266 41.8797,24.1997266 L40.15485,21.7371797 Z" id="Path" fill="#FFB0B6"></path>
                                <path d="M3.84525,49.1108255 C4.473,51.7468229 11.7891,48.6215599 14.72175,48.1931146 C17.6544,47.7651198 23.70285,47.9484818 23.4585,44.9511667 C23.21415,41.9538516 22.6197,32.4766953 27.7299,32.7078125 C30.05145,32.707362 30.4812,34.3080625 32.5008,34.3080625 C36.3501,34.3080625 44.0478,24.9318229 43.61805,22.1795911 C43.3125,20.2220781 41.04405,19.9071641 39.708,21.1397891 C39.1662,21.6398672 31.1202,25.6796875 30.9249,26.7825625 L32.7393,26.9988125 C31.92075,25.031388 26.2998,19.2611172 18.7947,19.2611172 C9.8955,19.2611172 0.1197,28.0079792 0.1197,34.0634297 C0.1197,41.8723073 8.30655,36.2043047 8.30655,36.2043047 L5.3685,35.5924974 C5.3685,35.5929479 2.62215,43.9730859 3.84525,49.1108255 Z" id="Path" fill="#FFC23F"></path>
                                <path d="M17.1963,4.42816927 C17.1963,4.42816927 17.3124,0.0851484375 11.11725,0.0851484375 C-1.4688,0.0851484375 3.5415,11.8293255 3.3579,17.9460469 C3.1743,24.0627682 0.2421,23.6347734 0.1197,25.7756484 C-0.0027,27.9165234 12.03345,26.2036432 12.8889,17.8852266 C13.74435,9.5668099 14.355,5.73467969 16.1271,6.44695313 C17.8992,7.15922656 17.1963,4.42816927 17.1963,4.42816927 Z" id="Path" fill="#510000"></path>
                                <path d="M18.84915,3.33700781 C20.06145,3.91457552 17.25705,8.96401302 15.55695,8.30490104 C13.8573,7.64488802 17.2683,2.58373698 18.84915,3.33700781 Z" id="Path" fill="#FFC23F"></path>
                                <rect id="Rectangle" fill="#86A0D1" x="12.8709" y="55.8699896" width="2.57085" height="22.7332813"></rect>
                                <path d="M4.6926,37.9933229 C4.6926,37.9933229 6.77925,30.0880339 9.8037,28.0697005 C9.8037,28.0697005 6.0462,37.9933229 3.5892,47.4596667 C3.5892,47.4592161 3.43035,41.7957187 4.6926,37.9933229 Z" id="Path" fill="#F0B701"></path>
                                <path d="M23.0229,56.3831328 L5.68485,56.3831328 C5.36085,56.3831328 5.0976,56.1200286 5.0976,55.7952031 L5.0976,53.7592995 C5.0976,53.4349245 5.3604,53.1713698 5.68485,53.1713698 L23.0229,53.1713698 C23.3469,53.1713698 23.61015,53.434474 23.61015,53.7592995 L23.61015,55.7952031 C23.6097,56.1200286 23.3469,56.3831328 23.0229,56.3831328 Z" id="Path" fill="#AEC1E8"></path>
                                <path d="M29.4462,56.6710156 L31.18725,57.2463307 C31.18725,57.2463307 26.919,61.3541797 24.27255,62.9242448 C24.27255,62.9242448 28.1619,57.2098385 29.4462,56.6710156 Z" id="Path" fill="#0B224E"></path>
                                <path d="M18.89685,72.8465156 C18.89685,72.8465156 21.7656,74.650401 22.77135,75.0887578 C23.7771,75.5266641 24.7176,78.1279714 25.6617,78.7897865 C26.80695,79.5926146 26.1018,80.8851589 25.02045,80.7964063 C23.4945,80.6711615 15.47055,77.8693724 16.46235,75.4005182 C17.51265,72.7861458 18.89685,72.8465156 18.89685,72.8465156 Z" id="Path" fill="#03193F"></path>
                            </g>
                            <g id="man_4_" transform="translate(166.850000, 74.765625)" fill-rule="nonzero">
                                <path d="M16.48035,33.4079219 C16.48035,33.4079219 16.66575,38.3577943 16.54875,41.3974583 C16.4124,44.9426068 15.084,46.0121432 15.11955,49.8163411 C15.11955,49.8163411 28.42875,51.7481745 33.6105,50.3979635 C34.3161,50.214151 34.5303,40.0810365 34.5303,40.0810365 L34.1577,33.4079219 L37.59255,33.4079219 L38.0727,33.4079219 C38.2626,33.4079219 38.4444,33.3304323 38.57625,33.193474 C38.7081,33.0565156 38.77875,32.8713516 38.77155,32.6812318 C38.71215,31.1242318 38.4093,27.3195833 36.8901,23.7856979 C34.45425,18.1176953 29.71215,17.2337734 25.5654,17.1229453 C12.2679,16.7683854 11.133,33.4074714 11.133,33.4074714 L16.48035,33.4074714 L16.48035,33.4079219 Z" id="Path" fill="#5A5D88"></path>
                                <path d="M17.1036,36.6485182 C17.1036,36.6485182 17.19495,29.183388 17.68815,28.0944792 L19.1808,38.9925781 L17.1036,36.6485182 Z" id="Path" fill="#3C3F5D"></path>
                                <path d="M32.8158,33.4079219 C32.8158,33.4079219 32.10435,30.6953359 31.9878,29.7834818 C31.9878,29.7834818 30.99735,32.8961302 30.99735,36.1624063 C30.99735,39.4286823 33.3747,38.2703932 33.3747,38.2703932 L32.8158,33.4079219 Z" id="Path" fill="#3C3F5D"></path>
                                <path d="M19.1808,33.5908333 C19.1808,33.5908333 14.1894,48.3985521 10.68615,46.6829688 C8.34255,45.5350417 11.59875,33.4074714 11.59875,33.4074714 L19.1808,33.5908333 Z" id="Path" fill="#F1B282"></path>
                                <polygon id="Path" fill="#FFB0B6" points="36.9819 85.0804089 39.1734 89.6694141 35.2737 91.5435807 32.4558 87.236151"></polygon>
                                <polygon id="Path" fill="#FFB0B6" points="9.87525 89.0810339 9.7497 92.9537109 14.3793 93.8331276 14.8212 89.0810339"></polygon>
                                <path d="M27.04995,57.6909948 L17.9874,72.9050833 L15.49035,88.8449609 C15.4188,89.3031406 15.02415,89.6405807 14.5611,89.6405807 L8.8749,89.6405807 C8.59455,89.6405807 8.32815,89.5184896 8.14545,89.3058437 C7.96275,89.0931979 7.8813,88.8116224 7.9227,88.5341016 C8.5203,84.4996875 10.58355,70.5776927 11.2815,66.0044557 C12.10095,60.6333464 12.4983,56.2218464 16.20045,49.2567943 L26.7192,50.7299974 L27.04995,57.6909948 Z" id="Path" fill="#0B224E"></path>
                                <path d="M20.2419,49.4811536 C20.2419,49.4811536 21.6306,63.4310807 22.63635,68.4665521 C23.5368,72.9744635 30.5838,85.07275 32.17725,88.0286172 C32.34285,88.3358724 32.70915,88.4741823 33.03585,88.3525417 L38.2797,86.3945781 C38.6946,86.239599 38.907,85.7787161 38.7549,85.3619844 L33.237,70.8164687 C33.237,70.8164687 32.74695,60.2549089 33.05745,56.344388 C33.3927,52.1203047 30.429,48.4179245 30.429,48.4179245 L20.2419,49.4811536 Z" id="Path" fill="#102B5E"></path>
                                <path d="M2.376,53.7421797 L40.8789,53.7421797 C42.12135,53.7421797 43.1289,52.7334635 43.1289,51.4895755 L43.1289,35.660526 C43.1289,34.416638 42.12135,33.4079219 40.8789,33.4079219 L2.376,33.4079219 C1.13355,33.4079219 0.126,34.416638 0.126,35.660526 L0.126,51.4895755 C0.126,52.7334635 1.13355,53.7421797 2.376,53.7421797 Z" id="Path" fill="#FFC23F"></path>
                                <g id="告警" transform="translate(6.150000, 38.226570)">
                                    <rect id="矩形" fill="#000000" opacity="0" x="0" y="0.00780487805" width="12" height="12"></rect>
                                    <path d="M8.79434738,3.25780488 C8.94425103,3.25780488 9.09415468,3.20780487 9.19409046,3.05780487 L9.99357657,2.10780488 C10.1934481,1.90780488 10.1434802,1.55780488 9.9436087,1.40780487 C9.74373716,1.20780487 9.39396199,1.25780487 9.24405833,1.45780488 L8.44457221,2.40780488 C8.24470068,2.60780488 8.29466856,2.95780488 8.49454009,3.10780488 C8.54450797,3.20780487 8.64444374,3.25780488 8.79434738,3.25780488 L8.79434738,3.25780488 Z M9.74373716,5.40780488 C9.79370505,5.65780488 9.99357657,5.80780488 10.243416,5.80780488 L10.3433518,5.80780488 L11.5925488,5.60780487 C11.8423882,5.55780487 12.0422598,5.30780487 11.9922919,5.00780487 C11.942324,4.75780488 11.6924846,4.55780487 11.3926773,4.60780488 L10.1434802,4.80780488 C9.89364081,4.85780489 9.74373716,5.10780488 9.74373716,5.40780488 L9.74373716,5.40780488 Z M5.99614595,2.25780488 C6.29595324,2.25780488 6.49582478,2.05780488 6.49582478,1.75780488 L6.49582478,0.507804878 C6.49582478,0.20780487 6.29595324,0.00780487805 5.99614595,0.00780487805 C5.69633865,0.00780487805 5.49646711,0.207804882 5.49646711,0.507804878 L5.49646711,1.75780488 C5.49646711,2.05780488 5.69633865,2.25780488 5.99614595,2.25780488 L5.99614595,2.25780488 Z M11.4926131,10.0078049 L9.24405833,10.0078049 L9.24405833,6.25780488 C9.24405833,4.45780488 7.79498973,3.00780488 5.99614595,3.00780488 C4.19730216,3.00780488 2.74823356,4.45780488 2.74823356,6.25780488 L2.74823356,10.0078049 L0.499678833,10.0078049 C0.199871535,10.0078049 0,10.2078049 0,10.5078049 C0,10.8078049 0.199871535,11.0078049 0.499678833,11.0078049 L11.4926131,11.0078049 C11.7924204,11.0078049 11.9922919,10.8078049 11.9922919,10.5078049 C11.9922919,10.2078049 11.7924204,10.0078049 11.4926131,10.0078049 Z M7.44521455,7.25780488 L6.59576054,8.75780488 C6.49582478,8.90780488 6.34592113,9.00780488 6.1460496,9.00780488 C6.04611383,9.00780488 5.99614595,9.00780488 5.89621018,8.95780488 C5.64637077,8.80780488 5.546435,8.50780488 5.69633865,8.25780488 L6.09608171,7.50780488 L4.99678829,7.50780488 C4.79691676,7.50780488 4.64701311,7.40780489 4.54707735,7.25780488 C4.44714158,7.10780488 4.44714158,6.90780487 4.54707735,6.75780488 L5.39653135,5.25780488 C5.546435,5.00780489 5.8462423,4.90780488 6.09608171,5.05780488 C6.34592112,5.20780488 6.44585689,5.50780488 6.29595324,5.75780487 L5.8462423,6.50780487 L6.9955036,6.50780487 C7.19537514,6.50780487 7.34527878,6.60780487 7.44521455,6.75780488 C7.49518243,6.90780488 7.49518243,7.10780489 7.44521455,7.25780488 Z M0.449710946,5.60780487 L1.69890802,5.80780488 L1.79884378,5.80780488 C2.04868319,5.80780488 2.24855473,5.65780488 2.29852262,5.40780488 C2.3484905,5.15780489 2.14861897,4.85780489 1.89877955,4.80780488 L0.649582481,4.60780488 C0.399743071,4.55780487 0.0999357736,4.75780488 0.0499678868,5.00780487 C-1.80411242e-16,5.30780487 0.149903649,5.55780487 0.449710946,5.60780487 L0.449710946,5.60780487 Z M2.84816932,3.10780488 C2.94810509,3.20780487 3.09800874,3.30780488 3.24791238,3.30780488 C3.34784815,3.30780488 3.49775179,3.25780488 3.54771968,3.20780487 C3.74759122,3.00780487 3.79755909,2.70780487 3.59768757,2.50780488 L2.79820144,1.50780488 C2.5983299,1.30780488 2.29852261,1.25780488 2.09865108,1.45780488 C1.89877955,1.65780488 1.84881167,1.95780488 2.04868319,2.15780487 L2.84816932,3.10780488 L2.84816932,3.10780488 Z" id="形状" fill="#FFFFFF"></path>
                                </g>
                                <path d="M17.68005,32.6672656 C17.68005,32.6672656 17.8317,34.1702031 16.82325,34.5684635 C16.17885,34.8230078 12.7251,34.728849 10.9368,34.2576042 C9.1485,33.7863594 10.6758,29.5343438 13.8429,29.7951953 C17.01,30.0560469 17.68005,31.324263 17.68005,32.6672656 Z" id="Path" fill="#FFB0B6"></path>
                                <path d="M14.6277,91.3678776 C15.8247,91.3678776 16.0065,94.718401 16.0096626,95.3567891 C16.0146,96.4520052 14.55435,96.685375 13.88205,96.7497995 C13.20975,96.814224 10.6857,96.6673542 9.30375,97.334125 C7.9218,98.0008958 2.6721,97.0408359 2.63925,95.4090495 C2.6064,93.777263 5.36265,94.1714688 6.85305,93.3546745 C8.13645,92.651862 8.76555,90.4776484 9.67005,90.4776484 C10.5462,90.4776484 11.64195,92.717638 12.7629,92.717638 C13.88385,92.717638 14.07735,91.3678776 14.6277,91.3678776 Z" id="Path" fill="#0B224E"></path>
                                <path d="M38.1078,87.3848229 C39.17205,86.8360885 40.86585,89.7311354 41.1606,90.2974401 C41.66595,91.268763 40.4748,92.1454766 39.90645,92.510849 C39.3381,92.8762214 37.02735,93.9029583 36.1035,95.129276 C35.17965,96.3555937 30.07395,97.9085391 29.29815,96.4731797 C28.52235,95.0373698 31.15305,94.1246146 32.1048,92.7153854 C32.92425,91.5021328 32.4891,89.2806146 33.29325,88.8661354 C34.0722,88.4647214 36.07065,89.9536927 37.0674,89.4396484 C38.06415,88.9256042 37.6182,87.6371146 38.1078,87.3848229 Z" id="Path" fill="#0B224E"></path>
                                <g id="Group" transform="translate(18.000000, 4.054688)">
                                    <path d="M1.5606,1.60295312 C0.8298,3.03155469 1.37565,3.74878385 1.22805,4.34031771 C1.08045,4.93230208 0.378,6.15321354 0.4149,6.70780469 C0.4518,7.26239583 1.30185,7.28402083 1.57905,7.99494271 C1.85625,8.70586458 1.50435,9.67763802 2.2347,10.3939661 C2.96505,11.1102943 5.38785,10.7773594 5.34015,11.5171146 C5.29245,12.2568698 4.1103,15.0685703 4.1103,15.0685703 C4.1103,15.0685703 4.1958,16.9787786 7.60815,16.9787786 C11.0205,16.9787786 11.0205,14.7356354 11.0205,14.7356354 C11.0205,14.7356354 10.09665,10.8143021 10.3923,9.1496276 C10.68795,7.48495312 11.0286,1.41778906 8.8443,0.825804687 C6.66,0.234270833 2.33685,0.0860494792 1.5606,1.60295312 Z" id="Path" fill="#FFB0B6"></path>
                                    <path d="M5.3415,11.5189167 C5.3325,11.6653359 5.2794,11.8919479 5.19975,12.1582057 C6.11775,11.4567448 6.09525,10.1696068 6.09525,10.1696068 C4.4325,11.1107448 2.6766,10.6579714 2.6766,10.6579714 C2.6766,10.6579714 2.6766,10.6579714 2.6811,10.6624766 C3.6567,11.0350573 5.37705,10.8926927 5.3415,11.5189167 Z" id="Path" fill="#CD916A"></path>
                                </g>
                                <path d="M22.44285,0.0752369792 C22.44285,0.0752369792 18.1044,0.947445313 18.1044,3.1766224 C18.1044,4.97194792 18.6552,6.5717474 22.37265,6.5717474 C24.1623,6.5717474 23.19345,10.8584531 23.64615,10.8584531 C24.4377,10.8584531 25.3818,8.56079687 26.29665,8.56079687 C27.6048,8.56079687 26.59545,15.8313021 27.9486,15.8313021 C29.7792,15.8313021 33.11145,13.3277578 33.11145,8.42338802 C33.11145,1.83857552 27.50085,0.839770833 25.6077,0.737052083 C23.715,0.634333333 22.44285,0.0752369792 22.44285,0.0752369792 Z" id="Path" fill="#0B224E"></path>
                                <path d="M29.02455,46.3108385 L39.37455,46.3108385 C39.4983,46.3108385 39.59955,46.2094714 39.59955,46.0855781 L39.59955,44.7340156 C39.59955,44.6101224 39.4983,44.5087552 39.37455,44.5087552 L29.02455,44.5087552 C28.9008,44.5087552 28.79955,44.6101224 28.79955,44.7340156 L28.79955,46.0855781 C28.79955,46.2094714 28.9008,46.3108385 29.02455,46.3108385 Z" id="Path" fill="#FFFFFF"></path>
                                <path d="M34.42455,42.7066719 L39.37455,42.7066719 C39.4983,42.7066719 39.59955,42.6053047 39.59955,42.4814115 L39.59955,41.129849 C39.59955,41.0059557 39.4983,40.9045885 39.37455,40.9045885 L34.42455,40.9045885 C34.3008,40.9045885 34.19955,41.0059557 34.19955,41.129849 L34.19955,42.4814115 C34.19955,42.6053047 34.3008,42.7066719 34.42455,42.7066719 Z" id="Path" fill="#FFFFFF"></path>
                                <path d="M29.7243,52.2410443 C29.78955,50.7025156 31.6827,49.2793203 32.3163,48.9540443 C32.58,47.6804219 33.60105,42.1444219 33.50565,40.4540677 C33.42735,39.0709688 33.24645,35.3983229 32.81625,33.4079219 L38.0142,33.4079219 C38.1483,35.2676719 38.2032,40.1387031 38.0259,41.1447161 C37.82205,42.3003021 36.1782,48.6598542 35.8884,49.6960521 C36.2196,50.7196354 36.7533,52.6253385 36.54225,53.7336198 C36.24435,55.3000807 32.59305,55.9528854 31.54995,56.0646146 C30.50685,56.1763438 29.65005,53.9940208 29.7243,52.2410443 Z" id="Path" fill="#FFB0B6"></path>
                            </g>
                        </g>
                    </g>
                </g>
            </g>
        </g>
    </g>
</svg>