<?xml version="1.0" encoding="UTF-8"?>
<svg width="292px" height="201px" viewBox="0 0 292 201" version="1.1" xmlns="http://www.w3.org/2000/svg" xmlns:xlink="http://www.w3.org/1999/xlink">
    <title>image/使用用户组</title>
    <g id="空页面" stroke="none" stroke-width="1" fill="none" fill-rule="evenodd">
        <g id="用户组无权限" transform="translate(-1067.000000, -413.000000)">
            <g id="编组" transform="translate(350.000000, 153.000000)">
                <g id="编组-2" transform="translate(0.000000, 185.000000)">
                    <g id="image/使用用户组" transform="translate(717.000000, 75.000000)">
                        <g id="编组" transform="translate(0.000000, 9.000000)" fill-rule="nonzero">
                            <g id="Background">
                                <path d="M227.475505,3.2103728 C262.84969,8.2915175 287.305702,-6.44759471 287.305702,24.8596719 C287.305702,56.1669385 258.590203,55.2501657 258.590203,60.6936833 C258.590203,85.4558678 295.613902,70.87327 290.668955,103.966188 C285.724009,137.059106 268.556108,141.18219 222.536474,130.698482 C176.51684,120.214774 157.193449,161.169071 105.212345,148.667233 C53.2312411,136.165395 36.2218945,83.9835341 57.3583691,65.7946911 C69.1136251,55.6787891 0.42241256,42.815221 0.0878632927,29.3397667 C-0.246685975,15.8643123 0.320688863,1.38510108 41.316854,1.38510108 C82.313019,1.38510108 189.543405,-2.23819074 227.475505,3.2103728 Z" id="Background-base" fill="#F4F7FA" transform="translate(145.583990, 75.635186) scale(1, -1) translate(-145.583990, -75.635186) "></path>
                                <path d="M150.592051,177.035331 C93.4865157,176.579048 48.18,169.927498 48.18,161.78902 C48.18,153.354922 96.8376934,146.517735 156.86,146.517735 C216.882307,146.517735 265.54,153.354922 265.54,161.78902 C265.54,168.893388 231.015671,174.864693 184.255925,176.570985 C205.678095,177.451543 221.480541,180.505316 221.480541,184.137241 C221.480541,188.457145 199.124303,191.959119 171.546486,191.959119 C143.96867,191.959119 121.612432,188.457145 121.612432,184.137241 C121.612432,180.989572 133.481832,178.276159 150.592051,177.035331 L150.592051,177.035331 Z" id="Background-base" fill="#E3EDFA"></path>
                            </g>
                            <g id="Leaves" transform="translate(264.151975, 134.244107) scale(-1, 1) rotate(-357.000000) translate(-264.151975, -134.244107) translate(243.651975, 113.244107)" fill="#FF8D88">
                                <path d="M39.6384029,34.323533 C39.7195165,34.4139956 39.7119376,34.5530855 39.621475,34.6341991 C39.5310125,34.7153127 39.3919225,34.7077338 39.3108089,34.6172712 C33.0551062,27.6405472 27.3814921,23.5328109 22.3003899,22.2877368 C13.9694342,20.2463181 6.06566332,13.6235947 5.53680843,7.53269487 C5.52629825,7.41164765 5.61590623,7.30499932 5.73695345,7.29448914 C5.85800067,7.28397897 5.964649,7.37358695 5.97515918,7.49463417 C6.48466627,13.3627025 14.2375591,19.8590022 22.4051095,21.86038 C27.5880208,23.1304014 33.3289775,27.2868942 39.6384029,34.323533 Z" id="Leaves-base"></path>
                                <path d="M10.201248,15.1227208 C10.2146692,15.24348 10.1276545,15.3522546 10.0068954,15.3656757 C9.88613629,15.3790968 9.7773617,15.2920822 9.76394058,15.171323 C9.42775097,12.1463939 9.69646688,9.98207693 10.589221,8.67327382 C10.6576883,8.57289888 10.7945619,8.54703259 10.8949369,8.61549983 C10.9953118,8.68396708 11.0211781,8.82084072 10.9527108,8.92121566 C10.13246,10.1237269 9.87559481,12.1925946 10.201248,15.1227208 Z" id="Leaves-base"></path>
                                <path d="M10.1156183,12.9161321 L9.83576859,13.2428681 L9.73468787,12.8247115 C8.69455571,8.52183222 9.38509521,6.27534165 11.8781985,6.27534165 C13.1717213,6.27534165 13.6958486,6.93808544 13.3296549,8.12940121 C12.9966112,9.21287245 11.9264602,10.8019003 10.1156183,12.9161321 Z M12.909076,8.00012117 C13.1861055,7.09887755 12.8827883,6.71534165 11.8781985,6.71534165 C9.84954982,6.71534165 9.22326281,8.51910469 10.0638597,12.2972445 C11.6663198,10.3923417 12.6157356,8.95442788 12.909076,8.00012117 Z" id="Leaves-base"></path>
                                <path d="M6.43903443,5.6539406 C6.15532657,4.77433258 5.66664827,4.61594677 4.8129098,5.14147393 C3.10608319,6.19212793 3.61281227,7.98018952 6.50070651,10.623114 C6.76103327,8.24238522 6.7380084,6.58087967 6.43903443,5.6539406 Z M4.5822593,4.76677359 C5.67187309,4.09605104 6.48374701,4.35918798 6.85779132,5.51887518 C7.19917279,6.57729449 7.20675155,8.43094655 6.88929901,11.0980118 L6.8396626,11.5150302 L6.52508882,11.2368011 C3.17247652,8.27153683 2.4628464,6.07139916 4.5822593,4.76677359 Z" id="Leaves-base"></path>
                                <path d="M10.4746276,15.3583441 C10.5781632,15.4219309 10.610548,15.5574103 10.5469611,15.6609459 C10.4833743,15.7644814 10.3478948,15.7968662 10.2443593,15.7332794 C7.54510394,14.0755188 5.67903609,13.1229084 4.66797801,12.8804688 C4.5498247,12.852137 4.47700994,12.7333874 4.50534169,12.6152341 C4.53367344,12.4970808 4.65242305,12.424266 4.77057636,12.4525978 C5.8419229,12.7094939 7.73599924,13.6764024 10.4746276,15.3583441 Z" id="Leaves-base"></path>
                                <path d="M7.21552906,13.4861576 L7.43792349,13.8139086 L7.04215024,13.829514 C6.39233107,13.8551365 5.42351459,13.9964752 4.13993482,14.253835 C3.10878238,14.4605827 1.75840795,13.9974307 0.934370033,13.1786107 C-0.016756637,12.2335068 -0.0712209248,11.0433484 1.00882521,10.023231 C2.59290821,8.52704444 4.67455388,9.74142745 7.21552906,13.4861576 Z M1.31095111,10.3431059 C0.420517611,11.1841317 0.46192024,12.0888656 1.24450727,12.8664971 C1.96861364,13.5860184 3.17272512,13.999005 4.05343566,13.8224211 C5.12538824,13.6074929 5.98434598,13.4717465 6.63265842,13.4153512 C4.33292224,10.1226621 2.57063264,9.15332065 1.31095111,10.3431059 Z" id="Leaves-base"></path>
                                <path d="M12.0482815,16.8720551 C12.1674771,16.8956196 12.2450015,17.0113496 12.2214369,17.1305453 C12.1978724,17.2497409 12.0821424,17.3272653 11.9629467,17.3037007 C9.9661746,16.9089462 8.64420097,16.9089462 8.02424869,17.2770456 C7.91977427,17.3390777 7.78479402,17.3046715 7.72276187,17.200197 C7.66072972,17.0957226 7.69513598,16.9607424 7.7996104,16.8987102 C8.54307246,16.4572764 9.95022187,16.4572764 12.0482815,16.8720551 Z" id="Leaves-base"></path>
                                <path d="M5.8142871,16.3283331 C4.89450584,16.4598953 4.57878085,17.1916249 4.88401025,18.0765165 C5.17834804,18.9298323 5.87869252,19.4000474 6.48521288,19.0725423 C7.4932901,18.5282071 8.77713802,17.8591867 10.3369557,17.0653636 C8.74625278,16.3689014 7.23963162,16.124457 5.8142871,16.3283331 Z M10.9414758,17.2517553 C9.20046666,18.134897 7.78464677,18.8709304 6.69427054,19.4597049 C5.80027611,19.9424384 4.83973903,19.2975287 4.4680598,18.2199921 C4.08100084,17.097868 4.52526592,16.0682318 5.75198519,15.8927663 C7.39071244,15.6583687 9.12040632,15.9814816 10.9374798,16.8573768 L11.3381747,17.0505263 L10.9414758,17.2517553 Z" id="Leaves-base"></path>
                                <path d="M15.8028598,19.3077817 C15.9237416,19.3200494 16.0117906,19.4279884 15.9995229,19.5488701 C15.9872552,19.6697519 15.8793163,19.757801 15.7584345,19.7455333 C13.4473698,19.5109944 11.9440127,19.8359782 11.2375987,20.6859319 C11.1599367,20.7793744 11.021229,20.792167 10.9277865,20.714505 C10.834344,20.636843 10.8215514,20.4981354 10.8992134,20.4046929 C11.7225513,19.414057 13.3606884,19.0599375 15.8028598,19.3077817 Z" id="Leaves-base"></path>
                                <path d="M7.59247754,21.1616899 C7.33217703,21.3445017 7.31117199,21.497061 7.47788163,21.7054562 C7.66753178,21.9425282 8.07725788,22.1914088 8.59394953,22.3836966 C9.69149341,22.7921495 10.8215544,22.8031105 11.060979,22.4042566 C11.4811233,21.7043444 12.31704,20.8150702 13.5718097,19.7286442 C10.5151695,20.0302329 8.51563204,20.5133485 7.59247754,21.1616899 Z M14.3857979,19.6148466 C12.8675598,20.8797973 11.8835342,21.8888856 11.438229,22.6307128 C11.0449548,23.2858624 9.72212749,23.2730317 8.44048539,22.7960662 C7.85591405,22.5785169 7.38306835,22.2912955 7.13429408,21.9803154 C6.80967238,21.5745223 6.87075334,21.1308924 7.33959599,20.8016192 C8.41502632,20.0463329 10.7026159,19.5280585 14.2262218,19.226625 L14.9233318,19.1669893 L14.3857979,19.6148466 Z" id="Leaves-base"></path>
                                <path d="M17.6940729,20.0244835 C17.768699,20.1203679 17.7514657,20.2585941 17.6555813,20.3332202 C17.5596968,20.4078464 17.4214706,20.3906131 17.3468445,20.2947286 C15.4703584,17.8836985 14.6800886,16.2646876 15.0053316,15.3569964 C15.0463166,15.242615 15.1722661,15.1831154 15.2866475,15.2241005 C15.401029,15.2650855 15.4605286,15.391035 15.4195435,15.5054164 C15.168062,16.2072532 15.916473,17.7405088 17.6940729,20.0244835 Z" id="Leaves-base"></path>
                                <path d="M16.1996816,17.8796659 L16.0969062,18.156086 L15.8612275,17.9788111 C14.9512965,17.2943711 14.2629179,16.4502266 13.798478,15.4486152 C13.0264903,13.7837458 14.2824466,12.1494458 16.0585017,12.6989705 C17.329501,13.0922272 17.329501,14.8409554 16.1996816,17.8796659 Z M15.9284455,13.1193101 C14.5336682,12.6877556 13.5791946,13.9297545 14.1976523,15.263521 C14.5905626,16.1108717 15.1543697,16.8366242 15.8908485,17.4424426 C16.8321895,14.8110715 16.8023239,13.3896946 15.9284455,13.1193101 Z" id="Leaves-base"></path>
                                <path d="M37.1374917,22.082659 C37.2555031,22.1115765 37.3277279,22.2306858 37.2988103,22.3486971 C37.2698928,22.4667084 37.1507835,22.5389332 37.0327722,22.5100157 C28.7018165,20.468597 20.7980456,13.8458737 20.2691907,7.75497383 C20.2586805,7.63392661 20.3482885,7.52727827 20.4693357,7.5167681 C20.590383,7.50625793 20.6970313,7.59586591 20.7075415,7.71691312 C21.2170486,13.5849814 28.9699414,20.0812811 37.1374917,22.082659 Z" id="Leaves-base" transform="translate(28.786768, 15.016159) rotate(40.000000) translate(-28.786768, -15.016159) "></path>
                                <path d="M27.6239962,13.5967766 C27.6374173,13.7175357 27.5504027,13.8263103 27.4296436,13.8397314 C27.3088844,13.8531526 27.2001098,13.7661379 27.1866887,13.6453788 C26.8504991,10.6204497 27.119215,8.45613269 28.0119692,7.14732959 C28.0804364,7.04695465 28.21731,7.02108835 28.317685,7.0895556 C28.4180599,7.15802284 28.4439262,7.29489648 28.375459,7.39527142 C27.5552081,8.59778262 27.2983429,10.6666504 27.6239962,13.5967766 Z" id="Leaves-base" transform="translate(27.730349, 10.446188) rotate(40.000000) translate(-27.730349, -10.446188) "></path>
                                <path d="M28.7156559,12.5816668 L28.4358062,12.9084028 L28.3347255,12.4902462 C27.2945933,8.18736695 27.9851328,5.94087638 30.4782361,5.94087638 C31.7717589,5.94087638 32.2958862,6.60362017 31.9296925,7.79493594 C31.5966488,8.87840718 30.5264978,10.467435 28.7156559,12.5816668 Z M31.5091136,7.6656559 C31.7861431,6.76441228 31.4828258,6.38087638 30.4782361,6.38087638 C28.4495874,6.38087638 27.8233004,8.18463942 28.6638973,11.9627792 C30.2663574,10.0578764 31.2157731,8.61996261 31.5091136,7.6656559 Z" id="Leaves-base" transform="translate(29.955775, 9.424640) rotate(40.000000) translate(-29.955775, -9.424640) "></path>
                                <path d="M27.6241173,1.81657233 C27.3404095,0.936964309 26.8517312,0.778578493 25.9979927,1.30410566 C24.2911661,2.35475966 24.7978952,4.14282124 27.6857894,6.78574577 C27.9461162,4.40501694 27.9230913,2.74351139 27.6241173,1.81657233 Z M25.7673422,0.929405315 C26.856956,0.258682763 27.6688299,0.521819703 28.0428742,1.68150691 C28.3842557,2.73992622 28.3918345,4.59357828 28.0743819,7.26064354 L28.0247455,7.67766193 L27.7101717,7.39943281 C24.3575594,4.43416856 23.6479293,2.23403089 25.7673422,0.929405315 Z" id="Leaves-base" transform="translate(26.436224, 4.122011) rotate(40.000000) translate(-26.436224, -4.122011) "></path>
                                <path d="M27.1732891,11.5537506 C27.2768247,11.6173374 27.3092095,11.7528169 27.2456226,11.8563524 C27.1820358,11.9598879 27.0465564,11.9922728 26.9430208,11.9286859 C24.2437655,10.2709254 22.3776976,9.31831493 21.3666395,9.0758753 C21.2484862,9.04754354 21.1756715,8.92879394 21.2040032,8.81064063 C21.232335,8.69248732 21.3510846,8.61967256 21.4692379,8.64800431 C22.5405844,8.9049004 24.4346608,9.87180892 27.1732891,11.5537506 Z" id="Leaves-base" transform="translate(24.238037, 10.301569) rotate(40.000000) translate(-24.238037, -10.301569) "></path>
                                <path d="M26.2327465,7.82080904 L26.455141,8.14856003 L26.0593677,8.16416547 C25.4095486,8.18978801 24.4407321,8.33112664 23.1571523,8.58848643 C22.1259999,8.79523415 20.7756254,8.33208217 19.9515875,7.51326221 C19.0004609,6.56815824 18.9459966,5.37799983 20.0260427,4.35788249 C21.6101257,2.86169591 23.6917714,4.07607892 26.2327465,7.82080904 Z M20.3281686,4.67775737 C19.4377351,5.51878316 19.4791377,6.42351707 20.2617248,7.20114862 C20.9858311,7.92066982 22.1899426,8.33365647 23.0706531,8.1570726 C24.1426057,7.94214439 25.0015635,7.80639798 25.6498759,7.75000266 C23.3501397,4.45731362 21.5878501,3.48797212 20.3281686,4.67775737 Z" id="Leaves-base" transform="translate(22.841124, 6.186102) rotate(40.000000) translate(-22.841124, -6.186102) "></path>
                                <path d="M26.3618801,13.9605489 C26.4810758,13.9841134 26.5586001,14.0998434 26.5350355,14.2190391 C26.511471,14.3382347 26.395741,14.4157591 26.2765453,14.3921945 C24.2797732,13.99744 22.9577996,13.99744 22.3378473,14.3655394 C22.2333729,14.4275715 22.0983926,14.3931653 22.0363605,14.2886908 C21.9743283,14.1842164 22.0087346,14.0492362 22.113209,13.987204 C22.8566711,13.5457701 24.2638205,13.5457701 26.3618801,13.9605489 Z" id="Leaves-base" transform="translate(24.272374, 14.024566) rotate(40.000000) translate(-24.272374, -14.024566) "></path>
                                <path d="M20.1204491,11.8683027 C19.2006678,11.9998648 18.8849428,12.7315944 19.1901722,13.6164861 C19.48451,14.4698018 20.1848545,14.9400169 20.7913749,14.6125118 C21.7994521,14.0681766 23.0833,13.3991563 24.6431176,12.6053332 C23.0524148,11.9088709 21.5457936,11.6644265 20.1204491,11.8683027 Z M25.2476378,12.7917248 C23.5066286,13.6748665 22.0908087,14.4108999 21.0004325,14.9996744 C20.1064381,15.482408 19.145901,14.8374982 18.7742218,13.7599616 C18.3871628,12.6378375 18.8314279,11.6082013 20.0581472,11.4327358 C21.6968744,11.1983382 23.4265683,11.5214511 25.2436418,12.3973464 L25.6443367,12.5904958 L25.2476378,12.7917248 Z" id="Leaves-base" transform="translate(22.141388, 13.260520) rotate(40.000000) translate(-22.141388, -13.260520) "></path>
                                <path d="M27.3371781,17.9075647 C27.4580599,17.9198324 27.546109,18.0277713 27.5338413,18.1486531 C27.5215736,18.2695348 27.4136346,18.3575839 27.2927529,18.3453162 C24.9816881,18.1107773 23.4783311,18.4357611 22.771917,19.2857148 C22.694255,19.3791573 22.5555474,19.3919499 22.4621048,19.3142879 C22.3686623,19.2366259 22.3558697,19.0979183 22.4335317,19.0044758 C23.2568697,18.0138399 24.8950067,17.6597204 27.3371781,17.9075647 Z" id="Leaves-base" transform="translate(24.958851, 18.598216) rotate(40.000000) translate(-24.958851, -18.598216) "></path>
                                <path d="M18.968652,17.8859787 C18.7083515,18.0687906 18.6873465,18.2213498 18.8540561,18.429745 C19.0437063,18.6668171 19.4534324,18.9156976 19.970124,19.1079854 C21.0676679,19.5164384 22.1977289,19.5273994 22.4371535,19.1285454 C22.8572978,18.4286333 23.6932145,17.539359 24.9479842,16.452933 C21.891344,16.7545217 19.8918065,17.2376374 18.968652,17.8859787 Z M25.7619724,16.3391354 C24.2437343,17.6040861 23.2597087,18.6131745 22.8144035,19.3550017 C22.4211293,20.0101513 21.098302,19.9973206 19.8166599,19.5203551 C19.2320886,19.3028058 18.7592429,19.0155843 18.5104686,18.7046043 C18.1858469,18.2988112 18.2469278,17.8551812 18.7157705,17.525908 C19.7912008,16.7706217 22.0787904,16.2523474 25.6023963,15.9509138 L26.2995063,15.8912782 L25.7619724,16.3391354 Z" id="Leaves-base" transform="translate(22.303340, 17.877717) rotate(40.000000) translate(-22.303340, -17.877717) "></path>
                                <path d="M29.9630287,21.0119696 C30.0376548,21.107854 30.0204215,21.2460802 29.924537,21.3207064 C29.8286526,21.3953325 29.6904264,21.3780992 29.6158003,21.2822147 C27.7393141,18.8711846 26.9490444,17.2521738 27.2742874,16.3444826 C27.3152724,16.2301011 27.4412219,16.1706015 27.5556033,16.2115866 C27.6699848,16.2525716 27.7294843,16.3785211 27.6884993,16.4929025 C27.4370178,17.1947393 28.1854288,18.7279949 29.9630287,21.0119696 Z" id="Leaves-base" transform="translate(28.606250, 18.782867) rotate(40.000000) translate(-28.606250, -18.782867) "></path>
                                <path d="M30.2686039,18.7659458 L30.1658285,19.0423659 L29.9301498,18.8650909 C29.0202188,18.1806509 28.3318402,17.3365065 27.8674003,16.3348951 C27.0954126,14.6700257 28.3513689,13.0357257 30.127424,13.5852504 C31.3984233,13.978507 31.3984233,15.7272353 30.2686039,18.7659458 Z M29.9973678,14.00559 C28.6025905,13.5740355 27.6481169,14.8160343 28.2665746,16.1498009 C28.6594849,16.9971515 29.223292,17.7229041 29.9597708,18.3287224 C30.9011118,15.6973513 30.8712462,14.2759745 29.9973678,14.00559 Z" id="Leaves-base" transform="translate(29.367202, 16.259581) rotate(40.000000) translate(-29.367202, -16.259581) "></path>
                                <path d="M29.8605103,37.2979573 C29.9785217,37.3268748 30.0507465,37.4459841 30.0218289,37.5639955 C29.9929114,37.6820068 29.8738021,37.7542316 29.7557908,37.7253141 C21.4248351,35.6838954 13.5210642,29.061172 12.9922093,22.9702722 C12.9816991,22.8492249 13.0713071,22.7425766 13.1923543,22.7320664 C13.3134016,22.7215562 13.4200499,22.8111642 13.4305601,22.9322114 C13.9400672,28.8002798 21.69296,35.2965795 29.8605103,37.2979573 Z" id="Leaves-base" transform="translate(21.509787, 30.231458) scale(-1, -1) rotate(126.000000) translate(-21.509787, -30.231458) "></path>
                                <path d="M16.9182867,34.7546769 C16.9317078,34.875436 16.8446932,34.9842106 16.7239341,34.9976317 C16.603175,35.0110529 16.4944004,34.9240382 16.4809792,34.8032791 C16.1447896,31.77835 16.4135055,29.614033 17.3062597,28.3052299 C17.3747269,28.2048549 17.5116006,28.1789886 17.6119755,28.2474559 C17.7123505,28.3159231 17.7382167,28.4527968 17.6697495,28.5531717 C16.8494986,29.7556829 16.5926335,31.8245507 16.9182867,34.7546769 Z" id="Leaves-base" transform="translate(17.024640, 31.604088) scale(-1, -1) rotate(126.000000) translate(-17.024640, -31.604088) "></path>
                                <path d="M14.6102229,32.6123709 L14.3303732,32.9391068 L14.2292925,32.5209502 C13.1891603,28.218071 13.8796998,25.9715804 16.3728032,25.9715804 C17.6663259,25.9715804 18.1904532,26.6343242 17.8242596,27.82564 C17.4912158,28.9091112 16.4210648,30.4981391 14.6102229,32.6123709 Z M17.4036806,27.6963599 C17.6807102,26.7951163 17.3773929,26.4115804 16.3728032,26.4115804 C14.3441544,26.4115804 13.7178674,28.2153435 14.5584643,31.9934832 C16.1609244,30.0885804 17.1103402,28.6506666 17.4036806,27.6963599 Z" id="Leaves-base" transform="translate(15.850342, 29.455344) scale(-1, -1) rotate(126.000000) translate(-15.850342, -29.455344) "></path>
                                <path d="M11.9940352,31.0307747 C11.7103274,30.1511667 11.2216491,29.9927808 10.3679106,30.518308 C8.66108398,31.568962 9.16781306,33.3570236 12.0557073,35.9999481 C12.3160341,33.6192193 12.2930092,31.9577137 11.9940352,31.0307747 Z M10.1372601,30.1436077 C11.2268739,29.4728851 12.0387478,29.7360221 12.4127921,30.8957093 C12.7541736,31.9541286 12.7617523,33.8077806 12.4442998,36.4748459 L12.3946634,36.8918643 L12.0800896,36.6136352 C8.72747731,33.6483709 8.01784719,31.4482332 10.1372601,30.1436077 Z" id="Leaves-base" transform="translate(10.806142, 33.336214) scale(-1, -1) rotate(126.000000) translate(-10.806142, -33.336214) "></path>
                                <path d="M20.0592365,36.3501626 C20.162772,36.4137495 20.1951568,36.5492289 20.13157,36.6527644 C20.0679831,36.7563 19.9325037,36.7886848 19.8289682,36.7250979 C17.1297128,35.0673374 15.2636449,34.114727 14.2525869,33.8722873 C14.1344336,33.8439556 14.0616188,33.725206 14.0899505,33.6070527 C14.1182823,33.4888993 14.2370319,33.4160846 14.3551852,33.4444163 C15.4265318,33.7013124 17.3206081,34.6682209 20.0592365,36.3501626 Z" id="Leaves-base" transform="translate(17.123985, 35.097981) scale(-1, -1) rotate(126.000000) translate(-17.123985, -35.097981) "></path>
                                <path d="M16.5076084,38.4132797 L16.7300028,38.7410307 L16.3342295,38.7566361 C15.6844104,38.7822586 14.7155939,38.9235973 13.4320141,39.1809571 C12.4008617,39.3877048 11.0504872,38.9245528 10.2264493,38.1057328 C9.27532267,37.1606289 9.22085838,35.9704705 10.3009045,34.9503531 C11.8849875,33.4541665 13.9666332,34.6685496 16.5076084,38.4132797 Z M10.6030304,35.270228 C9.71259691,36.1112538 9.75399954,37.0159877 10.5365866,37.7936192 C11.2606929,38.5131405 12.4648044,38.9261271 13.345515,38.7495432 C14.4174675,38.534615 15.2764253,38.3988686 15.9247377,38.3424733 C13.6250015,35.0497842 11.8627119,34.0804428 10.6030304,35.270228 Z" id="Leaves-base" transform="translate(13.115986, 36.778572) scale(-1, -1) rotate(126.000000) translate(-13.115986, -36.778572) "></path>
                                <path d="M22.9250229,34.7400075 C23.0442186,34.763572 23.1217429,34.879302 23.0981784,34.9984977 C23.0746138,35.1176933 22.9588838,35.1952177 22.8396882,35.1716531 C20.8429161,34.7768986 19.5209424,34.7768986 18.9009902,35.144998 C18.7965157,35.2070301 18.6615355,35.1726239 18.5995033,35.0681494 C18.5374712,34.963675 18.5718774,34.8286948 18.6763519,34.7666626 C19.4198139,34.3252287 20.8269633,34.3252287 22.9250229,34.7400075 Z" id="Leaves-base" transform="translate(20.835517, 34.804025) scale(-1, -1) rotate(126.000000) translate(-20.835517, -34.804025) "></path>
                                <path d="M18.2010431,35.5908996 C17.2812618,35.7224618 16.9655368,36.4541914 17.2707662,37.339083 C17.565104,38.1923988 18.2654485,38.6626139 18.8719689,38.3351088 C19.8800461,37.7907735 21.163894,37.1217532 22.7237116,36.3279301 C21.1330088,35.6314678 19.6263876,35.3870235 18.2010431,35.5908996 Z M23.3282318,36.5143217 C21.5872226,37.3974635 20.1714028,38.1334969 19.0810265,38.7222714 C18.1870321,39.2050049 17.226495,38.5600952 16.8548158,37.4825586 C16.4677568,36.3604345 16.9120219,35.3307983 18.1387412,35.1553328 C19.7774684,34.9209352 21.5071623,35.2440481 23.3242358,36.1199433 L23.7249307,36.3130928 L23.3282318,36.5143217 Z" id="Leaves-base" transform="translate(20.221982, 36.983117) scale(-1, -1) rotate(126.000000) translate(-20.221982, -36.983117) "></path>
                                <path d="M27.7284669,33.1095281 C27.8493486,33.1217958 27.9373977,33.2297348 27.92513,33.3506165 C27.9128623,33.4714983 27.8049234,33.5595473 27.6840416,33.5472796 C25.3729768,33.3127408 23.8696198,33.6377246 23.1632058,34.4876783 C23.0855437,34.5811208 22.9468361,34.5939134 22.8533936,34.5162514 C22.7599511,34.4385894 22.7471584,34.2998818 22.8248205,34.2064392 C23.6481584,33.2158034 25.2862955,32.8616839 27.7284669,33.1095281 Z" id="Leaves-base" transform="translate(25.350139, 33.800179) scale(-1, -1) rotate(126.000000) translate(-25.350139, -33.800179) "></path>
                                <path d="M21.4819469,36.5077424 C21.2216464,36.6905542 21.2006414,36.8431135 21.367351,37.0515087 C21.5570012,37.2885807 21.9667273,37.5374613 22.4834189,37.7297491 C23.5809628,38.1382021 24.7110238,38.149163 24.9504484,37.7503091 C25.3705928,37.050397 26.2065094,36.1611227 27.4612791,35.0746967 C24.4046389,35.3762854 22.4051014,35.8594011 21.4819469,36.5077424 Z M28.2752673,34.9608991 C26.7570292,36.2258498 25.7730036,37.2349381 25.3276984,37.9767653 C24.9344242,38.631915 23.6115969,38.6190842 22.3299548,38.1421188 C21.7453835,37.9245695 21.2725378,37.637348 21.0237635,37.3263679 C20.6991418,36.9205749 20.7602227,36.4769449 21.2290654,36.1476717 C22.3044957,35.3923854 24.5920853,34.874111 28.1156912,34.5726775 L28.8128013,34.5130419 L28.2752673,34.9608991 Z" id="Leaves-base" transform="translate(24.816635, 36.499481) scale(-1, -1) rotate(126.000000) translate(-24.816635, -36.499481) "></path>
                                <path d="M26.6366906,32.3778865 C26.7113167,32.473771 26.6940834,32.6119972 26.598199,32.6866233 C26.5023145,32.7612495 26.3640883,32.7440162 26.2894622,32.6481317 C24.4129761,30.2371016 23.6227063,28.6180907 23.9479493,27.7103995 C23.9889343,27.5960181 24.1148838,27.5365185 24.2292652,27.5775036 C24.3436467,27.6184886 24.4031463,27.744438 24.3621612,27.8588195 C24.1106797,28.5606563 24.8590907,30.0939119 26.6366906,32.3778865 Z" id="Leaves-base" transform="translate(25.279911, 30.148784) scale(-1, -1) rotate(126.000000) translate(-25.279911, -30.148784) "></path>
                                <path d="M23.6110919,32.0720664 L23.5083165,32.3484865 L23.2726378,32.1712116 C22.3627069,31.4867716 21.6743282,30.6426272 21.2098884,29.6410158 C20.4379007,27.9761464 21.6938569,26.3418463 23.4699121,26.8913711 C24.7409113,27.2846277 24.7409113,29.033356 23.6110919,32.0720664 Z M23.3398559,27.3117107 C21.9450785,26.8801561 20.9906049,28.122155 21.6090627,29.4559216 C22.0019729,30.3032722 22.5657801,31.0290248 23.3022588,31.6348431 C24.2435999,29.003472 24.2137342,27.5820951 23.3398559,27.3117107 Z" id="Leaves-base" transform="translate(22.709690, 29.565701) scale(-1, -1) rotate(126.000000) translate(-22.709690, -29.565701) "></path>
                            </g>
                            <g id="Leaves" transform="translate(22.380000, 55.000000)">
                                <g id="Group-28" transform="translate(41.140000, 8.800000)">
                                    <path d="M0.514822682,80.5823153 C-1.43342116,29.8227191 4.25275749,3.04612374 17.5733586,0.252529194 C30.8939598,-2.54106535 25.2077811,24.23553 0.514822682,80.5823153 Z" id="Leaf-base" fill="#FFFFFF"></path>
                                    <path d="M0.860082354,75.186199 C6.9372747,40.2731196 12.2535244,20.1729875 16.8088313,14.8858028" id="Leaf-base" stroke="#7990DD" stroke-width="0.55" stroke-linecap="round"></path>
                                </g>
                                <g id="Group-29" transform="translate(18.700000, 0.000000)">
                                    <path d="M20.6554715,98.6110043 C19.0076929,61.373748 -15.5721811,14.9421064 8.58412578,1.42852769 C32.7404326,-12.085051 24.7376446,82.9392373 20.6554715,98.6110043 Z" id="Leaf-base" fill="#7990DD"></path>
                                    <path d="M21.9023756,87.8281857 C17.1897655,49.538828 13.9316562,26.6586695 12.1280479,19.18771" id="Leaf-base" stroke="#FFFFFF" stroke-width="0.55" stroke-linecap="round"></path>
                                </g>
                                <g id="Group-25" transform="translate(5.940000, 70.180000)">
                                    <path d="M37.3682435,24.3974358 C18.1373357,0.518750156 0.373398247,-5.72678875 0.108396152,5.64839108 C-0.156605943,17.0235709 19.8169238,10.312778 37.3682435,24.3974358 Z" id="Leaf-base" fill="#7990DD"></path>
                                    <path d="M32.5451923,20.4214897 C28.0388352,15.2753086 20.9696115,10.7460744 11.3375212,6.83378725" id="Leaf-base" stroke="#FFFFFF" stroke-width="0.55" stroke-linecap="round"></path>
                                </g>
                                <g id="Group-27" transform="translate(38.280000, 46.420000)">
                                    <path d="M0,52.3576207 C4.64525146,22.534407 27.1339643,-13.7026791 36.4906019,5.47436625 C45.8472394,24.6514116 13.0754845,34.0863461 0,52.3576207 Z" id="Leaf-base" fill="#7990DD"></path>
                                    <path d="M1.103877,49.6854212 C8.23508035,33.9531613 15.8505316,22.8589796 23.9502308,16.4028759" id="Leaf-base" stroke="#FFFFFF" stroke-width="0.55" stroke-linecap="round"></path>
                                </g>
                                <g id="Group-26" transform="translate(37.620000, 83.820000)">
                                    <path d="M0.218466939,16.1047996 C5.79413679,5.15740606 25.7205724,-5.62723399 32.635836,3.46522717 C39.5510996,12.5576883 7.11139042,11.3677534 0.218466939,16.1047996 Z" id="Leaf-base" fill="#FFFFFF"></path>
                                    <path d="M26.9092883,4.70506392 C18.2887636,4.70506392 9.66823885,8.0718221 1.04771413,14.8053385" id="Leaf-base" stroke="#7990DD" stroke-width="0.55" stroke-linecap="round"></path>
                                </g>
                                <g id="Leaf-base" transform="translate(0.000000, 41.580000)">
                                    <path d="M40.1030035,52.3027263 C30.250097,9.73414155 9.8693091,-9.59306094 1.38413957,4.62060437 C-7.10102995,18.8342697 25.6116405,23.1995824 40.1030035,52.3027263 Z" fill="#FFFFFF"></path>
                                    <path d="M37.576,45.3185616 C31.2766866,31.4717454 23.3617707,21.3615268 13.8312521,14.9879056" stroke="#7990DD" stroke-width="0.55" stroke-linecap="round"></path>
                                </g>
                            </g>
                            <g id="Leaves" transform="translate(34.528979, 119.504107) rotate(-357.000000) translate(-34.528979, -119.504107) translate(14.028979, 98.504107)" fill="#FF8D88">
                                <path d="M39.6384029,34.323533 C39.7195165,34.4139956 39.7119376,34.5530855 39.621475,34.6341991 C39.5310125,34.7153127 39.3919225,34.7077338 39.3108089,34.6172712 C33.0551062,27.6405472 27.3814921,23.5328109 22.3003899,22.2877368 C13.9694342,20.2463181 6.06566332,13.6235947 5.53680843,7.53269487 C5.52629825,7.41164765 5.61590623,7.30499932 5.73695345,7.29448914 C5.85800067,7.28397897 5.964649,7.37358695 5.97515918,7.49463417 C6.48466627,13.3627025 14.2375591,19.8590022 22.4051095,21.86038 C27.5880208,23.1304014 33.3289775,27.2868942 39.6384029,34.323533 Z" id="Leaves-base"></path>
                                <path d="M10.201248,15.1227208 C10.2146692,15.24348 10.1276545,15.3522546 10.0068954,15.3656757 C9.88613629,15.3790968 9.7773617,15.2920822 9.76394058,15.171323 C9.42775097,12.1463939 9.69646688,9.98207693 10.589221,8.67327382 C10.6576883,8.57289888 10.7945619,8.54703259 10.8949369,8.61549983 C10.9953118,8.68396708 11.0211781,8.82084072 10.9527108,8.92121566 C10.13246,10.1237269 9.87559481,12.1925946 10.201248,15.1227208 Z" id="Leaves-base"></path>
                                <path d="M10.1156183,12.9161321 L9.83576859,13.2428681 L9.73468787,12.8247115 C8.69455571,8.52183222 9.38509521,6.27534165 11.8781985,6.27534165 C13.1717213,6.27534165 13.6958486,6.93808544 13.3296549,8.12940121 C12.9966112,9.21287245 11.9264602,10.8019003 10.1156183,12.9161321 Z M12.909076,8.00012117 C13.1861055,7.09887755 12.8827883,6.71534165 11.8781985,6.71534165 C9.84954982,6.71534165 9.22326281,8.51910469 10.0638597,12.2972445 C11.6663198,10.3923417 12.6157356,8.95442788 12.909076,8.00012117 Z" id="Leaves-base"></path>
                                <path d="M6.43903443,5.6539406 C6.15532657,4.77433258 5.66664827,4.61594677 4.8129098,5.14147393 C3.10608319,6.19212793 3.61281227,7.98018952 6.50070651,10.623114 C6.76103327,8.24238522 6.7380084,6.58087967 6.43903443,5.6539406 Z M4.5822593,4.76677359 C5.67187309,4.09605104 6.48374701,4.35918798 6.85779132,5.51887518 C7.19917279,6.57729449 7.20675155,8.43094655 6.88929901,11.0980118 L6.8396626,11.5150302 L6.52508882,11.2368011 C3.17247652,8.27153683 2.4628464,6.07139916 4.5822593,4.76677359 Z" id="Leaves-base"></path>
                                <path d="M10.4746276,15.3583441 C10.5781632,15.4219309 10.610548,15.5574103 10.5469611,15.6609459 C10.4833743,15.7644814 10.3478948,15.7968662 10.2443593,15.7332794 C7.54510394,14.0755188 5.67903609,13.1229084 4.66797801,12.8804688 C4.5498247,12.852137 4.47700994,12.7333874 4.50534169,12.6152341 C4.53367344,12.4970808 4.65242305,12.424266 4.77057636,12.4525978 C5.8419229,12.7094939 7.73599924,13.6764024 10.4746276,15.3583441 Z" id="Leaves-base"></path>
                                <path d="M7.21552906,13.4861576 L7.43792349,13.8139086 L7.04215024,13.829514 C6.39233107,13.8551365 5.42351459,13.9964752 4.13993482,14.253835 C3.10878238,14.4605827 1.75840795,13.9974307 0.934370033,13.1786107 C-0.016756637,12.2335068 -0.0712209248,11.0433484 1.00882521,10.023231 C2.59290821,8.52704444 4.67455388,9.74142745 7.21552906,13.4861576 Z M1.31095111,10.3431059 C0.420517611,11.1841317 0.46192024,12.0888656 1.24450727,12.8664971 C1.96861364,13.5860184 3.17272512,13.999005 4.05343566,13.8224211 C5.12538824,13.6074929 5.98434598,13.4717465 6.63265842,13.4153512 C4.33292224,10.1226621 2.57063264,9.15332065 1.31095111,10.3431059 Z" id="Leaves-base"></path>
                                <path d="M12.0482815,16.8720551 C12.1674771,16.8956196 12.2450015,17.0113496 12.2214369,17.1305453 C12.1978724,17.2497409 12.0821424,17.3272653 11.9629467,17.3037007 C9.9661746,16.9089462 8.64420097,16.9089462 8.02424869,17.2770456 C7.91977427,17.3390777 7.78479402,17.3046715 7.72276187,17.200197 C7.66072972,17.0957226 7.69513598,16.9607424 7.7996104,16.8987102 C8.54307246,16.4572764 9.95022187,16.4572764 12.0482815,16.8720551 Z" id="Leaves-base"></path>
                                <path d="M5.8142871,16.3283331 C4.89450584,16.4598953 4.57878085,17.1916249 4.88401025,18.0765165 C5.17834804,18.9298323 5.87869252,19.4000474 6.48521288,19.0725423 C7.4932901,18.5282071 8.77713802,17.8591867 10.3369557,17.0653636 C8.74625278,16.3689014 7.23963162,16.124457 5.8142871,16.3283331 Z M10.9414758,17.2517553 C9.20046666,18.134897 7.78464677,18.8709304 6.69427054,19.4597049 C5.80027611,19.9424384 4.83973903,19.2975287 4.4680598,18.2199921 C4.08100084,17.097868 4.52526592,16.0682318 5.75198519,15.8927663 C7.39071244,15.6583687 9.12040632,15.9814816 10.9374798,16.8573768 L11.3381747,17.0505263 L10.9414758,17.2517553 Z" id="Leaves-base"></path>
                                <path d="M15.8028598,19.3077817 C15.9237416,19.3200494 16.0117906,19.4279884 15.9995229,19.5488701 C15.9872552,19.6697519 15.8793163,19.757801 15.7584345,19.7455333 C13.4473698,19.5109944 11.9440127,19.8359782 11.2375987,20.6859319 C11.1599367,20.7793744 11.021229,20.792167 10.9277865,20.714505 C10.834344,20.636843 10.8215514,20.4981354 10.8992134,20.4046929 C11.7225513,19.414057 13.3606884,19.0599375 15.8028598,19.3077817 Z" id="Leaves-base"></path>
                                <path d="M7.59247754,21.1616899 C7.33217703,21.3445017 7.31117199,21.497061 7.47788163,21.7054562 C7.66753178,21.9425282 8.07725788,22.1914088 8.59394953,22.3836966 C9.69149341,22.7921495 10.8215544,22.8031105 11.060979,22.4042566 C11.4811233,21.7043444 12.31704,20.8150702 13.5718097,19.7286442 C10.5151695,20.0302329 8.51563204,20.5133485 7.59247754,21.1616899 Z M14.3857979,19.6148466 C12.8675598,20.8797973 11.8835342,21.8888856 11.438229,22.6307128 C11.0449548,23.2858624 9.72212749,23.2730317 8.44048539,22.7960662 C7.85591405,22.5785169 7.38306835,22.2912955 7.13429408,21.9803154 C6.80967238,21.5745223 6.87075334,21.1308924 7.33959599,20.8016192 C8.41502632,20.0463329 10.7026159,19.5280585 14.2262218,19.226625 L14.9233318,19.1669893 L14.3857979,19.6148466 Z" id="Leaves-base"></path>
                                <path d="M17.6940729,20.0244835 C17.768699,20.1203679 17.7514657,20.2585941 17.6555813,20.3332202 C17.5596968,20.4078464 17.4214706,20.3906131 17.3468445,20.2947286 C15.4703584,17.8836985 14.6800886,16.2646876 15.0053316,15.3569964 C15.0463166,15.242615 15.1722661,15.1831154 15.2866475,15.2241005 C15.401029,15.2650855 15.4605286,15.391035 15.4195435,15.5054164 C15.168062,16.2072532 15.916473,17.7405088 17.6940729,20.0244835 Z" id="Leaves-base"></path>
                                <path d="M16.1996816,17.8796659 L16.0969062,18.156086 L15.8612275,17.9788111 C14.9512965,17.2943711 14.2629179,16.4502266 13.798478,15.4486152 C13.0264903,13.7837458 14.2824466,12.1494458 16.0585017,12.6989705 C17.329501,13.0922272 17.329501,14.8409554 16.1996816,17.8796659 Z M15.9284455,13.1193101 C14.5336682,12.6877556 13.5791946,13.9297545 14.1976523,15.263521 C14.5905626,16.1108717 15.1543697,16.8366242 15.8908485,17.4424426 C16.8321895,14.8110715 16.8023239,13.3896946 15.9284455,13.1193101 Z" id="Leaves-base"></path>
                                <path d="M37.1374917,22.082659 C37.2555031,22.1115765 37.3277279,22.2306858 37.2988103,22.3486971 C37.2698928,22.4667084 37.1507835,22.5389332 37.0327722,22.5100157 C28.7018165,20.468597 20.7980456,13.8458737 20.2691907,7.75497383 C20.2586805,7.63392661 20.3482885,7.52727827 20.4693357,7.5167681 C20.590383,7.50625793 20.6970313,7.59586591 20.7075415,7.71691312 C21.2170486,13.5849814 28.9699414,20.0812811 37.1374917,22.082659 Z" id="Leaves-base" transform="translate(28.786768, 15.016159) rotate(40.000000) translate(-28.786768, -15.016159) "></path>
                                <path d="M27.6239962,13.5967766 C27.6374173,13.7175357 27.5504027,13.8263103 27.4296436,13.8397314 C27.3088844,13.8531526 27.2001098,13.7661379 27.1866887,13.6453788 C26.8504991,10.6204497 27.119215,8.45613269 28.0119692,7.14732959 C28.0804364,7.04695465 28.21731,7.02108835 28.317685,7.0895556 C28.4180599,7.15802284 28.4439262,7.29489648 28.375459,7.39527142 C27.5552081,8.59778262 27.2983429,10.6666504 27.6239962,13.5967766 Z" id="Leaves-base" transform="translate(27.730349, 10.446188) rotate(40.000000) translate(-27.730349, -10.446188) "></path>
                                <path d="M28.7156559,12.5816668 L28.4358062,12.9084028 L28.3347255,12.4902462 C27.2945933,8.18736695 27.9851328,5.94087638 30.4782361,5.94087638 C31.7717589,5.94087638 32.2958862,6.60362017 31.9296925,7.79493594 C31.5966488,8.87840718 30.5264978,10.467435 28.7156559,12.5816668 Z M31.5091136,7.6656559 C31.7861431,6.76441228 31.4828258,6.38087638 30.4782361,6.38087638 C28.4495874,6.38087638 27.8233004,8.18463942 28.6638973,11.9627792 C30.2663574,10.0578764 31.2157731,8.61996261 31.5091136,7.6656559 Z" id="Leaves-base" transform="translate(29.955775, 9.424640) rotate(40.000000) translate(-29.955775, -9.424640) "></path>
                                <path d="M27.6241173,1.81657233 C27.3404095,0.936964309 26.8517312,0.778578493 25.9979927,1.30410566 C24.2911661,2.35475966 24.7978952,4.14282124 27.6857894,6.78574577 C27.9461162,4.40501694 27.9230913,2.74351139 27.6241173,1.81657233 Z M25.7673422,0.929405315 C26.856956,0.258682763 27.6688299,0.521819703 28.0428742,1.68150691 C28.3842557,2.73992622 28.3918345,4.59357828 28.0743819,7.26064354 L28.0247455,7.67766193 L27.7101717,7.39943281 C24.3575594,4.43416856 23.6479293,2.23403089 25.7673422,0.929405315 Z" id="Leaves-base" transform="translate(26.436224, 4.122011) rotate(40.000000) translate(-26.436224, -4.122011) "></path>
                                <path d="M27.1732891,11.5537506 C27.2768247,11.6173374 27.3092095,11.7528169 27.2456226,11.8563524 C27.1820358,11.9598879 27.0465564,11.9922728 26.9430208,11.9286859 C24.2437655,10.2709254 22.3776976,9.31831493 21.3666395,9.0758753 C21.2484862,9.04754354 21.1756715,8.92879394 21.2040032,8.81064063 C21.232335,8.69248732 21.3510846,8.61967256 21.4692379,8.64800431 C22.5405844,8.9049004 24.4346608,9.87180892 27.1732891,11.5537506 Z" id="Leaves-base" transform="translate(24.238037, 10.301569) rotate(40.000000) translate(-24.238037, -10.301569) "></path>
                                <path d="M26.2327465,7.82080904 L26.455141,8.14856003 L26.0593677,8.16416547 C25.4095486,8.18978801 24.4407321,8.33112664 23.1571523,8.58848643 C22.1259999,8.79523415 20.7756254,8.33208217 19.9515875,7.51326221 C19.0004609,6.56815824 18.9459966,5.37799983 20.0260427,4.35788249 C21.6101257,2.86169591 23.6917714,4.07607892 26.2327465,7.82080904 Z M20.3281686,4.67775737 C19.4377351,5.51878316 19.4791377,6.42351707 20.2617248,7.20114862 C20.9858311,7.92066982 22.1899426,8.33365647 23.0706531,8.1570726 C24.1426057,7.94214439 25.0015635,7.80639798 25.6498759,7.75000266 C23.3501397,4.45731362 21.5878501,3.48797212 20.3281686,4.67775737 Z" id="Leaves-base" transform="translate(22.841124, 6.186102) rotate(40.000000) translate(-22.841124, -6.186102) "></path>
                                <path d="M26.3618801,13.9605489 C26.4810758,13.9841134 26.5586001,14.0998434 26.5350355,14.2190391 C26.511471,14.3382347 26.395741,14.4157591 26.2765453,14.3921945 C24.2797732,13.99744 22.9577996,13.99744 22.3378473,14.3655394 C22.2333729,14.4275715 22.0983926,14.3931653 22.0363605,14.2886908 C21.9743283,14.1842164 22.0087346,14.0492362 22.113209,13.987204 C22.8566711,13.5457701 24.2638205,13.5457701 26.3618801,13.9605489 Z" id="Leaves-base" transform="translate(24.272374, 14.024566) rotate(40.000000) translate(-24.272374, -14.024566) "></path>
                                <path d="M20.1204491,11.8683027 C19.2006678,11.9998648 18.8849428,12.7315944 19.1901722,13.6164861 C19.48451,14.4698018 20.1848545,14.9400169 20.7913749,14.6125118 C21.7994521,14.0681766 23.0833,13.3991563 24.6431176,12.6053332 C23.0524148,11.9088709 21.5457936,11.6644265 20.1204491,11.8683027 Z M25.2476378,12.7917248 C23.5066286,13.6748665 22.0908087,14.4108999 21.0004325,14.9996744 C20.1064381,15.482408 19.145901,14.8374982 18.7742218,13.7599616 C18.3871628,12.6378375 18.8314279,11.6082013 20.0581472,11.4327358 C21.6968744,11.1983382 23.4265683,11.5214511 25.2436418,12.3973464 L25.6443367,12.5904958 L25.2476378,12.7917248 Z" id="Leaves-base" transform="translate(22.141388, 13.260520) rotate(40.000000) translate(-22.141388, -13.260520) "></path>
                                <path d="M27.3371781,17.9075647 C27.4580599,17.9198324 27.546109,18.0277713 27.5338413,18.1486531 C27.5215736,18.2695348 27.4136346,18.3575839 27.2927529,18.3453162 C24.9816881,18.1107773 23.4783311,18.4357611 22.771917,19.2857148 C22.694255,19.3791573 22.5555474,19.3919499 22.4621048,19.3142879 C22.3686623,19.2366259 22.3558697,19.0979183 22.4335317,19.0044758 C23.2568697,18.0138399 24.8950067,17.6597204 27.3371781,17.9075647 Z" id="Leaves-base" transform="translate(24.958851, 18.598216) rotate(40.000000) translate(-24.958851, -18.598216) "></path>
                                <path d="M18.968652,17.8859787 C18.7083515,18.0687906 18.6873465,18.2213498 18.8540561,18.429745 C19.0437063,18.6668171 19.4534324,18.9156976 19.970124,19.1079854 C21.0676679,19.5164384 22.1977289,19.5273994 22.4371535,19.1285454 C22.8572978,18.4286333 23.6932145,17.539359 24.9479842,16.452933 C21.891344,16.7545217 19.8918065,17.2376374 18.968652,17.8859787 Z M25.7619724,16.3391354 C24.2437343,17.6040861 23.2597087,18.6131745 22.8144035,19.3550017 C22.4211293,20.0101513 21.098302,19.9973206 19.8166599,19.5203551 C19.2320886,19.3028058 18.7592429,19.0155843 18.5104686,18.7046043 C18.1858469,18.2988112 18.2469278,17.8551812 18.7157705,17.525908 C19.7912008,16.7706217 22.0787904,16.2523474 25.6023963,15.9509138 L26.2995063,15.8912782 L25.7619724,16.3391354 Z" id="Leaves-base" transform="translate(22.303340, 17.877717) rotate(40.000000) translate(-22.303340, -17.877717) "></path>
                                <path d="M29.9630287,21.0119696 C30.0376548,21.107854 30.0204215,21.2460802 29.924537,21.3207064 C29.8286526,21.3953325 29.6904264,21.3780992 29.6158003,21.2822147 C27.7393141,18.8711846 26.9490444,17.2521738 27.2742874,16.3444826 C27.3152724,16.2301011 27.4412219,16.1706015 27.5556033,16.2115866 C27.6699848,16.2525716 27.7294843,16.3785211 27.6884993,16.4929025 C27.4370178,17.1947393 28.1854288,18.7279949 29.9630287,21.0119696 Z" id="Leaves-base" transform="translate(28.606250, 18.782867) rotate(40.000000) translate(-28.606250, -18.782867) "></path>
                                <path d="M30.2686039,18.7659458 L30.1658285,19.0423659 L29.9301498,18.8650909 C29.0202188,18.1806509 28.3318402,17.3365065 27.8674003,16.3348951 C27.0954126,14.6700257 28.3513689,13.0357257 30.127424,13.5852504 C31.3984233,13.978507 31.3984233,15.7272353 30.2686039,18.7659458 Z M29.9973678,14.00559 C28.6025905,13.5740355 27.6481169,14.8160343 28.2665746,16.1498009 C28.6594849,16.9971515 29.223292,17.7229041 29.9597708,18.3287224 C30.9011118,15.6973513 30.8712462,14.2759745 29.9973678,14.00559 Z" id="Leaves-base" transform="translate(29.367202, 16.259581) rotate(40.000000) translate(-29.367202, -16.259581) "></path>
                                <path d="M29.8605103,37.2979573 C29.9785217,37.3268748 30.0507465,37.4459841 30.0218289,37.5639955 C29.9929114,37.6820068 29.8738021,37.7542316 29.7557908,37.7253141 C21.4248351,35.6838954 13.5210642,29.061172 12.9922093,22.9702722 C12.9816991,22.8492249 13.0713071,22.7425766 13.1923543,22.7320664 C13.3134016,22.7215562 13.4200499,22.8111642 13.4305601,22.9322114 C13.9400672,28.8002798 21.69296,35.2965795 29.8605103,37.2979573 Z" id="Leaves-base" transform="translate(21.509787, 30.231458) scale(-1, -1) rotate(126.000000) translate(-21.509787, -30.231458) "></path>
                                <path d="M16.9182867,34.7546769 C16.9317078,34.875436 16.8446932,34.9842106 16.7239341,34.9976317 C16.603175,35.0110529 16.4944004,34.9240382 16.4809792,34.8032791 C16.1447896,31.77835 16.4135055,29.614033 17.3062597,28.3052299 C17.3747269,28.2048549 17.5116006,28.1789886 17.6119755,28.2474559 C17.7123505,28.3159231 17.7382167,28.4527968 17.6697495,28.5531717 C16.8494986,29.7556829 16.5926335,31.8245507 16.9182867,34.7546769 Z" id="Leaves-base" transform="translate(17.024640, 31.604088) scale(-1, -1) rotate(126.000000) translate(-17.024640, -31.604088) "></path>
                                <path d="M14.6102229,32.6123709 L14.3303732,32.9391068 L14.2292925,32.5209502 C13.1891603,28.218071 13.8796998,25.9715804 16.3728032,25.9715804 C17.6663259,25.9715804 18.1904532,26.6343242 17.8242596,27.82564 C17.4912158,28.9091112 16.4210648,30.4981391 14.6102229,32.6123709 Z M17.4036806,27.6963599 C17.6807102,26.7951163 17.3773929,26.4115804 16.3728032,26.4115804 C14.3441544,26.4115804 13.7178674,28.2153435 14.5584643,31.9934832 C16.1609244,30.0885804 17.1103402,28.6506666 17.4036806,27.6963599 Z" id="Leaves-base" transform="translate(15.850342, 29.455344) scale(-1, -1) rotate(126.000000) translate(-15.850342, -29.455344) "></path>
                                <path d="M11.9940352,31.0307747 C11.7103274,30.1511667 11.2216491,29.9927808 10.3679106,30.518308 C8.66108398,31.568962 9.16781306,33.3570236 12.0557073,35.9999481 C12.3160341,33.6192193 12.2930092,31.9577137 11.9940352,31.0307747 Z M10.1372601,30.1436077 C11.2268739,29.4728851 12.0387478,29.7360221 12.4127921,30.8957093 C12.7541736,31.9541286 12.7617523,33.8077806 12.4442998,36.4748459 L12.3946634,36.8918643 L12.0800896,36.6136352 C8.72747731,33.6483709 8.01784719,31.4482332 10.1372601,30.1436077 Z" id="Leaves-base" transform="translate(10.806142, 33.336214) scale(-1, -1) rotate(126.000000) translate(-10.806142, -33.336214) "></path>
                                <path d="M20.0592365,36.3501626 C20.162772,36.4137495 20.1951568,36.5492289 20.13157,36.6527644 C20.0679831,36.7563 19.9325037,36.7886848 19.8289682,36.7250979 C17.1297128,35.0673374 15.2636449,34.114727 14.2525869,33.8722873 C14.1344336,33.8439556 14.0616188,33.725206 14.0899505,33.6070527 C14.1182823,33.4888993 14.2370319,33.4160846 14.3551852,33.4444163 C15.4265318,33.7013124 17.3206081,34.6682209 20.0592365,36.3501626 Z" id="Leaves-base" transform="translate(17.123985, 35.097981) scale(-1, -1) rotate(126.000000) translate(-17.123985, -35.097981) "></path>
                                <path d="M16.5076084,38.4132797 L16.7300028,38.7410307 L16.3342295,38.7566361 C15.6844104,38.7822586 14.7155939,38.9235973 13.4320141,39.1809571 C12.4008617,39.3877048 11.0504872,38.9245528 10.2264493,38.1057328 C9.27532267,37.1606289 9.22085838,35.9704705 10.3009045,34.9503531 C11.8849875,33.4541665 13.9666332,34.6685496 16.5076084,38.4132797 Z M10.6030304,35.270228 C9.71259691,36.1112538 9.75399954,37.0159877 10.5365866,37.7936192 C11.2606929,38.5131405 12.4648044,38.9261271 13.345515,38.7495432 C14.4174675,38.534615 15.2764253,38.3988686 15.9247377,38.3424733 C13.6250015,35.0497842 11.8627119,34.0804428 10.6030304,35.270228 Z" id="Leaves-base" transform="translate(13.115986, 36.778572) scale(-1, -1) rotate(126.000000) translate(-13.115986, -36.778572) "></path>
                                <path d="M22.9250229,34.7400075 C23.0442186,34.763572 23.1217429,34.879302 23.0981784,34.9984977 C23.0746138,35.1176933 22.9588838,35.1952177 22.8396882,35.1716531 C20.8429161,34.7768986 19.5209424,34.7768986 18.9009902,35.144998 C18.7965157,35.2070301 18.6615355,35.1726239 18.5995033,35.0681494 C18.5374712,34.963675 18.5718774,34.8286948 18.6763519,34.7666626 C19.4198139,34.3252287 20.8269633,34.3252287 22.9250229,34.7400075 Z" id="Leaves-base" transform="translate(20.835517, 34.804025) scale(-1, -1) rotate(126.000000) translate(-20.835517, -34.804025) "></path>
                                <path d="M18.2010431,35.5908996 C17.2812618,35.7224618 16.9655368,36.4541914 17.2707662,37.339083 C17.565104,38.1923988 18.2654485,38.6626139 18.8719689,38.3351088 C19.8800461,37.7907735 21.163894,37.1217532 22.7237116,36.3279301 C21.1330088,35.6314678 19.6263876,35.3870235 18.2010431,35.5908996 Z M23.3282318,36.5143217 C21.5872226,37.3974635 20.1714028,38.1334969 19.0810265,38.7222714 C18.1870321,39.2050049 17.226495,38.5600952 16.8548158,37.4825586 C16.4677568,36.3604345 16.9120219,35.3307983 18.1387412,35.1553328 C19.7774684,34.9209352 21.5071623,35.2440481 23.3242358,36.1199433 L23.7249307,36.3130928 L23.3282318,36.5143217 Z" id="Leaves-base" transform="translate(20.221982, 36.983117) scale(-1, -1) rotate(126.000000) translate(-20.221982, -36.983117) "></path>
                                <path d="M27.7284669,33.1095281 C27.8493486,33.1217958 27.9373977,33.2297348 27.92513,33.3506165 C27.9128623,33.4714983 27.8049234,33.5595473 27.6840416,33.5472796 C25.3729768,33.3127408 23.8696198,33.6377246 23.1632058,34.4876783 C23.0855437,34.5811208 22.9468361,34.5939134 22.8533936,34.5162514 C22.7599511,34.4385894 22.7471584,34.2998818 22.8248205,34.2064392 C23.6481584,33.2158034 25.2862955,32.8616839 27.7284669,33.1095281 Z" id="Leaves-base" transform="translate(25.350139, 33.800179) scale(-1, -1) rotate(126.000000) translate(-25.350139, -33.800179) "></path>
                                <path d="M21.4819469,36.5077424 C21.2216464,36.6905542 21.2006414,36.8431135 21.367351,37.0515087 C21.5570012,37.2885807 21.9667273,37.5374613 22.4834189,37.7297491 C23.5809628,38.1382021 24.7110238,38.149163 24.9504484,37.7503091 C25.3705928,37.050397 26.2065094,36.1611227 27.4612791,35.0746967 C24.4046389,35.3762854 22.4051014,35.8594011 21.4819469,36.5077424 Z M28.2752673,34.9608991 C26.7570292,36.2258498 25.7730036,37.2349381 25.3276984,37.9767653 C24.9344242,38.631915 23.6115969,38.6190842 22.3299548,38.1421188 C21.7453835,37.9245695 21.2725378,37.637348 21.0237635,37.3263679 C20.6991418,36.9205749 20.7602227,36.4769449 21.2290654,36.1476717 C22.3044957,35.3923854 24.5920853,34.874111 28.1156912,34.5726775 L28.8128013,34.5130419 L28.2752673,34.9608991 Z" id="Leaves-base" transform="translate(24.816635, 36.499481) scale(-1, -1) rotate(126.000000) translate(-24.816635, -36.499481) "></path>
                                <path d="M26.6366906,32.3778865 C26.7113167,32.473771 26.6940834,32.6119972 26.598199,32.6866233 C26.5023145,32.7612495 26.3640883,32.7440162 26.2894622,32.6481317 C24.4129761,30.2371016 23.6227063,28.6180907 23.9479493,27.7103995 C23.9889343,27.5960181 24.1148838,27.5365185 24.2292652,27.5775036 C24.3436467,27.6184886 24.4031463,27.744438 24.3621612,27.8588195 C24.1106797,28.5606563 24.8590907,30.0939119 26.6366906,32.3778865 Z" id="Leaves-base" transform="translate(25.279911, 30.148784) scale(-1, -1) rotate(126.000000) translate(-25.279911, -30.148784) "></path>
                                <path d="M23.6110919,32.0720664 L23.5083165,32.3484865 L23.2726378,32.1712116 C22.3627069,31.4867716 21.6743282,30.6426272 21.2098884,29.6410158 C20.4379007,27.9761464 21.6938569,26.3418463 23.4699121,26.8913711 C24.7409113,27.2846277 24.7409113,29.033356 23.6110919,32.0720664 Z M23.3398559,27.3117107 C21.9450785,26.8801561 20.9906049,28.122155 21.6090627,29.4559216 C22.0019729,30.3032722 22.5657801,31.0290248 23.3022588,31.6348431 C24.2435999,29.003472 24.2137342,27.5820951 23.3398559,27.3117107 Z" id="Leaves-base" transform="translate(22.709690, 29.565701) scale(-1, -1) rotate(126.000000) translate(-22.709690, -29.565701) "></path>
                            </g>
                            <g id="Leaves" transform="translate(8.580000, 134.200000)" fill="#FFFFFF">
                                <path d="M0,32.7251959 C57.8362254,32.7659564 90.8844636,32.300583 99.1447147,31.3290759 C111.535091,29.8718151 102.244814,24.8362532 102.244814,20.3941498 C102.244814,15.9520463 91.0205813,17.9279016 87.3611399,17.2962806 C83.7016985,16.6646596 86.6531291,9.98054143 79.733933,9.27497079 C72.8147369,8.56940014 72.3954192,12.4735561 68.459827,11.8603274 C64.5242348,11.2470988 74.4901478,0 60.7005226,0 C46.9108973,0 50.6444202,7.40791043 44.4846515,7.51983127 C38.3248828,7.6317521 43.1010243,0.987020061 37.5071861,3.21839058 C31.9133479,5.44976109 31.2002373,12.5903772 28.4826024,13.9030157 C25.7649674,15.2156541 29.3890376,7.17479702 26.0782494,10.50756 C22.7674613,13.840323 20.7390957,20.6623258 14.6320644,24.2047151 C10.5607102,26.5663079 5.68335539,29.4064682 0,32.7251959 Z" transform="translate(52.794296, 16.363829) scale(-1, 1) translate(-52.794296, -16.363829) "></path>
                            </g>
                        </g>
                        <g id="编组-5" transform="translate(31.000000, 0.000000)">
                            <g id="chevron_arrow" transform="translate(36.456853, 10.353100)" fill-rule="nonzero">
                                <polygon id="Path" fill="#F3F9FF" points="7.98810152 28.7825175 15.5828291 36.3780916 15.5828291 41.7707062 7.98810152 34.1755822 0.393824027 41.7707062 0.393824027 36.3780916"></polygon>
                                <polygon id="Path" fill="#E7F4FE" points="7.98810152 19.2882749 15.5828291 26.8838491 15.5828291 32.2764636 7.98810152 24.6813396 0.393824027 32.2764636 0.393824027 26.8838491"></polygon>
                                <polygon id="Path" fill="#DCEEFD" points="7.98810152 9.79448248 15.5828291 17.3896065 15.5828291 22.7826712 7.98810152 15.187097 0.393824027 22.7826712 0.393824027 17.3896065"></polygon>
                                <polygon id="Path" fill="#D0E7FE" points="7.98810152 0.300239892 15.5828291 7.89536388 15.5828291 13.2884286 7.98810152 5.69285445 0.393824027 13.2884286 0.393824027 7.89536388"></polygon>
                            </g>
                            <g id="Group" transform="translate(62.111675, 0.000000)" fill-rule="nonzero">
                                <g>
                                    <path d="M166.104667,13.1413962 L166.104667,158.378399 C166.104667,158.865483 165.908457,159.306634 165.590925,159.625941 C165.274398,159.944236 164.837218,160.141396 164.354244,160.141396 L164.354244,160.141396 L2.57583418,160.141396 C2.09285953,160.141396 1.6556803,159.944236 1.33915331,159.625941 C1.02162072,159.306634 0.825411168,158.865483 0.825411168,158.378399 L0.825411168,158.378399 L0.825411168,13.1413962 L166.104667,13.1413962 Z" id="Path" stroke="#374ABE" fill="#FFFFFF"></path>
                                    <path d="M166.604667,4.20876011 L166.604667,13.4477763 L0.325411168,13.4477763 L0.325411168,4.20876011 C0.325411168,2.06701887 2.06138748,0.330848969 4.20289002,0.330848969 L162.726738,0.330848969 C164.86869,0.330398922 166.604667,2.06701887 166.604667,4.20876011 Z" id="Path" fill="#2D3053"></path>
                                    <ellipse id="Oval" fill="#FFCB01" cx="12.2400508" cy="7.12338275" rx="2.45296108" ry="2.4532345"></ellipse>
                                    <ellipse id="Oval" fill="#44D690" cx="20.9730423" cy="7.12338275" rx="2.45296108" ry="2.4532345"></ellipse>
                                </g>
                                <g transform="translate(13.952623, 27.008086)">
                                    <g transform="translate(75.164129, 65.719677)" fill="#DAE7FF" id="Path">
                                        <path d="M62.7732995,7.14543935 L62.7732995,53.3562749 C62.7732995,55.8455202 60.7569205,57.8576226 58.2724535,57.8576226 L4.53685279,57.8576226 C2.05238579,57.8576226 0.0360067682,55.8455202 0.0360067682,53.3562749 L0.0360067682,7.14543935 C0.0360067682,4.65619407 2.05238579,2.64409164 4.53685279,2.64409164 L58.2724535,2.64409164 C60.7569205,2.64409164 62.7732995,4.65619407 62.7732995,7.14543935 Z"></path>
                                        <path d="M62.7732995,4.8947655 L62.7732995,51.1056011 C62.7732995,53.5948464 60.7569205,55.6069488 58.2724535,55.6069488 L4.53685279,55.6069488 C2.05238579,55.6069488 0.0360067682,53.5948464 0.0360067682,51.1056011 L0.0360067682,4.8947655 C0.0360067682,2.40552022 2.05238579,0.39341779 4.53685279,0.39341779 L58.2724535,0.39341779 C60.7569205,0.39341779 62.7732995,2.40552022 62.7732995,4.8947655 Z"></path>
                                    </g>
                                    <path d="M58.5911134,122.001827 L54.0902673,122.001827 L54.0902673,120.651423 L58.5911134,120.651423 L58.5911134,122.001827 Z M49.5894213,122.001827 L45.0885753,122.001827 L45.0885753,120.651423 L49.5894213,120.651423 L49.5894213,122.001827 Z M40.5877293,122.001827 L36.0868832,122.001827 L36.0868832,120.651423 L40.5877293,120.651423 L40.5877293,122.001827 Z M31.5860372,122.001827 L27.0851912,122.001827 L27.0851912,120.651423 L31.5860372,120.651423 L31.5860372,122.001827 Z M22.5843452,122.001827 L18.0834992,122.001827 L18.0834992,120.651423 L22.5843452,120.651423 L22.5843452,122.001827 Z M13.5826531,122.001827 L9.08180711,122.001827 L9.08180711,120.651423 L13.5826531,120.651423 L13.5826531,122.001827 Z M4.44053469,121.874439 C2.71401015,121.484173 1.32279865,120.256655 0.719235195,118.590256 L1.98847377,118.130668 C2.42820643,119.343332 3.4814044,120.27376 4.73804061,120.557795 L4.44053469,121.874439 Z M63.1671235,120.291765 L62.1647851,119.386995 C62.7985042,118.683884 63.14822,117.774162 63.14822,116.825278 L63.14822,115.627919 L64.4984738,115.627919 L64.4984738,116.825278 C64.4984738,118.109512 64.0254349,119.340631 63.1671235,120.291765 Z M1.76118105,113.890849 L0.410927242,113.890849 L0.410927242,109.389501 L1.76118105,109.389501 L1.76118105,113.890849 Z M64.4984738,111.126571 L63.14822,111.126571 L63.14822,106.625224 L64.4984738,106.625224 L64.4984738,111.126571 Z M1.76118105,104.888154 L0.410927242,104.888154 L0.410927242,100.386806 L1.76118105,100.386806 L1.76118105,104.888154 Z M64.4984738,102.123876 L63.14822,102.123876 L63.14822,97.6225283 L64.4984738,97.6225283 L64.4984738,102.123876 Z M1.76118105,95.8854582 L0.410927242,95.8854582 L0.410927242,91.3841105 L1.76118105,91.3841105 L1.76118105,95.8854582 Z M64.4984738,93.1211806 L63.14822,93.1211806 L63.14822,88.6198329 L64.4984738,88.6198329 L64.4984738,93.1211806 Z M1.76118105,86.8827628 L0.410927242,86.8827628 L0.410927242,82.3814151 L1.76118105,82.3814151 L1.76118105,86.8827628 Z M64.4984738,84.1184852 L63.14822,84.1184852 L63.14822,79.6171375 L64.4984738,79.6171375 L64.4984738,84.1184852 Z M1.76118105,77.8800674 L0.410927242,77.8800674 L0.410927242,73.3787197 L1.76118105,73.3787197 L1.76118105,77.8800674 Z M64.4984738,75.1157898 L63.14822,75.1157898 L63.14822,70.614442 C63.14822,69.7186739 62.8327107,68.8476631 62.259753,68.162558 L63.2962978,67.2964987 C64.0717936,68.2246765 64.4984738,69.4031294 64.4984738,70.614442 L64.4984738,75.1157898 Z M2.04113367,69.1740108 L0.790348562,68.6658086 C1.45737394,67.0241671 2.89404399,65.8497655 4.6331709,65.5247682 L4.88116751,66.8522156 C3.61507953,67.0889865 2.52677496,67.9784528 2.04113367,69.1740108 Z M58.7625956,66.7882965 L54.2617496,66.7882965 L54.2617496,65.4378922 L58.7625956,65.4378922 L58.7625956,66.7882965 Z M49.7609036,66.7882965 L45.2600575,66.7882965 L45.2600575,65.4378922 L49.7609036,65.4378922 L49.7609036,66.7882965 Z M40.7592115,66.7882965 L36.2583655,66.7882965 L36.2583655,65.4378922 L40.7592115,65.4378922 L40.7592115,66.7882965 Z M31.7575195,66.7882965 L27.2566734,66.7882965 L27.2566734,65.4378922 L31.7575195,65.4378922 L31.7575195,66.7882965 Z M22.7558274,66.7882965 L18.2549814,66.7882965 L18.2549814,65.4378922 L22.7558274,65.4378922 L22.7558274,66.7882965 Z M13.7541354,66.7882965 L9.25328934,66.7882965 L9.25328934,65.4378922 L13.7541354,65.4378922 L13.7541354,66.7882965 Z" id="Shape" fill="#DAE7FF"></path>
                                    <g transform="translate(0.900169, 0.000000)" id="Path">
                                        <path d="M62.9231777,4.74622102 L62.9231777,50.9570566 C62.9231777,53.4463019 60.9067986,55.4584043 58.4223316,55.4584043 L4.68673096,55.4584043 C2.20226396,55.4584043 0.185884941,53.4463019 0.185884941,50.9570566 L0.185884941,4.74622102 C0.185884941,2.25697574 2.20226396,0.244873315 4.68673096,0.244873315 L58.4223316,0.244873315 C60.9067986,0.244873315 62.9231777,2.25697574 62.9231777,4.74622102 Z" fill="#DAE7FF"></path>
                                        <path d="M62.5221523,52.8098113 C61.8155195,54.371779 60.249225,55.4611051 58.4218816,55.4611051 L4.68628088,55.4611051 C2.20181387,55.4611051 0.185434856,53.4445013 0.185434856,50.9597574 L0.185434856,4.74442049 C0.185434856,2.91687332 1.27463959,1.35040431 2.83643316,0.643692722 C2.58438579,1.21086253 2.43585787,1.83204852 2.43585787,2.49374663 L2.43585787,50.0594879 C2.43585787,51.7970081 3.84912352,53.2104313 5.58645008,53.2104313 L27.0689882,53.2104313 C27.2940305,53.8811321 27.4785651,54.6418598 27.658599,55.4566038 L44.8968393,55.4566038 C44.0101726,54.8129111 42.5834044,54.1737197 41.1476345,53.2104313 L60.6723046,53.2104313 C61.3339289,53.2104313 61.9595465,53.0618868 62.5221523,52.8098113 Z" fill="#C3D3F3"></path>
                                    </g>
                                    <g transform="translate(75.164129, 0.000000)">
                                        <path d="M62.7732995,6.99689488 L62.7732995,53.2077305 C62.7732995,55.6969757 60.7569205,57.7090782 58.2724535,57.7090782 L4.53685279,57.7090782 C2.05238579,57.7090782 0.0360067682,55.6969757 0.0360067682,53.2077305 L0.0360067682,6.99689488 C0.0360067682,4.5076496 2.05238579,2.49554717 4.53685279,2.49554717 L58.2724535,2.49554717 C60.7569205,2.49554717 62.7732995,4.5076496 62.7732995,6.99689488 Z" id="Path" fill="#DAE7FF"></path>
                                        <path d="M62.7732995,37.8905445 L0.0369069374,37.8905445 L0.0369069374,4.74622102 C0.0369069374,2.26012668 2.0519357,0.244873315 4.53775296,0.244873315 L58.2724535,0.244873315 C60.7582707,0.244873315 62.7732995,2.26012668 62.7732995,4.74622102 L62.7732995,37.8905445 Z" id="Path" fill="#DAE7FF"></path>
                                        <path d="M9.18622673,30.3615903 C8.82615905,30.3615903 8.53270389,30.0798059 8.53270389,29.7341024 C8.53270389,29.3883989 8.82615905,29.1066146 9.18622673,29.1066146 C11.0626294,29.1066146 12.246802,27.1755364 13.6150592,24.9401671 C15.5603249,21.7640162 17.9777293,17.8131833 23.5632792,17.8131833 C27.2035635,17.8131833 29.2915059,19.0902156 31.313286,20.3253854 C33.4219323,21.6145714 35.415357,22.8326361 39.2473773,22.8326361 C49.6321794,22.8326361 50.7141827,17.1978491 51.5823959,12.6712938 C52.0648866,10.1518895 52.5217225,7.77427763 54.9314755,7.77427763 C55.2915431,7.77427763 55.5849983,8.05606199 55.5849983,8.4017655 C55.5849983,8.747469 55.2915431,9.02925337 54.9314755,9.02925337 C53.7292995,9.02925337 53.3948866,10.1491887 52.8687377,12.899062 C52.013577,17.3549461 50.7191337,24.0871617 39.2473773,24.0871617 C35.0354856,24.0871617 32.7864129,22.712 30.6116041,21.3836523 C28.6613875,20.1925957 26.8209915,19.0677089 23.5632792,19.0677089 C18.7257699,19.0677089 16.6094721,22.5260943 14.7411709,25.5748571 C13.2347377,28.0357439 11.81022,30.3615903 9.18622673,30.3615903 Z" id="Path" fill="#DCEEFD"></path>
                                        <path d="M9.18622673,30.3615903 C8.82615905,30.3615903 8.53270389,30.0798059 8.53270389,29.7341024 C8.53270389,29.3883989 8.82615905,29.1066146 9.18622673,29.1066146 C11.0266227,29.1066146 12.2139459,26.736655 13.5898545,23.9890323 C15.5297191,20.1192237 17.9421726,15.3032318 23.5632792,15.3032318 C27.2751269,15.3032318 29.3783723,17.2320593 31.4127547,19.0974178 C33.5083486,21.0190431 35.4869205,22.8326361 39.2469272,22.8326361 C44.5822301,22.8326361 47.0302403,18.0756119 49.1874958,13.8772049 C50.8721624,10.6029245 52.3250355,7.77472776 54.9310254,7.77472776 C55.2910931,7.77472776 55.5845482,8.05651213 55.5845482,8.40221563 C55.5845482,8.74791914 55.2910931,9.0297035 54.9310254,9.0297035 C53.1387885,9.0297035 51.8497462,11.5347035 50.359066,14.4340216 C48.1482504,18.7355094 45.3964332,24.088062 39.2469272,24.088062 C34.9634721,24.088062 32.5969272,21.9188625 30.5089848,20.0048895 C28.5767716,18.2327089 26.748978,16.5591078 23.5628291,16.5591078 C18.763577,16.5591078 16.6396277,20.7966765 14.7659255,24.5341456 C13.2653435,27.5306927 11.8484772,30.3615903 9.18622673,30.3615903 Z" id="Path" fill="#7266D5"></path>
                                        <ellipse id="Oval" fill="#2CCD7F" cx="9.18622673" cy="29.7341024" rx="1.30704569" ry="1.25497574"></ellipse>
                                        <ellipse id="Oval" fill="#2CCD7F" cx="39.2473773" cy="23.4596739" rx="1.30704569" ry="1.25497574"></ellipse>
                                        <ellipse id="Oval" fill="#D0F4E3" cx="54.9314755" cy="8.4017655" rx="2.61409137" ry="2.50950135"></ellipse>
                                        <ellipse id="Oval" fill="#99E9C2" cx="54.9314755" cy="8.4017655" rx="1.96056853" ry="1.88246361"></ellipse>
                                        <ellipse id="Oval" fill="#2CCD7F" cx="54.9314755" cy="8.4017655" rx="1.30704569" ry="1.25497574"></ellipse>
                                        <path d="M58.2724535,55.4584043 L4.53775296,55.4584043 C2.0519357,55.4584043 0.0369069374,53.4431509 0.0369069374,50.9570566 L0.0369069374,37.8905445 L62.7732995,37.8905445 L62.7732995,50.9570566 C62.7732995,53.4431509 60.7582707,55.4584043 58.2724535,55.4584043 Z" id="Path" fill="#7266D5"></path>
                                        <path d="M12.8823215,45.4194987 L5.49058206,45.4194987 C5.3668088,45.4194987 5.26553976,45.3182183 5.26553976,45.1944313 L5.26553976,43.1350647 C5.26553976,43.0112776 5.3668088,42.9099973 5.49058206,42.9099973 L12.8823215,42.9099973 C13.0060948,42.9099973 13.1073638,43.0112776 13.1073638,43.1350647 L13.1073638,45.1944313 C13.1073638,45.3182183 13.0060948,45.4194987 12.8823215,45.4194987 Z" id="Path" fill="#FFFFFF"></path>
                                        <path d="M20.7241455,50.4389515 L5.49013198,50.4389515 C5.36635871,50.4389515 5.26508968,50.3376712 5.26508968,50.2138841 L5.26508968,48.1545175 C5.26508968,48.0307305 5.36635871,47.9294501 5.49013198,47.9294501 L20.7241455,47.9294501 C20.8479188,47.9294501 20.9491878,48.0307305 20.9491878,48.1545175 L20.9491878,50.2138841 C20.9491878,50.3376712 20.8479188,50.4389515 20.7241455,50.4389515 Z" id="Path" fill="#FFFFFF"></path>
                                    </g>
                                </g>
                            </g>
                            <g id="Group" transform="translate(0.000000, 43.663073)">
                                <path d="M37.6252724,44.285159 C37.6252724,44.285159 38.1568223,43.8246712 38.3301049,43.3583315 C38.5033875,42.8919919 38.8972115,40.7461995 40.0350254,39.4813208 C41.1732893,38.2168922 45.0377157,39.3170216 44.9598511,39.6865822 C44.7865685,40.5125795 42.3705144,39.4183019 41.4563926,41.2296442 C41.2128968,41.7121887 41.5729645,42.3086173 41.8191607,42.244248 C42.4731337,42.0731968 43.0028832,40.6471698 43.4898748,40.8069677 C43.8589442,40.9280539 43.5996954,43.3682345 42.4078714,44.1352642 C41.5671134,44.6763261 39.6083452,45.7589003 38.9003621,46.8648814 C38.1928291,47.9717628 37.0383621,44.9734151 37.6252724,44.285159 Z" id="Path" fill="#F1B282" fill-rule="nonzero"></path>
                                <path d="M36.9879526,43.6153585 C37.165286,43.4812183 37.4177834,43.5154286 37.5528088,43.6923315 L40.0228731,46.9242992 C40.1741015,47.1219084 40.1389949,47.4036927 39.9445584,47.5589892 C37.9776887,49.1272588 28.3004196,56.7453396 26.2003249,56.5049677 L24.6430321,50.6482642 C24.6425821,50.647814 33.851313,45.9880189 36.9879526,43.6153585 Z" id="Path" fill="#F0B701" fill-rule="nonzero"></path>
                                <path d="M95.0079086,11.5468571 C97.845692,11.7813774 99.6280271,14.7419137 100.594359,15.6417332 C101.56069,16.5415526 102.08954,19.2603666 104.477239,21.4273154 C106.834332,23.5672561 100.113668,22.7138005 100.113668,22.7138005 L97.7646768,19.759566 C97.7646768,19.759566 97.3321455,18.8903558 95.3846294,20.0656577 C94.0546294,20.868248 92.8461523,19.4201644 91.9576853,17.728558 C91.7722504,17.8041806 91.5692623,17.8415418 91.365824,17.7974286 C90.8662301,17.688496 90.9139391,16.3263881 90.9868528,15.5228976 C90.6416379,14.6010216 90.4472014,13.9150162 90.4472014,13.9150162 C90.3909408,12.200903 92.1701252,11.3123369 95.0079086,11.5468571 Z" id="Path" fill="#FFB0B6" fill-rule="nonzero"></path>
                                <path d="M103.402437,31.6485256 C103.402437,31.6485256 100.467885,33.8204259 97.4383655,36.1710296 C93.8102335,38.9857224 90.7343553,40.4563127 88.8786565,42.4859704 C88.4407242,42.9649137 89.1676108,45.2524987 88.2917462,46.0208787 C87.4158816,46.7892588 83.9898376,47.2884582 83.9110728,45.1822776 C83.8570626,43.7400458 83.5798105,41.9719164 85.322088,40.9829704 C85.9643587,40.6183612 89.5065245,37.5335876 91.4022809,36.0148329 C93.2980372,34.4960782 98.4276514,29.0782561 98.4276514,29.0782561 C98.4276514,29.0782561 102.285327,28.8765957 103.402437,31.6485256 Z" id="Path" fill="#F6846F" fill-rule="nonzero"></path>
                                <path d="M101.243381,17.5755121 C100.380118,17.4355202 100.659621,15.3423935 99.0474179,15.373903 C97.7916819,15.3986604 98.2381658,16.2471644 96.8483046,15.9541267 C95.4584433,15.6610889 95.9107783,12.8806065 91.1880406,13.6894987 C89.0964975,14.0478059 88.8543519,11.7354636 89.6172453,10.1037251 C91.2582538,6.59447439 98.0095228,4.73001617 100.378318,8.37610782 C102.915895,12.2814771 102.106643,17.715504 101.243381,17.5755121 Z" id="Path" fill="#510000" fill-rule="nonzero"></path>
                                <path d="M118.112102,36.5554447 L104.033455,36.5554447 C103.623878,35.3265768 103.088277,34.4038005 102.25112,34.021186 C101.82354,33.827628 101.386958,33.6655795 100.959377,33.5080323 C100.414775,33.3144744 99.8791743,33.1344205 99.3840812,32.9093531 C99.2400541,32.8463342 99.1005279,32.778814 98.9655025,32.7067925 C98.7269577,32.5762534 98.5019154,32.4322102 98.2948765,32.2701617 C97.754775,31.847035 97.3226937,31.0998113 97.0436413,30.1680323 C96.994132,30.0104852 96.9491235,29.8439353 96.9131168,29.6773854 C96.8996142,29.6188679 96.8861117,29.5648518 96.8816108,29.5063342 C96.5980575,28.169434 96.6025584,26.5714555 97.0031337,25.036496 C97.3496988,23.6815903 97.9978206,22.3807008 99.0285144,21.3453908 C99.7396481,20.6251752 100.635316,20.0354987 101.738024,19.6528841 C102.080088,19.5313477 102.431154,19.4548248 102.791222,19.4233154 C103.322321,19.3647978 103.871425,19.4008086 104.425029,19.5178437 C105.982321,19.8374394 107.607127,20.8007278 109.083404,22.2951752 C111.054775,24.2847709 112.769597,27.2106469 113.746281,30.8027224 C114.520426,33.6475741 116.320765,35.3535849 118.112102,36.5554447 Z" id="Path" fill="#FFFFFF" fill-rule="nonzero"></path>
                                <path d="M99.9268832,6.54450943 C99.9268832,6.54450943 99.8431675,3.41292183 104.315208,3.41292183 C113.400616,3.41292183 109.784186,11.8817574 109.916061,16.292628 C110.048386,20.7034987 112.165134,20.3947062 112.25335,21.9382183 C112.341567,23.4821806 103.653134,22.2470108 103.036068,16.2485148 C102.418552,10.2500189 101.977919,7.48664151 100.698778,8.00024528 C99.4196379,8.51384906 99.9268832,6.54450943 99.9268832,6.54450943 Z" id="Path" fill="#510000" fill-rule="nonzero"></path>
                                <path d="M98.0122234,5.40296765 C96.7398342,6.00839892 99.6829374,11.3019838 101.467073,10.6105768 C103.250758,9.91916981 99.6712352,4.61343127 98.0122234,5.40296765 Z" id="Path" fill="#FFC23F" fill-rule="nonzero"></path>
                                <path d="M88.5901523,54.936248 L35.4585651,62.965752 C33.0006531,63.3371132 30.707022,61.6455067 30.3357022,59.1873208 L23.4314044,13.4923396 C23.0600846,11.0341536 24.7515025,8.74026685 27.2094146,8.36890566 L80.3410017,0.339401617 C82.7989137,-0.0319595687 85.0925448,1.6596469 85.4638646,4.11783288 L92.3681624,49.812814 C92.7394822,52.271 91.0480643,54.5648868 88.5901523,54.936248 Z" id="Path" fill="#FF8E88" fill-rule="nonzero"></path>
                                <rect id="矩形" fill="#FFFFFF" transform="translate(63.506156, 19.078217) rotate(-9.000000) translate(-63.506156, -19.078217) " x="48.0061558" y="16.0782172" width="31" height="6" rx="1"></rect>
                                <rect id="矩形备份" fill="#FFFFFF" transform="translate(58.407663, 32.826742) rotate(-9.000000) translate(-58.407663, -32.826742) " x="34.9076626" y="29.8267415" width="47" height="6" rx="1"></rect>
                                <rect id="矩形备份-2" fill="#FFFFFF" transform="translate(60.407663, 43.826742) rotate(-9.000000) translate(-60.407663, -43.826742) " x="36.9076626" y="40.8267415" width="47" height="6" rx="1"></rect>
                                <g id="用户" transform="translate(39.000000, 22.336927) rotate(-11.000000) translate(-39.000000, -22.336927) translate(31.000000, 14.336927)" fill-rule="nonzero">
                                    <rect id="矩形" fill="#000000" opacity="0" x="0" y="0" width="16" height="16"></rect>
                                    <path d="M8.03125,1.7859375 C4.5953125,1.7859375 1.8,4.58125 1.8,8.0171875 C1.8,11.4546875 4.5953125,14.25 8.03125,14.25 C11.4671875,14.25 14.2625,11.4546875 14.2625,8.0171875 C14.2625,4.5828125 11.4671875,1.7859375 8.03125,1.7859375 Z M11.903125,10.73125 C11.4359375,9.8765625 10.69375,9.1953125 9.7953125,8.8015625 C9.303125,9.16875 8.6921875,9.3859375 8.03125,9.3859375 C7.3703125,9.3859375 6.759375,9.16875 6.2671875,8.8015625 C5.36875,9.19375 4.6265625,9.8765625 4.159375,10.73125 C3.6203125,9.9625 3.3015625,9.0265625 3.3015625,8.01875 C3.3015625,5.4109375 5.4234375,3.2890625 8.03125,3.2890625 C10.6390625,3.2890625 12.7609375,5.4109375 12.7609375,8.01875 C12.7609375,9.0265625 12.44375,9.9625 11.903125,10.73125 L11.903125,10.73125 Z M5.60625,6.4328125 C5.60625,7.77210302 6.69195948,8.8578125 8.03125,8.8578125 C9.37054052,8.8578125 10.45625,7.77210302 10.45625,6.4328125 C10.45625,5.09352198 9.37054052,4.0078125 8.03125,4.0078125 C6.69195948,4.0078125 5.60625,5.09352198 5.60625,6.4328125 Z" id="形状" fill="#FFFFFF"></path>
                                </g>
                                <path d="M31.0535871,116.395399 L31.5981895,118.933259 C31.5981895,118.933259 32.3583824,120.179232 30.1448663,120.368288 C27.9313503,120.557345 27.733313,119.553094 27.733313,119.553094 C27.733313,119.553094 27.0856413,116.502531 27.1126464,116.286466 C27.1396514,116.070402 31.0535871,116.395399 31.0535871,116.395399 Z" id="Path" fill="#FFB0B6" fill-rule="nonzero"></path>
                                <path d="M31.5630829,118.226547 C31.786775,117.981224 32.1513435,117.929008 32.435797,118.100509 C33.430934,118.700539 35.5472318,119.97307 35.6750558,120.020784 C36.8011675,120.44166 39.8081827,121.102458 39.8068329,122.234997 C39.8050321,123.422003 31.0895939,123.098356 27.8998443,122.940358 C27.2530728,122.908399 26.7417766,122.37904 26.7336751,121.731296 L26.7007849,119.107011 C26.6990186,118.973321 26.7687817,118.849084 26.8835533,118.780663 C26.9983249,118.712243 27.1410017,118.710442 27.2575736,118.775712 C27.7913739,119.074601 28.6208799,119.462617 29.3810728,119.497278 C30.2263316,119.534639 31.0909442,118.743752 31.5630829,118.226547 Z" id="Path" fill="#0A1039" fill-rule="nonzero"></path>
                                <path d="M7.79681557,105.451272 L5.90240948,107.225253 C5.90240948,107.225253 5.02834518,108.371296 3.72625042,106.571208 C2.42415567,104.771119 3.41029103,104.234558 3.41029103,104.234558 C3.41029103,104.234558 5.69086971,102.107671 5.89025719,102.019895 C6.08919459,101.931218 7.79681557,105.451272 7.79681557,105.451272 Z" id="Path" fill="#FFB0B6" fill-rule="nonzero"></path>
                                <path d="M6.29263283,107.04655 C6.61804399,107.11227 6.85073773,107.397655 6.85028765,107.729404 C6.84893739,108.891652 6.84848731,111.361092 6.87324196,111.495232 C7.09288325,112.677286 8.07541794,115.595509 7.10413536,116.177534 C6.08604399,116.787466 1.8737022,109.14958 0.366368866,106.333987 C0.0607614213,105.763216 0.251147208,105.052003 0.802050761,104.711701 L3.03447039,103.331588 C3.14789171,103.261367 3.29056853,103.256865 3.40849069,103.320334 C3.52641286,103.383353 3.60157699,103.504889 3.60562775,103.638129 C3.62408122,104.249412 3.71904907,105.160485 4.08136717,105.830286 C4.48284264,106.574358 5.60625381,106.907908 6.29263283,107.04655 Z" id="Path" fill="#0A1039" fill-rule="nonzero"></path>
                                <path d="M26.9425144,75.8170997 C26.9425144,75.8170997 31.3155364,84.6446927 32.1252386,89.0992264 C32.9160372,93.4502291 17.3773164,103.30593 8.28290694,106.409159 C7.91248731,106.535647 7.50381049,106.380801 7.31117428,106.040049 L5.34025381,102.421415 C5.11071066,102.015394 5.23493401,101.500889 5.62470728,101.244313 L22.1648663,87.5602156 L18.1969205,75.8166496 L26.9425144,75.8166496 L26.9425144,75.8170997 Z" id="Path" fill="#020687" fill-rule="nonzero"></path>
                                <path d="M13.7428832,73.5497709 C13.5808528,78.9761456 18.9067039,90.8002857 19.4423046,96.0646119 C19.9045415,100.607372 25.8150525,114.52959 26.6504095,117.346534 C26.7678816,117.742202 27.1671066,117.984375 27.5721827,117.903801 L31.1499052,117.122817 C31.4078037,117.071501 31.6323959,116.914854 31.7692217,116.690687 C31.9060474,116.46652 31.9425042,116.195089 31.8700406,115.942113 C31.0562876,113.096361 28.4610998,101.118725 27.9952623,98.6560377 C27.4286058,95.6594906 28.238308,82.7770836 26.5374382,76.6268922 C24.8370186,70.4771509 13.7428832,73.5497709 13.7428832,73.5497709 Z" id="Path" fill="#374ABE" fill-rule="nonzero"></path>
                                <path d="M36.3452318,62.6911698 C36.3452318,62.6911698 38.607357,60.6200997 39.8774958,60.026372 C41.1476345,59.4326442 42.5636007,58.870876 42.7044772,59.1958733 C42.8453536,59.5208706 40.3806904,61.4415957 40.3806904,61.4415957 C40.3806904,61.4415957 41.4847479,61.9880593 42.6684704,61.3047547 C43.8521929,60.6219003 44.6785482,60.2842992 44.879736,60.4927116 C45.0809239,60.701124 42.4407276,63.9763046 40.9036887,64.2346819 C39.3666497,64.4930593 36.4870085,65.4324906 36.4870085,65.4324906 L36.3452318,62.6911698 Z" id="Path" fill="#FFB0B6" fill-rule="nonzero"></path>
                                <path d="M29.2266937,39.6996361 C29.7141354,40.9514609 29.1978883,41.5019757 29.270802,42.0074771 C29.3437157,42.5129784 29.8248562,43.5892507 29.7465415,44.047938 C29.6686768,44.5066253 28.9579932,44.452159 28.6667885,45.0202291 C28.3751337,45.5882992 28.5857733,46.4278005 27.9160474,46.9616604 C27.2463215,47.4955202 25.2555973,47.0120755 25.2317428,47.6319111 C25.2083384,48.2521968 25.9541286,50.6937278 25.9541286,50.6937278 L20.2232014,49.8272183 C20.2232014,49.8272183 21.3272589,46.6411644 21.2228393,45.2295418 C21.1184196,43.8183693 21.3511134,38.7376981 23.2221151,38.4311563 C25.0931168,38.1250647 28.7090964,38.3708383 29.2266937,39.6996361 Z" id="Path" fill="#FFB0B6" fill-rule="nonzero"></path>
                                <path d="M24.4688494,35.7452022 C27.2508223,36.0296873 28.5835228,35.9369596 28.685242,34.9394609 C29.563357,35.0303881 30.9559188,36.653124 30.7722843,38.4496119 C30.366308,42.4198005 25.2722504,40.1817305 25.046758,42.3860404 C25.0436074,42.3927925 25.2447953,45.2484474 25.8897665,45.7255903 C26.5351878,46.2031833 28.0519729,44.9441563 28.6397834,44.9783666 C29.1159729,45.0062749 30.6174552,49.7538464 27.1144467,49.3955391 C23.6114382,49.0372318 24.8856277,42.2802588 22.7423249,42.0610431 C21.6535702,41.9494097 22.2724365,46.5367332 20.7763553,46.3836873 C19.4026971,46.2432453 18.0231878,44.2559003 18.3909069,40.6593235 C18.7919323,36.7449515 22.0010355,35.4926765 24.4688494,35.7452022 Z" id="Path" fill="#0B224E" fill-rule="nonzero"></path>
                                <path d="M18.1159052,76.7893908 C14.7146159,76.3032453 12.991692,77.0252615 12.1819898,73.3805202 C11.3722876,69.735779 14.1479594,65.3699218 14.7146159,61.6446065 C15.7673638,52.2498437 19.5732792,47.9573585 20.8690728,47.7142857 C21.7129814,47.5558383 23.759066,48.7883073 25.0832149,49.6669704 C25.9122707,50.217035 26.5581421,51.0160243 26.9024569,51.9496038 C29.2455973,58.3010054 26.8619492,63.523469 26.8619492,66.9931078 C26.8619492,68.1211456 28.0398206,74.832655 28.3134721,75.8175499 C28.7820102,77.5123073 21.4730863,77.2687844 18.1159052,76.7893908 Z" id="Path" fill="#FFC23F" fill-rule="nonzero"></path>
                                <path d="M27.5811844,71.9990566 C24.7051438,71.278841 19.2231134,69.6313477 18.0168866,67.2861456 C16.3605753,64.0721833 20.6048731,56.5684367 20.6048731,56.5684367 C19.322132,62.5192183 19.9252453,69.0686792 24.6691371,69.3747709 C25.3892724,69.4197844 26.2039255,69.401779 27.0770897,69.3297574 C27.1220981,69.4963073 27.1671066,69.6628571 27.2166159,69.829407 L27.5811844,71.9990566 Z" id="Path" fill="#F0B701" fill-rule="nonzero"></path>
                                <path d="M38.4502775,66.7851456 C38.2207343,66.9764528 26.4496717,71.0636765 22.4317665,68.7679892 C18.4138613,66.4723019 20.3775804,56.5675364 20.3775804,56.5675364 L25.9500778,57.5564825 L25.7992995,62.9842075 C25.7992995,62.9842075 32.627533,62.7235795 35.181313,62.0555795 C35.5742369,61.9524987 35.9892149,62.1190485 36.2007547,62.4661024 C36.9879526,63.7534879 38.6829712,66.5915876 38.4502775,66.7851456 Z" id="Path" fill="#FFC23F" fill-rule="nonzero"></path>
                                <path d="M121.861306,38.8016173 L104.623066,38.8016173 C104.443032,37.9868733 104.258497,37.2261456 104.033455,36.5554447 L118.112102,36.5554447 C119.547871,37.5187332 120.97464,38.1579245 121.861306,38.8016173 Z" id="Path" fill="#E9EDF0" fill-rule="nonzero"></path>
                                <path d="M96.9113164,29.6773854 C97.1791168,30.8373827 97.6652081,31.776814 98.2948765,32.2715121 C99.361577,33.1083127 100.848657,33.383345 102.24977,34.0238868 C104.155878,32.1963396 103.763854,26.9401159 103.763854,26.9401159 C101.23843,25.7396065 98.6959019,27.6774367 96.9113164,29.6773854 Z" id="Path" fill="#E9EDF0" fill-rule="nonzero"></path>
                                <path d="M101.067398,31.2398032 C101.067398,31.2398032 97.8776481,33.0155849 94.5699763,34.9556658 C90.6092318,37.2792615 87.3695228,38.3406792 85.2680778,40.1146604 C84.7720846,40.5332857 84.3301015,43.5190296 83.3624196,44.168124 C82.3947377,44.8172183 78.5640677,44.0542399 79.8090017,42.3531806 C82.3069712,38.9416092 79.3607174,41.3768383 79.2432453,41.0783989 C78.8413198,40.0556927 80.6092521,38.7057385 81.9343012,38.1655768 C82.6179797,37.8869434 86.5283147,35.2842642 88.6036548,34.0225364 C90.679445,32.7603585 96.4643824,28.049248 96.4643824,28.049248 C96.4643824,28.049248 100.317107,28.3467871 101.067398,31.2398032 Z" id="Path" fill="#FFB0B6" fill-rule="nonzero"></path>
                                <path d="M100.189283,21.9044582 C97.6301015,22.0088895 96.1416717,27.6495283 94.9426464,28.6056146 C93.743621,29.5612507 98.3983959,33.4463639 99.0177124,33.1254178 C100.469235,32.3736927 103.408738,29.5972615 103.994298,27.2831186 C104.579858,24.9689757 102.049932,21.8283854 100.189283,21.9044582 Z" id="Path" fill="#FFFFFF" fill-rule="nonzero"></path>
                            </g>
                        </g>
                    </g>
                </g>
            </g>
        </g>
    </g>
</svg>