<?xml version="1.0" encoding="UTF-8"?>
<svg width="283px" height="181px" viewBox="0 0 283 181" version="1.1" xmlns="http://www.w3.org/2000/svg" xmlns:xlink="http://www.w3.org/1999/xlink">
    <title>img/使用字段</title>
    <g id="空页面" stroke="none" stroke-width="1" fill="none" fill-rule="evenodd">
        <g id="字段无权限" transform="translate(-1075.000000, -422.000000)">
            <g id="编组" transform="translate(350.000000, 153.000000)">
                <g id="编组-2" transform="translate(0.000000, 185.000000)">
                    <g id="img/使用字段" transform="translate(725.000000, 84.000000)">
                        <g id="Background" fill-rule="nonzero">
                            <path d="M222.218987,50.868 C176.058212,86.5657391 268.379763,85.0137376 268.379763,94.4039608 C268.379763,110.163987 247.040074,118.044 204.360696,118.044 C94.4975054,115.251858 48.8243886,97.5405199 67.3413451,64.909985 C95.1167799,15.9641827 9.16855946,53.6587016 24.816373,15.9461036 C40.4641866,-21.7664944 268.379763,15.1702609 222.218987,50.868 Z" id="Background-base" fill="#F4F7FA" transform="translate(145.637882, 59.077112) scale(-1, -1) translate(-145.637882, -59.077112) "></path>
                            <path d="M282.792174,160.663796 C283.934723,162.810781 262.421043,164.446466 262.421043,165.578646 C262.421043,170.728852 273.961178,170.128266 273.961178,175.136133 C273.961178,178.474711 251.2327,180.144 205.775745,180.144 C167.632127,180.144 114.303873,180.144 45.7909843,180.144 C11.7474712,180.144 0.292912566,179.851189 0,177.5135 C-0.291475088,175.169455 57.0748278,171.818519 57.0748278,167.247484 C57.0748278,162.676448 42.2661495,168.47473 42.2661495,156.176389 C42.2661495,143.878048 271.122814,138.735684 282.792174,160.663796 Z" id="Background-base" fill="#E3EDFA" transform="translate(141.418062, 162.864000) scale(1, -1) translate(-141.418062, -162.864000) "></path>
                            <path d="M254.448,71.6505112 C269.359688,71.6505112 281.448,73.3633662 281.448,64.476 C281.448,55.5886338 269.359688,48.384 254.448,48.384 C239.536312,48.384 227.448,55.5886338 227.448,64.476 C227.448,73.3633662 239.536312,71.6505112 254.448,71.6505112 Z" id="Background-base" fill="#F4F7FA" transform="translate(254.448000, 60.083547) scale(-1, 1) translate(-254.448000, -60.083547) "></path>
                            <path d="M69.5146253,37.2005363 C69.5146253,28.3131701 43.6306967,31.907348 22.628575,41.2457129 C1.6264532,50.5840778 22.3300645,62.2284309 32.2919499,63.8327198 C42.2538353,65.4370087 69.5146253,46.0879025 69.5146253,37.2005363 Z" id="Background-base" fill="#F4F7FA" transform="translate(41.535759, 48.011152) scale(-1, 1) translate(-41.535759, -48.011152) "></path>
                            <path d="M190.08,146.043493 L260.435903,146.043493 C255.692792,142.973534 253.321236,140.38839 253.321236,138.288059 C253.321236,135.137563 245.686502,136.538909 243.197346,136.090941 C240.708191,135.642973 242.715757,130.902362 238.009312,130.401946 C233.302868,129.901531 233.017648,132.670495 230.340654,132.235572 C227.663661,131.800649 231.213657,123.984 221.83394,123.984 C212.454223,123.984 218.222597,129.077761 214.032716,129.15714 C209.842836,129.236518 211.462123,126.742533 206.741887,127.549947 C202.021652,128.357362 205.766495,138.288059 200.91793,136.563142 C197.685553,135.413197 194.07291,138.573314 190.08,146.043493 Z" id="Leaves" fill="#C9DAF2" transform="translate(225.257952, 135.013747) scale(-1, 1) translate(-225.257952, -135.013747) "></path>
                        </g>
                        <g id="Leaves" transform="translate(244.998125, 109.430625) scale(-1, 1) rotate(-357.000000) translate(-244.998125, -109.430625) translate(224.998125, 88.930625)" fill="#FF8D88" fill-rule="nonzero">
                            <path d="M38.9177047,33.6994687 C38.9973435,33.7882866 38.9899024,33.9248476 38.9010846,34.0044864 C38.8122668,34.0841252 38.6757057,34.0766841 38.5960669,33.9878663 C32.4541043,27.1379918 26.8836468,23.1049416 21.8949283,21.8825052 C13.7154445,19.8782032 5.95537854,13.375893 5.43613918,7.39573678 C5.4258201,7.27689042 5.51379885,7.17218115 5.6326452,7.16186207 C5.75149156,7.15154299 5.85620084,7.23952173 5.86651992,7.35836809 C6.36676325,13.1197442 13.9786944,19.4979294 21.9977438,21.4629185 C27.0864204,22.7098487 32.7229961,26.7907689 38.9177047,33.6994687 Z" id="Leaves-base"></path>
                            <path d="M10.0157708,14.8477623 C10.0289479,14.9663258 9.94351537,15.0731227 9.82495186,15.0862998 C9.70638836,15.0994769 9.59959149,15.0140443 9.58641438,14.8954808 C9.25633732,11.9255504 9.52016748,9.80058462 10.3966897,8.51557794 C10.4639121,8.41702799 10.5982971,8.39163199 10.6968471,8.45885438 C10.795397,8.52607677 10.820793,8.6604618 10.7535706,8.75901174 C9.94823344,9.9396591 9.69603854,11.9709111 10.0157708,14.8477623 Z" id="Leaves-base"></path>
                            <path d="M9.93169796,12.6812933 L9.65693643,13.0020886 L9.55769355,12.5915349 C8.53647288,8.36688982 9.21445711,6.16124453 11.6622313,6.16124453 C12.9322354,6.16124453 13.4468332,6.81193843 13.0872976,7.98159392 C12.7603092,9.04536568 11.7096155,10.6055021 9.93169796,12.6812933 Z M12.6743655,7.85466443 C12.9463582,6.96980705 12.6485557,6.59324453 11.6622313,6.59324453 C9.67046709,6.59324453 9.05556712,8.36421188 9.88088046,12.0736582 C11.4542049,10.20339 12.3863586,8.7916201 12.6743655,7.85466443 Z" id="Leaves-base"></path>
                            <path d="M6.32196108,5.55114168 C6.04341155,4.68752653 5.5636183,4.53202046 4.72540235,5.04799259 C3.04960895,6.07954379 3.54712478,7.83509516 6.38251185,10.4299665 C6.6381054,8.09252367 6.61549916,6.46122731 6.32196108,5.55114168 Z M4.49894549,4.68010498 C5.56874813,4.02157738 6.3658607,4.27993001 6.73310421,5.418532 C7.06827874,6.45770732 7.0757197,8.27765661 6.76403903,10.8962298 L6.7153051,11.305666 L6.40645084,11.0324956 C3.11479513,8.12114525 2.41806737,5.96101009 4.49894549,4.68010498 Z" id="Leaves-base"></path>
                            <path d="M10.2841798,15.0791014 C10.3858329,15.1415322 10.4176289,15.2745483 10.3551982,15.3762014 C10.2927675,15.4778545 10.1597513,15.5096505 10.0580982,15.4472198 C7.40792023,13.8196003 5.57578088,12.8843101 4.58310568,12.6462784 C4.46710062,12.6184618 4.39560976,12.5018713 4.42342639,12.3858662 C4.45124302,12.2698611 4.56783354,12.1983703 4.6838386,12.2261869 C5.73570612,12.4784121 7.5953447,13.4277405 10.2841798,15.0791014 Z" id="Leaves-base"></path>
                            <path d="M7.08433762,13.2409547 L7.30268852,13.5627466 L6.91411114,13.5780683 C6.27610686,13.603225 5.32490523,13.7419938 4.06466328,13.9946743 C3.05225906,14.197663 1.72643689,13.742932 0.917381487,12.9389996 C-0.0164519709,12.0110794 -0.0699259989,10.8425602 0.990482932,9.84099046 C2.54576443,8.37200727 4.589562,9.56431059 7.08433762,13.2409547 Z M1.28711564,10.1550494 C0.412871836,10.9807838 0.45352169,11.869068 1.22187986,12.6325608 C1.93282067,13.3389998 3.11503921,13.7444776 3.97973683,13.5711044 C5.03219936,13.360084 5.87553969,13.2268057 6.51206464,13.1714357 C4.25414184,9.93861375 2.52389386,8.98689664 1.28711564,10.1550494 Z" id="Leaves-base"></path>
                            <path d="M11.8292218,16.5652904 C11.9462503,16.5884265 12.0223651,16.7020524 11.999229,16.8190808 C11.9760929,16.9361093 11.8624671,17.0122241 11.7454386,16.989088 C9.78497143,16.6015108 8.48703368,16.6015108 7.87835326,16.9629175 C7.77577837,17.0238218 7.64325231,16.9900411 7.58234802,16.8874662 C7.52144372,16.7848913 7.55522442,16.6523652 7.65779931,16.591461 C8.38774387,16.1580531 9.76930874,16.1580531 11.8292218,16.5652904 Z" id="Leaves-base"></path>
                            <path d="M5.70857279,16.0314543 C4.80551482,16.1606245 4.49553029,16.8790499 4.79521006,17.7478526 C5.08419626,18.5856535 5.7718072,19.0473192 6.36729992,18.7257688 C7.35704846,18.1913306 8.61755369,17.5344743 10.149011,16.7550843 C8.58723001,16.071285 7.10800196,15.8312851 5.70857279,16.0314543 Z M10.7425399,16.938087 C9.03318545,17.8051716 7.64310774,18.5278225 6.57255653,19.1058921 C5.69481654,19.5798487 4.75174378,18.9466645 4.38682235,17.8887195 C4.00680083,16.7869977 4.44298836,15.7760821 5.64740365,15.6038069 C7.25633585,15.3736711 8.95458075,15.6909092 10.7386165,16.5508791 L11.1320261,16.7405167 L10.7425399,16.938087 Z" id="Leaves-base"></path>
                            <path d="M15.5155351,18.9567312 C15.634219,18.9687758 15.7206672,19.0747522 15.7086225,19.1934361 C15.6965779,19.31212 15.5906014,19.3985682 15.4719175,19.3865236 C13.2028721,19.1562491 11.7268489,19.4753241 11.0332787,20.309824 C10.9570287,20.4015676 10.820843,20.4141276 10.7290995,20.3378777 C10.6373559,20.2616277 10.6247959,20.125442 10.7010458,20.0336984 C11.509414,19.0610741 13.1177668,18.7133932 15.5155351,18.9567312 Z" id="Leaves-base"></path>
                            <path d="M7.45443249,20.7769319 C7.19886472,20.9564199 7.17824159,21.1062053 7.34192014,21.3108115 C7.52812211,21.5435732 7.93039864,21.7879286 8.4376959,21.9767203 C9.51528443,22.3777468 10.6247988,22.3885085 10.8598703,21.9969065 C11.2723756,21.30972 12.0930938,20.4366144 13.3250495,19.3699416 C10.3239846,19.6660468 8.36080236,20.1403786 7.45443249,20.7769319 Z M14.124238,19.258213 C12.6336042,20.5001646 11.6674699,21.4909059 11.2302612,22.2192453 C10.8441375,22.8624831 9.54536154,22.8498857 8.28702202,22.3815923 C7.71307925,22.1679985 7.24883075,21.8859992 7.00457964,21.5806733 C6.68586015,21.1822583 6.74583055,20.7466944 7.20614879,20.4234079 C8.26202584,19.6818541 10.5080228,19.1730029 13.9675632,18.87705 L14.6519985,18.8184986 L14.124238,19.258213 Z" id="Leaves-base"></path>
                            <path d="M17.3723625,19.6604019 C17.4456318,19.7545431 17.4287118,19.890256 17.3345707,19.9635253 C17.2404296,20.0367946 17.1047166,20.0198747 17.0314473,19.9257336 C15.1890791,17.5585403 14.4131779,15.9689661 14.7325074,15.0777783 C14.7727473,14.9654765 14.8964067,14.9070588 15.0087085,14.9472987 C15.1210103,14.9875385 15.179428,15.111198 15.1391882,15.2234998 C14.8922791,15.9125759 15.6270826,17.4179541 17.3723625,19.6604019 Z" id="Leaves-base"></path>
                            <path d="M15.9051419,17.5545811 L15.8042352,17.8259753 L15.5728415,17.6519236 C14.6794548,16.979928 14.0035921,16.1511316 13.5475966,15.1677313 C12.7896451,13.5331323 14.0227657,11.9285468 15.766529,12.4680801 C17.0144192,12.8541867 17.0144192,14.5711199 15.9051419,17.5545811 Z M15.6388374,12.8807772 C14.2694197,12.4570692 13.3323002,13.6764862 13.9395132,14.9860025 C14.3252796,15.8179467 14.8788357,16.5305038 15.601924,17.1253072 C16.5261497,14.5417793 16.4968271,13.1462456 15.6388374,12.8807772 Z" id="Leaves-base"></path>
                            <path d="M36.4622646,21.6811561 C36.5781303,21.7095478 36.6490419,21.8264915 36.6206502,21.9423572 C36.5922584,22.0582228 36.4753147,22.1291345 36.359449,22.1007427 C28.1799653,20.0964407 20.4198993,13.5941305 19.90066,7.6139743 C19.8903409,7.49512794 19.9783196,7.39041867 20.097166,7.38009959 C20.2160124,7.36978051 20.3207216,7.45775925 20.3310407,7.57660561 C20.831284,13.3379818 28.4432152,19.7161669 36.4622646,21.6811561 Z" id="Leaves-base" transform="translate(28.263372, 14.743138) rotate(40.000000) translate(-28.263372, -14.743138) "></path>
                            <path d="M27.1217417,13.3495625 C27.1349188,13.468126 27.0494863,13.5749229 26.9309228,13.5881 C26.8123593,13.6012771 26.7055624,13.5158445 26.6923853,13.397281 C26.3623082,10.4273506 26.6261384,8.30238482 27.5026606,7.01737814 C27.569883,6.9188282 27.704268,6.8934322 27.802818,6.96065459 C27.9013679,7.02787697 27.9267639,7.162262 27.8595415,7.26081194 C27.0542043,8.4414593 26.8020094,10.4727113 27.1217417,13.3495625 Z" id="Leaves-base" transform="translate(27.226161, 10.256257) rotate(40.000000) translate(-27.226161, -10.256257) "></path>
                            <path d="M28.193553,12.3529093 L27.9187915,12.6737046 L27.8195486,12.2631508 C26.798328,8.03850573 27.4763122,5.83286044 29.9240864,5.83286044 C31.1940905,5.83286044 31.7086883,6.48355435 31.3491527,7.65320983 C31.0221642,8.71698159 29.9714705,10.277118 28.193553,12.3529093 Z M30.9362206,7.52628034 C31.2082133,6.64142297 30.9104108,6.26486044 29.9240864,6.26486044 C27.9323222,6.26486044 27.3174222,8.0358278 28.1427355,11.7452741 C29.7160599,9.87500591 30.6482136,8.46323602 30.9362206,7.52628034 Z" id="Leaves-base" transform="translate(29.411124, 9.253283) rotate(40.000000) translate(-29.411124, -9.253283) "></path>
                            <path d="M27.1218607,1.78354374 C26.8433111,0.919928594 26.3635179,0.764422521 25.5253019,1.28039464 C23.8495085,2.31194585 24.3470244,4.06749722 27.1824114,6.66236858 C27.438005,4.32492573 27.4153987,2.69362937 27.1218607,1.78354374 Z M25.2988451,0.912507037 C26.3686477,0.25397944 27.1657603,0.512332072 27.5330038,1.65093406 C27.8681783,2.69010938 27.8756193,4.51005867 27.5639386,7.12863184 L27.5152047,7.53806808 L27.2063504,7.26489766 C23.9146947,4.35354731 23.217967,2.19341215 25.2988451,0.912507037 Z" id="Leaves-base" transform="translate(25.955565, 4.047066) rotate(40.000000) translate(-25.955565, -4.047066) "></path>
                            <path d="M26.6792293,11.3436824 C26.7808824,11.4061131 26.8126784,11.5391293 26.7502477,11.6407824 C26.687817,11.7424354 26.5548008,11.7742314 26.4531477,11.7118007 C23.8029697,10.0841813 21.9708304,9.14889102 20.9781552,8.91085938 C20.8621501,8.88304275 20.7906593,8.76645223 20.8184759,8.65044716 C20.8462925,8.5344421 20.962883,8.46295124 21.0788881,8.49076787 C22.1307556,8.74299312 23.9903942,9.69232148 26.6792293,11.3436824 Z" id="Leaves-base" transform="translate(23.797346, 10.114268) rotate(40.000000) translate(-23.797346, -10.114268) "></path>
                            <path d="M25.7557875,7.67861251 L25.9741384,8.00040439 L25.585561,8.0157261 C24.9475568,8.04088278 23.9963551,8.17965161 22.7361132,8.43233213 C21.723709,8.6353208 20.3978868,8.18058977 19.5888314,7.37665744 C18.6549979,6.44873718 18.6015239,5.28021801 19.6619328,4.27864826 C21.2172143,2.80966508 23.2610119,4.0019684 25.7557875,7.67861251 Z M19.9585655,4.59270724 C19.0843217,5.41844165 19.1249716,6.30672585 19.8933298,7.07021864 C20.6042706,7.77665764 21.7864891,8.18213545 22.6511867,8.00876219 C23.7036493,7.79774177 24.5469896,7.66446347 25.1835145,7.60909352 C22.9255917,4.37627155 21.1953438,3.42455445 19.9585655,4.59270724 Z" id="Leaves-base" transform="translate(22.425831, 6.073627) rotate(40.000000) translate(-22.425831, -6.073627) "></path>
                            <path d="M25.8825732,13.7067207 C25.9996016,13.7298568 26.0757164,13.8434826 26.0525803,13.9605111 C26.0294442,14.0775396 25.9158184,14.1536544 25.79879,14.1305183 C23.8383228,13.7429411 22.540385,13.7429411 21.9317046,14.1043478 C21.8291297,14.165252 21.6966037,14.1314714 21.6356994,14.0288965 C21.5747951,13.9263216 21.6085758,13.7937955 21.7111507,13.7328912 C22.4410952,13.2994834 23.8226601,13.2994834 25.8825732,13.7067207 Z" id="Leaves-base" transform="translate(23.831058, 13.769574) rotate(40.000000) translate(-23.831058, -13.769574) "></path>
                            <path d="M19.7546227,11.6525153 C18.8515648,11.7816855 18.5415802,12.5001109 18.84126,13.3689136 C19.1302462,14.2067145 19.8178571,14.6683802 20.4133499,14.3468298 C21.4030984,13.8123916 22.6636036,13.1555352 24.195061,12.3761453 C22.63328,11.692346 21.1540519,11.4523461 19.7546227,11.6525153 Z M24.7885898,12.559148 C23.0792354,13.4262326 21.6891577,14.1488835 20.6186065,14.7269531 C19.7408665,15.2009096 18.7977937,14.5677255 18.4328723,13.5097805 C18.0528508,12.4080587 18.4890383,11.3971431 19.6934536,11.2248679 C21.3023858,10.9947321 23.0006307,11.3119702 24.7846665,12.1719401 L25.1780761,12.3615777 L24.7885898,12.559148 Z" id="Leaves-base" transform="translate(21.738818, 13.019420) rotate(40.000000) translate(-21.738818, -13.019420) "></path>
                            <path d="M26.8401385,17.5819726 C26.9588224,17.5940172 27.0452706,17.6999937 27.033226,17.8186776 C27.0211813,17.9373614 26.9152049,18.0238096 26.796521,18.011765 C24.5274756,17.7814905 23.0514523,18.1005655 22.3578821,18.9350654 C22.2816322,19.026809 22.1454465,19.039369 22.0537029,18.9631191 C21.9619594,18.8868691 21.9493993,18.7506834 22.0256493,18.6589399 C22.8340175,17.6863155 24.4423703,17.3386346 26.8401385,17.5819726 Z" id="Leaves-base" transform="translate(24.505053, 18.260066) rotate(40.000000) translate(-24.505053, -18.260066) "></path>
                            <path d="M18.6237675,17.5607791 C18.3681997,17.7402671 18.3475766,17.8900525 18.5112551,18.0946588 C18.6974571,18.3274204 19.0997336,18.5717759 19.6070309,18.7605675 C20.6846194,19.161594 21.7941338,19.1723557 22.0292053,18.7807537 C22.4417106,18.0935672 23.2624288,17.2204616 24.4943845,16.1537888 C21.4933196,16.449894 19.5301373,16.9242258 18.6237675,17.5607791 Z M25.2935729,16.0420602 C23.8029391,17.2840118 22.8368049,18.2747531 22.3995962,19.0030925 C22.0134724,19.6463303 20.7146965,19.6337329 19.456357,19.1654395 C18.8824142,18.9518457 18.4181657,18.6698465 18.1739146,18.3645206 C17.8551951,17.9661055 17.9151655,17.5305416 18.3754838,17.2072551 C19.4313608,16.4657013 21.6773578,15.9568501 25.1368982,15.6608972 L25.8213335,15.6023459 L25.2935729,16.0420602 Z" id="Leaves-base" transform="translate(21.897825, 17.552668) rotate(40.000000) translate(-21.897825, -17.552668) "></path>
                            <path d="M29.4182463,20.6299338 C29.4915156,20.7240749 29.4745957,20.8597878 29.3804546,20.9330571 C29.2863134,21.0063264 29.1506005,20.9894065 29.0773312,20.8952654 C27.234963,18.5280721 26.4590618,16.9384979 26.7783912,16.0473101 C26.8186311,15.9350083 26.9422906,15.8765906 27.0545924,15.9168305 C27.1668942,15.9570703 27.2253119,16.0807298 27.185072,16.1930316 C26.938163,16.8821077 27.6729665,18.3874859 29.4182463,20.6299338 Z" id="Leaves-base" transform="translate(28.086136, 18.441361) rotate(40.000000) translate(-28.086136, -18.441361) "></path>
                            <path d="M29.7182656,18.4247468 L29.6173589,18.696141 L29.3859652,18.5220893 C28.4925785,17.8500937 27.8167158,17.0212973 27.3607203,16.037897 C26.6027688,14.403298 27.8358894,12.7987125 29.5796527,13.3382458 C30.8275429,13.7243524 30.8275429,15.4412856 29.7182656,18.4247468 Z M29.4519612,13.7509429 C28.0825434,13.3272348 27.1454239,14.5466519 27.7526369,15.8561682 C28.1384033,16.6881124 28.6919594,17.4006695 29.4150477,17.9954729 C30.3392734,15.411945 30.3099508,14.0164113 29.4519612,13.7509429 Z" id="Leaves-base" transform="translate(28.833253, 15.963952) rotate(40.000000) translate(-28.833253, -15.963952) "></path>
                            <path d="M29.317592,36.6198126 C29.4334576,36.6482043 29.5043692,36.7651481 29.4759775,36.8810137 C29.4475858,36.9968794 29.330642,37.067791 29.2147764,37.0393993 C21.0352926,35.0350973 13.2752267,28.5327871 12.7559873,22.5526308 C12.7456682,22.4337845 12.833647,22.3290752 12.9524933,22.3187561 C13.0713397,22.308437 13.176049,22.3964158 13.1863681,22.5152621 C13.6866114,28.2766383 21.2985425,34.6548235 29.317592,36.6198126 Z" id="Leaves-base" transform="translate(21.118700, 29.681795) scale(-1, -1) rotate(126.000000) translate(-21.118700, -29.681795) "></path>
                            <path d="M16.6106815,34.1227737 C16.6238586,34.2413372 16.538426,34.348134 16.4198625,34.3613111 C16.301299,34.3744883 16.1945022,34.2890557 16.1813251,34.1704922 C15.851248,31.2005618 16.1150782,29.075596 16.9916004,27.7905893 C17.0588228,27.6920394 17.1932078,27.6666434 17.2917578,27.7338658 C17.3903077,27.8010882 17.4157037,27.9354732 17.3484813,28.0340231 C16.5431441,29.2146705 16.2909492,31.2459225 16.6106815,34.1227737 Z" id="Leaves-base" transform="translate(16.715101, 31.029469) scale(-1, -1) rotate(126.000000) translate(-16.715101, -31.029469) "></path>
                            <path d="M14.3445825,32.0194187 L14.069821,32.340214 L13.9705781,31.9296602 C12.9493574,27.7050151 13.6273416,25.4993699 16.0751158,25.4993699 C17.34512,25.4993699 17.8597177,26.1500638 17.5001821,27.3197192 C17.1731937,28.383491 16.1225,29.9436274 14.3445825,32.0194187 Z M17.08725,27.1927898 C17.3592427,26.3079324 17.0614403,25.9313699 16.0751158,25.9313699 C14.0833516,25.9313699 13.4684517,27.7023372 14.293765,31.4117835 C15.8670894,29.5415153 16.7992431,28.1297454 17.08725,27.1927898 Z" id="Leaves-base" transform="translate(15.562154, 28.919792) scale(-1, -1) rotate(126.000000) translate(-15.562154, -28.919792) "></path>
                            <path d="M11.7759619,30.4665788 C11.4974123,29.6029636 11.0176191,29.4474576 10.1794031,29.9634297 C8.50360972,30.9949809 9.00112555,32.7505323 11.8365126,35.3454036 C12.0921062,33.0079608 12.0694999,31.3766644 11.7759619,30.4665788 Z M9.95294626,29.5955421 C11.0227489,28.9370145 11.8198615,29.1953671 12.187105,30.3339691 C12.5222795,31.3731444 12.5297205,33.1930937 12.2180398,35.8116669 L12.1693059,36.2211031 L11.8604516,35.9479327 C8.5687959,33.0365823 7.87206815,30.8764472 9.95294626,29.5955421 Z" id="Leaves-base" transform="translate(10.609666, 32.730101) scale(-1, -1) rotate(126.000000) translate(-10.609666, -32.730101) "></path>
                            <path d="M19.6945231,35.6892506 C19.7961762,35.7516813 19.8279722,35.8846975 19.7655414,35.9863505 C19.7031107,36.0880036 19.5700945,36.1197996 19.4684415,36.0573689 C16.8182635,34.4297494 14.9861241,33.4944592 13.9934489,33.2564276 C13.8774439,33.2286109 13.805953,33.1120204 13.8337696,32.9960153 C13.8615863,32.8800103 13.9781768,32.8085194 14.0941818,32.836336 C15.1460494,33.0885613 17.0056879,34.0378897 19.6945231,35.6892506 Z" id="Leaves-base" transform="translate(16.812639, 34.459836) scale(-1, -1) rotate(126.000000) translate(-16.812639, -34.459836) "></path>
                            <path d="M16.20747,37.7148564 L16.4258209,38.0366483 L16.0372435,38.05197 C15.3992393,38.0771267 14.4480376,38.2158955 13.1877957,38.468576 C12.1753915,38.6715647 10.8495693,38.2168337 10.0405139,37.4129013 C9.10668043,36.4849811 9.05320641,35.3164619 10.1136153,34.3148922 C11.6688968,32.845909 13.7126944,34.0382123 16.20747,37.7148564 Z M10.410248,34.6289511 C9.53600424,35.4546855 9.5766541,36.3429697 10.3450123,37.1064625 C11.0559531,37.8129015 12.2381716,38.2183793 13.1028692,38.0450061 C14.1553318,37.8339857 14.9986721,37.7007074 15.635197,37.6453374 C13.3772742,34.4125154 11.6470263,33.4607983 10.410248,34.6289511 Z" id="Leaves-base" transform="translate(12.877513, 36.109871) scale(-1, -1) rotate(126.000000) translate(-12.877513, -36.109871) "></path>
                            <path d="M22.5082043,34.108371 C22.6252328,34.1315071 22.7013476,34.2451329 22.6782115,34.3621614 C22.6550754,34.4791898 22.5414496,34.5553046 22.4244211,34.5321685 C20.463954,34.1445913 19.1660162,34.1445913 18.5573358,34.505998 C18.4547609,34.5669023 18.3222348,34.5331216 18.2613305,34.4305467 C18.2004263,34.3279718 18.2342069,34.1954458 18.3367818,34.1345415 C19.0667264,33.7011337 20.4482913,33.7011337 22.5082043,34.108371 Z" id="Leaves-base" transform="translate(20.456690, 34.171224) scale(-1, -1) rotate(126.000000) translate(-20.456690, -34.171224) "></path>
                            <path d="M17.870115,34.9437924 C16.9670571,35.0729625 16.6570725,35.7913879 16.9567523,36.6601906 C17.2457385,37.4979916 17.9333494,37.9596572 18.5288422,37.6381068 C19.5185907,37.1036686 20.7790959,36.4468123 22.3105532,35.6674223 C20.7487722,34.983623 19.2695442,34.7436231 17.870115,34.9437924 Z M22.9040821,35.850425 C21.1947277,36.7175096 19.80465,37.4401606 18.7340988,38.0182301 C17.8563588,38.4921867 16.913286,37.8590025 16.5483646,36.8010575 C16.1683431,35.6993357 16.6045306,34.6884201 17.8089459,34.5161449 C19.4178781,34.2860091 21.116123,34.6032472 22.9001588,35.4632171 L23.2935684,35.6528548 L22.9040821,35.850425 Z" id="Leaves-base" transform="translate(19.854310, 36.310697) scale(-1, -1) rotate(126.000000) translate(-19.854310, -36.310697) "></path>
                            <path d="M27.224313,32.5075367 C27.3429969,32.5195813 27.429445,32.6255578 27.4174004,32.7442417 C27.4053557,32.8629256 27.2993793,32.9493737 27.1806954,32.9373291 C24.91165,32.7070546 23.4356267,33.0261296 22.7420566,33.8606296 C22.6658066,33.9523731 22.5296209,33.9649332 22.4378773,33.8886832 C22.3461338,33.8124332 22.3335737,33.6762475 22.4098237,33.584504 C23.2181919,32.6118797 24.8265447,32.2641987 27.224313,32.5075367 Z" id="Leaves-base" transform="translate(24.889228, 33.185630) scale(-1, -1) rotate(126.000000) translate(-24.889228, -33.185630) "></path>
                            <path d="M21.0913661,35.8439653 C20.8357983,36.0234533 20.8151752,36.1732387 20.9788537,36.3778449 C21.1650557,36.6106065 21.5673322,36.854962 22.0746295,37.0437536 C23.152218,37.4447802 24.2617324,37.4555419 24.4968039,37.0639399 C24.9093092,36.3767534 25.7300274,35.5036478 26.9619831,34.436975 C23.9609182,34.7330802 21.997736,35.207412 21.0913661,35.8439653 Z M27.7611716,34.3252464 C26.2705378,35.567198 25.3044035,36.5579393 24.8671948,37.2862787 C24.4810711,37.9295165 23.1822951,37.9169191 21.9239556,37.4486257 C21.3500129,37.2350318 20.8857644,36.9530326 20.6415132,36.6477067 C20.3227938,36.2492917 20.3827642,35.8137277 20.8430824,35.4904413 C21.8989594,34.7488875 24.1449565,34.2400363 27.6044968,33.9440833 L28.2889321,33.885532 L27.7611716,34.3252464 Z" id="Leaves-base" transform="translate(24.365423, 35.835854) scale(-1, -1) rotate(126.000000) translate(-24.365423, -35.835854) "></path>
                            <path d="M26.1523871,31.7891977 C26.2256564,31.8833388 26.2087365,32.0190518 26.1145953,32.0923211 C26.0204542,32.1655904 25.8847413,32.1486704 25.811472,32.0545293 C23.9691038,29.6873361 23.1932025,28.0977618 23.512532,27.2065741 C23.5527719,27.0942723 23.6764314,27.0358545 23.7887331,27.0760944 C23.9010349,27.1163343 23.9594527,27.2399937 23.9192128,27.3522955 C23.6723038,28.0413716 24.4071073,29.5467498 26.1523871,31.7891977 Z" id="Leaves-base" transform="translate(24.820277, 29.600625) scale(-1, -1) rotate(126.000000) translate(-24.820277, -29.600625) "></path>
                            <path d="M23.1817994,31.488938 L23.0808926,31.7603322 L22.8494989,31.5862805 C21.9561122,30.9142848 21.2802495,30.0854885 20.824254,29.1020882 C20.0663025,27.4674892 21.2994231,25.8629037 23.0431864,26.402437 C24.2910766,26.7885435 24.2910766,28.5054768 23.1817994,31.488938 Z M22.9154949,26.8151341 C21.5460771,26.391426 20.6089576,27.6108431 21.2161706,28.9203594 C21.6019371,29.7523036 22.1554932,30.4648607 22.8785814,31.0596641 C23.8028071,28.4761361 23.7734845,27.0806025 22.9154949,26.8151341 Z" id="Leaves-base" transform="translate(22.296786, 29.028143) scale(-1, -1) rotate(126.000000) translate(-22.296786, -29.028143) "></path>
                        </g>
                        <g id="Leaves" transform="translate(75.252267, 124.982625) rotate(-357.000000) translate(-75.252267, -124.982625) translate(55.252267, 104.482625)" fill="#FF8D88" fill-rule="nonzero">
                            <path d="M38.9177047,33.6994687 C38.9973435,33.7882866 38.9899024,33.9248476 38.9010846,34.0044864 C38.8122668,34.0841252 38.6757057,34.0766841 38.5960669,33.9878663 C32.4541043,27.1379918 26.8836468,23.1049416 21.8949283,21.8825052 C13.7154445,19.8782032 5.95537854,13.375893 5.43613918,7.39573678 C5.4258201,7.27689042 5.51379885,7.17218115 5.6326452,7.16186207 C5.75149156,7.15154299 5.85620084,7.23952173 5.86651992,7.35836809 C6.36676325,13.1197442 13.9786944,19.4979294 21.9977438,21.4629185 C27.0864204,22.7098487 32.7229961,26.7907689 38.9177047,33.6994687 Z" id="Leaves-base"></path>
                            <path d="M10.0157708,14.8477623 C10.0289479,14.9663258 9.94351537,15.0731227 9.82495186,15.0862998 C9.70638836,15.0994769 9.59959149,15.0140443 9.58641438,14.8954808 C9.25633732,11.9255504 9.52016748,9.80058462 10.3966897,8.51557794 C10.4639121,8.41702799 10.5982971,8.39163199 10.6968471,8.45885438 C10.795397,8.52607677 10.820793,8.6604618 10.7535706,8.75901174 C9.94823344,9.9396591 9.69603854,11.9709111 10.0157708,14.8477623 Z" id="Leaves-base"></path>
                            <path d="M9.93169796,12.6812933 L9.65693643,13.0020886 L9.55769355,12.5915349 C8.53647288,8.36688982 9.21445711,6.16124453 11.6622313,6.16124453 C12.9322354,6.16124453 13.4468332,6.81193843 13.0872976,7.98159392 C12.7603092,9.04536568 11.7096155,10.6055021 9.93169796,12.6812933 Z M12.6743655,7.85466443 C12.9463582,6.96980705 12.6485557,6.59324453 11.6622313,6.59324453 C9.67046709,6.59324453 9.05556712,8.36421188 9.88088046,12.0736582 C11.4542049,10.20339 12.3863586,8.7916201 12.6743655,7.85466443 Z" id="Leaves-base"></path>
                            <path d="M6.32196108,5.55114168 C6.04341155,4.68752653 5.5636183,4.53202046 4.72540235,5.04799259 C3.04960895,6.07954379 3.54712478,7.83509516 6.38251185,10.4299665 C6.6381054,8.09252367 6.61549916,6.46122731 6.32196108,5.55114168 Z M4.49894549,4.68010498 C5.56874813,4.02157738 6.3658607,4.27993001 6.73310421,5.418532 C7.06827874,6.45770732 7.0757197,8.27765661 6.76403903,10.8962298 L6.7153051,11.305666 L6.40645084,11.0324956 C3.11479513,8.12114525 2.41806737,5.96101009 4.49894549,4.68010498 Z" id="Leaves-base"></path>
                            <path d="M10.2841798,15.0791014 C10.3858329,15.1415322 10.4176289,15.2745483 10.3551982,15.3762014 C10.2927675,15.4778545 10.1597513,15.5096505 10.0580982,15.4472198 C7.40792023,13.8196003 5.57578088,12.8843101 4.58310568,12.6462784 C4.46710062,12.6184618 4.39560976,12.5018713 4.42342639,12.3858662 C4.45124302,12.2698611 4.56783354,12.1983703 4.6838386,12.2261869 C5.73570612,12.4784121 7.5953447,13.4277405 10.2841798,15.0791014 Z" id="Leaves-base"></path>
                            <path d="M7.08433762,13.2409547 L7.30268852,13.5627466 L6.91411114,13.5780683 C6.27610686,13.603225 5.32490523,13.7419938 4.06466328,13.9946743 C3.05225906,14.197663 1.72643689,13.742932 0.917381487,12.9389996 C-0.0164519709,12.0110794 -0.0699259989,10.8425602 0.990482932,9.84099046 C2.54576443,8.37200727 4.589562,9.56431059 7.08433762,13.2409547 Z M1.28711564,10.1550494 C0.412871836,10.9807838 0.45352169,11.869068 1.22187986,12.6325608 C1.93282067,13.3389998 3.11503921,13.7444776 3.97973683,13.5711044 C5.03219936,13.360084 5.87553969,13.2268057 6.51206464,13.1714357 C4.25414184,9.93861375 2.52389386,8.98689664 1.28711564,10.1550494 Z" id="Leaves-base"></path>
                            <path d="M11.8292218,16.5652904 C11.9462503,16.5884265 12.0223651,16.7020524 11.999229,16.8190808 C11.9760929,16.9361093 11.8624671,17.0122241 11.7454386,16.989088 C9.78497143,16.6015108 8.48703368,16.6015108 7.87835326,16.9629175 C7.77577837,17.0238218 7.64325231,16.9900411 7.58234802,16.8874662 C7.52144372,16.7848913 7.55522442,16.6523652 7.65779931,16.591461 C8.38774387,16.1580531 9.76930874,16.1580531 11.8292218,16.5652904 Z" id="Leaves-base"></path>
                            <path d="M5.70857279,16.0314543 C4.80551482,16.1606245 4.49553029,16.8790499 4.79521006,17.7478526 C5.08419626,18.5856535 5.7718072,19.0473192 6.36729992,18.7257688 C7.35704846,18.1913306 8.61755369,17.5344743 10.149011,16.7550843 C8.58723001,16.071285 7.10800196,15.8312851 5.70857279,16.0314543 Z M10.7425399,16.938087 C9.03318545,17.8051716 7.64310774,18.5278225 6.57255653,19.1058921 C5.69481654,19.5798487 4.75174378,18.9466645 4.38682235,17.8887195 C4.00680083,16.7869977 4.44298836,15.7760821 5.64740365,15.6038069 C7.25633585,15.3736711 8.95458075,15.6909092 10.7386165,16.5508791 L11.1320261,16.7405167 L10.7425399,16.938087 Z" id="Leaves-base"></path>
                            <path d="M15.5155351,18.9567312 C15.634219,18.9687758 15.7206672,19.0747522 15.7086225,19.1934361 C15.6965779,19.31212 15.5906014,19.3985682 15.4719175,19.3865236 C13.2028721,19.1562491 11.7268489,19.4753241 11.0332787,20.309824 C10.9570287,20.4015676 10.820843,20.4141276 10.7290995,20.3378777 C10.6373559,20.2616277 10.6247959,20.125442 10.7010458,20.0336984 C11.509414,19.0610741 13.1177668,18.7133932 15.5155351,18.9567312 Z" id="Leaves-base"></path>
                            <path d="M7.45443249,20.7769319 C7.19886472,20.9564199 7.17824159,21.1062053 7.34192014,21.3108115 C7.52812211,21.5435732 7.93039864,21.7879286 8.4376959,21.9767203 C9.51528443,22.3777468 10.6247988,22.3885085 10.8598703,21.9969065 C11.2723756,21.30972 12.0930938,20.4366144 13.3250495,19.3699416 C10.3239846,19.6660468 8.36080236,20.1403786 7.45443249,20.7769319 Z M14.124238,19.258213 C12.6336042,20.5001646 11.6674699,21.4909059 11.2302612,22.2192453 C10.8441375,22.8624831 9.54536154,22.8498857 8.28702202,22.3815923 C7.71307925,22.1679985 7.24883075,21.8859992 7.00457964,21.5806733 C6.68586015,21.1822583 6.74583055,20.7466944 7.20614879,20.4234079 C8.26202584,19.6818541 10.5080228,19.1730029 13.9675632,18.87705 L14.6519985,18.8184986 L14.124238,19.258213 Z" id="Leaves-base"></path>
                            <path d="M17.3723625,19.6604019 C17.4456318,19.7545431 17.4287118,19.890256 17.3345707,19.9635253 C17.2404296,20.0367946 17.1047166,20.0198747 17.0314473,19.9257336 C15.1890791,17.5585403 14.4131779,15.9689661 14.7325074,15.0777783 C14.7727473,14.9654765 14.8964067,14.9070588 15.0087085,14.9472987 C15.1210103,14.9875385 15.179428,15.111198 15.1391882,15.2234998 C14.8922791,15.9125759 15.6270826,17.4179541 17.3723625,19.6604019 Z" id="Leaves-base"></path>
                            <path d="M15.9051419,17.5545811 L15.8042352,17.8259753 L15.5728415,17.6519236 C14.6794548,16.979928 14.0035921,16.1511316 13.5475966,15.1677313 C12.7896451,13.5331323 14.0227657,11.9285468 15.766529,12.4680801 C17.0144192,12.8541867 17.0144192,14.5711199 15.9051419,17.5545811 Z M15.6388374,12.8807772 C14.2694197,12.4570692 13.3323002,13.6764862 13.9395132,14.9860025 C14.3252796,15.8179467 14.8788357,16.5305038 15.601924,17.1253072 C16.5261497,14.5417793 16.4968271,13.1462456 15.6388374,12.8807772 Z" id="Leaves-base"></path>
                            <path d="M36.4622646,21.6811561 C36.5781303,21.7095478 36.6490419,21.8264915 36.6206502,21.9423572 C36.5922584,22.0582228 36.4753147,22.1291345 36.359449,22.1007427 C28.1799653,20.0964407 20.4198993,13.5941305 19.90066,7.6139743 C19.8903409,7.49512794 19.9783196,7.39041867 20.097166,7.38009959 C20.2160124,7.36978051 20.3207216,7.45775925 20.3310407,7.57660561 C20.831284,13.3379818 28.4432152,19.7161669 36.4622646,21.6811561 Z" id="Leaves-base" transform="translate(28.263372, 14.743138) rotate(40.000000) translate(-28.263372, -14.743138) "></path>
                            <path d="M27.1217417,13.3495625 C27.1349188,13.468126 27.0494863,13.5749229 26.9309228,13.5881 C26.8123593,13.6012771 26.7055624,13.5158445 26.6923853,13.397281 C26.3623082,10.4273506 26.6261384,8.30238482 27.5026606,7.01737814 C27.569883,6.9188282 27.704268,6.8934322 27.802818,6.96065459 C27.9013679,7.02787697 27.9267639,7.162262 27.8595415,7.26081194 C27.0542043,8.4414593 26.8020094,10.4727113 27.1217417,13.3495625 Z" id="Leaves-base" transform="translate(27.226161, 10.256257) rotate(40.000000) translate(-27.226161, -10.256257) "></path>
                            <path d="M28.193553,12.3529093 L27.9187915,12.6737046 L27.8195486,12.2631508 C26.798328,8.03850573 27.4763122,5.83286044 29.9240864,5.83286044 C31.1940905,5.83286044 31.7086883,6.48355435 31.3491527,7.65320983 C31.0221642,8.71698159 29.9714705,10.277118 28.193553,12.3529093 Z M30.9362206,7.52628034 C31.2082133,6.64142297 30.9104108,6.26486044 29.9240864,6.26486044 C27.9323222,6.26486044 27.3174222,8.0358278 28.1427355,11.7452741 C29.7160599,9.87500591 30.6482136,8.46323602 30.9362206,7.52628034 Z" id="Leaves-base" transform="translate(29.411124, 9.253283) rotate(40.000000) translate(-29.411124, -9.253283) "></path>
                            <path d="M27.1218607,1.78354374 C26.8433111,0.919928594 26.3635179,0.764422521 25.5253019,1.28039464 C23.8495085,2.31194585 24.3470244,4.06749722 27.1824114,6.66236858 C27.438005,4.32492573 27.4153987,2.69362937 27.1218607,1.78354374 Z M25.2988451,0.912507037 C26.3686477,0.25397944 27.1657603,0.512332072 27.5330038,1.65093406 C27.8681783,2.69010938 27.8756193,4.51005867 27.5639386,7.12863184 L27.5152047,7.53806808 L27.2063504,7.26489766 C23.9146947,4.35354731 23.217967,2.19341215 25.2988451,0.912507037 Z" id="Leaves-base" transform="translate(25.955565, 4.047066) rotate(40.000000) translate(-25.955565, -4.047066) "></path>
                            <path d="M26.6792293,11.3436824 C26.7808824,11.4061131 26.8126784,11.5391293 26.7502477,11.6407824 C26.687817,11.7424354 26.5548008,11.7742314 26.4531477,11.7118007 C23.8029697,10.0841813 21.9708304,9.14889102 20.9781552,8.91085938 C20.8621501,8.88304275 20.7906593,8.76645223 20.8184759,8.65044716 C20.8462925,8.5344421 20.962883,8.46295124 21.0788881,8.49076787 C22.1307556,8.74299312 23.9903942,9.69232148 26.6792293,11.3436824 Z" id="Leaves-base" transform="translate(23.797346, 10.114268) rotate(40.000000) translate(-23.797346, -10.114268) "></path>
                            <path d="M25.7557875,7.67861251 L25.9741384,8.00040439 L25.585561,8.0157261 C24.9475568,8.04088278 23.9963551,8.17965161 22.7361132,8.43233213 C21.723709,8.6353208 20.3978868,8.18058977 19.5888314,7.37665744 C18.6549979,6.44873718 18.6015239,5.28021801 19.6619328,4.27864826 C21.2172143,2.80966508 23.2610119,4.0019684 25.7557875,7.67861251 Z M19.9585655,4.59270724 C19.0843217,5.41844165 19.1249716,6.30672585 19.8933298,7.07021864 C20.6042706,7.77665764 21.7864891,8.18213545 22.6511867,8.00876219 C23.7036493,7.79774177 24.5469896,7.66446347 25.1835145,7.60909352 C22.9255917,4.37627155 21.1953438,3.42455445 19.9585655,4.59270724 Z" id="Leaves-base" transform="translate(22.425831, 6.073627) rotate(40.000000) translate(-22.425831, -6.073627) "></path>
                            <path d="M25.8825732,13.7067207 C25.9996016,13.7298568 26.0757164,13.8434826 26.0525803,13.9605111 C26.0294442,14.0775396 25.9158184,14.1536544 25.79879,14.1305183 C23.8383228,13.7429411 22.540385,13.7429411 21.9317046,14.1043478 C21.8291297,14.165252 21.6966037,14.1314714 21.6356994,14.0288965 C21.5747951,13.9263216 21.6085758,13.7937955 21.7111507,13.7328912 C22.4410952,13.2994834 23.8226601,13.2994834 25.8825732,13.7067207 Z" id="Leaves-base" transform="translate(23.831058, 13.769574) rotate(40.000000) translate(-23.831058, -13.769574) "></path>
                            <path d="M19.7546227,11.6525153 C18.8515648,11.7816855 18.5415802,12.5001109 18.84126,13.3689136 C19.1302462,14.2067145 19.8178571,14.6683802 20.4133499,14.3468298 C21.4030984,13.8123916 22.6636036,13.1555352 24.195061,12.3761453 C22.63328,11.692346 21.1540519,11.4523461 19.7546227,11.6525153 Z M24.7885898,12.559148 C23.0792354,13.4262326 21.6891577,14.1488835 20.6186065,14.7269531 C19.7408665,15.2009096 18.7977937,14.5677255 18.4328723,13.5097805 C18.0528508,12.4080587 18.4890383,11.3971431 19.6934536,11.2248679 C21.3023858,10.9947321 23.0006307,11.3119702 24.7846665,12.1719401 L25.1780761,12.3615777 L24.7885898,12.559148 Z" id="Leaves-base" transform="translate(21.738818, 13.019420) rotate(40.000000) translate(-21.738818, -13.019420) "></path>
                            <path d="M26.8401385,17.5819726 C26.9588224,17.5940172 27.0452706,17.6999937 27.033226,17.8186776 C27.0211813,17.9373614 26.9152049,18.0238096 26.796521,18.011765 C24.5274756,17.7814905 23.0514523,18.1005655 22.3578821,18.9350654 C22.2816322,19.026809 22.1454465,19.039369 22.0537029,18.9631191 C21.9619594,18.8868691 21.9493993,18.7506834 22.0256493,18.6589399 C22.8340175,17.6863155 24.4423703,17.3386346 26.8401385,17.5819726 Z" id="Leaves-base" transform="translate(24.505053, 18.260066) rotate(40.000000) translate(-24.505053, -18.260066) "></path>
                            <path d="M18.6237675,17.5607791 C18.3681997,17.7402671 18.3475766,17.8900525 18.5112551,18.0946588 C18.6974571,18.3274204 19.0997336,18.5717759 19.6070309,18.7605675 C20.6846194,19.161594 21.7941338,19.1723557 22.0292053,18.7807537 C22.4417106,18.0935672 23.2624288,17.2204616 24.4943845,16.1537888 C21.4933196,16.449894 19.5301373,16.9242258 18.6237675,17.5607791 Z M25.2935729,16.0420602 C23.8029391,17.2840118 22.8368049,18.2747531 22.3995962,19.0030925 C22.0134724,19.6463303 20.7146965,19.6337329 19.456357,19.1654395 C18.8824142,18.9518457 18.4181657,18.6698465 18.1739146,18.3645206 C17.8551951,17.9661055 17.9151655,17.5305416 18.3754838,17.2072551 C19.4313608,16.4657013 21.6773578,15.9568501 25.1368982,15.6608972 L25.8213335,15.6023459 L25.2935729,16.0420602 Z" id="Leaves-base" transform="translate(21.897825, 17.552668) rotate(40.000000) translate(-21.897825, -17.552668) "></path>
                            <path d="M29.4182463,20.6299338 C29.4915156,20.7240749 29.4745957,20.8597878 29.3804546,20.9330571 C29.2863134,21.0063264 29.1506005,20.9894065 29.0773312,20.8952654 C27.234963,18.5280721 26.4590618,16.9384979 26.7783912,16.0473101 C26.8186311,15.9350083 26.9422906,15.8765906 27.0545924,15.9168305 C27.1668942,15.9570703 27.2253119,16.0807298 27.185072,16.1930316 C26.938163,16.8821077 27.6729665,18.3874859 29.4182463,20.6299338 Z" id="Leaves-base" transform="translate(28.086136, 18.441361) rotate(40.000000) translate(-28.086136, -18.441361) "></path>
                            <path d="M29.7182656,18.4247468 L29.6173589,18.696141 L29.3859652,18.5220893 C28.4925785,17.8500937 27.8167158,17.0212973 27.3607203,16.037897 C26.6027688,14.403298 27.8358894,12.7987125 29.5796527,13.3382458 C30.8275429,13.7243524 30.8275429,15.4412856 29.7182656,18.4247468 Z M29.4519612,13.7509429 C28.0825434,13.3272348 27.1454239,14.5466519 27.7526369,15.8561682 C28.1384033,16.6881124 28.6919594,17.4006695 29.4150477,17.9954729 C30.3392734,15.411945 30.3099508,14.0164113 29.4519612,13.7509429 Z" id="Leaves-base" transform="translate(28.833253, 15.963952) rotate(40.000000) translate(-28.833253, -15.963952) "></path>
                            <path d="M29.317592,36.6198126 C29.4334576,36.6482043 29.5043692,36.7651481 29.4759775,36.8810137 C29.4475858,36.9968794 29.330642,37.067791 29.2147764,37.0393993 C21.0352926,35.0350973 13.2752267,28.5327871 12.7559873,22.5526308 C12.7456682,22.4337845 12.833647,22.3290752 12.9524933,22.3187561 C13.0713397,22.308437 13.176049,22.3964158 13.1863681,22.5152621 C13.6866114,28.2766383 21.2985425,34.6548235 29.317592,36.6198126 Z" id="Leaves-base" transform="translate(21.118700, 29.681795) scale(-1, -1) rotate(126.000000) translate(-21.118700, -29.681795) "></path>
                            <path d="M16.6106815,34.1227737 C16.6238586,34.2413372 16.538426,34.348134 16.4198625,34.3613111 C16.301299,34.3744883 16.1945022,34.2890557 16.1813251,34.1704922 C15.851248,31.2005618 16.1150782,29.075596 16.9916004,27.7905893 C17.0588228,27.6920394 17.1932078,27.6666434 17.2917578,27.7338658 C17.3903077,27.8010882 17.4157037,27.9354732 17.3484813,28.0340231 C16.5431441,29.2146705 16.2909492,31.2459225 16.6106815,34.1227737 Z" id="Leaves-base" transform="translate(16.715101, 31.029469) scale(-1, -1) rotate(126.000000) translate(-16.715101, -31.029469) "></path>
                            <path d="M14.3445825,32.0194187 L14.069821,32.340214 L13.9705781,31.9296602 C12.9493574,27.7050151 13.6273416,25.4993699 16.0751158,25.4993699 C17.34512,25.4993699 17.8597177,26.1500638 17.5001821,27.3197192 C17.1731937,28.383491 16.1225,29.9436274 14.3445825,32.0194187 Z M17.08725,27.1927898 C17.3592427,26.3079324 17.0614403,25.9313699 16.0751158,25.9313699 C14.0833516,25.9313699 13.4684517,27.7023372 14.293765,31.4117835 C15.8670894,29.5415153 16.7992431,28.1297454 17.08725,27.1927898 Z" id="Leaves-base" transform="translate(15.562154, 28.919792) scale(-1, -1) rotate(126.000000) translate(-15.562154, -28.919792) "></path>
                            <path d="M11.7759619,30.4665788 C11.4974123,29.6029636 11.0176191,29.4474576 10.1794031,29.9634297 C8.50360972,30.9949809 9.00112555,32.7505323 11.8365126,35.3454036 C12.0921062,33.0079608 12.0694999,31.3766644 11.7759619,30.4665788 Z M9.95294626,29.5955421 C11.0227489,28.9370145 11.8198615,29.1953671 12.187105,30.3339691 C12.5222795,31.3731444 12.5297205,33.1930937 12.2180398,35.8116669 L12.1693059,36.2211031 L11.8604516,35.9479327 C8.5687959,33.0365823 7.87206815,30.8764472 9.95294626,29.5955421 Z" id="Leaves-base" transform="translate(10.609666, 32.730101) scale(-1, -1) rotate(126.000000) translate(-10.609666, -32.730101) "></path>
                            <path d="M19.6945231,35.6892506 C19.7961762,35.7516813 19.8279722,35.8846975 19.7655414,35.9863505 C19.7031107,36.0880036 19.5700945,36.1197996 19.4684415,36.0573689 C16.8182635,34.4297494 14.9861241,33.4944592 13.9934489,33.2564276 C13.8774439,33.2286109 13.805953,33.1120204 13.8337696,32.9960153 C13.8615863,32.8800103 13.9781768,32.8085194 14.0941818,32.836336 C15.1460494,33.0885613 17.0056879,34.0378897 19.6945231,35.6892506 Z" id="Leaves-base" transform="translate(16.812639, 34.459836) scale(-1, -1) rotate(126.000000) translate(-16.812639, -34.459836) "></path>
                            <path d="M16.20747,37.7148564 L16.4258209,38.0366483 L16.0372435,38.05197 C15.3992393,38.0771267 14.4480376,38.2158955 13.1877957,38.468576 C12.1753915,38.6715647 10.8495693,38.2168337 10.0405139,37.4129013 C9.10668043,36.4849811 9.05320641,35.3164619 10.1136153,34.3148922 C11.6688968,32.845909 13.7126944,34.0382123 16.20747,37.7148564 Z M10.410248,34.6289511 C9.53600424,35.4546855 9.5766541,36.3429697 10.3450123,37.1064625 C11.0559531,37.8129015 12.2381716,38.2183793 13.1028692,38.0450061 C14.1553318,37.8339857 14.9986721,37.7007074 15.635197,37.6453374 C13.3772742,34.4125154 11.6470263,33.4607983 10.410248,34.6289511 Z" id="Leaves-base" transform="translate(12.877513, 36.109871) scale(-1, -1) rotate(126.000000) translate(-12.877513, -36.109871) "></path>
                            <path d="M22.5082043,34.108371 C22.6252328,34.1315071 22.7013476,34.2451329 22.6782115,34.3621614 C22.6550754,34.4791898 22.5414496,34.5553046 22.4244211,34.5321685 C20.463954,34.1445913 19.1660162,34.1445913 18.5573358,34.505998 C18.4547609,34.5669023 18.3222348,34.5331216 18.2613305,34.4305467 C18.2004263,34.3279718 18.2342069,34.1954458 18.3367818,34.1345415 C19.0667264,33.7011337 20.4482913,33.7011337 22.5082043,34.108371 Z" id="Leaves-base" transform="translate(20.456690, 34.171224) scale(-1, -1) rotate(126.000000) translate(-20.456690, -34.171224) "></path>
                            <path d="M17.870115,34.9437924 C16.9670571,35.0729625 16.6570725,35.7913879 16.9567523,36.6601906 C17.2457385,37.4979916 17.9333494,37.9596572 18.5288422,37.6381068 C19.5185907,37.1036686 20.7790959,36.4468123 22.3105532,35.6674223 C20.7487722,34.983623 19.2695442,34.7436231 17.870115,34.9437924 Z M22.9040821,35.850425 C21.1947277,36.7175096 19.80465,37.4401606 18.7340988,38.0182301 C17.8563588,38.4921867 16.913286,37.8590025 16.5483646,36.8010575 C16.1683431,35.6993357 16.6045306,34.6884201 17.8089459,34.5161449 C19.4178781,34.2860091 21.116123,34.6032472 22.9001588,35.4632171 L23.2935684,35.6528548 L22.9040821,35.850425 Z" id="Leaves-base" transform="translate(19.854310, 36.310697) scale(-1, -1) rotate(126.000000) translate(-19.854310, -36.310697) "></path>
                            <path d="M27.224313,32.5075367 C27.3429969,32.5195813 27.429445,32.6255578 27.4174004,32.7442417 C27.4053557,32.8629256 27.2993793,32.9493737 27.1806954,32.9373291 C24.91165,32.7070546 23.4356267,33.0261296 22.7420566,33.8606296 C22.6658066,33.9523731 22.5296209,33.9649332 22.4378773,33.8886832 C22.3461338,33.8124332 22.3335737,33.6762475 22.4098237,33.584504 C23.2181919,32.6118797 24.8265447,32.2641987 27.224313,32.5075367 Z" id="Leaves-base" transform="translate(24.889228, 33.185630) scale(-1, -1) rotate(126.000000) translate(-24.889228, -33.185630) "></path>
                            <path d="M21.0913661,35.8439653 C20.8357983,36.0234533 20.8151752,36.1732387 20.9788537,36.3778449 C21.1650557,36.6106065 21.5673322,36.854962 22.0746295,37.0437536 C23.152218,37.4447802 24.2617324,37.4555419 24.4968039,37.0639399 C24.9093092,36.3767534 25.7300274,35.5036478 26.9619831,34.436975 C23.9609182,34.7330802 21.997736,35.207412 21.0913661,35.8439653 Z M27.7611716,34.3252464 C26.2705378,35.567198 25.3044035,36.5579393 24.8671948,37.2862787 C24.4810711,37.9295165 23.1822951,37.9169191 21.9239556,37.4486257 C21.3500129,37.2350318 20.8857644,36.9530326 20.6415132,36.6477067 C20.3227938,36.2492917 20.3827642,35.8137277 20.8430824,35.4904413 C21.8989594,34.7488875 24.1449565,34.2400363 27.6044968,33.9440833 L28.2889321,33.885532 L27.7611716,34.3252464 Z" id="Leaves-base" transform="translate(24.365423, 35.835854) scale(-1, -1) rotate(126.000000) translate(-24.365423, -35.835854) "></path>
                            <path d="M26.1523871,31.7891977 C26.2256564,31.8833388 26.2087365,32.0190518 26.1145953,32.0923211 C26.0204542,32.1655904 25.8847413,32.1486704 25.811472,32.0545293 C23.9691038,29.6873361 23.1932025,28.0977618 23.512532,27.2065741 C23.5527719,27.0942723 23.6764314,27.0358545 23.7887331,27.0760944 C23.9010349,27.1163343 23.9594527,27.2399937 23.9192128,27.3522955 C23.6723038,28.0413716 24.4071073,29.5467498 26.1523871,31.7891977 Z" id="Leaves-base" transform="translate(24.820277, 29.600625) scale(-1, -1) rotate(126.000000) translate(-24.820277, -29.600625) "></path>
                            <path d="M23.1817994,31.488938 L23.0808926,31.7603322 L22.8494989,31.5862805 C21.9561122,30.9142848 21.2802495,30.0854885 20.824254,29.1020882 C20.0663025,27.4674892 21.2994231,25.8629037 23.0431864,26.402437 C24.2910766,26.7885435 24.2910766,28.5054768 23.1817994,31.488938 Z M22.9154949,26.8151341 C21.5460771,26.391426 20.6089576,27.6108431 21.2161706,28.9203594 C21.6019371,29.7523036 22.1554932,30.4648607 22.8785814,31.0596641 C23.8028071,28.4761361 23.7734845,27.0806025 22.9154949,26.8151341 Z" id="Leaves-base" transform="translate(22.296786, 29.028143) scale(-1, -1) rotate(126.000000) translate(-22.296786, -29.028143) "></path>
                        </g>
                        <g id="Leaves" transform="translate(163.512000, 47.952000)" fill-rule="nonzero">
                            <g id="Group-28" transform="translate(40.392000, 8.640000)">
                                <path d="M0.505462269,79.1171823 C-1.40735896,29.2804879 4.17543462,2.99073967 17.253843,0.247937754 C30.3322514,-2.49486416 24.7494578,23.794884 0.505462269,79.1171823 Z" id="Leaf-base" fill="#FFFFFF"></path>
                                <path d="M0.844444493,73.8191772 C6.81114244,39.540881 12.030733,19.8062059 16.5032162,14.6151518" id="Leaf-base" stroke="#7990DD" stroke-width="0.5" stroke-linecap="round"></path>
                            </g>
                            <g id="Group-29" transform="translate(18.360000, 0.000000)">
                                <path d="M20.2799175,96.8180769 C18.6620985,60.2578617 -15.2890505,14.6704317 8.42805076,1.40255446 C32.1451521,-11.8653228 24.2878693,81.4312512 20.2799175,96.8180769 Z" id="Leaf-base" fill="#7990DD"></path>
                                <path d="M21.5041506,86.2313096 C16.8772243,48.6381221 13.6783534,26.1739664 11.907538,18.8388426" id="Leaf-base" stroke="#FFFFFF" stroke-width="0.5" stroke-linecap="round"></path>
                            </g>
                            <g id="Group-25" transform="translate(5.832000, 68.904000)">
                                <path d="M36.6888209,23.9538461 C17.8075659,0.509318335 0.366609188,-5.62266531 0.106425313,5.54569306 C-0.153758562,16.7140514 19.4566161,10.1252729 36.6888209,23.9538461 Z" id="Leaf-base" fill="#7990DD"></path>
                                <path d="M31.9534615,20.0501899 C27.5290382,14.9975757 20.5883459,10.5506913 11.1313844,6.70953657" id="Leaf-base" stroke="#FFFFFF" stroke-width="0.5" stroke-linecap="round"></path>
                            </g>
                            <g id="Group-27" transform="translate(37.584000, 45.576000)">
                                <path d="M0,51.405664 C4.56079234,22.1246905 26.6406195,-13.4535395 35.8271364,5.37483232 C45.0136532,24.2032041 12.8377485,33.4665943 0,51.405664 Z" id="Leaf-base" fill="#7990DD"></path>
                                <path d="M1.08380651,48.7820499 C8.08535161,33.3358311 15.5623401,22.4433618 23.5147721,16.1046417" id="Leaf-base" stroke="#FFFFFF" stroke-width="0.5" stroke-linecap="round"></path>
                            </g>
                            <g id="Group-26" transform="translate(36.936000, 82.296000)">
                                <path d="M0.214494813,15.8119851 C5.68878885,5.06363504 25.2529256,-5.52492064 32.0424572,3.40222304 C38.8319887,12.3293667 6.98209242,11.161067 0.214494813,15.8119851 Z" id="Leaf-base" fill="#FFFFFF"></path>
                                <path d="M26.4200285,4.6195173 C17.9562406,4.6195173 9.49245269,7.9250617 1.02866478,14.5361505" id="Leaf-base" stroke="#7990DD" stroke-width="0.5" stroke-linecap="round"></path>
                            </g>
                            <g id="Leaf-base" transform="translate(0.000000, 40.824000)">
                                <path d="M39.373858,51.3517676 C29.7000952,9.55715716 9.68986711,-9.41864165 1.3589734,4.53659338 C-6.97192031,18.4918284 25.1459743,22.7777718 39.373858,51.3517676 Z" fill="#FFFFFF"></path>
                                <path d="M36.8928,44.4945878 C30.7080196,30.8995319 22.9370112,20.9731354 13.5797748,14.7153982" stroke="#7990DD" stroke-width="0.5" stroke-linecap="round"></path>
                            </g>
                        </g>
                        <g id="Leaves" transform="translate(173.448000, 126.576000)" fill="#FFFFFF" fill-rule="nonzero">
                            <path d="M0,19.8425162 C35.4476294,20.4578279 56.0056438,20.4578279 61.6740433,19.8425162 C70.1766426,18.9195487 63.8014119,15.730236 63.8014119,12.9167949 C63.8014119,10.1033538 56.0990513,11.3547772 53.5878473,10.9547351 C51.0766433,10.554693 53.1019919,6.32125429 48.3538592,5.87437558 C43.6057266,5.42749688 43.3179799,7.90022471 40.617274,7.51183151 C37.9165681,7.12343832 44.7554372,0 35.2926372,0 C25.8298371,0 28.3918778,4.69185824 24.164884,4.76274418 C19.9378903,4.83363013 23.6524078,2.39409495 16.8094745,3.32749675 C9.96654111,4.26089854 15.048773,7.97421427 13.1838611,8.80558415 C11.3189492,9.63695402 7.64173658,6.69475255 5.36978749,8.80558415 C3.0978384,10.9164157 7.64173658,13.9653626 6.87108078,16.2370971 C6.35731024,17.7515867 4.06694998,18.9533931 0,19.8425162 Z"></path>
                        </g>
                        <g id="Leaves" transform="translate(57.672000, 73.656000)" fill-rule="nonzero">
                            <g id="Leaf" transform="translate(0.000000, 19.872000)">
                                <path d="M35.31459,57.2771026 C27.2695577,58.9915724 18.1888996,59.2921696 16.6529688,50.7245407 C15.117038,42.1569118 22.6478757,44.0188121 22.6478757,39.9173683 C22.6478757,35.8159246 14.0634725,33.7588761 14.7883267,26.015178 C15.5131808,18.27148 24.1891245,17.6599576 21.6251881,12.9301338 C19.0612516,8.20030997 22.6365311,3.7076986 24.2064744,3.6331125 C25.7764177,3.55852639 26.4132363,2.98766658 30.6776504,7.12052675 C34.9420646,11.2533869 37.9161151,10.8173886 39.4463437,14.7087791 C40.9765723,18.6001697 36.4416812,21.655472 38.5774737,27.5017224 C40.7132662,33.3479728 48.5043406,33.5635052 48.5043406,42.3798925 C48.5043406,51.1962798 43.3596224,55.5626329 35.31459,57.2771026 Z" id="Leaf-base" fill="#FF8E88" transform="translate(31.624609, 30.905088) scale(-1, 1) rotate(48.000000) translate(-31.624609, -30.905088) "></path>
                                <path d="M27.7381658,14.242313 L27.8428985,14.2115742 C29.7081704,13.6188881 31.1212311,11.90356 32.0946009,9.06281391 C32.1951078,9.13879314 32.2947433,9.21208954 32.3934746,9.28340645 C31.3693963,12.2050922 29.8663299,13.9671251 27.8971572,14.5664926 C28.1888157,15.1518123 28.4830937,15.6949998 28.7797424,16.1953134 C30.7029823,15.2863468 32.1585764,13.1615828 33.1587031,9.81225573 C33.263663,9.88048417 33.3668578,9.94736887 33.4689242,10.012552 C32.4442324,13.3840639 30.9388023,15.549495 28.9642045,16.5007328 C28.9989904,16.5567919 29.0332664,16.6117412 29.0675737,16.6661228 C29.8915067,17.9721677 30.6454842,19.3577933 31.3287599,20.8105336 L31.0930246,21.0224292 C33.9595752,18.4773214 36.0625822,15.6863982 37.4031157,12.6479685 C37.4939978,12.7365626 37.5819818,12.8289411 37.6677384,12.9250656 C36.3292898,15.9033632 34.2682908,18.6442158 31.4857576,21.1475887 C32.6183348,23.6125485 33.5503828,26.2655006 34.2779657,29.046638 L34.1048349,29.2037355 C35.3970164,28.055248 36.5254299,26.8448557 37.4901656,25.5723665 C37.5077931,25.7324364 37.5310109,25.8947905 37.5593885,26.0594684 C36.6406169,27.2395422 35.5788593,28.3649704 34.3771943,29.4366043 C34.6773475,30.6148278 34.9400735,31.8166147 35.1660393,33.036275 C36.6845249,32.3875792 38.1664465,31.5116683 39.6109685,30.4096426 C39.6878302,30.499194 39.7671097,30.5877978 39.8476998,30.6751699 C38.34987,31.8208693 36.8105395,32.7276645 35.2308491,33.3953293 C35.6291046,35.6189237 35.9052224,37.9001428 36.0581446,40.2119963 C36.2326531,42.8501876 36.2369737,45.4550723 36.0871555,47.9273356 C40.873093,44.6848639 43.9806952,40.5922612 45.415363,35.6447658 C45.5082398,35.7492824 45.6003973,35.8560347 45.6907751,35.9648727 C44.1814931,40.9719974 40.9691026,45.1102707 36.0584824,48.3752545 C35.9848839,49.4445607 35.8825213,50.4874296 35.7524532,51.495827 C40.7100949,49.6936932 44.4560486,45.1982196 47.0008918,38.0072714 C47.0739964,38.1602697 47.1429282,38.318042 47.208133,38.4800098 C44.5961809,45.6573051 40.7561071,50.1280338 35.6994761,51.8917017 C35.4145944,53.9661565 35.0108897,55.8870507 34.5004027,57.5814734 L34.7530638,57.5271102 C34.5371098,57.573132 34.3204096,57.618135 34.1031291,57.661975 C34.6213692,55.9886859 35.0318683,54.0818613 35.3234868,52.0167275 C30.1060338,53.6793784 23.6245173,52.5270823 15.8908308,48.5578417 C15.8941787,48.4231037 15.9016674,48.2939467 15.9120384,48.1682482 C23.7054135,52.1969906 30.189362,53.350026 35.3773279,51.6261729 C35.5059272,50.6542904 35.6088182,49.6498627 35.6844943,48.6197087 L35.5856096,48.6836034 L35.5856096,48.6836034 L35.394255,48.3845527 L35.7152579,48.1766484 C35.8812409,45.6398809 35.8834071,42.9557578 35.7034636,40.2354012 C35.6246921,39.0445459 35.5130476,37.8619461 35.3687707,36.6913521 L35.4287053,36.6749725 C28.8635406,38.4416364 22.6448787,37.3620193 16.7850491,33.4409348 C16.4994151,33.1204771 16.2253175,32.7865241 15.9688381,32.4360711 C22.0389463,36.8741847 28.4850073,38.1716783 35.3229915,36.3354405 C35.2020202,35.3923978 35.0590425,34.458023 34.8949655,33.5336808 C28.911216,35.9255025 22.3534169,34.9114475 15.2376329,30.4896751 L15.424909,30.1880457 C22.4684297,34.5649134 28.931173,35.5617637 34.8298397,33.1767829 C33.7129262,27.1007854 31.6797241,21.4727005 28.7668411,16.8553888 L28.6361453,16.6458572 C26.6681059,17.4409502 24.2578764,17.089765 21.4157096,15.5850384 C21.4531853,15.467973 21.4820043,15.3496722 21.5021187,15.2289288 L21.3724774,15.1586104 C24.1788668,16.6896528 26.5345855,17.0849749 28.4503339,16.3369968 C28.1464724,15.8213508 27.8452664,15.2623595 27.546727,14.6594172 C25.7439699,15.072899 23.5702704,14.5621972 21.0356587,13.12542 L21.0636618,13.1801414 C20.9500674,12.970588 20.8485237,12.7615002 20.7583224,12.5532417 C23.37109,14.1247278 25.5769232,14.7182858 27.3871681,14.3321325 C26.1042809,11.6655185 24.8710279,8.18217716 23.6862558,3.88111988 L23.6449481,3.88312009 C23.7857192,3.87643222 23.918988,3.86575429 24.0480422,3.85483508 C25.2315921,8.14176124 26.4619462,11.6041267 27.7381658,14.242313 Z" id="Leaf-base" fill="#FFFFFF" transform="translate(31.222883, 30.758405) scale(-1, 1) rotate(48.000000) translate(-31.222883, -30.758405) "></path>
                            </g>
                            <g id="Leaf" transform="translate(31.796426, 4.536000)">
                                <path d="M23.5728432,67.6092995 C14.353255,69.6126285 3.94684213,69.9638712 2.18666901,59.9527416 C0.426495884,49.9416119 9.05681835,52.1172109 9.05681835,47.3247432 C9.05681835,42.5322754 -0.780887646,40.128649 0.0497935203,31.0802686 C0.880474687,22.0318882 13.3496376,21.2749097 10.4113724,15.7481905 C7.47310726,10.2214712 4.93423679,1.42193045 10.4113724,0.184262694 C15.8885081,-1.05340506 13.3719127,4.17301042 18.2589213,9.00218773 C23.14593,13.831365 26.5541849,13.3219083 28.3078233,17.8689325 C30.0614616,22.4159566 24.8644871,25.9860258 27.3121003,32.8172707 C29.7597134,39.6485155 38.6882665,39.9003615 38.6882665,50.2021611 C38.6882665,60.5039607 32.7924314,65.6059705 23.5728432,67.6092995 Z" id="Leaf-base" fill="#374ABE"></path>
                                <path d="M15.521314,17.0676695 L15.5732636,17.0521345 C17.7604134,16.3846593 19.4143691,14.3671821 20.5483595,10.9964716 C20.6493693,11.0742194 20.748567,11.1486314 20.8469828,11.2212886 C19.6710772,14.6440122 17.9435507,16.7022199 15.6774897,17.3914534 C16.0217069,18.0987225 16.3691439,18.752759 16.7194809,19.3537121 C18.9403259,18.2964485 20.6192279,15.8047853 21.7680537,11.8689466 C21.8727611,11.9394078 21.9756938,12.0074504 22.0776473,12.0739739 C20.9039363,16.0293383 19.1748751,18.5603645 16.9019259,19.6594179 C16.9462236,19.734894 16.9911646,19.8084725 17.0361529,19.8811842 C17.9732319,21.3957254 18.8313125,23.0019565 19.6095536,24.6856155 L19.3399409,24.9294129 C22.697697,21.9367205 25.0738754,18.6656042 26.526189,15.0848427 C26.6179943,15.1739846 26.7080084,15.2664972 26.7960579,15.3621867 C25.3463675,18.8697218 23.0194818,22.0820912 19.7651061,25.0248361 C21.0934805,27.957144 22.1828761,31.1191014 23.0284282,34.4362712 L22.7350523,34.7014475 C24.2735786,33.3301937 25.6016933,31.9020348 26.7269332,30.4132573 C26.7459762,30.5727364 26.7703584,30.7348926 26.7990499,30.8990222 C25.7466172,32.2589573 24.5233369,33.5673959 23.126197,34.8275854 C23.4604369,36.1712827 23.7545129,37.541191 24.008471,38.9310811 C25.7499923,38.1750312 27.4526412,37.1626373 29.1155552,35.8952643 C29.1916482,35.9851706 29.2694016,36.0747007 29.3482915,36.163139 C27.6326207,37.473768 25.8736406,38.516282 24.0721496,39.2913259 C24.5407498,41.9274843 24.8645528,44.6347878 25.0425862,47.3790772 C25.242593,50.4620759 25.2474264,53.5060753 25.0755393,56.3948102 C30.6240751,52.6423977 34.2014206,47.8676689 35.8127073,42.0650633 C35.9060571,42.1717451 35.9982093,42.2806406 36.0888174,42.3913821 C34.4024742,48.2502181 30.7204696,53.0685149 25.0481076,56.841254 C24.9639838,58.1027625 24.8466777,59.332363 24.6970739,60.5210657 C30.3593721,58.3862826 34.6718675,53.1735101 37.645532,44.8793491 C37.7166344,45.0357394 37.7845952,45.1963852 37.8493371,45.3607258 C34.8090295,53.6367508 30.4044451,58.8231193 24.6459722,60.9180745 C24.3177895,63.3848753 23.8491387,65.6687345 23.2541586,67.6787476 C23.1220358,67.7058449 22.9905645,67.7333741 22.8589051,67.7605252 C23.4597244,65.773846 23.9349273,63.5059503 24.2694679,61.0491924 C18.2679287,63.0732781 10.8246439,61.8054717 1.95254679,57.2433726 C1.95524403,57.1081823 1.96063276,56.9783715 1.96842653,56.8514932 C10.9013279,61.4747336 18.3476516,62.7436261 24.3218607,60.6565097 C24.4702993,59.503772 24.5884803,58.3102949 24.6744763,57.0861713 L24.5683413,57.15481 L24.5683413,57.15481 L24.3764159,56.8561252 L24.7041019,56.6432338 C24.8917308,53.6900387 24.8931992,50.5669835 24.6878758,47.4020336 C24.5945269,45.9631093 24.4609117,44.534488 24.2873333,43.1210093 L24.4162236,43.085326 C16.9429807,45.1661236 9.88719986,44.0629961 3.26101446,39.7801161 C2.96893224,39.4587432 2.68507583,39.1267769 2.41422979,38.7811011 C9.23460632,43.5698847 16.5057223,44.8962357 24.2415109,42.7650009 C24.0992296,41.6422038 23.9306757,40.5306074 23.737043,39.4312657 C16.7953996,42.2825244 9.22706916,41.1849539 1.04798582,36.1372579 L1.23433112,35.835052 C9.34067033,40.8378542 16.8142955,41.9186531 23.6717553,39.0749916 C22.388976,32.0000097 20.0622755,25.4474603 16.7337781,20.0678217 L16.5739478,19.8065062 C14.725482,20.5721083 12.5334751,20.4320539 10.0036995,19.3820546 C10.0848435,19.2858539 10.1615452,19.189081 10.2328988,19.0913305 C12.605652,20.0604927 14.6564828,20.1963379 16.3913855,19.4968222 C16.0334728,18.8800277 15.6791915,18.2102163 15.3281143,17.4862251 C14.0069012,17.7989475 12.5121112,17.6685667 10.8455457,17.0942738 C10.8342486,16.965325 10.8126,16.8340666 10.7810332,16.6999415 C12.420246,17.2936226 13.8827572,17.4467949 15.1705904,17.1584238 C13.2763117,13.1526687 11.4753767,7.5604047 9.76605954,0.379147688 C9.8742703,0.336727581 9.98680426,0.298617108 10.1033349,0.264241135 C11.8199548,7.47859823 13.6263115,13.0799995 15.521314,17.0676695 Z" id="Leaf-base" fill="#FFFFFF"></path>
                            </g>
                            <g id="Leaf" transform="translate(43.632000, 0.000000)">
                                <path d="M19.6571364,71.4279132 C10.6128291,70.6138571 1.38013074,67.81072 4.96386635,57.4014668 C8.54760196,46.9922135 12.8348802,55.9181923 15.7132483,50.5060687 C18.5916165,45.0939451 11.9672981,41.3754369 12.7352887,36.244001 C13.5032792,31.1125651 23.185502,34.9312896 23.1120284,32.1680224 C23.032312,29.1699708 19.2130548,25.7182298 21.5854158,20.1906997 C23.9577768,14.6631697 31.0178977,20.0388131 31.2854935,13.6971014 C31.5530893,7.35538972 31.226633,2.10887844 36.6239273,2.54559063 C42.0212216,2.98230283 42.2783049,9.43591782 44.0624498,15.6792838 C45.8465946,21.9226497 49.9880887,18.7728694 49.1904662,23.7895148 C48.3928438,28.8061603 42.0475768,30.7552808 40.6866032,38.2354731 C39.3256296,45.7156653 46.9645,48.6664849 41.7009585,58.8297568 C36.437417,68.9930287 28.7014436,72.2419693 19.6571364,71.4279132 Z" id="Leaf-base" fill="#000140" transform="translate(26.731820, 37.033835) rotate(-7.000000) translate(-26.731820, -37.033835) "></path>
                                <path d="M37.6057999,18.6123228 L37.5792442,18.7677128 C39.7169431,19.3866864 41.9545177,18.4878291 44.3073735,16.0715209 C44.3513702,16.1974616 44.3972804,16.3188611 44.4441799,16.4359388 C42.0395138,18.8512593 39.7250292,19.7454625 37.515326,19.1178496 C37.3031307,20.2372588 36.9903011,21.3545144 36.5778903,22.468872 C35.8385164,24.4667026 35.1488939,26.4035801 34.5028436,28.2941663 L34.4817125,28.2994815 C39.959921,26.8014159 43.7703549,23.615686 45.9196912,18.7307893 C46.0118874,18.818993 46.1048444,18.9014812 46.1979327,18.9786743 C43.998678,23.9001926 40.1222607,27.1252556 34.5758028,28.6419847 L34.4898647,28.3321585 C33.0853596,32.4446365 31.8869631,36.3384005 30.8310136,40.1645042 L30.7690188,40.1597788 C34.5738084,40.5018541 37.8298716,40.3592417 40.5399144,39.7318168 C40.5381061,39.8528129 40.5405706,39.9732418 40.5451942,40.0926078 C37.810061,40.7148227 34.5394083,40.8552618 30.7374719,40.513443 C30.4060567,41.7138521 30.0886811,42.9168724 29.7833603,44.1183519 C29.7983923,44.1205993 29.8131195,44.1228836 29.8278578,44.1251502 L29.7740907,44.4761096 L29.6959942,44.4634089 L29.6959942,44.4634089 L29.4355472,45.5073224 C29.199699,46.4632066 28.9709947,47.4192831 28.7484177,48.3779641 C28.470734,49.5740001 27.948652,51.9931412 27.4063438,54.5124995 L27.2346776,55.3101079 C26.8851219,56.9342771 26.5369575,58.551024 26.2496323,59.8625716 L25.8943338,59.8610032 C34.7191354,59.9359949 39.6986008,56.0353742 42.6721784,47.4876667 L42.7895651,47.5281883 C42.8307895,47.6455874 42.8710962,47.7635938 42.9103161,47.8822984 L43.0078778,47.6045098 C40.0182168,56.1984499 34.9835457,60.2079173 26.1731739,60.217139 C25.9534505,61.2096287 25.7768026,61.9930074 25.6712702,62.4198822 L25.6023534,62.6937615 C30.6774609,63.0830974 36.5771158,60.2732517 43.3160016,54.2614136 C43.273839,54.4576358 43.22526,54.6583179 43.1708698,54.8622864 C36.4894081,60.7258947 30.5994961,63.4529769 25.5130976,63.043383 C24.612185,66.5470686 23.6505696,69.0377907 22.2737024,71.2270103 C22.1339505,71.2278505 21.9937324,71.2267964 21.8531582,71.2246522 C23.2653535,69.0359313 24.2406646,66.551075 25.1553405,63.0108818 C20.1432226,62.4559854 15.9234958,58.8113082 12.5096815,52.0725867 C12.6479077,52.0862066 12.7856902,52.0958857 12.9222722,52.0986696 C16.2655346,58.6160945 20.368591,62.1375915 25.2441035,62.6608178 L25.3262468,62.3344479 L25.3262468,62.3344479 C25.5654859,61.3667352 26.1733613,58.5514456 26.8019856,55.6311028 L26.9736817,54.8333502 C27.5459742,52.1742208 28.1092772,49.5591889 28.4022179,48.2974384 C28.704143,46.99699 29.0173279,45.7013124 29.3442982,44.4044147 C23.5468459,43.3645357 19.4898117,39.5677818 17.1769846,33.0355643 C17.2997591,33.0283536 17.4233453,33.0219922 17.5472111,33.0168 C19.8271147,39.3820289 23.7873893,43.0554749 29.431911,44.0595219 C31.1812508,37.1700789 33.3261059,30.23126 36.2445477,22.3454632 C36.6551468,21.236001 36.9653497,20.1235549 37.1751002,19.0080679 C35.1280433,18.2782267 33.1737321,16.230889 31.3227279,12.866681 L31.3232438,12.853158 L31.3232438,12.853158 L31.6286361,12.6858419 C33.4229372,15.9499094 35.288531,17.9396753 37.2372643,18.6554318 C38.108344,13.5048166 36.8392489,8.28920286 33.4252128,3.00310081 C33.5152617,2.92790851 33.611085,2.85839896 33.7114623,2.79383395 C37.1593838,8.12502739 38.4587501,13.3993299 37.6057999,18.6123228 Z" id="Leaf-base" fill="#FFFFFF" transform="translate(29.353807, 37.010925) rotate(-7.000000) translate(-29.353807, -37.010925) "></path>
                            </g>
                        </g>
                        <g id="Iphone-" transform="translate(128.520000, 8.208000)">
                            <g id="Iphone" fill="#2D3053" fill-rule="nonzero">
                                <path d="M55.4675476,2.79135713 L52.2741378,0.92318928 C52.0682016,0.802715092 51.8035937,0.871995769 51.6831195,1.077932 C51.6444048,1.14411009 51.624,1.21939932 51.624,1.29606982 L51.624,151.801519 C51.624,152.040106 51.817413,152.233519 52.056,152.233519 C52.1683429,152.233519 52.2762672,152.189755 52.3568813,152.11151 L55.7053311,148.861461 C58.0103181,146.624211 59.3110952,143.548912 59.3110952,140.336708 L59.3110952,9.4927947 C59.3110952,6.73487735 57.8480423,4.18396375 55.4675476,2.79135713 Z" id="Iphone-base"></path>
                                <path d="M3.26547671,11.7451235 L48.8414767,0.27286 C51.1551728,-0.309537132 53.5029203,1.09395801 54.0853174,3.40765415 C54.1721072,3.75244486 54.216,4.10663125 54.216,4.46217744 L54.216,148.681823 C54.216,151.067693 52.2818701,153.001823 49.896,153.001823 C49.5404538,153.001823 49.1862674,152.95793 48.8414767,152.87114 L3.26547671,141.398877 C1.34565735,140.915625 -1.5339127e-15,139.189266 0,137.209559 L0,15.9344409 C3.30125748e-15,13.9547343 1.34565735,12.2283751 3.26547671,11.7451235 Z" id="Iphone-base"></path>
                            </g>
                            <g id="Display-Store" transform="translate(3.024000, 5.320000)">
                                <path d="M3.27378593,9.69470481 L41.0737859,0.259458968 C43.3886324,-0.318349108 45.7335922,1.08979871 46.3114003,3.40464516 C46.396812,3.74682639 46.44,4.09817926 46.44,4.45085923 L46.44,140.053141 C46.44,142.439011 44.5058701,144.373141 42.12,144.373141 C41.76732,144.373141 41.4159672,144.329953 41.0737859,144.244541 L3.27378593,134.809295 C1.34991386,134.329078 -1.97820952e-13,132.600795 -1.98951966e-13,130.617895 L-1.98951966e-13,13.8861051 C-1.99187207e-13,11.9032051 1.34991386,10.1749219 3.27378593,9.69470481 Z" id="Mask" fill="#FFFFFF" fill-rule="nonzero"></path>
                                <g id="Poster" transform="translate(27.648000, 24.056000)" fill-rule="nonzero">
                                    <polygon id="Poster-base" fill="#374ABE" points="0 0 13.176 0 13.176 16.416 0 16.416"></polygon>
                                    <polygon id="Poster-base" fill="#FFFFFF" points="1.512 1.512 11.664 1.512 11.664 14.688 1.512 14.688"></polygon>
                                </g>
                                <g id="Poster" transform="translate(2.376000, 20.816000)" fill-rule="nonzero">
                                    <rect id="Poster-base" fill="#FF8D88" x="0" y="0" width="17.496" height="22.896"></rect>
                                    <polygon id="Poster-base备份" fill="#FFE4E5" points="0.858256341 35.2401799 42 33.0411322 42 41 0.858256341 39.312"></polygon>
                                    <polygon id="Poster-base备份-2" fill="#FFE4E5" points="0.858256341 42.508284 42 44.5 42 51 0.858256341 47.0544553"></polygon>
                                    <polygon id="Poster-base" fill="#FFFFFF" points="2.0077377 2.10884211 15.4882623 2.10884211 15.4882623 20.4858947 2.0077377 20.4858947"></polygon>
                                </g>
                                <path d="M3.8837377,74.9034871 L25.476,75.7292439 L25.476,82.1086287 L3.8837377,80.4147354 L3.8837377,74.9034871 Z" id="矩形" stroke="#374ABE"></path>
                                <path d="M3.8837377,86.5881136 L41.8837377,90.3884893 L41.8837377,100.438519 L3.8837377,93.6592236 L3.8837377,86.5881136 Z" id="矩形备份" stroke="#374ABE"></path>
                            </g>
                            <path d="M9.504,13.1737964 L40.608,5.49710107 L40.1232225,10.8965873 C39.9500691,12.8251818 38.5147562,14.4029677 36.6111049,14.7573271 L15.2261687,18.7380734 C13.071918,19.1390811 10.9586584,17.8637022 10.3095095,15.7708073 L9.504,13.1737964 L9.504,13.1737964 Z" id="Iphone-base" fill="#2D3053" fill-rule="nonzero"></path>
                        </g>
                        <g id="Girl" transform="translate(102.568000, 52.776000)">
                            <g id="Body" transform="translate(36.814547, 28.724716) rotate(-1.000000) translate(-36.814547, -28.724716) translate(27.814547, 9.224716)" fill-rule="nonzero">
                                <path d="M4.07204755,9.75815006 C9.31352066,6.26277836 8.26487754,8.00507537 11.4168106,10.2813725 C13.1275409,11.5168463 15.5495591,17.083845 12.4034058,28.7520618 C11.4168106,32.411072 17.0194682,32.7645364 17.496,35.3930762 C12.8478163,37.8504529 4.73777426,41.2490474 1.56407718,36.4772163 C2.83876251,34.1676642 2.98845321,32.0715069 3.09228739,27.8181801 C3.20739736,23.1029666 0.00158461587,19.4853256 0.76592227,16.841087 C1.39686465,14.6583316 3.28745101,10.2813725 4.07204755,9.75815006 Z" fill="#FFB0B6"></path>
                                <path d="M2.376,4.20678125 C2.8650997,2.36887293 4.18067825,1.03861251 6.32273565,0.216 L8.424,8.4800976 L3.62111005,10.368 C4.05327188,7.84268899 3.6382352,5.78894941 2.376,4.20678125 Z" id="Shadow" fill="#E9989E" transform="translate(5.400000, 5.292000) rotate(-2.000000) translate(-5.400000, -5.292000) "></path>
                                <path d="M4.07204755,9.75815006 C9.31352066,6.26277836 8.26487754,8.00507537 11.4168106,10.2813725 C13.1275409,11.5168463 15.5495591,17.083845 12.4034058,28.7520618 C11.4168106,32.411072 17.0194682,32.7645364 17.496,35.3930762 C15.8051908,36.2869641 6.85771154,36.8203076 4.65498455,37.5247161 C2.79885545,38.1182862 2.41688163,36.0532703 6.81676008,29.6182727 C9.76150877,25.3114605 0.3698162,18.2114224 0.76592227,16.841087 C1.39686465,14.6583316 3.28745101,10.2813725 4.07204755,9.75815006 Z" id="Shadow" fill="#E9989E"></path>
                                <path d="M3.71863241,10.0363545 C3.74310125,10.0201506 3.50919664,9.92591788 3.51159178,9.75810986 C3.51282914,9.67141844 3.67441544,9.5891492 3.6779931,9.4758563 C3.67954331,9.42676623 3.51833204,9.37273552 3.51924183,9.31983926 C3.53376148,8.4756468 3.63595568,7.20144772 3.71863241,7.14763221 C5.6501122,5.8904032 6.70435118,5.35506454 7.56947632,4.968 C8.81426464,6.32127905 9.57246859,8.69701087 11.4400237,10.0363545 C13.16261,11.2717317 16.2761116,17.0646773 13.1081543,28.7319824 C12.6232292,30.5179185 9.54979407,29.9680763 7.3647397,29.8585304 C5.07342355,29.7436571 2.33521563,30.0453573 2.38873349,27.8683805 C2.50464121,23.1535355 -0.594006559,20.0111373 0.175628246,17.3671053 C0.8109433,15.1845204 2.92859831,10.5595361 3.71863241,10.0363545 Z" id="Shirt" fill="#FFFFFF"></path>
                                <path d="M3.71863241,10.0363545 C3.77171695,10.0012005 3.41049152,9.90652895 3.52464104,9.74218192 C3.57620603,9.6679411 3.74653635,9.5407407 3.72866792,9.46142038 C3.70698097,9.36514916 3.48798559,9.19662887 3.56797252,9.21696211 C4.58867464,9.47643186 4.74515422,9.19157952 6.54521077,8.87933063 C6.63511341,8.97706882 3.58075253,9.72429289 3.86116911,9.81447869 C5.23567157,10.2565375 8.71067588,8.86838854 10.4964399,8.43170398 C11.9238655,8.9732154 14.2879887,11.6595684 13.7681217,11.8714196 C13.2546486,12.0806653 7.31226159,11.5395374 7.52706,9.69334147 C5.4185009,10.2281831 3.2132624,10.371024 3.71863241,10.0363545 Z" id="Shadow" fill="#E9EDF0"></path>
                                <path d="M9.46636831,13.0086038 C11.1935311,11.7960481 16.2761116,17.0646773 13.1081543,28.7319824 C12.6232292,30.5179185 9.54979407,29.9680763 7.3647397,29.8585304 C10.761283,29.9178173 8.20591804,28.2912256 8.36049032,27.103295 C8.36820168,27.0440311 9.61109109,23.9413894 8.41970028,23.7111587 C7.22830947,23.4809279 8.33758258,22.0853349 7.75603367,22.0233992 C5.3847156,21.770851 2.89115017,22.0644419 3.23658468,21.944512 C4.54183292,21.4913485 6.31057847,21.6379679 7.11486344,18.802979 C7.66097829,16.8780027 6.76554012,15.4874152 7.7472385,14.4478348 C8.21132619,13.9563839 8.76992352,13.4975433 9.46636831,13.0086038 Z" id="Shadow" fill="#E9EDF0"></path>
                            </g>
                            <g id="Foot" transform="translate(35.444339, 79.711271) rotate(-17.000000) translate(-35.444339, -79.711271) translate(15.944339, 44.711271)" fill-rule="nonzero">
                                <path d="M8.29172596,66.2174936 C6.81373926,67.7763612 7.72304723,64.5857204 6.78035296,61.114846 C5.54388699,58.49447 5.34002701,56.9677299 4.12621012,54.8620773 C3.18700343,53.2328011 5.79001467,50.9969325 7.91985515,54.7574909 C8.9784861,56.6266653 9.73814471,59.0445927 10.5768477,60.8765747 C10.8954649,61.4240254 11.1365758,62.8986127 10.5768477,63.3898105 C9.33655744,64.9763148 8.57485021,65.9188758 8.29172596,66.2174936 Z" id="Leg" fill="#FFB0B6" transform="translate(7.420526, 59.662063) rotate(-320.000000) translate(-7.420526, -59.662063) "></path>
                                <path d="M4.13335896,63.3709052 C4.58055439,64.6178564 5.36385288,64.6178564 6.48325444,63.3709052 C6.99417987,62.8017626 7.63611362,61.8588659 8.1617122,61.2128191 C8.51211126,60.7821212 8.62377944,60.2653989 8.49671674,59.6626522 C9.66942905,60.6060825 10.1737512,61.3975272 10.0096831,62.0369865 C9.93084537,62.3442582 10.1798006,67.0308695 9.85568515,67.0481106 C9.66583631,67.0582095 9.45782834,65.6718073 9.23166124,62.8889042 C7.64433156,65.3691457 6.57848933,66.8376504 6.03413455,67.2944183 C5.59565561,67.6623459 2.01734758,68.1973057 1.4089803,68.0223345 C0.800613016,67.8473633 0.913344399,66.9595177 1.4089803,66.3888345 C1.73940423,66.008379 2.64753046,65.0024026 4.13335896,63.3709052 Z" id="Shoes" fill="#0A1039" transform="translate(5.516897, 63.859596) rotate(-344.000000) translate(-5.516897, -63.859596) "></path>
                                <path d="M23.6919945,1.03237104 C24.2956712,0.204550377 25.8259526,1.99256206 28.2155816,1.66811975 C30.9172502,1.3013115 33.6267103,-0.333199368 34.0966322,0.0608575199 C35.4445518,1.19116652 37.5094208,1.92458938 38.0272043,3.33846023 C38.4577082,3.97303681 39.2766244,7.96709299 37.86782,12.7156736 C37.5642019,13.7390628 37.60179,18.5897591 31.7207394,18.5897591 C30.8678745,19.8240182 27.1149271,25.5661478 23.7404275,31.2086334 C19.5006574,38.2979336 18.3225388,51.2966388 16.8991902,54.1404354 C15.5283195,56.879383 6.6372825,53.8616321 7.31567605,50.4404192 C7.77473006,48.1253596 12.1806728,29.8383679 11.7340774,26.6454308 C11.2142511,22.9289284 14.3942857,17.5993945 21.6663728,5.51660638 C21.8963831,4.97621079 23.0883177,1.86019169 23.6919945,1.03237104 Z" id="Pants" fill="#020687"></path>
                            </g>
                            <g id="Papper-bag" transform="translate(13.787351, 58.340570) rotate(-1.000000) translate(-13.787351, -58.340570) translate(0.787351, 50.340570)">
                                <path d="M0.800156274,1.2647656 L22.6106747,1.31771503 C22.8491528,1.31856946 23.0420515,1.51228352 23.0419001,1.7507631 L23.018481,14.8324877 C23.0180544,15.0707723 22.8247667,15.2637143 22.5864817,15.2637143 L0.79910751,15.2637143 C0.560520498,15.2637143 0.36710751,15.0703013 0.36710751,14.8317143 L0.36710751,1.69676433 C0.36710751,1.45817732 0.560520498,1.26476433 0.79910751,1.26476433 C0.799457098,1.26476433 0.799806687,1.26476475 0.800156274,1.2647656 Z" id="Papper-bag-base备份" fill="#E7AE34" fill-rule="nonzero" transform="translate(11.704890, 8.263714) rotate(1.000000) translate(-11.704890, -8.263714) "></path>
                                <path d="M2.82595536,0.299823608 L24.6365485,0.3489911 C24.8750796,0.349669835 25.0680334,0.543432369 25.0677146,0.78196415 L25.0444142,12.8676804 C25.0439549,13.1059418 24.8506769,13.2988476 24.612415,13.2988476 L2.82498151,13.2988476 C2.5863945,13.2988476 2.39298151,13.1054346 2.39298151,12.8668476 L2.39298151,0.731822511 C2.39298151,0.493235499 2.5863945,0.299822511 2.82498151,0.299822511 C2.82530613,0.299822511 2.82563075,0.299822877 2.82595536,0.299823608 Z" id="Papper-bag-base" fill="#FFC23F" fill-rule="nonzero" transform="translate(13.730764, 6.798848) rotate(1.000000) translate(-13.730764, -6.798848) "></path>
                                <rect id="矩形" fill="#FFFFFF" x="5.43019037" y="6.99939078" width="16" height="4" rx="1"></rect>
                                <rect id="矩形备份-2" fill="#FFFFFF" x="5.51745241" y="2.0001523" width="4" height="4" rx="1"></rect>
                            </g>
                            <g id="Foot" transform="translate(53.680035, 69.688612) rotate(-1.000000) translate(-53.680035, -69.688612) translate(29.180035, 40.688612)" fill-rule="nonzero">
                                <path d="M28.8913085,28.4434366 C28.9124995,28.4748579 32.4867887,28.9596083 33.949053,31.467754 C35.297745,33.781095 37.4881101,40.256998 40.6202125,50.9237504 C39.6982361,51.947709 38.1043688,53.717878 37.4676272,54.4250512 C34.0409007,48.019373 31.5195673,43.6858771 29.903627,41.4245635 C24.8216533,34.3129547 23.5043553,32.9008533 20.6842975,31.467754 C18.9241134,30.5732622 26.0196358,15.6453495 28.8913085,28.4434366 Z" id="Leg" fill="#FFB0B6" transform="translate(30.513806, 38.854208) rotate(-41.000000) translate(-30.513806, -38.854208) "></path>
                                <g id="Pants" transform="translate(0.000000, -0.000000)">
                                    <path d="M12.9670109,0.0609090193 C14.321512,1.19217452 16.3964631,1.92621803 16.9167748,3.34128533 C20.9803345,6.25340411 21.6847125,16.7390958 24.0860443,28.5115273 C26.7880386,29.4727472 36.8751373,33.8627376 45.1685337,39.1353183 C46.5961809,40.0429543 42.5275524,51.1435378 40.646669,50.4530544 C38.365876,49.6157618 33.8325896,47.4442161 29.2714477,45.2280603 L28.2193946,44.7164348 C23.9758368,42.6512807 19.856777,40.6335664 17.6642672,39.7079583 C16.5082515,39.4466869 14.9431737,37.6017566 14.3164271,36.6045123 C12.9267281,34.3933001 10.1365156,29.2220762 7.05724498,17.1406796 C2.49742819,11.979788 0.732218148,9.99414948 0.236092407,9.27956026 L0.181581361,9.19828266 C0.0848298917,9.04791471 0.0604573491,8.96911655 0.0860572296,8.93391968 C-0.341682285,6.05465102 1.73500981,2.4218735 1.90033686,1.57951719 C2.03474479,0.894696634 4.65594821,1.99424822 7.05724498,1.66953136 C9.772105,1.30241271 12.4947945,-0.333481331 12.9670109,0.0609090193 Z" fill="#374ABE"></path>
                                    <path d="M42.3026973,42.5869962 C27.4985879,37.5740462 19.8505979,33.9033883 19.3587272,31.5750224 C18.6209213,28.0824735 16.7828854,9.62474843 15.684036,8.84670962 C14.9514698,8.32801709 12.7079278,6.02764551 8.95341013,1.94559488" id="Texture" stroke="#FFFFFF" stroke-width="0.5" stroke-linecap="round" stroke-linejoin="round" stroke-dasharray="0.8640000343322755,0.8640000343322755"></path>
                                    <path d="M6.29791501,6.33184453 C9.35823048,8.64482659 11.7825837,9.25203485 13.5709745,8.1534693" id="Texture" stroke="#FFFFFF" stroke-width="0.5" stroke-linecap="round" stroke-linejoin="round"></path>
                                </g>
                            </g>
                            <g id="Hand" transform="translate(31.801242, 39.465847) rotate(-1.000000) translate(-31.801242, -39.465847) translate(11.801242, 19.465847)" fill-rule="nonzero">
                                <path d="M21.7599721,35.0526724 C22.239277,36.9996044 22.3077941,37.959533 22.0742891,38.5993153 C21.8407842,39.2390976 21.5385674,38.7890344 21.4519345,38.6237477 C21.0791895,39.3497746 20.7645459,39.0401578 20.5408487,38.8085125 C20.1585957,39.3767828 19.6935122,39.1171954 19.5308556,38.6473421 C18.939704,40.4892632 18.5911195,38.6051154 18.6249459,38.3938966 C18.6759105,38.0756638 18.8763979,37.4395418 18.7230323,37.2501511 C18.5696668,37.0607604 17.8894837,38.6160239 17.5494002,38.5022546 C17.2093167,38.3884853 18.0895902,36.8960792 18.3198668,36.6028909 C18.8259012,35.9586074 20.2687899,34.8431004 20.578519,34.1207603 C22.0193529,30.7604952 22.8624831,26.1988705 22.8624831,20.2118328 C22.8624831,18.7529623 23.2463232,17.3312279 24.0140035,15.9466297 C18.2912662,10.7857659 15.1441735,7.76936011 13.9369709,6.89741224 C12.1261669,5.58949043 10.4737714,3.45045072 12.2716985,1.55054242 C14.0696256,-0.349365878 16.7180612,0.171297321 18.3301561,1.80745258 C19.4048861,2.89822275 22.9549861,8.62398293 28.2671803,15.9466297 C27.3804386,23.3177924 25.2113692,29.6864733 21.7599721,35.0526724 Z" fill="#FFB0B6" transform="translate(19.881637, 19.892522) rotate(-315.000000) translate(-19.881637, -19.892522) "></path>
                                <path d="M28.6135811,13.4715516 C26.3641702,11.4126025 25.2555467,9.76783449 24.5328773,9.24585914 C22.7220734,7.93793733 21.0696778,5.79889762 22.867605,3.89898932 C24.6655321,1.99908102 27.3139676,2.51974422 28.9260626,4.15589947 C29.5683857,4.80780917 31.3964655,6.80351679 33.6549084,10.1180576 C35.1752744,12.3493803 30.1217597,14.8520299 28.6135811,13.4715516 Z" id="Shirt" fill="#FFFFFF" transform="translate(28.014416, 8.276355) rotate(-315.000000) translate(-28.014416, -8.276355) "></path>
                                <path d="M27.4703363,1.54174488 C30.0851008,1.46963331 31.5896631,3.71052453 31.5726499,6.00738428 C31.5658711,6.92254508 31.4473404,9.62637108 30.7005664,13.5670657 C30.3871545,15.2209272 28.1924934,15.1426756 26.5621681,14.3542856 C26.3052953,14.2300675 28.9765128,14.2336271 29.2828611,13.5423195 C29.4341013,13.2010298 27.5865487,12.572738 28.0418565,12.1255475 C28.4414911,11.7330377 30.0488078,11.6060429 30.3305362,11.0219266 C31.5701753,8.45174379 31.0691397,3.78992059 27.4703363,1.54174488 Z" id="Shadow" fill="#E9EDF0"></path>
                            </g>
                            <g id="Head" transform="translate(23.144000, 0.576000)" fill-rule="nonzero">
                                <g id="Face-" transform="translate(6.721228, 8.422995) rotate(-1.000000) translate(-6.721228, -8.422995) translate(0.221228, 1.422995)">
                                    <path d="M1.80831076,13.3971203 C1.34668936,13.2106131 1.0757631,11.9039845 1.17282447,10.4010584 C1.18900382,10.1505327 1.12616717,10.016544 1.06150866,9.77558745 C0.935189087,9.30484468 -0.0874121658,9.16467186 0.0957937671,8.55654698 C0.330357558,7.77794732 2.02370257,6.44568548 2.36707135,5.59581792 C3.91076563,1.77504052 5.98148876,-0.991288153 9.80529747,0.553630846 C13.6291062,2.09854984 13.1970064,5.52692532 11.6533121,9.34770272 C10.1096178,13.1684801 2.48614229,13.670982 1.80831076,13.3971203 Z" id="Face-base" fill="#FFB0B6"></path>
                                    <g id="Lips" transform="translate(0.864000, 10.584000)">
                                        <path d="M0.909423754,0.244814792 C1.43215515,0.397859888 1.12527891,0.605485604 2.0671446,0.395445581 C1.5010292,0.761531621 1.28394947,1.01136678 0.267965194,0.667705556 C0.246170563,0.55669286 -0.0100046883,0.362876602 0.301243033,0.105013915 C0.331288599,0.0801217471 0.276576836,0.166504522 0.426934069,0.221751918 C0.504197427,0.250141636 0.73198821,0.192865282 0.909423754,0.244814792 Z" id="Lips-base" fill="#FF5932"></path>
                                        <path d="M2.01027989,0.429782911 C1.4044557,0.825340225 1.54626029,1.36280501 0.39286496,1.24805334 C0.255584713,1.23439529 0.0368598932,0.906877657 0.310114056,0.64132781 C0.528535414,0.429064774 1.4410271,0.636618998 2.01027989,0.429782911 Z" id="Lips-base" fill="#FF5932"></path>
                                        <path d="M1.94649795,0.472889222 C1.69606565,0.655261018 1.17691433,0.877027552 0.966812158,0.892346454 C0.832925759,0.902108335 0.1763776,0.770224322 0.254295346,0.701428149 C0.274059498,0.683977722 0.278527802,0.667301784 0.26815765,0.649693328 C0.429880243,0.693026766 0.502303411,0.61665093 0.601724656,0.633041561 C0.671132256,0.64448413 0.847362992,0.757518426 0.938146994,0.777570605 C1.24838523,0.846095372 1.65367203,0.62203933 1.95005895,0.459599368 C1.95230401,0.458368925 2.19693024,0.290517426 1.94649795,0.472889222 Z" id="Lips-base" fill="#F01B00"></path>
                                    </g>
                                    <path d="M3.99101955,4.63240806 C4.69486567,4.60782921 6.0229146,5.57589103 6.0263361,5.77184269 C6.02777792,5.8545104 4.67309348,5.21020521 3.37710346,5.4817316 C2.69983151,5.62362868 3.28717343,4.65698691 3.99101955,4.63240806 Z" id="Face-base" fill="#510000"></path>
                                    <path d="M3.26449462,6.85120589 C3.01732092,7.02542055 2.82958221,7.2558808 2.74569209,7.29265638 C2.66138788,7.32961348 2.96532599,6.5891956 3.40170155,6.37188697 C3.42139366,6.35866794 3.44287928,6.34864923 3.46604024,6.34225645 C3.47155251,6.34073498 3.47709738,6.33943609 3.48267033,6.33835573 C3.49116159,6.33555511 3.4996942,6.33296745 3.50826644,6.33060138 C4.00037467,6.19477204 4.93631,6.8789065 4.82808207,6.89356743 C4.76104362,6.9026487 4.33076876,6.66619651 3.90629267,6.64810057 C3.92739674,6.69107987 3.94563031,6.73741299 3.96022632,6.78641054 C4.04848371,7.08268291 3.97032256,7.36418077 3.78564851,7.41515361 C3.60097446,7.46612645 3.37971981,7.26727189 3.29146242,6.97099952 C3.27943115,6.93061157 3.27049246,6.89049818 3.26449462,6.85120589 L3.26449462,6.85120589 Z" id="Face-base" fill="#510000" transform="translate(3.784166, 6.867945) rotate(25.000000) translate(-3.784166, -6.867945) "></path>
                                    <path d="M8.41007093,8.84289558 C8.3971936,8.81025051 8.69766593,8.72416721 8.85128183,8.63432637 C8.95876249,8.57146731 9.00447514,8.39812303 8.91545904,8.37639729 C8.68346293,8.31977508 8.31839913,7.75475319 8.80908924,7.48226149 C9.09571841,7.3230896 9.42487755,7.17513852 9.67502348,7.15140064 C10.0457096,7.11622397 10.0992743,7.85258194 10.0406604,7.84152989 C9.98204651,7.83047784 9.93150169,7.30476751 9.70098351,7.32664279 C9.4893898,7.34672222 9.18204097,7.52031967 8.92063778,7.66722884 C8.59211102,7.85186162 8.896922,8.18008476 9.02688048,8.30001157 C9.13937839,8.40382561 9.1279624,8.53977758 9.01206921,8.65064472 C8.92560126,8.73336272 8.43195816,8.89838147 8.41007093,8.84289558 Z" id="Face-base" fill="#FF6868"></path>
                                </g>
                                <g id="glasses" transform="translate(4.863785, 8.127366) rotate(-1.000000) translate(-4.863785, -8.127366) translate(0.863785, 5.127366)" fill="#0A1039">
                                    <path d="M1.89256518,5.51141845 C1.39038729,5.51141845 1.13656518,4.34383676 1.13656518,2.81141845 C1.13656518,1.27900015 1.39038729,0.111418452 1.89256518,0.111418452 C2.39474308,0.111418452 2.64856518,1.27900015 2.64856518,2.81141845 C2.64856518,4.34383676 2.39474308,5.51141845 1.89256518,5.51141845 Z M1.92987483,5.08647519 C1.9250365,5.08398605 1.91200453,5.07941845 1.89256518,5.07941845 C1.87349144,5.07941845 1.86058632,5.08381586 1.8555372,5.08633258 C1.8644073,5.07709389 1.87775473,5.05934514 1.89256518,5.03433911 C1.90610927,5.057207 1.91842984,5.07400562 1.9285128,5.08443471 L1.92987483,5.08647519 Z M1.91064679,5.0014741 C1.96487376,4.89596814 2.0177653,4.73159719 2.06333275,4.52198689 C2.16040619,4.07544908 2.21656518,3.4646851 2.21656518,2.81141845 C2.21656518,2.1581518 2.16040619,1.54738782 2.06333275,1.10085001 C2.0177653,0.891239717 1.96487376,0.726868759 1.91064679,0.621362805 C1.90444692,0.60930013 1.8983928,0.598337152 1.89256518,0.58849779 C1.88673757,0.598337152 1.88068344,0.60930013 1.87448358,0.621362805 C1.8202566,0.726868759 1.76736507,0.891239717 1.72179762,1.10085001 C1.62472418,1.54738782 1.56856518,2.1581518 1.56856518,2.81141845 C1.56856518,3.4646851 1.62472418,4.07544908 1.72179762,4.52198689 C1.76736507,4.73159719 1.8202566,4.89596814 1.87448358,5.0014741 C1.88068344,5.01353677 1.88673757,5.02449975 1.89256518,5.03433911 C1.8983928,5.02449975 1.90444692,5.01353677 1.91064679,5.0014741 Z M1.92959316,0.53650432 C1.9307247,0.535940305 1.93146168,0.535470744 1.93178511,0.5351663 C1.93161797,0.535323632 1.93145011,0.535482915 1.93128154,0.535644147 L1.92959316,0.53650432 Z M1.85661757,0.538402196 C1.85549879,0.537245008 1.85440756,0.536166239 1.85334525,0.5351663 C1.85364102,0.535444705 1.85428263,0.535861191 1.85525554,0.536361718 L1.85661757,0.538402196 Z" id="glasses-base" transform="translate(1.892565, 2.811418) rotate(22.000000) translate(-1.892565, -2.811418) "></path>
                                    <polygon id="glasses-base" transform="translate(5.186369, 3.272724) rotate(22.000000) translate(-5.186369, -3.272724) " points="2.56818554 3.20652441 7.79324364 2.95674874 7.80455279 3.17284744 2.57798866 3.5886989"></polygon>
                                </g>
                                <path d="M14.7203064,1.26409569 C15.8253591,2.19181929 16.2649825,6.52371992 16.9815628,10.2985834 C17.4100739,12.5559319 20.6866842,11.1168542 21.297156,14.8334162 C22.0531773,19.4360856 15.4267943,21.9233981 13.006154,19.533347 C12.2878691,18.8241389 11.5210558,17.8572366 11.7578016,15.4664772 C11.1617079,18.1779308 11.8028732,18.9513492 13.682952,20.4695331 C11.5460278,19.6178053 10.9446591,18.2367299 11.0499158,16.8424974 C11.2038256,14.8038065 10.8728411,13.3955857 10.0569621,12.6178351 C9.60057609,12.4469977 9.26133973,12.0173725 9.03925307,11.3289597 C9.7608785,10.9820099 10.2253221,10.5385673 10.4325839,9.99863189 C10.7434766,9.18872876 10.6768442,8.45158933 10.262657,8.14188351 C9.98653221,7.93541296 9.46978791,8.16192901 8.71242411,8.82143166 C8.50822764,9.21846293 8.57617637,9.87754256 8.36229727,9.77756564 C8.11794858,9.66334584 7.94091071,7.62178569 7.6888328,7.52502205 C6.32687895,7.00221695 5.32024143,5.77386097 4.66892022,3.83995411 C3.99778567,4.53895737 3.17945767,5.87129569 2.2139362,7.83696907 C0.923494306,5.81438496 0.638942873,3.8635167 1.3602819,1.98436428 C1.76289028,0.935533589 3.7340613,-0.348548587 5.60690201,0.370367605 C8.32966515,1.41553845 12.612921,0.179718055 13.9976672,0.711272335 C14.287948,0.822700672 14.5263861,1.01345623 14.7203064,1.26409569 Z" id="Hair" fill="#510000"></path>
                            </g>
                        </g>
                    </g>
                </g>
            </g>
        </g>
    </g>
</svg>